<svg xmlns="http://www.w3.org/2000/svg" viewBox="0 0 44 44"><g id="svg_def-icon_voice" fill-rule="evenodd" fill="#18d1ff"><path d="M21.572.54c11.873 0 21.496 9.624 21.496 21.498 0 11.872-9.623 21.498-21.496 21.498C9.701 43.536.076 33.91.076 22.038.076 10.164 9.701.54 21.572.54zm0 2.687c-10.388 0-18.81 8.422-18.81 18.811s8.422 18.811 18.81 18.811c10.389 0 18.81-8.422 18.81-18.811S31.961 3.227 21.572 3.227zm0 8.957c.743 0 1.344.602 1.344 1.344v17.02a1.344 1.344 0 11-2.688 0v-17.02c0-.742.602-1.344 1.344-1.344zm-5.373 3.583c.741 0 1.344.602 1.344 1.344v9.854a1.344 1.344 0 01-2.688 0v-9.854a1.346 1.346 0 011.344-1.344zm10.747 0c.741 0 1.344.602 1.344 1.344v9.854a1.344 1.344 0 01-2.689 0v-9.854a1.346 1.346 0 011.345-1.344zM10.823 19.35c.744 0 1.345.602 1.345 1.344v2.687a1.343 1.343 0 11-2.688 0v-2.687c0-.742.602-1.344 1.343-1.344zm21.496 0c.744 0 1.345.602 1.345 1.344v2.687a1.343 1.343 0 11-2.687 0v-2.687c0-.742.602-1.344 1.342-1.344z"></path></g></svg>