<?xml version="1.0" encoding="UTF-8"?>
<svg width="79px" height="28px" viewBox="0 0 79 28" version="1.1" xmlns="http://www.w3.org/2000/svg" xmlns:xlink="http://www.w3.org/1999/xlink">
    <title>slogan-CLA45</title>
    <defs>
        <rect id="path-1" x="0" y="0" width="79" height="28"></rect>
    </defs>
    <g id="页面-1" stroke="none" stroke-width="1" fill="none" fill-rule="evenodd">
        <g id="CLA-45-4MATIC+" transform="translate(-148.000000, -248.000000)">
            <g id="天生硬核" transform="translate(148.000000, 248.000000)">
                <mask id="mask-2" fill="white">
                    <use xlink:href="#path-1"></use>
                </mask>
                <g id="蒙版"></g>
                <path d="M1.88183594,26.0400391 C1.9593099,26.0445964 2.0390625,26.0240885 2.12109375,25.9785156 L2.12109375,25.9785156 L2.83203125,25.5820312 C4.41796875,24.7070312 5.68945312,23.7317708 6.64648438,22.65625 C7.60351562,21.5807292 8.39648438,20.4117839 9.02539062,19.1494141 C9.65429688,17.8870443 10.0598958,16.0117187 10.2421875,13.5234375 L10.2421875,13.5234375 L10.3242188,12.3066406 C10.3242188,12.2428385 10.3333333,12.1425781 10.3515625,12.0058594 L10.3515625,12.0058594 L10.6796875,12.0058594 C10.734375,12.9264323 10.8870443,14.2047526 11.1376953,15.8408203 C11.3883464,17.476888 11.8190104,19.0218099 12.4296875,20.4755859 C13.0403646,21.929362 13.7444661,23.1097005 14.5419922,24.0166016 C15.3395182,24.9235026 15.8453776,25.4498698 16.0595703,25.5957031 C16.273763,25.7415365 16.4082031,25.8144531 16.4628906,25.8144531 C16.5084635,25.8235677 16.5859375,25.7141927 16.6953125,25.4863281 C16.8046875,25.2584635 16.9436849,25.0488281 17.1123047,24.8574219 C17.2809245,24.6660156 17.483724,24.483724 17.7207031,24.3105469 C17.9576823,24.1373698 18.1536458,24.0279948 18.3085938,23.9824219 L18.3085938,23.9824219 L18.7734375,23.8457031 C18.8919271,23.8092448 18.9488932,23.7226562 18.9443359,23.5859375 C18.9397786,23.4492188 18.9010417,23.3671875 18.828125,23.3398438 L18.828125,23.3398438 L18.3085938,23.1757812 C17.8984375,23.0572917 17.2444661,22.6699219 16.3466797,22.0136719 C15.4488932,21.3574219 14.4895833,20.1907552 13.46875,18.5136719 C12.4479167,16.8365885 11.8121745,15.4534505 11.5615234,14.3642578 C11.3108724,13.2750651 11.139974,12.4889323 11.0488281,12.0058594 L11.0488281,12.0058594 L18.3085938,12.0058594 C18.5911458,12.0058594 18.7369792,11.9283854 18.7460938,11.7734375 C18.7460938,11.7552083 18.7255859,11.7005208 18.6845703,11.609375 C18.6435547,11.5182292 18.577474,11.4088542 18.4863281,11.28125 L18.4863281,11.28125 L17.078125,9.59960938 C16.96875,9.48111979 16.8867188,9.42415365 16.8320312,9.42871094 C16.7773438,9.43326823 16.6861979,9.54492188 16.5585938,9.76367188 L16.5585938,9.76367188 L15.65625,11.28125 L10.3789062,11.28125 L10.3925781,10.9804688 L10.4472656,9.23046875 C10.4746094,8.37369792 10.4905599,7.6171875 10.4951172,6.9609375 C10.4996745,6.3046875 10.5110677,5.54817708 10.5292969,4.69140625 C10.702474,4.52734375 10.8574219,4.34049479 10.9941406,4.13085938 L10.9941406,4.13085938 L17.0234375,4.13085938 C17.2330729,4.13085938 17.3470052,4.03059896 17.3652344,3.83007813 C17.3652344,3.70247396 17.2695312,3.53385417 17.078125,3.32421875 L17.078125,3.32421875 L15.8066406,1.94335938 C15.6334635,1.76106771 15.514974,1.67220052 15.4511719,1.67659108 C15.3873698,1.6813151 15.3190104,1.75195313 15.2460938,1.88867188 L15.2460938,1.88867188 L14.3710938,3.36523438 L2.57226562,3.36523438 C2.38997396,3.36523438 2.28515625,3.49283854 2.2578125,3.74804688 C2.23046875,4.00325521 2.33528646,4.13085938 2.57226562,4.13085938 L2.57226562,4.13085938 L8.46484375,4.13085938 L8.4921875,6.76953125 C8.4921875,6.8515625 8.48307292,7.47591146 8.46484375,8.64257812 C8.44661458,9.80924479 8.43066406,10.5087891 8.41699219,10.7412109 C8.40332031,10.9736328 8.39648438,11.1536458 8.39648438,11.28125 L8.39648438,11.28125 L1.39648438,11.28125 C1.23242188,11.28125 1.15266927,11.4020182 1.15722656,11.6435547 C1.16178385,11.8850911 1.24153646,12.0058594 1.39648438,12.0058594 L1.39648438,12.0058594 L8.39648438,12.0058594 C8.36002604,12.4889323 8.3030599,13.1451823 8.22558594,13.9746094 C8.14811198,14.8040365 7.96582031,15.9684245 7.67871094,17.4677734 C7.39160156,18.9671224 6.72395833,20.4049479 5.67578125,21.78125 C4.62760417,23.1575521 3.62955729,24.219401 2.68164062,24.9667969 L2.68164062,24.9667969 L1.88867188,25.5820312 C1.77018229,25.6731771 1.71549479,25.7529297 1.72460938,25.8212891 C1.73372396,25.8896484 1.74283854,25.9420573 1.75195312,25.9785156 C1.76106771,26.014974 1.80436198,26.0354818 1.88183594,26.0400391 Z M38.1738281,25.1171875 C38.2285156,25.1171875 38.2786458,25.0875651 38.3242188,25.0283203 C38.3697917,24.9690755 38.3971354,24.9075521 38.40625,24.84375 C38.40625,24.7526042 38.3424479,24.6386719 38.2148438,24.5019531 L38.2148438,24.5019531 L36.7382812,22.9296875 C36.5742188,22.7747396 36.469401,22.694987 36.4238281,22.6904297 C36.3782552,22.6858724 36.3098958,22.765625 36.21875,22.9296875 L36.21875,22.9296875 L35.4257812,24.3789062 L30.7226562,24.3789062 L30.7226562,16.75 L36.3007812,16.75 C36.5195312,16.75 36.6266276,16.7203776 36.6220703,16.6611328 C36.617513,16.601888 36.6061198,16.5472005 36.5878906,16.4970703 C36.5696615,16.4469401 36.5195312,16.3717448 36.4375,16.2714844 L36.4375,16.2714844 L35.125,14.8085938 C34.9609375,14.6263021 34.8538411,14.5374349 34.8037109,14.5419922 C34.7535807,14.5465495 34.6783854,14.6354167 34.578125,14.8085938 L34.578125,14.8085938 L33.8671875,16.0390625 L30.7226562,16.0390625 L30.7226562,9.66796875 L37.0527344,9.66796875 C37.235026,9.66796875 37.3307292,9.60416667 37.3398438,9.4765625 C37.3398438,9.38541667 37.280599,9.27148438 37.1621094,9.13476562 L37.1621094,9.13476562 L35.9316406,7.75390625 C35.6490885,7.44401042 35.491862,7.30273438 35.4599609,7.33007812 C35.4280599,7.35742188 35.2617188,7.65364583 34.9609375,8.21875 L34.9609375,8.21875 L34.578125,8.94335938 L30.7226562,8.94335938 L30.7226562,3.40625 L31.1738281,2.90039062 C31.3196615,2.74544271 31.3880208,2.63151042 31.3789062,2.55859375 C31.3697917,2.48567708 31.3424479,2.42415365 31.296875,2.37402344 C31.2513021,2.32389323 31.1647135,2.27148438 31.0371094,2.21679688 L31.0371094,2.21679688 L29.3144531,1.61523438 C28.9954427,1.50585938 28.8040365,1.46484375 28.7402344,1.4921875 L28.7402344,1.4921875 L28.8359375,5.27929688 L28.8359375,8.94335938 L25.0761719,8.94335938 L25.1582031,8.65625 L25.4453125,7.64453125 C25.5364583,7.29817708 25.6731771,6.76953125 25.8554687,6.05859375 L25.8554687,6.05859375 L26.2929687,5.68945312 C26.4114583,5.58919271 26.4775391,5.52539062 26.4912109,5.49804688 C26.5048828,5.47070312 26.5117187,5.44563802 26.5117187,5.42285156 C26.5117187,5.4000651 26.5048828,5.37272135 26.4912109,5.34082031 C26.4775391,5.30891927 26.4114583,5.25195312 26.2929687,5.16992188 L26.2929687,5.16992188 L24.5019531,4.04882812 C24.2740885,3.91210938 24.1510417,3.84147135 24.1328125,3.83691406 C24.1145833,3.83235677 24.0917969,3.84375 24.0644531,3.87109375 L24.0644531,3.87109375 L24.0371094,4.43164062 L23.9003906,5.74414062 C23.8548177,6.19075521 23.7522786,6.95638021 23.5927734,8.04101562 C23.4332682,9.12565104 23.2600911,10.2330729 23.0732422,11.3632812 C22.8863932,12.4934896 22.6608073,13.5485026 22.3964844,14.5283203 C22.1321615,15.508138 21.9134115,16.2942708 21.7402344,16.8867188 L21.7402344,16.8867188 L21.3984375,18.0078125 C21.3893229,18.0533854 21.382487,18.1194661 21.3779297,18.2060547 C21.3733724,18.2926432 21.4098307,18.3336589 21.4873047,18.3291016 C21.5647786,18.3245443 21.6217448,18.28125 21.6582031,18.1992188 L21.6582031,18.1992188 L22.0683594,17.296875 C22.3782552,16.6223958 22.5947266,16.1416016 22.7177734,15.8544922 C22.8408203,15.5673828 23.125651,14.8108724 23.5722656,13.5849609 C24.0188802,12.3590495 24.3037109,11.5524089 24.4267578,11.1650391 C24.5498047,10.7776693 24.702474,10.2786458 24.8847656,9.66796875 L24.8847656,9.66796875 L28.8359375,9.66796875 L28.8359375,16.0390625 L23.9824219,16.0390625 C23.827474,16.0390625 23.7545573,16.1575521 23.7636719,16.3945312 C23.7727865,16.6315104 23.8457031,16.75 23.9824219,16.75 L23.9824219,16.75 L28.8359375,16.75 L28.8359375,24.3789062 L21.3984375,24.3789062 C21.234375,24.3789062 21.1523437,24.5019531 21.1523437,24.7480469 C21.1523437,24.9941406 21.234375,25.1171875 21.3984375,25.1171875 L21.3984375,25.1171875 L38.1738281,25.1171875 Z M45.3378906,26.1083984 C45.3652344,26.1038411 45.3925781,26.0970052 45.4199219,26.0878906 L45.4199219,26.0878906 L46.2539062,25.8007812 C46.8554688,25.6002604 47.6279297,25.2311198 48.5712891,24.6933594 C49.5146484,24.155599 50.4101562,23.3717448 51.2578125,22.3417969 C51.8229167,22.9798177 52.3219401,23.4651693 52.7548828,23.7978516 C53.1878255,24.1305339 53.8509115,24.5566406 54.7441406,25.0761719 C55.6373698,25.5957031 56.2571615,25.8509115 56.6035156,25.8417969 C56.6855469,25.8417969 56.7402344,25.7916667 56.7675781,25.6914062 L56.7675781,25.6914062 L56.8359375,25.3632812 C56.8723958,25.171875 56.9453125,24.9554036 57.0546875,24.7138672 C57.1640625,24.4723307 57.2825521,24.2763672 57.4101562,24.1259766 C57.5377604,23.9755859 57.688151,23.8365885 57.8613281,23.7089844 L57.8613281,23.7089844 L58.2578125,23.421875 C58.3580729,23.3580729 58.4082031,23.2851562 58.4082031,23.203125 C58.4082031,23.09375 58.3580729,23.0390625 58.2578125,23.0390625 L58.2578125,23.0390625 L57.7109375,23.0390625 C56.2890625,23.0390625 55.1429036,22.8157552 54.2724609,22.3691406 C53.4020182,21.922526 52.6705729,21.4667969 52.078125,21.0019531 L52.078125,21.0019531 L52.3789062,20.03125 C52.5065104,19.6575521 52.6044922,19.2382812 52.6728516,18.7734375 C52.7412109,18.3085938 52.8027344,17.8004557 52.8574219,17.2490234 C52.9121094,16.6975911 52.9417318,16.3489583 52.9462891,16.203125 C52.9508464,16.0572917 52.9576823,15.9160156 52.9667969,15.7792969 L52.9667969,15.7792969 L55.2226562,15.7792969 L55.2226562,17.1601562 C55.2226562,17.4882812 55.4003906,17.6432292 55.7558594,17.625 C56.485026,17.6067708 56.8815104,17.2695312 56.9453125,16.6132812 L56.9453125,16.6132812 L56.8769531,15.21875 L56.8769531,8.68359375 L57.3007812,8.02734375 C57.3554688,7.9453125 57.3805339,7.87695312 57.3759766,7.82226562 C57.3714193,7.76757812 57.3577474,7.71972656 57.3349609,7.67871094 C57.3121745,7.63769531 57.2552083,7.56705729 57.1640625,7.46679688 L57.1640625,7.46679688 L55.90625,6.27734375 C55.7877604,6.16796875 55.7125651,6.1155599 55.6806641,6.12011719 C55.648763,6.12467448 55.610026,6.17708333 55.5644531,6.27734375 L55.5644531,6.27734375 L55.03125,7.26171875 L53.1445312,7.26171875 L53.1445312,4.07617188 C53.2903646,3.94856771 53.4088542,3.78450521 53.5,3.58398438 L53.5,3.58398438 L57.8613281,3.58398438 C57.9342448,3.58398438 57.9957682,3.55891927 58.0458984,3.50878906 C58.0960286,3.45865885 58.1210938,3.41080729 58.1210938,3.36523438 C58.1210938,3.31966146 58.1074219,3.26497396 58.0800781,3.20117188 C58.0527344,3.13736979 57.9798177,3.04166667 57.8613281,2.9140625 L57.8613281,2.9140625 L56.7539062,1.77929688 C56.5625,1.58789063 56.4462891,1.49446615 56.4052734,1.49886446 C56.3642578,1.50358073 56.2981771,1.59700521 56.2070312,1.77929688 L56.2070312,1.77929688 L55.6328125,2.83203125 L47.3476562,2.83203125 C47.1471354,2.83203125 47.0559896,2.92545573 47.0742188,3.11230469 C47.0924479,3.29915365 47.15625,3.44270833 47.265625,3.54296875 L47.265625,3.54296875 L47.375,3.58398438 L51.53125,3.58398438 L51.5585938,4.74609375 L51.6132812,6.33203125 L51.6132812,6.33203125 L51.6132812,7.26171875 L49.5488281,7.26171875 L48.2089844,6.37304688 C48.0996094,6.30924479 48.0221354,6.29557292 47.9765625,6.33203125 L47.9765625,6.33203125 L48.0449219,8.6015625 L48.0449219,14.4394531 L47.9765625,16.421875 C47.9856771,16.5859375 48.0198568,16.7158203 48.0791016,16.8115234 C48.1383464,16.9072266 48.2978516,16.9459635 48.5576172,16.9277344 C48.8173828,16.9095052 49.047526,16.8251953 49.2480469,16.6748047 C49.4485677,16.5244141 49.5488281,16.3763021 49.5488281,16.2304688 L49.5488281,16.2304688 L49.5488281,15.7792969 L51.4492188,15.7792969 L51.4082031,16.3671875 L51.3945312,16.6679688 C51.3763021,16.9414062 51.3352865,17.3766276 51.2714844,17.9736328 C51.2076823,18.570638 51.1484375,18.9830729 51.09375,19.2109375 C51.0390625,19.4388021 50.9752604,19.6848958 50.9023438,19.9492188 C50.328125,19.265625 49.9042969,18.686849 49.6308594,18.2128906 L49.6308594,18.2128906 L49.1660156,17.4199219 C49.0839844,17.3014323 49.0201823,17.2626953 48.9746094,17.3037109 C48.9290365,17.3447266 48.9039714,17.3994141 48.8994141,17.4677734 C48.8948568,17.5361328 48.9016927,17.5885417 48.9199219,17.625 L48.9199219,17.625 L49.234375,18.609375 C49.3072917,18.8372396 49.4417318,19.2086589 49.6376953,19.7236328 C49.8336589,20.2386068 50.077474,20.7558594 50.3691406,21.2753906 C49.9134115,22.0136719 49.5192057,22.5582682 49.1865234,22.9091797 C48.8538411,23.2600911 48.4117839,23.6611328 47.8603516,24.1123047 C47.3089193,24.5634766 46.7233073,24.9485677 46.1035156,25.2675781 L46.1035156,25.2675781 L45.3789062,25.6503906 C45.2421875,25.7233073 45.1738281,25.8030599 45.1738281,25.8896484 C45.1738281,25.976237 45.1943359,26.0354818 45.2353516,26.0673828 C45.2763672,26.0992839 45.3105469,26.1129557 45.3378906,26.1083984 Z M42.3147656,23.2181641 L42.4121094,23.2167969 C42.8496094,23.1985677 43.1276042,23.0823568 43.2460938,22.8681641 C43.3645833,22.6539714 43.4238281,22.4785156 43.4238281,22.3417969 L43.4238281,22.3417969 L43.4238281,19.7988281 L45.1191406,19.7988281 L45.1191406,21.7265625 C45.1191406,21.9635417 45.264974,22.0820312 45.5566406,22.0820312 C46.1764323,22.1002604 46.5592448,21.8313802 46.7050781,21.2753906 L46.7050781,21.2753906 L46.6503906,19.4570312 L46.6503906,12.6621094 L47.046875,12.2519531 C47.0924479,12.1972656 47.1152344,12.1334635 47.1152344,12.0605469 C47.1152344,11.9876302 47.0742188,11.9010417 46.9921875,11.8007812 L46.9921875,11.8007812 L45.9257812,10.6660156 C45.7890625,10.5292969 45.702474,10.4586589 45.6660156,10.4541016 C45.6295573,10.4495443 45.5748698,10.5201823 45.5019531,10.6660156 L45.5019531,10.6660156 L45.078125,11.5273438 L43.2324219,11.5273438 L42.6855469,11.0625 C43.2779948,9.46744792 43.6152344,8.56054688 43.6972656,8.34179688 L43.6972656,8.34179688 L44.3125,6.42773438 C44.3945312,6.17252604 44.5266927,5.78515625 44.7089844,5.265625 L44.7089844,5.265625 L44.9824219,5.00585938 C45.000651,4.99674479 45.046224,4.90559896 45.1191406,4.73242188 L45.1191406,4.73242188 L47.4433594,4.73242188 C47.5800781,4.73242188 47.6529948,4.66861979 47.6621094,4.54101562 C47.6621094,4.44075521 47.5983073,4.31770833 47.4707031,4.171875 L47.4707031,4.171875 L46.390625,2.9140625 C46.2447917,2.75 46.1627604,2.6702474 46.1445312,2.67461993 C46.1263021,2.67936198 46.0761719,2.75911458 45.9941406,2.9140625 L45.9941406,2.9140625 L45.40625,3.98046875 L40.3476562,3.98046875 C40.1653646,3.98046875 40.0764974,4.07617188 40.0810547,4.26757812 C40.085612,4.45898438 40.1061198,4.57519531 40.1425781,4.61621094 C40.1790365,4.65722656 40.2291667,4.69140625 40.2929688,4.71875 L40.2929688,4.71875 L40.3613281,4.73242188 L42.9863281,4.73242188 C42.5579427,6.87434896 42.2594401,8.33268229 42.0908203,9.10742188 C41.9222005,9.88216146 41.6624349,10.9166667 41.3115234,12.2109375 C40.960612,13.5052083 40.7395833,14.3072917 40.6484375,14.6171875 L40.6484375,14.6171875 L40.265625,15.8339844 C40.2382812,15.906901 40.226888,15.9593099 40.2314453,15.9912109 C40.2360026,16.023112 40.2451172,16.0664062 40.2587891,16.1210938 C40.2724609,16.1757812 40.3066406,16.1985677 40.3613281,16.1894531 C40.4251302,16.1894531 40.4798177,16.1347656 40.5253906,16.0253906 L40.5253906,16.0253906 L40.9902344,15.0410156 C41.281901,14.4394531 41.610026,13.6875 41.9746094,12.7851562 L41.9746094,12.7851562 L41.9746094,20.4140625 L41.8925781,22.8613281 C41.938151,22.9889323 41.9928385,23.0823568 42.0566406,23.1416016 C42.1204427,23.2008464 42.2389323,23.2259115 42.4121094,23.2167969 L42.3147656,23.2181641 Z M55.2226562,11.0078125 L53.1171875,11.0078125 L53.1171875,10.2832031 L53.1308594,9.55859375 C53.1308594,9.3671875 53.1354167,8.85221354 53.1445312,8.01367188 L53.1445312,8.01367188 L55.2226562,8.01367188 L55.2226562,11.0078125 Z M51.6132812,11.0078125 L49.5488281,11.0078125 L49.5488281,8.01367188 L51.6132812,8.01367188 L51.6132812,11.0078125 Z M55.2226562,15.0273438 L53.0078125,15.0273438 L53.0214844,14.7265625 C53.030599,14.5533854 53.0465495,14.1386719 53.0693359,13.4824219 C53.0921224,12.8261719 53.1057943,12.4091797 53.1103516,12.2314453 C53.1149089,12.0537109 53.1171875,11.8964844 53.1171875,11.7597656 L53.1171875,11.7597656 L55.2226562,11.7597656 L55.2226562,15.0273438 Z M51.4902344,15.0273438 L49.5488281,15.0273438 L49.5488281,11.7597656 L51.5722656,11.7597656 L51.5585938,12.0605469 L51.5449219,13.3867188 L51.4902344,14.7265625 L51.4902344,14.7265625 L51.4902344,15.0273438 Z M45.1191406,19.046875 L43.4238281,19.046875 L43.4238281,12.2792969 L45.1191406,12.2792969 L45.1191406,19.046875 Z M63.7589264,26.0617357 L63.8837891,26.0605469 C64.2347005,26.0514323 64.4580078,25.9488932 64.5537109,25.7529297 C64.6494141,25.5569661 64.7109375,25.3815104 64.7382812,25.2265625 L64.7382812,25.2265625 L64.65625,23.09375 L64.65625,12.0332031 C64.9570312,12.3613281 65.1507161,12.6575521 65.2373047,12.921875 C65.3238932,13.1861979 65.3922526,13.5143229 65.4423828,13.90625 C65.492513,14.2981771 65.5449219,14.5852865 65.5996094,14.7675781 C65.6542969,14.9498698 65.7272135,15.0911458 65.8183594,15.1914062 C65.9459635,15.3554688 66.1282552,15.4352214 66.3652344,15.4306641 C66.6022135,15.4261068 66.805013,15.3076172 66.9736328,15.0751953 C67.1422526,14.8427734 67.2265625,14.5214844 67.2265625,14.1113281 C67.2265625,13.6738281 67.1240234,13.2750651 66.9189453,12.9150391 C66.7138672,12.555013 66.4313151,12.2724609 66.0712891,12.0673828 C65.711263,11.8623047 65.2395833,11.7005208 64.65625,11.5820312 L64.65625,11.5820312 L64.65625,8.3828125 L65.0527344,8.3828125 L65.0527344,8.35546875 L67.0214844,8.35546875 C67.1035156,8.35546875 67.1513672,8.3030599 67.1650391,8.19824219 C67.1787109,8.09342448 67.0488281,7.86328125 66.7753906,7.5078125 L66.7753906,7.5078125 L65.8457031,6.38671875 C65.7636719,6.28645833 65.7044271,6.23860677 65.6679688,6.24316406 C65.6315104,6.24772135 65.5540365,6.37304688 65.4355469,6.61914062 L65.4355469,6.61914062 L64.9296875,7.63085938 L64.65625,7.63085938 L64.65625,3.22851562 L65.0800781,2.6953125 C65.1985677,2.54036458 65.2555339,2.421875 65.2509766,2.33984375 C65.2464193,2.2578125 65.1757812,2.18945312 65.0390625,2.13476562 L65.0390625,2.13476562 L63.3574219,1.57421875 L63.1933594,1.51953125 C63.1660156,1.52864583 63.1386719,1.55598958 63.1113281,1.6015625 L63.1113281,1.6015625 L63.1933594,3.8984375 L63.1933594,7.63085938 L60.4042969,7.63085938 C60.2311198,7.63085938 60.1490885,7.7561849 60.1582031,8.00683594 C60.1673177,8.25748698 60.249349,8.3828125 60.4042969,8.3828125 L60.4042969,8.3828125 L63.1113281,8.3828125 C63.0657552,8.63802083 62.9677734,9.203125 62.8173828,10.078125 C62.6669922,10.953125 62.4915365,11.8440755 62.2910156,12.7509766 C62.0904948,13.6578776 61.9013672,14.4417318 61.7236328,15.1025391 C61.5458984,15.7633464 61.3248698,16.5426432 61.0605469,17.4404297 C60.796224,18.3382161 60.6002604,18.9511719 60.4726562,19.2792969 L60.4726562,19.2792969 L60.171875,20.0585938 C60.1536458,20.1315104 60.1445312,20.2089844 60.1445312,20.2910156 C60.1445312,20.3730469 60.1536458,20.4231771 60.171875,20.4414062 C60.1901042,20.4596354 60.2128906,20.46875 60.2402344,20.46875 C60.2766927,20.4778646 60.3177083,20.4459635 60.3632812,20.3730469 L60.3632812,20.3730469 L60.71875,19.8125 C61.265625,18.9466146 62.0904948,17.3059896 63.1933594,14.890625 L63.1933594,14.890625 L63.1933594,23.2578125 L63.1386719,25.4726562 C63.156901,25.6822917 63.1979167,25.8349609 63.2617188,25.9306641 C63.3255208,26.0263672 63.5328776,26.0696615 63.8837891,26.0605469 L63.7589264,26.0617357 Z M71.6699219,6.31152344 C71.9615885,6.30696615 72.2145182,6.15885417 72.4287109,5.8671875 C72.6429036,5.57552083 72.7545573,5.19726562 72.7636719,4.73242188 C72.7727865,3.88476562 72.4651693,3.23763021 71.8408203,2.79101562 C71.2164714,2.34440104 70.7584635,2.07096354 70.4667969,1.97070312 C70.1751302,1.87044271 70.0065104,1.8203125 69.9609375,1.8203125 C69.8697917,1.83854167 69.8196615,1.87044271 69.8105469,1.91601562 L69.8105469,1.91601562 L69.8105469,1.94335938 L69.8242188,1.99804688 C69.8333333,2.08007812 69.8720703,2.15983073 69.9404297,2.23730469 C70.0087891,2.31477865 70.0999349,2.43554688 70.2138672,2.59960938 C70.3277995,2.76367188 70.4371745,2.95963542 70.5419922,3.1875 C70.6468099,3.41536458 70.703776,3.79589844 70.7128906,4.32910156 C70.7220052,4.86230469 70.7379557,5.22916667 70.7607422,5.4296875 C70.7835286,5.63020833 70.8632812,5.81705729 71,5.99023438 C71.1549479,6.20898438 71.3782552,6.31608073 71.6699219,6.31152344 Z M66.1601562,21.0019531 C66.2057292,21.0201823 66.2513021,21.015625 66.296875,20.9882812 L66.296875,20.9882812 L66.84375,20.6738281 C68.5846354,19.6529948 70.0292969,18.4658203 71.1777344,17.1123047 C72.3261719,15.7587891 73.5703125,13.9427083 74.9101562,11.6640625 L74.9101562,11.6640625 L75.4570312,11.5546875 C75.59375,11.5273438 75.664388,11.4726562 75.6689453,11.390625 C75.6735026,11.3085938 75.6028646,11.1809896 75.4570312,11.0078125 L75.4570312,11.0078125 L74.1992188,9.59960938 C73.9986979,9.38997396 73.875651,9.30338542 73.8300781,9.33984375 L73.8300781,9.33984375 L73.6660156,9.79101562 L73.40625,10.4746094 C73.2148438,10.985026 72.781901,11.9238281 72.1074219,13.2910156 C71.1503906,13.1634115 70.1933594,13.0266927 69.2363281,12.8808594 C70.530599,10.7845052 71.1982422,9.69759115 71.2392578,9.62011719 C71.2802734,9.54264323 71.3736979,9.37174479 71.5195312,9.10742188 L71.5195312,9.10742188 L71.984375,8.875 C72.0846354,8.82942708 72.1416016,8.76106771 72.1552734,8.66992188 C72.1689453,8.57877604 72.0891927,8.47395833 71.9160156,8.35546875 L71.9160156,8.35546875 L70.5761719,7.5078125 L77.3710938,7.5078125 C77.4348958,7.5078125 77.4713542,7.44856771 77.4804688,7.33007812 C77.4895833,7.21158854 77.4257812,7.06575521 77.2890625,6.89257812 L77.2890625,6.89257812 L76.03125,5.375 C75.921875,5.23828125 75.844401,5.17675781 75.7988281,5.19042969 C75.7532552,5.20410156 75.6757812,5.31119792 75.5664062,5.51171875 L75.5664062,5.51171875 L74.8828125,6.7421875 L67.2539062,6.7421875 C67.0351562,6.7421875 66.9371745,6.83789062 66.9599609,7.02929688 C66.9827474,7.22070312 67.0146484,7.33919271 67.0556641,7.38476562 C67.0966797,7.43033854 67.1490885,7.46679688 67.2128906,7.49414062 L67.2128906,7.49414062 L67.28125,7.5078125 L70.1523438,7.5078125 C69.9518229,8.26432292 69.6578776,9.15755208 69.2705078,10.1875 C68.883138,11.2174479 68.59375,11.8645833 68.4023438,12.1289062 C68.2109375,12.3932292 68.0263672,12.5413411 67.8486328,12.5732422 C67.6708984,12.6051432 67.5683594,12.6370443 67.5410156,12.6689453 C67.5136719,12.7008464 67.5,12.7259115 67.5,12.7441406 L67.5,12.7441406 L67.5683594,13.0175781 L67.8964844,14.3847656 C67.9511719,14.6582031 68.0013021,14.8085938 68.046875,14.8359375 L68.046875,14.8359375 L68.3066406,14.7539062 L68.9628906,14.5488281 C69.4277344,14.4121094 70.3346354,14.2252604 71.6835938,13.9882812 C70.5898438,15.7838542 69.7148438,17.0667318 69.0585938,17.8369141 C68.4023438,18.6070964 67.6139323,19.3841146 66.6933594,20.1679688 L66.6933594,20.1679688 L66.1738281,20.6191406 C66.1009115,20.6829427 66.0667318,20.7399089 66.0712891,20.7900391 C66.0758464,20.8401693 66.0826823,20.8857422 66.0917969,20.9267578 C66.1009115,20.9677734 66.1236979,20.9928385 66.1601562,21.0019531 Z M66.0029297,25.3291016 C66.0439453,25.3336589 66.0872396,25.3268229 66.1328125,25.3085938 L66.1328125,25.3085938 L66.6113281,25.1171875 C67.9967448,24.5703125 69.1451823,23.9414062 70.0566406,23.2304688 C70.968099,22.5195312 71.8111979,21.7903646 72.5859375,21.0429688 C73.0963542,21.453125 73.4677734,21.851888 73.7001953,22.2392578 C73.9326172,22.6266276 74.1285807,23.0686849 74.2880859,23.5654297 C74.4475911,24.0621745 74.5592448,24.3948568 74.6230469,24.5634766 C74.686849,24.7320964 74.7985026,24.8916016 74.9580078,25.0419922 C75.117513,25.1923828 75.3180339,25.2652995 75.5595703,25.2607422 C75.8011068,25.2561849 75.999349,25.101237 76.1542969,24.7958984 C76.3092448,24.4905599 76.3844401,23.9436849 76.3798828,23.1552734 C76.3753255,22.366862 75.889974,21.7949219 74.9238281,21.4394531 C73.9576823,21.0839844 73.2832031,20.8470052 72.9003906,20.7285156 L72.9003906,20.7285156 L73.5839844,19.9492188 C73.9121094,19.5846354 74.7096354,18.5136719 75.9765625,16.7363281 L75.9765625,16.7363281 L76.5097656,16.6132812 C76.6282552,16.5859375 76.6897786,16.5426432 76.6943359,16.4833984 C76.6988932,16.4241536 76.6601562,16.3398438 76.578125,16.2304688 L76.578125,16.2304688 L75.3886719,14.7949219 C75.1790365,14.5488281 75.0628255,14.421224 75.0400391,14.4121094 C75.0172526,14.4029948 74.9967448,14.4029948 74.9785156,14.4121094 L74.9785156,14.4121094 L74.8007812,14.8632813 L74.4316406,15.6152344 C74.0397135,16.389974 73.4039714,17.4358724 72.5244141,18.7529297 C71.6448568,20.069987 70.6992188,21.2093099 69.6875,22.1708984 C68.6757812,23.132487 67.6640625,23.9231771 66.6523438,24.5429688 L66.6523438,24.5429688 L65.9960938,24.9394531 C65.9322917,24.985026 65.898112,25.0419922 65.8935547,25.1103516 C65.8889974,25.1787109 65.8958333,25.2311198 65.9140625,25.2675781 C65.9322917,25.3040365 65.9619141,25.3245443 66.0029297,25.3291016 Z" fill="#FFFFFF" fill-rule="nonzero" mask="url(#mask-2)"></path>
            </g>
        </g>
    </g>
</svg>