<?xml version="1.0" encoding="UTF-8"?>
<svg width="344px" height="56px" viewBox="0 0 344 56" version="1.1" xmlns="http://www.w3.org/2000/svg" xmlns:xlink="http://www.w3.org/1999/xlink">
    <title>新一代梅赛德斯-AMG-02</title>
    <g id="页面-1" stroke="none" stroke-width="1" fill="none" fill-rule="evenodd">
        <g id="新一代梅赛德斯-AMG-02" transform="translate(0.650000, 0.880000)" fill="#FFFFFF" fill-rule="nonzero">
            <rect id="矩形" opacity="0" x="0" y="49.88" width="336.91" height="4.28"></rect>
            <rect id="矩形" opacity="0" x="0.35" y="1.12" width="342.92" height="5.8"></rect>
            <rect id="矩形" opacity="0" x="-5.77315973e-15" y="0" width="5.78" height="54.16"></rect>
            <rect id="矩形" opacity="0" x="338.05" y="0.12" width="4.87" height="54.04"></rect>
            <g id="编组" transform="translate(7.730000, 7.770000)">
                <path d="M8.09,29.11 L6.45,34.68 C6.01,36.17 5.79,37.14 5.79,37.58 C5.79,38.56 6.83,39.12 8.92,39.27 L8.92,40.68 C7.24,40.49 5.75,40.39 4.46,40.39 C3.17,40.39 1.68,40.49 4.4408921e-15,40.68 L4.4408921e-15,39.27 C1.42,39.16 2.37,38.87 2.86,38.42 C3.35,37.97 3.86,36.88 4.4,35.16 L15.21,1.77635684e-15 L24.97,35.79 C25.41,37.17 25.87,38.05 26.36,38.45 C26.85,38.84 27.82,39.12 29.27,39.27 L29.27,40.68 C27.07,40.37 25.17,40.22 23.56,40.22 C21.95,40.22 19.99,40.37 17.79,40.68 L17.79,39.27 C19.67,39.04 20.6,38.48 20.6,37.58 C20.6,37.1 20.5,36.41 20.31,35.51 L18.67,29.11 L8.08,29.11 L8.09,29.11 Z M8.63,27.27 L18.27,27.27 L13.85,9.93 L8.63,27.27 L8.63,27.27 Z" id="形状"></path>
                <path d="M56.23,41.4 L56.23,30.35 L43.54,30.35 L56.28,1.24 L60.47,1.24 L60.47,26.64 L65.29,26.64 L65.29,30.34 L60.47,30.34 L60.47,41.39 L56.22,41.39 L56.23,41.4 Z M56.23,26.65 L56.23,5.17 L47.02,26.64 L56.23,26.64 L56.23,26.65 Z" id="形状"></path>
                <path d="M87.37,6.29 L75.37,6.29 L73.85,17.63 C75.65,15.43 77.74,14.34 80.14,14.36 C82.88,14.36 85.09,15.54 86.79,17.9 C88.48,20.26 89.33,23.35 89.33,27.16 C89.33,29.47 88.95,31.68 88.18,33.78 C87.41,35.88 86.4,37.52 85.14,38.7 C83.53,40.27 81.58,41.04 79.28,41.0300961 C74.19,41.0300961 71.46,37.78 71.1,31.27 L72.85,31.27 C73.23,35.79 75.04,38.04 78.27,38.04 C80.22,38.04 81.81,37.05 83.02,35.07 C84.24,33.09 84.84,30.47 84.84,27.22 C84.84,23.97 84.28,21.67 83.16,19.87 C82.04,18.07 80.54,17.17 78.67,17.17 C76.35,17.17 74.54,18.64 73.22,21.59 L71.5,21.45 L74.2,2.19 L87.81,2.19 L87.38,6.29 L87.37,6.29 Z" id="路径"></path>
                <path d="M108.16,28.62 L109.48,28.62 C110.42,35.68 113.12,39.21 117.57,39.21 C119.41,39.21 120.92,38.49 122.12,37.06 C123.31,35.63 123.91,33.8 123.91,31.58 C123.91,29.63 123.47,28.03 122.59,26.79 C121.71,25.55 120,24.14 117.45,22.57 C113.85,20.37 111.48,18.51 110.34,16.99 C109.2,15.47 108.63,13.42 108.63,10.83 C108.63,7.85 109.47,5.42 111.16,3.57 C112.85,1.72 115.02,0.79 117.68,0.79 C120.15,0.79 122.19,1.79 123.79,3.78 L125.14,0.54 L126.03,0.54 L126.03,11.36 L124.74,11.36 C124.19,8.3 123.37,6.06 122.3,4.66 C121.23,3.25 119.79,2.55 117.99,2.55 C116.34,2.55 114.97,3.21 113.87,4.52 C112.77,5.83 112.22,7.49 112.22,9.5 C112.22,11.3 112.64,12.71 113.48,13.72 C114.32,14.73 116.33,16.26 119.51,18.31 C121.46,19.65 123.01,20.79 124.16,21.73 C126.44,23.76 127.57,26.53 127.55,30.05 C127.55,33.3 126.67,35.95 124.91,37.99 C123.15,40.03 120.88,41.05 118.11,41.05 C115.34,41.05 112.83,39.94 110.7,37.72 L109.04,41.42 L108.15,41.42 L108.15,28.65 L108.16,28.62 Z" id="路径"></path>
                <path d="M156.29,41.4 L156.29,30.35 L143.6,30.35 L156.34,1.24 L160.53,1.24 L160.53,26.64 L165.35,26.64 L165.35,30.34 L160.53,30.34 L160.53,41.39 L156.28,41.39 L156.29,41.4 Z M156.29,26.65 L156.29,5.17 L147.08,26.64 L156.29,26.64 L156.29,26.65 Z" id="形状"></path>
                <path d="M176.04,5.52 L175.04,35.34 L175.04,35.86 C175.04,37.12 175.27,37.96 175.74,38.37 C176.21,38.78 177.27,39.06 178.91,39.22 L178.91,40.68 C177,40.49 175.43,40.39 174.22,40.39 C173.01,40.39 171.39,40.49 169.38,40.68 L169.38,39.22 L169.93,39.22 C171.35,39.07 172.24,38.77 172.61,38.34 C172.98,37.91 173.21,36.91 173.28,35.34 L174.26,6.47 L174.26,5.95 C174.26,4.69 174.02,3.84 173.53,3.41 C173.04,2.98 171.99,2.71 170.39,2.59 L170.39,1.13 C171.96,1.28 173.23,1.36 174.21,1.36 C175.74,1.36 177.39,1.26 179.15,1.07 L187.56,30.35 L196.03,1.07 C198.12,1.26 199.72,1.36 200.85,1.36 C201.75,1.36 202.98,1.28 204.55,1.13 L204.55,2.54 C202.87,2.69 201.79,3.01 201.34,3.49 C200.9,3.93 200.68,4.81 200.68,6.13 L200.68,6.47 L201.14,35.34 C201.22,36.91 201.46,37.91 201.87,38.34 C202.28,38.77 203.34,39.06 205.04,39.22 L205.04,40.68 C202.53,40.37 200.51,40.22 198.98,40.22 C197.45,40.22 195.43,40.37 193.04,40.68 L193.04,39.22 C194.72,39.11 195.79,38.82 196.24,38.37 C196.69,37.92 196.91,36.91 196.91,35.34 L196.45,5.58 L186.69,39.45 L185.74,39.45 L176.04,5.52 L176.04,5.52 Z" id="路径"></path>
                <path d="M215.71,29.11 L214.07,34.68 C213.63,36.17 213.41,37.14 213.41,37.58 C213.41,38.56 214.45,39.12 216.54,39.27 L216.54,40.68 C214.86,40.49 213.37,40.39 212.08,40.39 C210.79,40.39 209.3,40.49 207.62,40.68 L207.62,39.27 C209.04,39.16 209.99,38.87 210.48,38.42 C210.97,37.97 211.48,36.88 212.02,35.16 L222.84,0 L232.6,35.79 C233.04,37.17 233.5,38.05 233.99,38.45 C234.48,38.84 235.45,39.12 236.9,39.27 L236.9,40.68 C234.7,40.37 232.79,40.22 231.19,40.22 C229.59,40.22 227.62,40.37 225.42,40.68 L225.42,39.27 C227.3,39.04 228.23,38.48 228.23,37.58 C228.23,37.1 228.13,36.41 227.94,35.51 L226.3,29.11 L215.71,29.11 L215.71,29.11 Z M216.26,27.27 L225.9,27.27 L221.48,9.93 L216.26,27.27 L216.26,27.27 Z" id="形状"></path>
                <path d="M261.92,10.28 L260.57,10.28 C259.98,7.41 259.32,5.5 258.59,4.54 C257.86,3.58 256.73,3.1 255.2,3.1 L252.56,3.1 L252.56,35.33 C252.56,36.9 252.76,37.9 253.15,38.33 C253.54,38.76 254.56,39.07 256.21,39.26 L256.21,40.67 C253.82,40.36 251.88,40.21 250.4,40.21 C248.92,40.21 246.94,40.36 244.47,40.67 L244.47,39.26 C246.12,39.07 247.14,38.76 247.56,38.33 C247.97,37.9 248.18,36.9 248.18,35.33 L248.18,3.1 L245.77,3.1 C244.16,3.1 242.99,3.58 242.24,4.55 C241.49,5.52 240.79,7.43 240.12,10.28 L238.83,10.28 L240.12,1.3 L260.59,1.3 L261.94,10.28 L261.92,10.28 Z" id="路径"></path>
                <path d="M276.59,39.27 L276.59,40.68 C274.08,40.37 272.14,40.22 270.76,40.22 C269.38,40.22 267.36,40.37 264.82,40.68 L264.82,39.27 C266.43,39.12 267.45,38.81 267.89,38.34 C268.33,37.87 268.55,36.87 268.55,35.34 L268.55,6.46 C268.55,4.89 268.33,3.88 267.89,3.43 C267.45,2.98 266.43,2.68 264.82,2.53 L264.82,1.12 C267.44,1.39 269.42,1.52 270.76,1.52 C272.1,1.52 274,1.39 276.59,1.12 L276.59,2.53 C275.02,2.68 274.02,2.98 273.59,3.43 C273.16,3.88 272.94,4.89 272.94,6.46 L272.94,35.33 C272.94,36.86 273.16,37.86 273.59,38.33 C274.02,38.8 275.02,39.11 276.59,39.26 L276.59,39.27 Z" id="路径"></path>
                <path d="M301.91,27.27 L303.75,27.27 C303.6,31.65 302.61,35.08 300.78,37.56 C298.95,40.04 296.49,41.28 293.39,41.28 C289.62,41.28 286.59,39.43 284.3,35.73 C282.01,32.03 280.87,27.11 280.87,20.99 C280.87,14.87 282.03,9.84 284.34,6.14 C286.65,2.44 289.75,0.59 293.61,0.59 C296.59,0.59 299.01,1.73 300.84,4.01 L302.45,0.74 L303.37,0.74 L303.37,12.25 L302.08,12.25 C301.45,8.92 300.49,6.46 299.2,4.87 C297.91,3.28 296.23,2.49 294.16,2.49 C291.38,2.49 289.25,4.09 287.76,7.28 C286.27,10.48 285.52,15.09 285.52,21.11 C285.52,26.68 286.28,30.99 287.79,34.04 C289.3,37.09 291.41,38.62 294.1,38.62 C296.42,38.62 298.26,37.62 299.63,35.62 C301,33.62 301.76,30.84 301.91,27.28 L301.91,27.27 Z" id="路径"></path>
                <polygon id="路径" points="309.6 22.22 309.6 19.12 317.78 19.12 317.78 8.64 320.97 8.64 320.97 19.12 329.18 19.12 329.18 22.22 320.97 22.22 320.97 32.7 317.78 32.7 317.78 22.22"></polygon>
            </g>
        </g>
    </g>
</svg>