<svg width="224.190002" height="131.686142" viewBox="0 0 224.19 131.686" fill="none" xmlns="http://www.w3.org/2000/svg" xmlns:xlink="http://www.w3.org/1999/xlink">
	<desc>
			Created with Pixso.
	</desc>
	<defs/>
	<path id="形状" d="M2.39 90.26C2.4 90.1 2.47 90.02 2.6 90.02C2.7 90.04 2.8 90.15 2.9 90.35C3 90.55 3.16 91.01 3.38 91.73C3.6 92.45 3.77 93.04 3.91 93.53C4.04 94.01 4.2 94.77 4.38 95.81C4.56 96.85 4.64 97.78 4.64 98.61C4.63 99.05 4.58 99.62 4.49 100.32C4.41 101.02 4.16 101.75 3.74 102.53C3.32 103.31 2.74 103.68 1.99 103.66C1.45 103.66 0.99 103.38 0.6 102.83C0.21 102.28 0.01 101.64 0 100.93C-0.01 100.22 0.22 99.38 0.7 98.44L1.55 96.9C2.23 95.51 2.55 94.01 2.52 92.4C2.51 92.24 2.48 91.85 2.44 91.24C2.4 90.63 2.37 90.28 2.39 90.26ZM9.65 80.17L9.65 123.24L9.9 129.74C9.83 130.14 9.72 130.48 9.57 130.75C9.42 131.02 8.94 131.28 8.12 131.52C7.3 131.75 6.77 131.74 6.53 131.46C6.29 131.17 6.13 130.92 6.04 130.67L6.29 123.23L6.29 82.09L6.08 76.71C6.19 76.61 6.29 76.55 6.37 76.53C6.45 76.51 6.75 76.58 7.29 76.76L10.15 77.76C10.66 77.94 10.91 78.19 10.91 78.53C10.9 78.76 10.75 79.03 10.47 79.32L9.65 80.17ZM10.8 89.51C10.91 89.53 11 89.57 11.09 89.63L11.62 90.08C11.86 90.3 12.48 91.01 13.49 92.21C14.5 93.41 14.98 94.65 14.93 95.93C14.88 97.21 14.63 98.13 14.18 98.68C13.73 99.23 13.27 99.5 12.8 99.48C12.22 99.48 11.8 99.24 11.53 98.75C11.26 98.27 11.11 97.85 11.09 97.5C11.06 97.15 11.11 96.57 11.25 95.76C11.38 94.95 11.46 94.31 11.47 93.83C11.47 92.76 11.29 91.69 10.92 90.63L10.64 89.9C10.64 89.62 10.69 89.49 10.8 89.51ZM23.08 105.5L23.08 82.65L12.97 82.65C12.76 82.61 12.61 82.54 12.51 82.44C12.42 82.34 12.35 82.07 12.31 81.64C12.27 81.21 12.47 80.99 12.92 80.99L31.96 80.99L33.25 78.75C33.66 78.01 33.92 77.65 34.02 77.62C34.13 77.61 34.6 78.05 35.45 78.96L37.54 81.23C37.86 81.58 38.08 81.92 38.2 82.21C38.31 82.5 38.09 82.65 37.54 82.65L27.45 82.65C27.34 83.05 27.26 83.31 27.21 83.41C27.16 83.51 27 83.69 26.71 83.95L26.71 105.5L33.82 105.5L34.86 103.44C35.44 102.29 35.77 101.71 35.86 101.69C35.95 101.67 36.43 102.18 37.31 103.23L39.62 106.04C39.73 106.2 39.81 106.33 39.84 106.43C39.88 106.53 39.9 106.68 39.9 106.87C39.9 107.06 39.68 107.16 39.21 107.16L26.71 107.16L26.71 123.63L26.92 129.37C26.57 130.7 25.71 131.35 24.36 131.33C23.8 131.33 23.42 131.21 23.23 130.98C23.04 130.75 22.9 130.5 22.82 130.24L23.07 123.92L23.07 107.15L11.6 107.15L11.45 107.12C11.21 107.1 11.04 107.03 10.93 106.92C10.82 106.81 10.76 106.54 10.74 106.12C10.72 105.7 10.92 105.49 11.34 105.49L23.08 105.5ZM15.18 88.77C15.3 88.78 15.42 88.83 15.55 88.91L16.12 89.33C16.57 89.69 17.16 90.27 17.9 91.05C18.63 91.84 19.37 92.84 20.1 94.06C20.83 95.28 21.16 96.64 21.09 98.16C21.05 98.87 20.85 99.63 20.49 100.44C20.13 101.26 19.57 101.65 18.81 101.63C18.09 101.63 17.58 101.32 17.29 100.69C17 100.06 16.82 99.45 16.77 98.85C16.72 98.25 16.69 97.3 16.66 96.01C16.64 94.72 16.55 93.68 16.4 92.9C16.24 92.11 15.91 91.14 15.38 89.97L15.02 89.18C15.01 88.9 15.06 88.76 15.18 88.77ZM34.34 91.63C31.62 97.19 29.85 100.7 29.05 102.15L28.23 103.63C28.06 103.93 27.88 104.07 27.7 104.05C27.38 104.05 27.3 103.81 27.47 103.32L28.02 101.63C28.47 100.22 28.97 98.35 29.51 96.02C30.05 93.69 30.41 92.04 30.58 91.05L31.05 88.15L31.28 86.55C31.39 86.55 31.59 86.65 31.87 86.85L35.34 89.45C35.83 89.83 36.08 90.13 36.08 90.33C36.07 90.51 35.93 90.67 35.68 90.81L34.34 91.63Z" fill="#FFFFFF" fill-opacity="1.000000" fill-rule="nonzero"/>
	<path id="形状" d="M2.6 90.02C2.7 90.04 2.8 90.15 2.9 90.35C3 90.55 3.16 91.01 3.38 91.73C3.6 92.45 3.77 93.04 3.91 93.53C4.04 94.01 4.2 94.77 4.38 95.81C4.56 96.85 4.64 97.78 4.64 98.61C4.63 99.05 4.58 99.62 4.49 100.32C4.41 101.02 4.16 101.75 3.74 102.53C3.32 103.31 2.74 103.68 1.99 103.66C1.45 103.66 0.99 103.38 0.6 102.83C0.21 102.28 0.01 101.64 0 100.93C-0.01 100.22 0.22 99.38 0.7 98.44L1.55 96.9C2.23 95.51 2.55 94.01 2.52 92.4C2.51 92.24 2.48 91.85 2.44 91.24C2.4 90.63 2.37 90.28 2.39 90.26C2.4 90.1 2.47 90.02 2.6 90.02ZM9.65 123.24L9.9 129.74C9.83 130.14 9.72 130.48 9.57 130.75C9.42 131.02 8.94 131.28 8.12 131.52C7.3 131.75 6.77 131.74 6.53 131.46C6.29 131.17 6.13 130.92 6.04 130.67L6.29 123.23L6.29 82.09L6.08 76.71C6.19 76.61 6.29 76.55 6.37 76.53C6.45 76.51 6.75 76.58 7.29 76.76L10.15 77.76C10.66 77.94 10.91 78.19 10.91 78.53C10.9 78.76 10.75 79.03 10.47 79.32L9.65 80.17L9.65 123.24ZM11.09 89.63L11.62 90.08C11.86 90.3 12.48 91.01 13.49 92.21C14.5 93.41 14.98 94.65 14.93 95.93C14.88 97.21 14.63 98.13 14.18 98.68C13.73 99.23 13.27 99.5 12.8 99.48C12.22 99.48 11.8 99.24 11.53 98.75C11.26 98.27 11.11 97.85 11.09 97.5C11.06 97.15 11.11 96.57 11.25 95.76C11.38 94.95 11.46 94.31 11.47 93.83C11.47 92.76 11.29 91.69 10.92 90.63L10.64 89.9C10.64 89.62 10.69 89.49 10.8 89.51C10.91 89.53 11 89.57 11.09 89.63ZM23.08 82.65L12.97 82.65C12.76 82.61 12.61 82.54 12.51 82.44C12.42 82.34 12.35 82.07 12.31 81.64C12.27 81.21 12.47 80.99 12.92 80.99L31.96 80.99L33.25 78.75C33.66 78.01 33.92 77.65 34.02 77.62C34.13 77.61 34.6 78.05 35.45 78.96L37.54 81.23C37.86 81.58 38.08 81.92 38.2 82.21C38.31 82.5 38.09 82.65 37.54 82.65L27.45 82.65C27.34 83.05 27.26 83.31 27.21 83.41C27.16 83.51 27 83.69 26.71 83.95L26.71 105.5L33.82 105.5L34.86 103.44C35.44 102.29 35.77 101.71 35.86 101.69C35.95 101.67 36.43 102.18 37.31 103.23L39.62 106.04C39.73 106.2 39.81 106.33 39.84 106.43C39.88 106.53 39.9 106.68 39.9 106.87C39.9 107.06 39.68 107.16 39.21 107.16L26.71 107.16L26.71 123.63L26.92 129.37C26.57 130.7 25.71 131.35 24.36 131.33C23.8 131.33 23.42 131.21 23.23 130.98C23.04 130.75 22.9 130.5 22.82 130.24L23.07 123.92L23.07 107.15L11.6 107.15L11.45 107.12C11.21 107.1 11.04 107.03 10.93 106.92C10.82 106.81 10.76 106.54 10.74 106.12C10.72 105.7 10.92 105.49 11.34 105.49L23.08 105.5L23.08 82.65ZM15.55 88.91L16.12 89.33C16.57 89.69 17.16 90.27 17.9 91.05C18.63 91.84 19.37 92.84 20.1 94.06C20.83 95.28 21.16 96.64 21.09 98.16C21.05 98.87 20.85 99.63 20.49 100.44C20.13 101.26 19.57 101.65 18.81 101.63C18.09 101.63 17.58 101.32 17.29 100.69C17 100.06 16.82 99.45 16.77 98.85C16.72 98.25 16.69 97.3 16.66 96.01C16.64 94.72 16.55 93.68 16.4 92.9C16.24 92.11 15.91 91.14 15.38 89.97L15.02 89.18C15.01 88.9 15.06 88.76 15.18 88.77C15.3 88.78 15.42 88.83 15.55 88.91ZM29.05 102.15L28.23 103.63C28.06 103.93 27.88 104.07 27.7 104.05C27.38 104.05 27.3 103.81 27.47 103.32L28.02 101.63C28.47 100.22 28.97 98.35 29.51 96.02C30.05 93.69 30.41 92.04 30.58 91.05L31.05 88.15L31.28 86.55C31.39 86.55 31.59 86.65 31.87 86.85L35.34 89.45C35.83 89.83 36.08 90.13 36.08 90.33C36.07 90.51 35.93 90.67 35.68 90.81L34.34 91.63C31.62 97.19 29.85 100.7 29.05 102.15Z" stroke="#000000" stroke-opacity="0" stroke-width="1.000000"/>
	<path id="形状" d="M52.01 88.81C51.71 89.82 51.22 91.27 50.53 93.18C49.84 95.08 49.26 96.56 48.8 97.59C48.33 98.63 47.76 99.86 47.08 101.29C46.4 102.72 45.93 103.64 45.69 104.04L45.12 105.04C44.91 105.4 44.72 105.57 44.57 105.55C44.51 105.55 44.47 105.53 44.44 105.49C44.41 105.45 44.39 105.36 44.38 105.23C44.37 105.1 44.42 104.85 44.55 104.49L45.06 103.04C45.22 102.6 45.57 101.43 46.14 99.55C46.7 97.67 47.22 95.58 47.67 93.29C48.13 91 48.59 88.49 49.05 85.76C49.51 83.03 49.79 80.82 49.89 79.12L49.97 77.65C50 77.08 50.04 76.76 50.09 76.68C50.14 76.6 50.27 76.6 50.48 76.68L54.77 78.83C55 78.94 55.14 79.06 55.2 79.15C55.26 79.24 55.29 79.36 55.28 79.51C55.28 79.66 55.19 79.8 55.04 79.92L54.09 80.68C53.58 82.78 53.05 84.92 52.48 87.12L56.86 87.12L57.77 85.12C58.04 84.52 58.18 84.21 58.2 84.2C58.22 84.2 58.4 84.34 58.74 84.64L62.04 87.84C62.2 88 62.3 88.14 62.37 88.25C62.43 88.36 62.47 88.45 62.48 88.52C62.48 88.59 62.33 88.8 62 89.14L60.92 90.26L60.01 94.58L65.28 94.58C65.34 93.65 65.39 92.47 65.44 91.03C65.49 89.59 65.52 87.89 65.55 85.94C65.57 83.99 65.59 82.87 65.59 82.6C65.59 82.33 65.6 82.13 65.6 82.01L65.52 80.37C65.44 78.99 65.4 78.19 65.42 78.01C65.44 77.82 65.5 77.67 65.6 77.57L66.38 77.83L70 79.08C70.27 79.18 70.47 79.31 70.59 79.46C70.71 79.61 70.78 79.78 70.79 79.97C70.79 80.16 70.68 80.37 70.44 80.62L69.4 81.74C69.36 83.45 69.32 85.09 69.28 86.67C69.24 88.24 69.21 89.52 69.17 90.49C69.13 91.47 69.06 92.83 68.95 94.59L75.66 94.59L77.01 92.05C77.36 91.37 77.57 91.01 77.63 90.99C77.69 90.97 77.98 91.24 78.49 91.81L81.03 94.77C81.34 95.15 81.5 95.44 81.5 95.62C81.49 96 81.25 96.19 80.8 96.19L77.39 96.19L69.48 96.25C69.66 97.04 69.89 97.88 70.15 98.79C70.41 99.7 71.13 101.24 72.31 103.43C73.49 105.62 74.94 107.5 76.66 109.08C78.38 110.66 79.9 111.72 81.21 112.27L82.08 112.63C82.39 112.77 82.55 112.96 82.55 113.2C82.54 113.48 82.42 113.64 82.19 113.68L81.34 113.86C80.79 113.98 80.38 114.09 80.12 114.19C79.86 114.29 79.52 114.55 79.09 114.96C78.67 115.37 78.36 115.87 78.16 116.44C77.96 117.01 77.84 117.33 77.8 117.39C77.76 117.45 77.71 117.48 77.65 117.48C77.51 117.5 77.28 117.3 76.97 116.88L75.19 114.82C73.09 112.38 71.58 109.82 70.65 107.14C69.73 104.46 69.21 102.37 69.12 100.88L68.76 97.07C68.59 98.5 68.38 100.03 68.13 101.65C67.88 103.27 67.03 105.65 65.58 108.8C64.13 111.94 60.6 114.93 54.99 117.75L54.63 117.93C54.36 118.07 54.19 118.08 54.12 117.95C54.05 117.82 54.02 117.7 54.02 117.59C54.02 117.48 54.09 117.36 54.22 117.24L54.83 116.7C54.94 116.6 55.62 116.12 56.87 115.26C58.12 114.4 59.44 112.87 60.85 110.65C62.25 108.43 63.22 106.4 63.76 104.54C64.3 102.69 64.62 101.21 64.74 100.1C64.86 98.99 65 97.7 65.15 96.23L59.63 96.23C59.31 97.46 58.79 99.28 58.09 101.7C57.38 104.12 55.96 106.79 53.82 109.72C51.68 112.65 48.93 115.35 45.59 117.8L44.85 118.34C44.44 118.64 44.23 118.72 44.22 118.57C44.21 118.42 44.2 118.31 44.2 118.25L44.2 118.13C44.2 118.03 44.26 117.92 44.37 117.8L45.11 116.95L46.51 115.38C48.82 112.74 50.72 109.94 52.2 106.98C53.68 104.02 54.77 101.09 55.46 98.18C56.15 95.27 56.69 92.15 57.09 88.78L52.01 88.81ZM49.98 117.19C50.05 117.21 50.14 117.31 50.24 117.48C50.35 117.65 50.43 117.99 50.5 118.49L50.97 121.69C51.07 122.58 51.12 123.38 51.12 124.11C51.11 124.59 51.05 125.33 50.94 126.33C50.83 127.33 50.45 128.41 49.79 129.56C49.13 130.72 48.32 131.28 47.36 131.27C46.39 131.27 45.76 130.85 45.47 130.02C45.18 129.17 45.04 128.52 45.06 128.03C45.06 127.78 45.1 127.5 45.17 127.19C45.24 126.89 45.36 126.63 45.52 126.42C45.68 126.21 46.19 125.63 47.05 124.7C47.91 123.77 48.55 122.79 48.95 121.78C49.36 120.77 49.61 119.76 49.69 118.73L49.73 117.49C49.77 117.29 49.86 117.19 49.98 117.19ZM48.17 100.45C48.17 100.35 48.19 100.26 48.22 100.19C48.25 100.12 48.35 100.08 48.54 100.08C48.78 100.1 49.4 100.31 50.41 100.71C51.42 101.11 52.04 101.7 52.27 102.46C52.5 103.23 52.62 103.81 52.62 104.21C52.61 104.61 52.49 105.18 52.27 105.9C52.05 106.63 51.53 106.97 50.72 106.93C50.35 106.93 50.03 106.75 49.76 106.4C49.49 106.05 49.32 105.53 49.26 104.84L49.24 103.39C49.2 102.48 48.98 101.73 48.58 101.12L48.2 100.64C48.2 100.64 48.16 100.55 48.17 100.45ZM51.52 92.47C51.87 92.49 52.31 92.61 52.82 92.83C53.33 93.05 53.78 93.32 54.16 93.63C54.54 93.94 54.81 94.36 54.96 94.88C55.11 95.4 55.2 95.86 55.2 96.24C55.2 96.62 55.15 97 55.02 97.36C54.85 97.84 54.62 98.21 54.33 98.45C54.04 98.69 53.77 98.8 53.52 98.78C52.79 98.76 52.35 98.47 52.22 97.92C52.09 97.37 51.99 96.65 51.93 95.76C51.87 94.87 51.68 94.11 51.34 93.46L50.98 92.89C50.9 92.61 51.08 92.47 51.52 92.47ZM56.1 117.72C56.19 117.59 56.36 117.66 56.62 117.92C56.86 118.2 57.26 118.72 57.82 119.46C58.38 120.21 58.96 121.18 59.55 122.38C60.15 123.58 60.44 124.77 60.43 125.96C60.42 126.26 60.36 126.72 60.25 127.32C60.14 127.92 59.87 128.49 59.44 129C59 129.53 58.5 129.8 57.94 129.8C57.32 129.82 56.84 129.56 56.5 129.03C56.16 128.5 55.98 127.97 55.96 127.44C55.94 126.92 56.03 126.24 56.22 125.42C56.42 124.51 56.54 123.83 56.6 123.38C56.66 122.93 56.69 122.52 56.7 122.17C56.7 121.82 56.7 121.52 56.69 121.28C56.63 120.61 56.5 119.87 56.29 119.04L56.02 118.1C55.99 117.98 56 117.85 56.1 117.72ZM64.03 117.27C64.03 117.12 64.11 117.03 64.25 117.01C64.46 117.01 65.14 117.57 66.29 118.7C67.44 119.83 68.28 120.92 68.82 121.98C69.36 123.04 69.62 124.13 69.62 125.26C69.61 125.86 69.5 126.47 69.31 127.09C69.12 127.71 68.83 128.19 68.44 128.53C68.05 128.89 67.65 129.06 67.24 129.03C66.51 129.03 65.98 128.64 65.67 127.86C65.36 127.07 65.2 126.25 65.18 125.38L65.24 122.51C65.21 121 64.91 119.56 64.33 118.19L64.01 117.49C64.01 117.49 64.02 117.42 64.03 117.27ZM70.76 83.25C70.76 83.07 70.86 82.97 71.02 82.95C71.29 82.95 71.73 83.1 72.35 83.4C72.97 83.7 73.4 83.93 73.64 84.08C73.88 84.23 74.26 84.55 74.77 85.03C75.29 85.51 75.7 86.07 76.01 86.71C76.32 87.34 76.48 88.08 76.48 88.9C76.47 90.07 76.23 90.93 75.76 91.48C75.29 92.03 74.82 92.32 74.34 92.34C74.07 92.36 73.74 92.23 73.34 91.95C72.94 91.67 72.68 91.24 72.56 90.68C72.44 90.12 72.36 89.33 72.33 88.34C72.29 87.34 72.19 86.53 72 85.89C71.82 85.26 71.58 84.71 71.3 84.24L70.77 83.51C70.77 83.51 70.75 83.43 70.76 83.25ZM71.96 117.68C71.8 117.48 71.73 117.31 71.74 117.17C71.74 117.03 71.85 116.93 72.04 116.87C72.23 116.81 72.48 116.91 72.79 117.17C72.87 117.25 73.14 117.43 73.57 117.71C74.01 117.99 74.97 118.79 76.47 120.1C77.97 121.41 78.89 122.69 79.23 123.94C79.58 125.19 79.75 126.14 79.75 126.78C79.74 127.83 79.5 128.73 79.05 129.5C78.6 130.27 78.04 130.64 77.38 130.62C76.73 130.62 76.22 130.32 75.84 129.71C75.46 129.1 75.17 128.13 74.98 126.79C74.79 125.45 74.57 124.08 74.32 122.69C74.07 121.3 73.29 119.64 71.96 117.68Z" fill="#FFFFFF" fill-opacity="1.000000" fill-rule="nonzero"/>
	<path id="形状" d="M50.53 93.18C49.84 95.08 49.26 96.56 48.8 97.59C48.33 98.63 47.76 99.86 47.08 101.29C46.4 102.72 45.93 103.64 45.69 104.04L45.12 105.04C44.91 105.4 44.72 105.57 44.57 105.55C44.51 105.55 44.47 105.53 44.44 105.49C44.41 105.45 44.39 105.36 44.38 105.23C44.37 105.1 44.42 104.85 44.55 104.49L45.06 103.04C45.22 102.6 45.57 101.43 46.14 99.55C46.7 97.67 47.22 95.58 47.67 93.29C48.13 91 48.59 88.49 49.05 85.76C49.51 83.03 49.79 80.82 49.89 79.12L49.97 77.65C50 77.08 50.04 76.76 50.09 76.68C50.14 76.6 50.27 76.6 50.48 76.68L54.77 78.83C55 78.94 55.14 79.06 55.2 79.15C55.26 79.24 55.29 79.36 55.28 79.51C55.28 79.66 55.19 79.8 55.04 79.92L54.09 80.68C53.58 82.78 53.05 84.92 52.48 87.12L56.86 87.12L57.77 85.12C58.04 84.52 58.18 84.21 58.2 84.2C58.22 84.2 58.4 84.34 58.74 84.64L62.04 87.84C62.2 88 62.3 88.14 62.37 88.25C62.43 88.36 62.47 88.45 62.48 88.52C62.48 88.59 62.33 88.8 62 89.14L60.92 90.26L60.01 94.58L65.28 94.58C65.34 93.65 65.39 92.47 65.44 91.03C65.49 89.59 65.52 87.89 65.55 85.94C65.57 83.99 65.59 82.87 65.59 82.6C65.59 82.33 65.6 82.13 65.6 82.01L65.52 80.37C65.44 78.99 65.4 78.19 65.42 78.01C65.44 77.82 65.5 77.67 65.6 77.57L66.38 77.83L70 79.08C70.27 79.18 70.47 79.31 70.59 79.46C70.71 79.61 70.78 79.78 70.79 79.97C70.79 80.16 70.68 80.37 70.44 80.62L69.4 81.74C69.36 83.45 69.32 85.09 69.28 86.67C69.24 88.24 69.21 89.52 69.17 90.49C69.13 91.47 69.06 92.83 68.95 94.59L75.66 94.59L77.01 92.05C77.36 91.37 77.57 91.01 77.63 90.99C77.69 90.97 77.98 91.24 78.49 91.81L81.03 94.77C81.34 95.15 81.5 95.44 81.5 95.62C81.49 96 81.25 96.19 80.8 96.19L77.39 96.19L69.48 96.25C69.66 97.04 69.89 97.88 70.15 98.79C70.41 99.7 71.13 101.24 72.31 103.43C73.49 105.62 74.94 107.5 76.66 109.08C78.38 110.66 79.9 111.72 81.21 112.27L82.08 112.63C82.39 112.77 82.55 112.96 82.55 113.2C82.54 113.48 82.42 113.64 82.19 113.68L81.34 113.86C80.79 113.98 80.38 114.09 80.12 114.19C79.86 114.29 79.52 114.55 79.09 114.96C78.67 115.37 78.36 115.87 78.16 116.44C77.96 117.01 77.84 117.33 77.8 117.39C77.76 117.45 77.71 117.48 77.65 117.48C77.51 117.5 77.28 117.3 76.97 116.88L75.19 114.82C73.09 112.38 71.58 109.82 70.65 107.14C69.73 104.46 69.21 102.37 69.12 100.88L68.76 97.07C68.59 98.5 68.38 100.03 68.13 101.65C67.88 103.27 67.03 105.65 65.58 108.8C64.13 111.94 60.6 114.93 54.99 117.75L54.63 117.93C54.36 118.07 54.19 118.08 54.12 117.95C54.05 117.82 54.02 117.7 54.02 117.59C54.02 117.48 54.09 117.36 54.22 117.24L54.83 116.7C54.94 116.6 55.62 116.12 56.87 115.26C58.12 114.4 59.44 112.87 60.85 110.65C62.25 108.43 63.22 106.4 63.76 104.54C64.3 102.69 64.62 101.21 64.74 100.1C64.86 98.99 65 97.7 65.15 96.23L59.63 96.23C59.31 97.46 58.79 99.28 58.09 101.7C57.38 104.12 55.96 106.79 53.82 109.72C51.68 112.65 48.93 115.35 45.59 117.8L44.85 118.34C44.44 118.64 44.23 118.72 44.22 118.57C44.21 118.42 44.2 118.31 44.2 118.25L44.2 118.13C44.2 118.03 44.26 117.92 44.37 117.8L45.11 116.95L46.51 115.38C48.82 112.74 50.72 109.94 52.2 106.98C53.68 104.02 54.77 101.09 55.46 98.18C56.15 95.27 56.69 92.15 57.09 88.78L52.01 88.81C51.71 89.82 51.22 91.27 50.53 93.18ZM50.24 117.48C50.35 117.65 50.43 117.99 50.5 118.49L50.97 121.69C51.07 122.58 51.12 123.38 51.12 124.11C51.11 124.59 51.05 125.33 50.94 126.33C50.83 127.33 50.45 128.41 49.79 129.56C49.13 130.72 48.32 131.28 47.36 131.27C46.39 131.27 45.76 130.85 45.47 130.02C45.18 129.17 45.04 128.52 45.06 128.03C45.06 127.78 45.1 127.5 45.17 127.19C45.24 126.89 45.36 126.63 45.52 126.42C45.68 126.21 46.19 125.63 47.05 124.7C47.91 123.77 48.55 122.79 48.95 121.78C49.36 120.77 49.61 119.76 49.69 118.73L49.73 117.49C49.77 117.29 49.86 117.19 49.98 117.19C50.05 117.21 50.14 117.31 50.24 117.48ZM48.22 100.19C48.25 100.12 48.35 100.08 48.54 100.08C48.78 100.1 49.4 100.31 50.41 100.71C51.42 101.11 52.04 101.7 52.27 102.46C52.5 103.23 52.62 103.81 52.62 104.21C52.61 104.61 52.49 105.18 52.27 105.9C52.05 106.63 51.53 106.97 50.72 106.93C50.35 106.93 50.03 106.75 49.76 106.4C49.49 106.05 49.32 105.53 49.26 104.84L49.24 103.39C49.2 102.48 48.98 101.73 48.58 101.12L48.2 100.64C48.2 100.64 48.16 100.55 48.17 100.45C48.17 100.35 48.19 100.26 48.22 100.19ZM52.82 92.83C53.33 93.05 53.78 93.32 54.16 93.63C54.54 93.94 54.81 94.36 54.96 94.88C55.11 95.4 55.2 95.86 55.2 96.24C55.2 96.62 55.15 97 55.02 97.36C54.85 97.84 54.62 98.21 54.33 98.45C54.04 98.69 53.77 98.8 53.52 98.78C52.79 98.76 52.35 98.47 52.22 97.92C52.09 97.37 51.99 96.65 51.93 95.76C51.87 94.87 51.68 94.11 51.34 93.46L50.98 92.89C50.9 92.61 51.08 92.47 51.52 92.47C51.87 92.49 52.31 92.61 52.82 92.83ZM56.62 117.92C56.86 118.2 57.26 118.72 57.82 119.46C58.38 120.21 58.96 121.18 59.55 122.38C60.15 123.58 60.44 124.77 60.43 125.96C60.42 126.26 60.36 126.72 60.25 127.32C60.14 127.92 59.87 128.49 59.44 129C59 129.53 58.5 129.8 57.94 129.8C57.32 129.82 56.84 129.56 56.5 129.03C56.16 128.5 55.98 127.97 55.96 127.44C55.94 126.92 56.03 126.24 56.22 125.42C56.42 124.51 56.54 123.83 56.6 123.38C56.66 122.93 56.69 122.52 56.7 122.17C56.7 121.82 56.7 121.52 56.69 121.28C56.63 120.61 56.5 119.87 56.29 119.04L56.02 118.1C55.99 117.98 56 117.85 56.1 117.72C56.19 117.59 56.36 117.66 56.62 117.92ZM64.25 117.01C64.46 117.01 65.14 117.57 66.29 118.7C67.44 119.83 68.28 120.92 68.82 121.98C69.36 123.04 69.62 124.13 69.62 125.26C69.61 125.86 69.5 126.47 69.31 127.09C69.12 127.71 68.83 128.19 68.44 128.53C68.05 128.89 67.65 129.06 67.24 129.03C66.51 129.03 65.98 128.64 65.67 127.86C65.36 127.07 65.2 126.25 65.18 125.38L65.24 122.51C65.21 121 64.91 119.56 64.33 118.19L64.01 117.49C64.01 117.49 64.02 117.42 64.03 117.27C64.03 117.12 64.11 117.03 64.25 117.01ZM71.02 82.95C71.29 82.95 71.73 83.1 72.35 83.4C72.97 83.7 73.4 83.93 73.64 84.08C73.88 84.23 74.26 84.55 74.77 85.03C75.29 85.51 75.7 86.07 76.01 86.71C76.32 87.34 76.48 88.08 76.48 88.9C76.47 90.07 76.23 90.93 75.76 91.48C75.29 92.03 74.82 92.32 74.34 92.34C74.07 92.36 73.74 92.23 73.34 91.95C72.94 91.67 72.68 91.24 72.56 90.68C72.44 90.12 72.36 89.33 72.33 88.34C72.29 87.34 72.19 86.53 72 85.89C71.82 85.26 71.58 84.71 71.3 84.24L70.77 83.51C70.77 83.51 70.75 83.43 70.76 83.25C70.76 83.07 70.86 82.97 71.02 82.95ZM71.74 117.17C71.74 117.03 71.85 116.93 72.04 116.87C72.23 116.81 72.48 116.91 72.79 117.17C72.87 117.25 73.14 117.43 73.57 117.71C74.01 117.99 74.97 118.79 76.47 120.1C77.97 121.41 78.89 122.69 79.23 123.94C79.58 125.19 79.75 126.14 79.75 126.78C79.74 127.83 79.5 128.73 79.05 129.5C78.6 130.27 78.04 130.64 77.38 130.62C76.73 130.62 76.22 130.32 75.84 129.71C75.46 129.1 75.17 128.13 74.98 126.79C74.79 125.45 74.57 124.08 74.32 122.69C74.07 121.3 73.29 119.64 71.96 117.68C71.8 117.48 71.73 117.31 71.74 117.17Z" stroke="#000000" stroke-opacity="0" stroke-width="1.000000"/>
	<path id="形状" d="M92.27 96.7C92.37 96.44 92.48 96.32 92.61 96.34C92.75 96.4 92.91 96.74 93.09 97.35C93.27 97.96 93.5 98.97 93.78 100.36C94.06 101.75 94.26 102.82 94.36 103.56C94.47 104.31 94.52 105.24 94.52 106.37C94.51 107.54 94.38 108.9 94.15 110.45C93.92 112 93.39 113.37 92.56 114.56C91.73 115.75 90.9 116.31 90.05 116.25C89.26 116.23 88.69 115.85 88.35 115.12C88 114.38 87.83 113.69 87.83 113.05C87.83 112.41 87.92 111.8 88.1 111.24C88.27 110.74 88.68 110 89.34 109.02C90 108.04 90.53 107.13 90.94 106.28C91.35 105.43 91.7 104.38 92 103.11C92.3 101.84 92.44 100.82 92.42 100.04C92.41 99.26 92.38 98.58 92.36 98L92.27 96.7ZM102.04 89.9L102 121.09C101.99 122.02 102.1 122.7 102.34 123.13C102.58 123.56 103.25 123.91 104.36 124.16C105.47 124.41 106.64 124.53 107.88 124.51C110.93 124.51 112.7 124.16 113.2 123.47C113.7 122.78 114.04 122.19 114.2 121.7C114.37 121.22 114.56 120.58 114.77 119.8L115.53 117.11L116.42 113.73L116.76 112.58C116.8 112.4 116.89 112.31 117.03 112.31C117.16 112.33 117.25 112.41 117.31 112.54C117.37 112.67 117.39 112.78 117.38 112.86C117.38 112.94 117.37 113.01 117.37 113.07L117.05 114.7C116.87 115.65 116.71 116.76 116.58 118.02C116.45 119.29 116.4 120.19 116.41 120.71C116.41 121.31 116.47 121.85 116.59 122.31C116.71 122.77 116.94 123.33 117.28 123.97C117.62 124.61 117.81 125.05 117.84 125.27C117.87 125.49 117.9 125.72 117.9 125.95C117.9 126.18 117.87 126.45 117.78 126.75C117.41 128.03 116.6 128.89 115.33 129.28C114.06 129.69 111.87 129.88 108.77 129.86C104.69 129.86 101.99 129.46 100.66 128.64C99.33 127.84 98.57 127.05 98.39 126.28C98.21 125.5 98.12 124.72 98.14 123.94L98.16 93.9L97.91 85.56C98.04 85.38 98.13 85.28 98.2 85.26C98.27 85.24 98.63 85.38 99.31 85.68L103.1 87.37C103.41 87.53 103.6 87.65 103.66 87.73C103.72 87.81 103.76 87.91 103.78 88.03C103.79 88.15 103.64 88.36 103.31 88.66L102.04 89.9ZM104.83 78.44C104.83 78.33 104.83 78.26 104.82 78.21C104.82 78.16 104.82 78.1 104.82 78.04C104.82 77.98 104.91 77.93 105.06 77.89C105.17 77.87 105.31 77.93 105.48 78.07C105.65 78.21 105.97 78.41 106.45 78.67C106.93 78.93 108.09 79.9 109.94 81.57C111.79 83.24 112.71 85.48 112.71 88.28C112.7 89.19 112.51 90.17 112.14 91.24C111.77 92.31 111.15 92.82 110.28 92.78C109.33 92.76 108.73 92.36 108.47 91.59C108.21 90.81 108.06 90.04 108.02 89.28L107.87 86.62C107.6 83.64 106.89 81.33 105.73 79.69L104.83 78.44ZM117.42 96.42C117.25 96.22 117.18 96.05 117.21 95.91C117.24 95.77 117.34 95.68 117.51 95.64C117.57 95.64 117.79 95.75 118.18 95.96C118.57 96.17 119.65 97.39 121.44 99.62C123.22 101.85 124.38 103.88 124.9 105.71C125.42 107.54 125.69 109.24 125.69 110.79C125.69 112.34 125.47 113.63 125 114.64C124.53 115.66 123.89 116.16 123.07 116.14C122.22 116.14 121.62 115.72 121.27 114.87C120.92 114.02 120.73 113.14 120.7 112.21L120.87 106.38C120.81 105.13 120.56 103.68 120.11 102.03C119.66 100.38 118.96 98.82 118.02 97.35L117.42 96.42Z" fill="#FFFFFF" fill-opacity="1.000000" fill-rule="nonzero"/>
	<path id="形状" d="M92.61 96.34C92.75 96.4 92.91 96.74 93.09 97.35C93.27 97.96 93.5 98.97 93.78 100.36C94.06 101.75 94.26 102.82 94.36 103.56C94.47 104.31 94.52 105.24 94.52 106.37C94.51 107.54 94.38 108.9 94.15 110.45C93.92 112 93.39 113.37 92.56 114.56C91.73 115.75 90.9 116.31 90.05 116.25C89.26 116.23 88.69 115.85 88.35 115.12C88 114.38 87.83 113.69 87.83 113.05C87.83 112.41 87.92 111.8 88.1 111.24C88.27 110.74 88.68 110 89.34 109.02C90 108.04 90.53 107.13 90.94 106.28C91.35 105.43 91.7 104.38 92 103.11C92.3 101.84 92.44 100.82 92.42 100.04C92.41 99.26 92.38 98.58 92.36 98L92.27 96.7C92.37 96.44 92.48 96.32 92.61 96.34ZM102 121.09C101.99 122.02 102.1 122.7 102.34 123.13C102.58 123.56 103.25 123.91 104.36 124.16C105.47 124.41 106.64 124.53 107.88 124.51C110.93 124.51 112.7 124.16 113.2 123.47C113.7 122.78 114.04 122.19 114.2 121.7C114.37 121.22 114.56 120.58 114.77 119.8L115.53 117.11L116.42 113.73L116.76 112.58C116.8 112.4 116.89 112.31 117.03 112.31C117.16 112.33 117.25 112.41 117.31 112.54C117.37 112.67 117.39 112.78 117.38 112.86C117.38 112.94 117.37 113.01 117.37 113.07L117.05 114.7C116.87 115.65 116.71 116.76 116.58 118.02C116.45 119.29 116.4 120.19 116.41 120.71C116.41 121.31 116.47 121.85 116.59 122.31C116.71 122.77 116.94 123.33 117.28 123.97C117.62 124.61 117.81 125.05 117.84 125.27C117.87 125.49 117.9 125.72 117.9 125.95C117.9 126.18 117.87 126.45 117.78 126.75C117.41 128.03 116.6 128.89 115.33 129.28C114.06 129.69 111.87 129.88 108.77 129.86C104.69 129.86 101.99 129.46 100.66 128.64C99.33 127.84 98.57 127.05 98.39 126.28C98.21 125.5 98.12 124.72 98.14 123.94L98.16 93.9L97.91 85.56C98.04 85.38 98.13 85.28 98.2 85.26C98.27 85.24 98.63 85.38 99.31 85.68L103.1 87.37C103.41 87.53 103.6 87.65 103.66 87.73C103.72 87.81 103.76 87.91 103.78 88.03C103.79 88.15 103.64 88.36 103.31 88.66L102.04 89.9L102 121.09ZM104.82 78.21C104.82 78.16 104.82 78.1 104.82 78.04C104.82 77.98 104.91 77.93 105.06 77.89C105.17 77.87 105.31 77.93 105.48 78.07C105.65 78.21 105.97 78.41 106.45 78.67C106.93 78.93 108.09 79.9 109.94 81.57C111.79 83.24 112.71 85.48 112.71 88.28C112.7 89.19 112.51 90.17 112.14 91.24C111.77 92.31 111.15 92.82 110.28 92.78C109.33 92.76 108.73 92.36 108.47 91.59C108.21 90.81 108.06 90.04 108.02 89.28L107.87 86.62C107.6 83.64 106.89 81.33 105.73 79.69L104.83 78.44C104.83 78.33 104.83 78.26 104.82 78.21ZM117.21 95.91C117.24 95.77 117.34 95.68 117.51 95.64C117.57 95.64 117.79 95.75 118.18 95.96C118.57 96.17 119.65 97.39 121.44 99.62C123.22 101.85 124.38 103.88 124.9 105.71C125.42 107.54 125.69 109.24 125.69 110.79C125.69 112.34 125.47 113.63 125 114.64C124.53 115.66 123.89 116.16 123.07 116.14C122.22 116.14 121.62 115.72 121.27 114.87C120.92 114.02 120.73 113.14 120.7 112.21L120.87 106.38C120.81 105.13 120.56 103.68 120.11 102.03C119.66 100.38 118.96 98.82 118.02 97.35L117.42 96.42C117.25 96.22 117.18 96.05 117.21 95.91Z" stroke="#000000" stroke-opacity="0" stroke-width="1.000000"/>
	<path id="形状" d="M138.62 99.66L130.47 99.63C130.17 99.63 130.03 99.37 130.03 98.86C130.03 98.35 130.17 98.09 130.47 98.09L146.25 98.09L148.07 94.95C148.35 94.47 148.55 94.22 148.64 94.21C148.75 94.21 148.98 94.41 149.34 94.83L151.89 98C152.11 98.28 152.25 98.51 152.36 98.69C152.45 98.87 152.49 99.02 152.49 99.13C152.49 99.24 152.42 99.36 152.32 99.49C152.21 99.62 152.06 99.68 151.87 99.66L140.78 99.63L143.23 100.93C143.67 101.19 143.91 101.47 143.92 101.76C143.92 102.05 143.75 102.27 143.39 102.41L142.45 102.8C141.32 105.5 140.31 107.8 139.39 109.69C138.49 111.58 137.28 113.9 135.74 116.64C139.17 116.34 142.69 115.94 146.3 115.46C146.17 114.79 146.06 114.26 145.95 113.84C145.84 113.43 145.59 112.74 145.17 111.78C144.77 110.82 144.39 110.05 144.06 109.47L142.98 107.66C142.92 107.58 142.87 107.47 142.83 107.34C142.78 107.21 142.75 107.09 142.75 106.98C142.75 106.87 142.87 106.8 143.11 106.78C143.45 106.78 144.14 107.14 145.19 107.87C146.24 108.6 147.2 109.44 148.07 110.41C148.94 111.38 149.61 112.26 150.08 113.07C150.55 113.88 150.86 114.7 151 115.53C151.14 116.37 151.21 117.14 151.22 117.86C151.22 118.58 151.08 119.29 150.78 119.99C150.32 121.12 149.64 121.69 148.78 121.71C148.13 121.75 147.63 121.44 147.27 120.79C146.91 120.14 146.7 119.44 146.62 118.69L146.39 116.88C141.99 118.92 138.6 120.57 136.23 121.84L134.66 122.66L133.78 123.23C133.69 123.29 133.61 123.29 133.55 123.21C133.49 123.14 133.35 122.8 133.14 122.2L131.85 118.69C131.72 118.37 131.63 118.15 131.58 118.04C131.52 117.93 131.49 117.85 131.48 117.8C131.48 117.75 131.62 117.61 131.91 117.39L132.67 116.82C132.95 116.62 133.49 115.91 134.28 114.7C135.07 113.49 135.89 111.23 136.78 107.91C137.66 104.59 138.27 101.86 138.62 99.66ZM145.03 85.48L146.53 82.64C146.7 82.3 146.86 82.12 147 82.11C147.16 82.11 147.39 82.28 147.74 82.64L150.24 85.48C150.42 85.72 150.56 85.93 150.64 86.1C150.72 86.27 150.77 86.41 150.78 86.52C150.78 86.63 150.72 86.75 150.58 86.88C150.44 87.01 150.25 87.08 150.03 87.08L147.07 87.08L132.49 87.11C132.14 87.11 131.95 86.84 131.89 86.29C131.84 85.75 132.03 85.47 132.49 85.47L145.03 85.48ZM148.69 91.98L148.99 91.92L155.1 91.53C155.1 89.78 155.1 88.18 155.09 86.74C155.09 85.3 155.07 83.97 155.03 82.77L154.92 79.48L154.78 76.76C154.86 76.68 154.95 76.62 155.02 76.61C155.1 76.58 155.39 76.64 155.89 76.76L159.81 77.76C159.99 77.82 160.16 77.9 160.32 78C160.48 78.1 160.56 78.19 160.59 78.26C160.61 78.33 160.62 78.39 160.61 78.44C160.61 78.49 160.59 78.55 160.58 78.61L160.07 79.24L158.91 80.81C158.87 83.73 158.85 85.48 158.85 86.07L158.83 91.3L163.74 91.03L164.76 88.94C164.96 88.54 165.13 88.32 165.28 88.29C165.43 88.26 165.66 88.39 165.97 88.67L169.08 91.81C169.12 91.87 169.22 91.99 169.37 92.16C169.52 92.33 169.6 92.44 169.6 92.48C169.6 92.52 169.6 92.59 169.6 92.68C169.6 92.77 169.58 92.86 169.56 92.95C169.54 93.04 169.42 93.2 169.21 93.42L167.79 94.84C167.75 97.66 167.71 99.96 167.68 101.75C167.65 103.53 167.58 106.48 167.46 110.58C167.34 114.68 167.17 117.85 166.95 120.09C166.73 122.33 166.39 124.17 165.91 125.62C165.44 127.07 164.9 128.14 164.31 128.82C163.72 129.5 163.06 130.06 162.35 130.5C161.64 130.92 161.25 131.14 161.2 131.12C161.1 131.12 161.02 131.07 160.96 130.98C160.89 130.89 160.84 130.75 160.8 130.6L160.42 128.94C160.03 127.63 159.31 126.7 158.22 126.16L156.61 125.37C156.47 125.31 156.36 125.2 156.28 125.05C156.2 124.9 156.17 124.78 156.17 124.7C156.19 124.42 156.38 124.29 156.73 124.31L158.7 124.43C160.08 124.53 161.03 124.35 161.55 123.89C162.07 123.43 162.5 122.55 162.85 121.26C163.2 119.97 163.44 117.57 163.57 114.07L163.93 105.61C163.97 104.3 164.01 102.26 164.04 99.47C164.07 96.69 164.08 95.22 164.08 95.06L164.08 92.7L158.75 93.03C158.74 93.33 158.73 93.55 158.73 93.7L158.64 96.9C158.44 104.17 157.92 109.49 157.09 112.84C156.27 116.19 155.3 118.81 154.17 120.7C153.07 122.58 151.78 124.32 150.33 125.9C148.88 127.48 147.41 128.85 145.92 130L144.64 131C144.42 131.16 144.27 131.24 144.14 131.23C144.03 131.22 143.96 131.19 143.92 131.14C143.89 131.09 143.87 130.98 143.87 130.81C143.87 130.64 143.94 130.45 144.11 130.25L145.53 128.59C148.82 124.74 150.91 121.52 151.82 118.93C152.73 116.34 153.39 113.81 153.82 111.33C154.24 108.85 154.53 106.41 154.71 104.02C154.88 101.62 154.98 99.25 155.03 96.92L155.05 95.08L155.09 93.27L148.67 93.66C148.41 93.68 148.24 93.45 148.17 92.98C148.1 92.51 148.27 92.14 148.69 91.98Z" fill="#FFFFFF" fill-opacity="1.000000" fill-rule="nonzero"/>
	<path id="形状" d="M130.47 99.63C130.17 99.63 130.03 99.37 130.03 98.86C130.03 98.35 130.17 98.09 130.47 98.09L146.25 98.09L148.07 94.95C148.35 94.47 148.55 94.22 148.64 94.21C148.75 94.21 148.98 94.41 149.34 94.83L151.89 98C152.11 98.28 152.25 98.51 152.36 98.69C152.45 98.87 152.49 99.02 152.49 99.13C152.49 99.24 152.42 99.36 152.32 99.49C152.21 99.62 152.06 99.68 151.87 99.66L140.78 99.63L143.23 100.93C143.67 101.19 143.91 101.47 143.92 101.76C143.92 102.05 143.75 102.27 143.39 102.41L142.45 102.8C141.32 105.5 140.31 107.8 139.39 109.69C138.49 111.58 137.28 113.9 135.74 116.64C139.17 116.34 142.69 115.94 146.3 115.46C146.17 114.79 146.06 114.26 145.95 113.84C145.84 113.43 145.59 112.74 145.17 111.78C144.77 110.82 144.39 110.05 144.06 109.47L142.98 107.66C142.92 107.58 142.87 107.47 142.83 107.34C142.78 107.21 142.75 107.09 142.75 106.98C142.75 106.87 142.87 106.8 143.11 106.78C143.45 106.78 144.14 107.14 145.19 107.87C146.24 108.6 147.2 109.44 148.07 110.41C148.94 111.38 149.61 112.26 150.08 113.07C150.55 113.88 150.86 114.7 151 115.53C151.14 116.37 151.21 117.14 151.22 117.86C151.22 118.58 151.08 119.29 150.78 119.99C150.32 121.12 149.64 121.69 148.78 121.71C148.13 121.75 147.63 121.44 147.27 120.79C146.91 120.14 146.7 119.44 146.62 118.69L146.39 116.88C141.99 118.92 138.6 120.57 136.23 121.84L134.66 122.66L133.78 123.23C133.69 123.29 133.61 123.29 133.55 123.21C133.49 123.14 133.35 122.8 133.14 122.2L131.85 118.69C131.72 118.37 131.63 118.15 131.58 118.04C131.52 117.93 131.49 117.85 131.48 117.8C131.48 117.75 131.62 117.61 131.91 117.39L132.67 116.82C132.95 116.62 133.49 115.91 134.28 114.7C135.07 113.49 135.89 111.23 136.78 107.91C137.66 104.59 138.27 101.86 138.62 99.66L130.47 99.63ZM146.53 82.64C146.7 82.3 146.86 82.12 147 82.11C147.16 82.11 147.39 82.28 147.74 82.64L150.24 85.48C150.42 85.72 150.56 85.93 150.64 86.1C150.72 86.27 150.77 86.41 150.78 86.52C150.78 86.63 150.72 86.75 150.58 86.88C150.44 87.01 150.25 87.08 150.03 87.08L147.07 87.08L132.49 87.11C132.14 87.11 131.95 86.84 131.89 86.29C131.84 85.75 132.03 85.47 132.49 85.47L145.03 85.48L146.53 82.64ZM148.99 91.92L155.1 91.53C155.1 89.78 155.1 88.18 155.09 86.74C155.09 85.3 155.07 83.97 155.03 82.77L154.92 79.48L154.78 76.76C154.86 76.68 154.95 76.62 155.02 76.61C155.1 76.58 155.39 76.64 155.89 76.76L159.81 77.76C159.99 77.82 160.16 77.9 160.32 78C160.48 78.1 160.56 78.19 160.59 78.26C160.61 78.33 160.62 78.39 160.61 78.44C160.61 78.49 160.59 78.55 160.58 78.61L160.07 79.24L158.91 80.81C158.87 83.73 158.85 85.48 158.85 86.07L158.83 91.3L163.74 91.03L164.76 88.94C164.96 88.54 165.13 88.32 165.28 88.29C165.43 88.26 165.66 88.39 165.97 88.67L169.08 91.81C169.12 91.87 169.22 91.99 169.37 92.16C169.52 92.33 169.6 92.44 169.6 92.48C169.6 92.52 169.6 92.59 169.6 92.68C169.6 92.77 169.58 92.86 169.56 92.95C169.54 93.04 169.42 93.2 169.21 93.42L167.79 94.84C167.75 97.66 167.71 99.96 167.68 101.75C167.65 103.53 167.58 106.48 167.46 110.58C167.34 114.68 167.17 117.85 166.95 120.09C166.73 122.33 166.39 124.17 165.91 125.62C165.44 127.07 164.9 128.14 164.31 128.82C163.72 129.5 163.06 130.06 162.35 130.5C161.64 130.92 161.25 131.14 161.2 131.12C161.1 131.12 161.02 131.07 160.96 130.98C160.89 130.89 160.84 130.75 160.8 130.6L160.42 128.94C160.03 127.63 159.31 126.7 158.22 126.16L156.61 125.37C156.47 125.31 156.36 125.2 156.28 125.05C156.2 124.9 156.17 124.78 156.17 124.7C156.19 124.42 156.38 124.29 156.73 124.31L158.7 124.43C160.08 124.53 161.03 124.35 161.55 123.89C162.07 123.43 162.5 122.55 162.85 121.26C163.2 119.97 163.44 117.57 163.57 114.07L163.93 105.61C163.97 104.3 164.01 102.26 164.04 99.47C164.07 96.69 164.08 95.22 164.08 95.06L164.08 92.7L158.75 93.03C158.74 93.33 158.73 93.55 158.73 93.7L158.64 96.9C158.44 104.17 157.92 109.49 157.09 112.84C156.27 116.19 155.3 118.81 154.17 120.7C153.07 122.58 151.78 124.32 150.33 125.9C148.88 127.48 147.41 128.85 145.92 130L144.64 131C144.42 131.16 144.27 131.24 144.14 131.23C144.03 131.22 143.96 131.19 143.92 131.14C143.89 131.09 143.87 130.98 143.87 130.81C143.87 130.64 143.94 130.45 144.11 130.25L145.53 128.59C148.82 124.74 150.91 121.52 151.82 118.93C152.73 116.34 153.39 113.81 153.82 111.33C154.24 108.85 154.53 106.41 154.71 104.02C154.88 101.62 154.98 99.25 155.03 96.92L155.05 95.08L155.09 93.27L148.67 93.66C148.41 93.68 148.24 93.45 148.17 92.98C148.1 92.51 148.27 92.14 148.69 91.98L148.99 91.92Z" stroke="#000000" stroke-opacity="0" stroke-width="1.000000"/>
	<path id="路径" d="M28.81 37.39C28.24 49.36 22.86 54.38 16.04 54.38C6.95 54.38 0 45.78 0 29.73C0 13.68 7.31 5.08 16.27 5.08C20.5 5.08 23.65 7.16 25.44 9.67L27.02 5.08L28.02 5.08L28.02 20.12L26.73 20.12C25.08 10.96 21.86 6.94 16.27 6.94C9.17 6.94 5.81 15.47 5.81 29.73C5.81 43.99 9.39 51.88 17.12 51.88C21.93 51.88 26.38 47.94 26.95 37.4L28.81 37.39Z" fill="#FFFFFF" fill-opacity="1.000000" fill-rule="nonzero"/>
	<path id="路径" d="M16.04 54.38C6.95 54.38 0 45.78 0 29.73C0 13.68 7.31 5.08 16.27 5.08C20.5 5.08 23.65 7.16 25.44 9.67L27.02 5.08L28.02 5.08L28.02 20.12L26.73 20.12C25.08 10.96 21.86 6.94 16.27 6.94C9.17 6.94 5.81 15.47 5.81 29.73C5.81 43.99 9.39 51.88 17.12 51.88C21.93 51.88 26.38 47.94 26.95 37.4L28.81 37.39C28.24 49.36 22.86 54.38 16.04 54.38Z" stroke="#000000" stroke-opacity="0" stroke-width="1.000000"/>
	<path id="路径" d="M60.42 53.66L33.68 53.66L33.68 52.08C37.63 51.86 38.34 51.22 38.34 46.35L38.34 13.38C38.34 8.14 37.63 7.65 33.68 7.22L33.68 5.64C38.06 6 38.71 6.07 41.07 6.07C43.58 6.07 44.58 6 48.88 5.64L48.88 7.22C44.58 7.65 43.79 8.08 43.79 13.38L43.79 48.79C43.79 50.8 44.22 51.66 47.3 51.66L51.6 51.66C56.55 51.66 58.98 49.37 60.85 40.68L62.28 40.68L60.42 53.66Z" fill="#FFFFFF" fill-opacity="1.000000" fill-rule="nonzero"/>
	<path id="路径" d="M33.68 53.66L33.68 52.08C37.63 51.86 38.34 51.22 38.34 46.35L38.34 13.38C38.34 8.14 37.63 7.65 33.68 7.22L33.68 5.64C38.06 6 38.71 6.07 41.07 6.07C43.58 6.07 44.58 6 48.88 5.64L48.88 7.22C44.58 7.65 43.79 8.08 43.79 13.38L43.79 48.79C43.79 50.8 44.22 51.66 47.3 51.66L51.6 51.66C56.55 51.66 58.98 49.37 60.85 40.68L62.28 40.68L60.42 53.66L33.68 53.66Z" stroke="#000000" stroke-opacity="0" stroke-width="1.000000"/>
	<path id="路径" d="M94.39 41.91L93.17 53.66L65.58 53.66L65.58 52.08C69.51 51.86 70.24 51.22 70.24 46.35L70.24 13.1C70.24 8.22 69.51 7.58 65.58 7.37L65.58 5.79L91.67 5.79L92.67 16.9L91.24 16.9C89.88 9.72 88.52 7.8 82.86 7.8L75.69 7.8L75.69 27.87L84 27.87C86.44 27.87 87.08 26.58 87.3 22.06L88.73 22.06L88.73 35.68L87.3 35.68C87.16 31.16 86.44 29.87 84 29.87L75.69 29.87L75.69 48.79C75.69 50.8 76.12 51.66 79.19 51.66L84.36 51.66C90.24 51.66 91.24 49.58 92.96 41.91L94.39 41.91Z" fill="#FFFFFF" fill-opacity="1.000000" fill-rule="nonzero"/>
	<path id="路径" d="M93.17 53.66L65.58 53.66L65.58 52.08C69.51 51.86 70.24 51.22 70.24 46.35L70.24 13.1C70.24 8.22 69.51 7.58 65.58 7.37L65.58 5.79L91.67 5.79L92.67 16.9L91.24 16.9C89.88 9.72 88.52 7.8 82.86 7.8L75.69 7.8L75.69 27.87L84 27.87C86.44 27.87 87.08 26.58 87.3 22.06L88.73 22.06L88.73 35.68L87.3 35.68C87.16 31.16 86.44 29.87 84 29.87L75.69 29.87L75.69 48.79C75.69 50.8 76.12 51.66 79.19 51.66L84.36 51.66C90.24 51.66 91.24 49.58 92.96 41.91L94.39 41.91L93.17 53.66Z" stroke="#000000" stroke-opacity="0" stroke-width="1.000000"/>
	<path id="形状" d="M102.9 10.64L103.75 6.01L104.43 1.77L104.56 0.53C104.63 0.47 104.86 0.53 105.24 0.71L109.14 2.68C109.35 2.8 109.47 2.95 109.49 3.13C109.51 3.31 109.39 3.49 109.14 3.67L108.04 4.46L106.6 10.64L110.99 10.64L112.07 8.46C112.28 8.04 112.43 7.81 112.52 7.78C112.61 7.75 112.74 7.84 112.92 8.04L115.57 11.25C115.7 11.41 115.75 11.63 115.72 11.9C115.69 12.17 115.6 12.31 115.44 12.31L106.14 12.31L102.81 25.18L106.48 25.18L106.48 21.03L106.31 15.97C106.38 15.87 106.46 15.8 106.54 15.76L107.2 16.03L110.59 17.29C110.92 17.44 111.06 17.6 111.02 17.77C110.98 17.94 110.89 18.12 110.73 18.29L109.71 19.42L109.71 25.17L110.79 25.17L112.06 22.72C112.24 22.38 112.4 22.2 112.52 22.19C112.64 22.19 112.77 22.27 112.91 22.45L115.37 25.87C115.55 26.15 115.64 26.39 115.62 26.58C115.61 26.77 115.52 26.87 115.37 26.87L109.71 26.87L109.71 37.83C110.51 37.53 111.13 37.3 111.55 37.13L115.36 35.71L116.65 35.23C116.88 35.15 117 35.25 117.01 35.52C117.02 35.79 116.96 35.98 116.82 36.08L115.55 36.96C115.35 37.09 113.4 38.34 109.7 40.71L109.7 49.22L109.87 54.7C109.49 55.61 108.88 56.1 108.04 56.17C107.2 56.24 106.71 56.17 106.58 55.94C106.45 55.72 106.35 55.47 106.29 55.18L106.46 49.85L106.46 42.77C105.99 43.09 104.72 43.94 102.63 45.31L101.17 46.34L100.32 47.07C100.24 47.13 100.18 47.15 100.15 47.13L100.01 46.8L98.61 41.11L98.5 40.75C98.5 40.66 98.54 40.58 98.63 40.48L99.54 40.36L101.04 40.12C102.3 39.91 104.11 39.48 106.46 38.82L106.46 26.89L102.43 26.89L101.82 28.4C101.52 29.13 101.35 29.53 101.29 29.61C101.23 29.69 101.18 29.74 101.14 29.75C101.1 29.76 100.95 29.6 100.69 29.28L98.59 26.77C98.45 26.63 98.37 26.52 98.37 26.45C98.37 26.38 98.51 26.21 98.83 25.95C99.04 25.77 99.27 25.34 99.51 24.68C99.75 24.02 99.91 23.52 100 23.2L100.83 19.99C101 19.29 101.6 16.75 102.63 12.33L98.24 12.33C98.03 12.09 97.9 11.75 97.87 11.32C97.83 10.89 98.01 10.67 98.41 10.67L102.9 10.64ZM121.65 32.09C121.62 33.57 121.58 34.83 121.53 35.87C121.48 36.91 121.36 38.21 121.16 39.75C120.96 41.31 120.58 43.13 120.03 45.19C119.47 47.26 118.41 49.09 116.83 50.68C115.25 52.27 114.06 53.35 113.26 53.92L111.69 55.04C111.34 55.3 111.15 55.29 111.13 55.01C111.11 54.73 111.17 54.51 111.31 54.34L112.64 52.92C113.9 51.57 115.01 49.8 115.99 47.61C116.97 45.42 117.55 43.29 117.74 41.21C117.93 39.13 118.05 37.45 118.09 36.16C118.13 34.89 118.15 33.93 118.14 33.34C118.13 32.74 118.13 32.24 118.13 31.86L118.07 29.98L117.99 28.89C118.03 28.83 118.08 28.79 118.13 28.77C118.18 28.75 118.37 28.79 118.69 28.89L122.5 30.19C122.64 30.25 122.73 30.32 122.75 30.39C122.78 30.46 122.8 30.51 122.8 30.54C122.8 30.57 122.78 30.65 122.73 30.78C122.67 30.91 122.62 31 122.58 31.04L121.65 32.09ZM130.81 16.02L132.46 13.02C132.71 12.56 132.88 12.33 132.97 12.34C133.05 12.35 133.22 12.5 133.46 12.78L136.17 16.29C136.47 16.69 136.6 17.02 136.56 17.26C136.52 17.5 136.39 17.62 136.17 17.62L126.4 17.62C126.7 18.46 126.89 19 126.97 19.2C127.05 19.42 127.47 20.21 128.23 21.6C128.99 22.98 130.17 24.33 131.78 25.64C133.41 26.95 134.92 27.86 136.36 28.36L137.78 28.87C137.99 28.95 138.09 29.1 138.09 29.32C138.09 29.54 137.98 29.69 137.78 29.77L136.97 30.1C136.17 30.44 135.56 30.98 135.11 31.7L134.45 33C134.27 33.36 134.11 33.54 133.98 33.5C133.67 33.49 133.06 32.98 132.1 31.98C131.14 30.98 130.42 30.1 129.91 29.33C129.39 28.56 128.87 27.61 128.32 26.47C127.77 25.33 127.3 24.19 126.91 23.06C126.52 21.93 126.24 20.83 126.07 19.75C125.9 18.67 125.79 17.95 125.73 17.59L123.72 17.59C123.52 18.09 123.32 18.56 123.13 18.98L121.8 21.89C120.76 24.01 119.38 26.17 117.68 28.38C115.98 30.59 114.49 32.25 113.22 33.36L112.12 34.33C111.82 34.59 111.66 34.58 111.62 34.28C111.58 33.99 111.67 33.72 111.86 33.48L112.9 32.24C113.42 31.61 113.97 30.88 114.53 30.03C115.09 29.18 115.79 27.89 116.63 26.14C117.46 24.39 118.07 23.06 118.45 22.13C118.83 21.2 119.15 20.34 119.4 19.54C119.65 18.74 119.87 18.09 120.06 17.59L112.37 17.59C112.04 17.59 111.87 17.32 111.84 16.79C111.81 16.26 111.99 15.99 112.37 15.99L120.57 15.99C120.64 15.71 120.75 15.32 120.9 14.84C121.05 14.36 121.21 13.8 121.4 13.16C121.59 12.52 121.89 11.15 122.33 9.03C119.01 9.64 116.95 9.93 116.14 9.93L115.25 9.93C114.95 9.93 114.82 9.82 114.85 9.59C114.88 9.35 114.97 9.21 115.13 9.14L116.63 8.7C117.58 8.42 118.31 8.18 118.83 7.97C119.35 7.77 120.77 7.16 123.08 6.14C125.39 5.12 126.92 4.36 127.67 3.85L129.6 2.55C129.75 2.45 129.92 2.3 130.14 2.09C130.35 1.9 130.48 1.78 130.53 1.75C130.59 1.72 130.84 1.99 131.28 2.55L133.85 5.82C134.24 6.34 134.42 6.67 134.39 6.79C134.35 6.91 134.17 7 133.85 7.06L132.24 7.36C131.45 7.52 130.36 7.75 128.98 8.04C127.6 8.33 126.28 8.55 125.04 8.68L127.08 9.93C127.18 10.01 127.24 10.1 127.25 10.22C127.26 10.33 127.17 10.46 126.95 10.6L126.12 11.14C125.64 12.45 125.27 13.44 125.02 14.09C124.77 14.75 124.53 15.38 124.32 15.98L130.81 16.02ZM130.17 33.03L130.17 49.47L130.34 54.25C130.31 54.55 130.21 54.94 130.03 55.4C129.85 55.86 129.32 56.12 128.42 56.16C127.52 56.2 127.01 56.11 126.87 55.89C126.74 55.67 126.65 55.41 126.61 55.1L126.74 50.89L126.74 35L126.57 29.79C126.65 29.69 126.73 29.62 126.8 29.58L127.48 29.88L130.72 31.21C130.95 31.31 131.05 31.45 131.03 31.62C131.03 31.79 130.95 31.97 130.81 32.15L130.17 33.03Z" fill="#FFFFFF" fill-opacity="1.000000" fill-rule="nonzero"/>
	<path id="形状" d="M103.75 6.01L104.43 1.77L104.56 0.53C104.63 0.47 104.86 0.53 105.24 0.71L109.14 2.68C109.35 2.8 109.47 2.95 109.49 3.13C109.51 3.31 109.39 3.49 109.14 3.67L108.04 4.46L106.6 10.64L110.99 10.64L112.07 8.46C112.28 8.04 112.43 7.81 112.52 7.78C112.61 7.75 112.74 7.84 112.92 8.04L115.57 11.25C115.7 11.41 115.75 11.63 115.72 11.9C115.69 12.17 115.6 12.31 115.44 12.31L106.14 12.31L102.81 25.18L106.48 25.18L106.48 21.03L106.31 15.97C106.38 15.87 106.46 15.8 106.54 15.76L107.2 16.03L110.59 17.29C110.92 17.44 111.06 17.6 111.02 17.77C110.98 17.94 110.89 18.12 110.73 18.29L109.71 19.42L109.71 25.17L110.79 25.17L112.06 22.72C112.24 22.38 112.4 22.2 112.52 22.19C112.64 22.19 112.77 22.27 112.91 22.45L115.37 25.87C115.55 26.15 115.64 26.39 115.62 26.58C115.61 26.77 115.52 26.87 115.37 26.87L109.71 26.87L109.71 37.83C110.51 37.53 111.13 37.3 111.55 37.13L115.36 35.71L116.65 35.23C116.88 35.15 117 35.25 117.01 35.52C117.02 35.79 116.96 35.98 116.82 36.08L115.55 36.96C115.35 37.09 113.4 38.34 109.7 40.71L109.7 49.22L109.87 54.7C109.49 55.61 108.88 56.1 108.04 56.17C107.2 56.24 106.71 56.17 106.58 55.94C106.45 55.72 106.35 55.47 106.29 55.18L106.46 49.85L106.46 42.77C105.99 43.09 104.72 43.94 102.63 45.31L101.17 46.34L100.32 47.07C100.24 47.13 100.18 47.15 100.15 47.13L100.01 46.8L98.61 41.11L98.5 40.75C98.5 40.66 98.54 40.58 98.63 40.48L99.54 40.36L101.04 40.12C102.3 39.91 104.11 39.48 106.46 38.82L106.46 26.89L102.43 26.89L101.82 28.4C101.52 29.13 101.35 29.53 101.29 29.61C101.23 29.69 101.18 29.74 101.14 29.75C101.1 29.76 100.95 29.6 100.69 29.28L98.59 26.77C98.45 26.63 98.37 26.52 98.37 26.45C98.37 26.38 98.51 26.21 98.83 25.95C99.04 25.77 99.27 25.34 99.51 24.68C99.75 24.02 99.91 23.52 100 23.2L100.83 19.99C101 19.29 101.6 16.75 102.63 12.33L98.24 12.33C98.03 12.09 97.9 11.75 97.87 11.32C97.83 10.89 98.01 10.67 98.41 10.67L102.9 10.64L103.75 6.01ZM121.53 35.87C121.48 36.91 121.36 38.21 121.16 39.75C120.96 41.31 120.58 43.13 120.03 45.19C119.47 47.26 118.41 49.09 116.83 50.68C115.25 52.27 114.06 53.35 113.26 53.92L111.69 55.04C111.34 55.3 111.15 55.29 111.13 55.01C111.11 54.73 111.17 54.51 111.31 54.34L112.64 52.92C113.9 51.57 115.01 49.8 115.99 47.61C116.97 45.42 117.55 43.29 117.74 41.21C117.93 39.13 118.05 37.45 118.09 36.16C118.13 34.89 118.15 33.93 118.14 33.34C118.13 32.74 118.13 32.24 118.13 31.86L118.07 29.98L117.99 28.89C118.03 28.83 118.08 28.79 118.13 28.77C118.18 28.75 118.37 28.79 118.69 28.89L122.5 30.19C122.64 30.25 122.73 30.32 122.75 30.39C122.78 30.46 122.8 30.51 122.8 30.54C122.8 30.57 122.78 30.65 122.73 30.78C122.67 30.91 122.62 31 122.58 31.04L121.65 32.09C121.62 33.57 121.58 34.83 121.53 35.87ZM132.46 13.02C132.71 12.56 132.88 12.33 132.97 12.34C133.05 12.35 133.22 12.5 133.46 12.78L136.17 16.29C136.47 16.69 136.6 17.02 136.56 17.26C136.52 17.5 136.39 17.62 136.17 17.62L126.4 17.62C126.7 18.46 126.89 19 126.97 19.2C127.05 19.42 127.47 20.21 128.23 21.6C128.99 22.98 130.17 24.33 131.78 25.64C133.41 26.95 134.92 27.86 136.36 28.36L137.78 28.87C137.99 28.95 138.09 29.1 138.09 29.32C138.09 29.54 137.98 29.69 137.78 29.77L136.97 30.1C136.17 30.44 135.56 30.98 135.11 31.7L134.45 33C134.27 33.36 134.11 33.54 133.98 33.5C133.67 33.49 133.06 32.98 132.1 31.98C131.14 30.98 130.42 30.1 129.91 29.33C129.39 28.56 128.87 27.61 128.32 26.47C127.77 25.33 127.3 24.19 126.91 23.06C126.52 21.93 126.24 20.83 126.07 19.75C125.9 18.67 125.79 17.95 125.73 17.59L123.72 17.59C123.52 18.09 123.32 18.56 123.13 18.98L121.8 21.89C120.76 24.01 119.38 26.17 117.68 28.38C115.98 30.59 114.49 32.25 113.22 33.36L112.12 34.33C111.82 34.59 111.66 34.58 111.62 34.28C111.58 33.99 111.67 33.72 111.86 33.48L112.9 32.24C113.42 31.61 113.97 30.88 114.53 30.03C115.09 29.18 115.79 27.89 116.63 26.14C117.46 24.39 118.07 23.06 118.45 22.13C118.83 21.2 119.15 20.34 119.4 19.54C119.65 18.74 119.87 18.09 120.06 17.59L112.37 17.59C112.04 17.59 111.87 17.32 111.84 16.79C111.81 16.26 111.99 15.99 112.37 15.99L120.57 15.99C120.64 15.71 120.75 15.32 120.9 14.84C121.05 14.36 121.21 13.8 121.4 13.16C121.59 12.52 121.89 11.15 122.33 9.03C119.01 9.64 116.95 9.93 116.14 9.93L115.25 9.93C114.95 9.93 114.82 9.82 114.85 9.59C114.88 9.35 114.97 9.21 115.13 9.14L116.63 8.7C117.58 8.42 118.31 8.18 118.83 7.97C119.35 7.77 120.77 7.16 123.08 6.14C125.39 5.12 126.92 4.36 127.67 3.85L129.6 2.55C129.75 2.45 129.92 2.3 130.14 2.09C130.35 1.9 130.48 1.78 130.53 1.75C130.59 1.72 130.84 1.99 131.28 2.55L133.85 5.82C134.24 6.34 134.42 6.67 134.39 6.79C134.35 6.91 134.17 7 133.85 7.06L132.24 7.36C131.45 7.52 130.36 7.75 128.98 8.04C127.6 8.33 126.28 8.55 125.04 8.68L127.08 9.93C127.18 10.01 127.24 10.1 127.25 10.22C127.26 10.33 127.17 10.46 126.95 10.6L126.12 11.14C125.64 12.45 125.27 13.44 125.02 14.09C124.77 14.75 124.53 15.38 124.32 15.98L130.81 16.02L132.46 13.02ZM130.17 49.47L130.34 54.25C130.31 54.55 130.21 54.94 130.03 55.4C129.85 55.86 129.32 56.12 128.42 56.16C127.52 56.2 127.01 56.11 126.87 55.89C126.74 55.67 126.65 55.41 126.61 55.1L126.74 50.89L126.74 35L126.57 29.79C126.65 29.69 126.73 29.62 126.8 29.58L127.48 29.88L130.72 31.21C130.95 31.31 131.05 31.45 131.03 31.62C131.03 31.79 130.95 31.97 130.81 32.15L130.17 33.03L130.17 49.47Z" stroke="#000000" stroke-opacity="0" stroke-width="1.000000"/>
	<path id="形状" d="M152.36 31.04L154.25 31.04L155.56 28.35C155.63 28.19 155.69 28.1 155.75 28.09C155.81 28.09 155.91 28.17 156.05 28.35L158.55 32.16C158.78 32.52 158.69 32.7 158.3 32.7L152.37 32.7L152.37 45.32C154.38 44.65 155.88 44.13 156.88 43.75L158.7 43.05C158.95 42.97 159.09 43.03 159.11 43.23C159.13 43.43 159.03 43.6 158.82 43.74L157.08 44.89C153.6 47.17 149.55 49.97 144.92 53.28L143.69 54.16C143.44 54.34 143.28 54.41 143.24 54.36C143.2 54.31 143.16 54.2 143.13 54.04L142.03 49.32C141.97 49.1 141.95 48.93 141.95 48.81L141.95 48.66C141.95 48.58 142.02 48.52 142.16 48.48L143.58 48.15L143.58 32.59L143.47 27.63C143.53 27.55 143.58 27.5 143.64 27.48L143.89 27.6L147.66 28.93C147.83 29.01 147.92 29.13 147.94 29.28C147.95 29.43 147.84 29.63 147.6 29.87L146.63 30.87L146.63 47.25L149.45 46.28L149.45 19.96L147.42 19.96L147.42 22.45C147.42 23.18 146.92 23.57 145.94 23.62C144.95 23.67 144.42 23.64 144.36 23.53C144.3 23.42 144.25 23.22 144.24 22.94L144.37 17.79L144.37 8.13L144.28 3.5C144.33 3.44 144.37 3.4 144.42 3.38L144.92 3.74L147.62 5.65L152.92 5.65L154.11 3.56C154.17 3.44 154.23 3.37 154.25 3.36C154.28 3.36 154.38 3.42 154.53 3.56L157.44 6.41C157.58 6.57 157.64 6.71 157.64 6.83C157.64 6.95 157.59 7.05 157.52 7.13L156.35 8.43L156.35 18.48L156.42 21.63C156.25 22.11 155.87 22.48 155.25 22.72C154.63 22.96 154.11 23.06 153.67 23.02C153.28 23 153.1 22.81 153.1 22.44L153.1 19.95L152.36 19.95L152.36 31.04ZM153.1 7.34L147.42 7.34L147.42 18.24L153.1 18.24L153.1 7.34ZM162.55 13.97L160.35 18.84L163.57 20.9L167.77 20.9L168.7 19.23C168.84 18.96 169.05 18.94 169.31 19.14L172.3 21.62C172.37 21.7 172.42 21.78 172.46 21.85C172.49 21.92 172.51 22 172.5 22.09C172.5 22.18 172.43 22.3 172.3 22.44L171.3 23.47L171.3 29.92L171.38 32.71C171.32 32.99 171.23 33.23 171.09 33.43C170.96 33.64 170.61 33.84 170.04 34.08C169.47 34.3 169.03 34.39 168.7 34.34C168.43 34.33 168.26 34.24 168.17 34.09C168.08 33.93 168.04 33.72 168.04 33.43L168.04 32.16L163.57 32.16L163.57 47.43C163.57 47.85 163.59 48.19 163.64 48.43C163.69 48.67 163.95 49.04 164.43 49.52C164.91 50 167.24 50.2 171.42 50.1C174.15 50.06 175.77 49.78 176.3 49.25C176.83 48.73 177.26 48.1 177.6 47.37C177.94 46.64 178.44 45.26 179.1 43.22L180.05 40.25C180.11 40.05 180.19 39.95 180.3 39.95C180.44 39.97 180.52 40.06 180.53 40.22C180.54 40.38 180.55 40.47 180.55 40.49L180.04 43.55C179.87 44.52 179.76 45.32 179.7 45.94C179.64 46.57 179.61 47.02 179.61 47.3C179.61 47.58 179.66 47.91 179.79 48.27C179.86 48.55 180.05 48.98 180.35 49.54C180.65 50.1 180.81 50.58 180.82 50.98C180.82 51.37 180.65 51.83 180.3 52.36C179.89 52.97 179.22 53.51 178.29 53.98C177.36 54.45 174.82 54.68 170.66 54.66C167.38 54.66 165.01 54.5 163.55 54.18C162.09 53.86 161.17 53.32 160.83 52.56C160.48 51.8 160.3 50.96 160.3 50.03L160.3 24.93L160.19 19.24C159.39 20.87 158.8 22.09 158.39 22.87L157.22 25.08L156.46 26.59C156.36 26.79 156.25 26.88 156.14 26.86C156 26.86 155.92 26.78 155.92 26.63C155.92 26.48 155.94 26.33 155.99 26.19L156.6 24.34C158.17 19.6 159.33 15.57 160.09 12.25C160.85 8.93 161.32 6.73 161.5 5.64L161.97 2.79L162.05 2.11C162.08 2.06 162.11 2.02 162.13 2C162.16 1.98 162.32 2.04 162.62 2.18L166.6 4.21C166.88 4.37 167.02 4.54 167 4.71C166.99 4.88 166.91 5.03 166.77 5.15L165.44 6.27L163.14 12.26L174.15 12.26L175.23 10.05C175.33 9.85 175.51 9.85 175.76 10.05L179.09 13.02L179.3 13.2C179.31 13.26 179.32 13.34 179.33 13.43C179.33 13.52 179.26 13.67 179.09 13.87L177.88 15.29C177.84 20.07 177.8 23.94 177.77 26.88C177.74 29.83 177.64 32.27 177.46 34.21C177.28 36.15 176.86 37.91 176.2 39.5C175.54 41.1 174.17 42.11 172.11 42.54L171.24 42.72C170.97 42.78 170.8 42.76 170.73 42.66L170.58 42.05L170.37 41.23C170.23 40.75 169.97 40.25 169.61 39.78C169.25 39.3 168.86 38.96 168.47 38.78L167.2 38.2C167.12 38.18 167.05 38.13 167.01 38.05C166.97 37.97 166.94 37.84 166.94 37.66C166.94 37.5 167.02 37.41 167.2 37.41L169.09 37.53C171.03 37.66 172.31 37.34 172.95 36.53C173.59 35.72 173.97 34.11 174.12 31.69C174.26 29.27 174.33 26.48 174.33 23.33C174.32 20.99 174.31 19.42 174.31 18.64L174.27 13.95L162.55 13.97ZM168.06 30.44L168.06 22.57L163.59 22.57L163.59 30.44L168.06 30.44Z" fill="#FFFFFF" fill-opacity="1.000000" fill-rule="nonzero"/>
	<path id="形状" d="M154.25 31.04L155.56 28.35C155.63 28.19 155.69 28.1 155.75 28.09C155.81 28.09 155.91 28.17 156.05 28.35L158.55 32.16C158.78 32.52 158.69 32.7 158.3 32.7L152.37 32.7L152.37 45.32C154.38 44.65 155.88 44.13 156.88 43.75L158.7 43.05C158.95 42.97 159.09 43.03 159.11 43.23C159.13 43.43 159.03 43.6 158.82 43.74L157.08 44.89C153.6 47.17 149.55 49.97 144.92 53.28L143.69 54.16C143.44 54.34 143.28 54.41 143.24 54.36C143.2 54.31 143.16 54.2 143.13 54.04L142.03 49.32C141.97 49.1 141.95 48.93 141.95 48.81L141.95 48.66C141.95 48.58 142.02 48.52 142.16 48.48L143.58 48.15L143.58 32.59L143.47 27.63C143.53 27.55 143.58 27.5 143.64 27.48L143.89 27.6L147.66 28.93C147.83 29.01 147.92 29.13 147.94 29.28C147.95 29.43 147.84 29.63 147.6 29.87L146.63 30.87L146.63 47.25L149.45 46.28L149.45 19.96L147.42 19.96L147.42 22.45C147.42 23.18 146.92 23.57 145.94 23.62C144.95 23.67 144.42 23.64 144.36 23.53C144.3 23.42 144.25 23.22 144.24 22.94L144.37 17.79L144.37 8.13L144.28 3.5C144.33 3.44 144.37 3.4 144.42 3.38L144.92 3.74L147.62 5.65L152.92 5.65L154.11 3.56C154.17 3.44 154.23 3.37 154.25 3.36C154.28 3.36 154.38 3.42 154.53 3.56L157.44 6.41C157.58 6.57 157.64 6.71 157.64 6.83C157.64 6.95 157.59 7.05 157.52 7.13L156.35 8.43L156.35 18.48L156.42 21.63C156.25 22.11 155.87 22.48 155.25 22.72C154.63 22.96 154.11 23.06 153.67 23.02C153.28 23 153.1 22.81 153.1 22.44L153.1 19.95L152.36 19.95L152.36 31.04L154.25 31.04ZM147.42 7.34L147.42 18.24L153.1 18.24L153.1 7.34L147.42 7.34ZM160.35 18.84L163.57 20.9L167.77 20.9L168.7 19.23C168.84 18.96 169.05 18.94 169.31 19.14L172.3 21.62C172.37 21.7 172.42 21.78 172.46 21.85C172.49 21.92 172.51 22 172.5 22.09C172.5 22.18 172.43 22.3 172.3 22.44L171.3 23.47L171.3 29.92L171.38 32.71C171.32 32.99 171.23 33.23 171.09 33.43C170.96 33.64 170.61 33.84 170.04 34.08C169.47 34.3 169.03 34.39 168.7 34.34C168.43 34.33 168.26 34.24 168.17 34.09C168.08 33.93 168.04 33.72 168.04 33.43L168.04 32.16L163.57 32.16L163.57 47.43C163.57 47.85 163.59 48.19 163.64 48.43C163.69 48.67 163.95 49.04 164.43 49.52C164.91 50 167.24 50.2 171.42 50.1C174.15 50.06 175.77 49.78 176.3 49.25C176.83 48.73 177.26 48.1 177.6 47.37C177.94 46.64 178.44 45.26 179.1 43.22L180.05 40.25C180.11 40.05 180.19 39.95 180.3 39.95C180.44 39.97 180.52 40.06 180.53 40.22C180.54 40.38 180.55 40.47 180.55 40.49L180.04 43.55C179.87 44.52 179.76 45.32 179.7 45.94C179.64 46.57 179.61 47.02 179.61 47.3C179.61 47.58 179.66 47.91 179.79 48.27C179.86 48.55 180.05 48.98 180.35 49.54C180.65 50.1 180.81 50.58 180.82 50.98C180.82 51.37 180.65 51.83 180.3 52.36C179.89 52.97 179.22 53.51 178.29 53.98C177.36 54.45 174.82 54.68 170.66 54.66C167.38 54.66 165.01 54.5 163.55 54.18C162.09 53.86 161.17 53.32 160.83 52.56C160.48 51.8 160.3 50.96 160.3 50.03L160.3 24.93L160.19 19.24C159.39 20.87 158.8 22.09 158.39 22.87L157.22 25.08L156.46 26.59C156.36 26.79 156.25 26.88 156.14 26.86C156 26.86 155.92 26.78 155.92 26.63C155.92 26.48 155.94 26.33 155.99 26.19L156.6 24.34C158.17 19.6 159.33 15.57 160.09 12.25C160.85 8.93 161.32 6.73 161.5 5.64L161.97 2.79L162.05 2.11C162.08 2.06 162.11 2.02 162.13 2C162.16 1.98 162.32 2.04 162.62 2.18L166.6 4.21C166.88 4.37 167.02 4.54 167 4.71C166.99 4.88 166.91 5.03 166.77 5.15L165.44 6.27L163.14 12.26L174.15 12.26L175.23 10.05C175.33 9.85 175.51 9.85 175.76 10.05L179.09 13.02L179.3 13.2C179.31 13.26 179.32 13.34 179.33 13.43C179.33 13.52 179.26 13.67 179.09 13.87L177.88 15.29C177.84 20.07 177.8 23.94 177.77 26.88C177.74 29.83 177.64 32.27 177.46 34.21C177.28 36.15 176.86 37.91 176.2 39.5C175.54 41.1 174.17 42.11 172.11 42.54L171.24 42.72C170.97 42.78 170.8 42.76 170.73 42.66L170.58 42.05L170.37 41.23C170.23 40.75 169.97 40.25 169.61 39.78C169.25 39.3 168.86 38.96 168.47 38.78L167.2 38.2C167.12 38.18 167.05 38.13 167.01 38.05C166.97 37.97 166.94 37.84 166.94 37.66C166.94 37.5 167.02 37.41 167.2 37.41L169.09 37.53C171.03 37.66 172.31 37.34 172.95 36.53C173.59 35.72 173.97 34.11 174.12 31.69C174.26 29.27 174.33 26.48 174.33 23.33C174.32 20.99 174.31 19.42 174.31 18.64L174.27 13.95L162.55 13.97L160.35 18.84ZM168.06 22.57L163.59 22.57L163.59 30.44L168.06 30.44L168.06 22.57Z" stroke="#000000" stroke-opacity="0" stroke-width="1.000000"/>
	<path id="路径" d="M204.03 38.97L204.03 29.49L195.02 29.49L193.47 31.52C193.3 31.74 193.16 31.74 193.05 31.52L190.85 27.86C190.61 27.48 190.49 27.25 190.48 27.18C190.48 27.11 190.77 26.92 191.36 26.62C191.7 26.46 192 26.15 192.27 25.68C192.54 25.22 193.1 23.94 193.95 21.85C194.8 19.76 195.45 18.15 195.9 17.02C196.35 15.89 196.87 14.46 197.48 12.72L187.5 12.72C187.15 12.72 186.96 12.45 186.94 11.9C186.92 11.35 187.11 11.08 187.5 11.08L198.07 11.08C198.11 10.94 198.45 9.87 199.09 7.87C199.73 5.87 200.18 4.34 200.47 3.27L200.94 1.45L201.19 0.06L202.03 0.54L206.25 3.26C206.41 3.38 206.48 3.55 206.47 3.76C206.47 3.97 206.33 4.16 206.08 4.32L204.64 5.26L202.33 11.07L215.62 11.07L217.23 8.1C217.6 7.41 217.82 7.05 217.91 7.01C217.99 6.97 218.21 7.13 218.55 7.49L221.88 11.33C222.13 11.65 222.26 11.96 222.24 12.24C222.23 12.52 222.1 12.66 221.86 12.66L220.31 12.66L201.68 12.69L195.53 27.83L204.03 27.83L204.03 21.53L203.9 16.35C203.98 16.23 204.07 16.15 204.15 16.11L204.64 16.32L208.84 18.11C209.12 18.25 209.25 18.44 209.23 18.69C209.21 18.93 209.08 19.14 208.84 19.33L207.87 20.06L207.87 27.84L213.87 27.84L215.35 24.93C215.75 24.14 216.03 23.81 216.22 23.92C216.4 24.03 216.67 24.3 217.02 24.72L219.73 28.05C219.97 28.37 220.09 28.68 220.1 28.97C220.1 29.26 219.98 29.41 219.73 29.41L207.86 29.47L207.86 38.95L217.93 38.95L219.73 35.74C219.98 35.28 220.16 35.04 220.25 35.03C220.34 35.03 220.47 35.11 220.64 35.29L223.71 39.13C223.88 39.34 224 39.56 224.07 39.75C224.14 39.93 224.18 40.12 224.19 40.29C224.19 40.46 224.07 40.55 223.8 40.55L218.8 40.55L207.87 40.61L207.87 49.72L208.02 54.87C207.98 55.13 207.92 55.35 207.85 55.54C207.78 55.73 207.54 55.96 207.12 56.25C206.7 56.54 206.14 56.69 205.44 56.7C204.73 56.7 204.31 56.56 204.16 56.25C204.01 55.94 203.93 55.53 203.92 55.02L204.05 49.93L204.05 40.61L186.02 40.61L185.81 40.52C185.67 40.46 185.6 40.41 185.6 40.37L185.52 40.04C185.52 39.31 185.69 38.95 186.03 38.95L204.03 38.97Z" fill="#FFFFFF" fill-opacity="1.000000" fill-rule="nonzero"/>
	<path id="路径" d="M204.03 29.49L195.02 29.49L193.47 31.52C193.3 31.74 193.16 31.74 193.05 31.52L190.85 27.86C190.61 27.48 190.49 27.25 190.48 27.18C190.48 27.11 190.77 26.92 191.36 26.62C191.7 26.46 192 26.15 192.27 25.68C192.54 25.22 193.1 23.94 193.95 21.85C194.8 19.76 195.45 18.15 195.9 17.02C196.35 15.89 196.87 14.46 197.48 12.72L187.5 12.72C187.15 12.72 186.96 12.45 186.94 11.9C186.92 11.35 187.11 11.08 187.5 11.08L198.07 11.08C198.11 10.94 198.45 9.87 199.09 7.87C199.73 5.87 200.18 4.34 200.47 3.27L200.94 1.45L201.19 0.06L202.03 0.54L206.25 3.26C206.41 3.38 206.48 3.55 206.47 3.76C206.47 3.97 206.33 4.16 206.08 4.32L204.64 5.26L202.33 11.07L215.62 11.07L217.23 8.1C217.6 7.41 217.82 7.05 217.91 7.01C217.99 6.97 218.21 7.13 218.55 7.49L221.88 11.33C222.13 11.65 222.26 11.96 222.24 12.24C222.23 12.52 222.1 12.66 221.86 12.66L220.31 12.66L201.68 12.69L195.53 27.83L204.03 27.83L204.03 21.53L203.9 16.35C203.98 16.23 204.07 16.15 204.15 16.11L204.64 16.32L208.84 18.11C209.12 18.25 209.25 18.44 209.23 18.69C209.21 18.93 209.08 19.14 208.84 19.33L207.87 20.06L207.87 27.84L213.87 27.84L215.35 24.93C215.75 24.14 216.03 23.81 216.22 23.92C216.4 24.03 216.67 24.3 217.02 24.72L219.73 28.05C219.97 28.37 220.09 28.68 220.1 28.97C220.1 29.26 219.98 29.41 219.73 29.41L207.86 29.47L207.86 38.95L217.93 38.95L219.73 35.74C219.98 35.28 220.16 35.04 220.25 35.03C220.34 35.03 220.47 35.11 220.64 35.29L223.71 39.13C223.88 39.34 224 39.56 224.07 39.75C224.14 39.93 224.18 40.12 224.19 40.29C224.19 40.46 224.07 40.55 223.8 40.55L218.8 40.55L207.87 40.61L207.87 49.72L208.02 54.87C207.98 55.13 207.92 55.35 207.85 55.54C207.78 55.73 207.54 55.96 207.12 56.25C206.7 56.54 206.14 56.69 205.44 56.7C204.73 56.7 204.31 56.56 204.16 56.25C204.01 55.94 203.93 55.53 203.92 55.02L204.05 49.93L204.05 40.61L186.02 40.61L185.81 40.52C185.67 40.46 185.6 40.41 185.6 40.37L185.52 40.04C185.52 39.31 185.69 38.95 186.03 38.95L204.03 38.97L204.03 29.49Z" stroke="#000000" stroke-opacity="0" stroke-width="1.000000"/>
</svg>
