<?xml version="1.0" encoding="UTF-8"?>
<svg width="388px" height="138px" viewBox="0 0 388 138" version="1.1" xmlns="http://www.w3.org/2000/svg" xmlns:xlink="http://www.w3.org/1999/xlink">
    <title>雷霆</title>
    <g id="页面-1" stroke="none" stroke-width="1" fill="none" fill-rule="evenodd">
        <g id="雷霆" transform="translate(0.000000, 0.010000)" fill="#FFFFFF" fill-rule="nonzero">
            <path d="M8.07,12.64 C6.85,14.2 5.71,15.52 4.65,16.62 C3.58,17.72 2.71,18.51 2.04,19.01 C1.37,19.51 1.01,19.78 0.96,19.82 L0.45,20.25 C0.36,20.33 0.26,20.37 0.16,20.36 C0.06,20.36 0.01,20.33 0,20.29 C0,20.25 0,20.19 0,20.11 C0,20.03 0.05,19.93 0.14,19.81 L0.62,19.24 C1.7,17.95 2.81,16.47 3.93,14.8 C5.05,13.13 6.24,11.04 7.49,8.53 C8.74,6.02 9.63,4.02 10.18,2.52 L10.5,1.63 L10.72,0.86 C10.72,0.86 10.76,0.79 10.78,0.76 L11.45,1.19 L14.39,3 C14.52,3.09 14.6,3.17 14.64,3.25 C14.68,3.32 14.7,3.41 14.71,3.53 C14.71,3.64 14.63,3.75 14.44,3.85 L13.5,4.4 L13.36,4.64 C14.41,7.13 15.44,8.94 16.47,10.06 C17.49,11.18 18.39,12.05 19.14,12.68 C19.9,13.31 20.71,13.9 21.57,14.46 C22.43,15.02 23.32,15.44 24.22,15.73 L25.12,16.01 L25.79,16.23 C25.96,16.3 26.06,16.36 26.07,16.42 C26.07,16.48 26.08,16.53 26.08,16.57 C26.06,16.7 26.02,16.79 25.96,16.83 L25.55,17.07 C25.15,17.31 24.83,17.52 24.6,17.72 C24.37,17.92 24.13,18.2 23.86,18.56 C23.6,18.92 23.42,19.26 23.34,19.56 C23.25,19.87 23.19,20.06 23.15,20.13 C23.11,20.2 23.06,20.23 23.01,20.22 C22.78,20.22 21.92,19.63 20.43,18.45 C18.94,17.27 17.73,15.97 16.81,14.54 C15.89,13.12 15.13,11.72 14.54,10.37 C13.94,9.01 13.51,7.77 13.25,6.66 L12.92,5.34 C10.92,8.66 9.31,11.1 8.09,12.66 L8.07,12.64 Z M14.2,18.6 C14.14,18.68 14.08,18.8 13.99,18.95 C13.91,19.11 13.76,19.27 13.56,19.44 L13.56,25.29 L16.28,25.29 L17.31,23.54 C17.52,23.17 17.65,22.99 17.71,22.98 C17.76,22.98 17.97,23.16 18.33,23.54 L20.14,25.57 C20.35,25.82 20.45,26.02 20.44,26.16 C20.43,26.3 20.3,26.38 20.06,26.38 L13.57,26.38 L13.57,33.55 L19.65,33.55 L21.01,31.44 L21.24,31.13 C21.37,30.91 21.46,30.8 21.52,30.8 C21.58,30.8 21.79,31.02 22.17,31.44 L24.2,33.72 C24.35,33.9 24.43,34.03 24.46,34.1 C24.49,34.17 24.5,34.27 24.51,34.4 C24.51,34.52 24.36,34.59 24.05,34.59 L1.25,34.59 C1.02,34.59 0.9,34.42 0.9,34.07 C0.9,33.72 1.01,33.55 1.25,33.55 L10.89,33.55 L10.89,26.38 L4.87,26.38 C4.78,26.34 4.71,26.29 4.66,26.23 C4.61,26.17 4.59,26 4.59,25.72 C4.59,25.44 4.69,25.3 4.87,25.3 L10.89,25.3 L10.89,18.6 L4.93,18.6 C4.72,18.6 4.61,18.43 4.59,18.08 C4.57,17.73 4.69,17.56 4.93,17.56 L14.84,17.56 L15.87,15.93 C16.11,15.55 16.25,15.36 16.28,15.37 C16.32,15.37 16.49,15.54 16.79,15.85 L18.61,17.82 C18.8,18.04 18.9,18.22 18.89,18.35 C18.87,18.52 18.75,18.61 18.53,18.61 L14.19,18.61 L14.2,18.6 Z" id="形状"></path>
            <path d="M38.48,6.21 L39.18,4.83 C39.44,4.32 39.59,4.07 39.64,4.07 C39.69,4.07 39.88,4.29 40.22,4.71 L41.46,6.29 C41.72,6.63 41.84,6.85 41.84,6.94 C41.84,7.02 41.79,7.09 41.72,7.16 C41.65,7.23 41.56,7.26 41.45,7.26 L38.97,7.26 L38.97,7.3 L37.65,7.3 L39.87,8.99 C40.07,9.15 40.19,9.26 40.22,9.31 C40.25,9.36 40.26,9.45 40.26,9.55 C40.26,9.65 40.15,9.74 39.96,9.84 L39.19,10.23 C38.35,12.15 37.7,13.62 37.23,14.66 L38.88,14.66 L39.6,13.34 C39.82,12.93 39.95,12.71 39.99,12.68 C40.03,12.65 40.07,12.66 40.13,12.71 C40.18,12.76 40.32,12.91 40.53,13.16 L41.73,14.7 C42.02,15.08 42.17,15.32 42.17,15.43 C42.17,15.51 42.12,15.58 42.05,15.66 C41.98,15.73 41.87,15.77 41.73,15.77 L37.21,15.77 C37.15,15.85 37.09,15.92 37.05,15.99 C37.01,16.06 36.89,16.17 36.7,16.32 L36.7,20.44 L37.97,20.44 L38.85,18.9 C39.01,18.62 39.12,18.48 39.19,18.48 C39.26,18.48 39.44,18.65 39.75,19.02 L41.21,20.87 C41.33,21.03 41.39,21.16 41.39,21.26 C41.39,21.34 41.35,21.41 41.29,21.47 C41.23,21.53 41.17,21.56 41.1,21.56 L36.7,21.56 L36.7,31.98 C36.7,32.54 36.61,33 36.44,33.35 C36.27,33.7 36.06,33.95 35.81,34.1 C35.56,34.25 35.2,34.43 34.73,34.64 C34.26,34.85 33.94,34.94 33.78,34.92 C33.72,34.92 33.68,34.91 33.66,34.88 C33.64,34.85 33.61,34.8 33.59,34.72 C33.57,34.64 33.56,34.49 33.55,34.27 C33.54,34.05 33.49,33.72 33.41,33.3 C33.32,32.87 33.03,32.49 32.52,32.15 L31.76,31.66 C31.59,31.56 31.5,31.42 31.51,31.25 C31.51,31.07 31.61,30.98 31.81,30.99 L32.69,31.11 C32.88,31.15 33.06,31.18 33.21,31.2 C33.36,31.22 33.47,31.23 33.53,31.23 L33.96,31.23 C34.3,31.27 34.47,31.14 34.47,30.84 L34.47,21.58 L29.36,21.58 L29.17,21.5 C29,21.36 28.91,21.15 28.87,20.87 C28.83,20.59 28.97,20.46 29.28,20.46 L34.48,20.46 L34.48,15.79 L28.99,15.79 L28.84,15.75 C28.76,15.71 28.69,15.66 28.63,15.6 C28.57,15.54 28.54,15.37 28.53,15.1 C28.53,14.82 28.65,14.69 28.92,14.69 L36.18,14.69 C36.39,13.8 36.62,12.65 36.88,11.23 C37.13,9.82 37.29,8.86 37.34,8.36 L37.45,7.32 L29.47,7.32 C29.25,7.32 29.12,7.14 29.08,6.78 C29.04,6.42 29.17,6.24 29.47,6.24 L38.48,6.24 L38.48,6.21 Z M32.94,24.98 C32.48,26.1 32.15,26.86 31.96,27.27 C31.77,27.68 31.36,28.49 30.74,29.69 C30.12,30.89 29.71,31.64 29.52,31.92 L28.93,32.81 C28.81,32.98 28.72,33.07 28.65,33.07 C28.62,33.08 28.6,33.07 28.57,33.05 C28.55,33.02 28.54,32.96 28.54,32.86 C28.54,32.76 28.57,32.62 28.62,32.44 L28.92,31.59 C28.97,31.46 29.1,31.03 29.31,30.31 C29.53,29.59 29.66,29.12 29.72,28.91 C29.78,28.7 29.93,28.08 30.18,27.05 C30.43,26.02 30.59,25.25 30.66,24.74 L30.83,23.52 L30.91,22.59 C30.93,22.54 30.96,22.5 30.99,22.47 L31.35,22.73 L33.29,23.97 C33.5,24.11 33.61,24.23 33.61,24.32 C33.61,24.36 33.58,24.42 33.54,24.5 C33.5,24.58 33.46,24.63 33.42,24.66 L32.94,24.97 L32.94,24.98 Z M31.56,9.5 L31.3,8.83 C31.3,8.83 31.27,8.75 31.27,8.66 C31.27,8.58 31.27,8.52 31.27,8.49 C31.29,8.36 31.35,8.29 31.45,8.29 C31.56,8.3 32.06,8.71 32.95,9.51 C33.84,10.31 34.27,11.31 34.25,12.5 C34.23,13 34.1,13.46 33.85,13.89 C33.6,14.32 33.27,14.53 32.84,14.53 C32.29,14.54 31.98,14.31 31.92,13.84 C31.86,13.37 31.83,12.92 31.83,12.51 C31.83,12.1 31.83,11.76 31.83,11.52 C31.81,10.6 31.72,9.92 31.55,9.49 L31.56,9.5 Z M33.05,1.33 L32.75,0.86 C32.71,0.79 32.68,0.73 32.67,0.66 C32.67,0.59 32.67,0.54 32.69,0.5 C32.72,0.41 32.79,0.36 32.9,0.34 C32.98,0.34 33.27,0.42 33.78,0.58 C34.29,0.74 34.84,1 35.46,1.38 C36.08,1.75 36.44,2.27 36.54,2.92 C36.64,3.57 36.69,3.96 36.69,4.08 C36.69,4.2 36.67,4.37 36.63,4.56 C36.55,4.9 36.4,5.25 36.17,5.61 C35.95,5.97 35.61,6.15 35.16,6.13 C34.7,6.13 34.38,5.97 34.2,5.65 C34.02,5.33 33.91,4.96 33.86,4.56 L33.75,3.3 C33.71,2.99 33.66,2.69 33.58,2.41 C33.5,2.13 33.33,1.77 33.05,1.33 Z M50.16,13.95 L50.85,12.53 C51.11,11.99 51.26,11.71 51.3,11.67 C51.34,11.64 51.39,11.65 51.46,11.7 C51.52,11.75 51.73,11.99 52.07,12.41 L53.44,14.18 C53.57,14.36 53.64,14.49 53.67,14.54 C53.7,14.59 53.71,14.65 53.71,14.71 C53.71,14.92 53.61,15.03 53.45,15.03 L50.33,15.03 C50.22,15.24 50.13,15.37 50.07,15.43 C50.01,15.49 49.91,15.55 49.79,15.6 L49.79,32.48 L49.87,34.94 C49.76,35.41 49.53,35.74 49.17,35.93 C48.82,36.12 48.49,36.21 48.2,36.2 C47.84,36.2 47.61,36.12 47.52,35.96 C47.42,35.8 47.36,35.61 47.33,35.39 L47.44,31.35 L47.44,15.03 L44.72,15.03 C44.68,16.75 44.63,18.26 44.58,19.57 C44.53,20.88 44.44,22.06 44.3,23.12 C44.16,24.18 43.87,25.46 43.42,26.96 C42.97,28.46 42.32,29.79 41.44,30.95 C40.56,32.11 39.86,32.99 39.33,33.59 C38.8,34.19 38.39,34.6 38.1,34.82 L37.49,35.31 C37.37,35.4 37.28,35.44 37.21,35.44 C37.14,35.44 37.1,35.41 37.08,35.37 C37.06,35.33 37.05,35.29 37.05,35.25 C37.05,35.21 37.05,35.16 37.05,35.1 C37.05,35.04 37.11,34.95 37.22,34.81 L37.73,34.2 C38.97,32.72 39.95,31.14 40.68,29.47 C41.41,27.8 41.86,26.06 42.05,24.24 C42.24,22.42 42.36,20.74 42.41,19.2 C42.46,17.66 42.49,15.8 42.5,13.62 C42.5,12.22 42.48,10.82 42.43,9.45 C42.38,8.07 42.36,7.31 42.36,7.17 L42.36,6.36 L42.19,3.58 C42.19,3.58 42.25,3.53 42.27,3.52 C42.29,3.51 42.5,3.64 42.9,3.93 L44.87,5.35 C46.49,4.46 47.79,3.58 48.77,2.71 L49.45,2.12 L49.89,1.59 C49.95,1.56 50.02,1.56 50.1,1.59 L50.58,2.24 L52.16,4.05 C52.44,4.38 52.57,4.59 52.57,4.7 C52.57,4.86 52.47,4.95 52.29,4.98 L51.44,5.12 L47.72,5.87 L44.76,6.36 C44.74,7.82 44.73,8.9 44.73,9.61 L44.7,11.78 L44.7,13.95 C44.7,13.95 50.13,13.95 50.13,13.95 L50.16,13.95 Z M37.79,24.5 L37.56,24.05 C37.43,23.81 37.38,23.64 37.42,23.54 C37.45,23.44 37.47,23.38 37.48,23.36 C37.48,23.35 37.52,23.33 37.56,23.32 C37.74,23.32 38.16,23.61 38.79,24.18 C39.43,24.75 39.91,25.32 40.23,25.87 C40.55,26.43 40.71,27.01 40.7,27.61 C40.7,28.07 40.57,28.5 40.33,28.91 C40.1,29.32 39.79,29.52 39.4,29.52 C38.96,29.53 38.68,29.35 38.57,28.98 C38.46,28.61 38.39,28.22 38.38,27.83 L38.35,26.63 C38.29,25.84 38.11,25.13 37.78,24.5 L37.79,24.5 Z" id="形状"></path>
            <path d="M60.73,10.96 L56.73,10.96 C56.51,10.96 56.4,10.78 56.39,10.42 C56.39,10.06 56.5,9.88 56.73,9.88 L60.75,9.88 L60.75,3.91 L60.67,0.72 C60.72,0.67 60.75,0.64 60.77,0.62 C60.79,0.61 60.95,0.65 61.23,0.76 L63.63,1.69 C63.89,1.8 63.89,2 63.63,2.3 L62.89,3.19 L62.89,9.89 L63.54,9.89 L64.2,8.71 C64.37,8.42 64.48,8.27 64.54,8.25 C64.6,8.23 64.86,8.47 65.3,8.97 L66.14,9.95 C66.46,10.34 66.6,10.62 66.55,10.77 C66.5,10.92 66.4,11 66.24,11 L62.89,11 L62.89,15.8 C64.6,16.36 65.6,17.07 65.87,17.91 C66.15,18.75 66.27,19.33 66.22,19.66 L66.18,19.96 L67.46,19.96 C67.46,19.76 67.48,19.61 67.49,19.51 L67.68,16.89 C67.77,15.51 67.83,14.44 67.86,13.66 L67.91,11.73 C67.54,12.44 67.12,13.21 66.66,14.03 L66.11,14.99 C65.94,15.28 65.82,15.38 65.73,15.3 C65.64,15.21 65.64,15.03 65.73,14.76 L66.12,13.56 C66.45,12.52 66.79,11.34 67.13,10.03 C67.47,8.72 67.71,7.74 67.86,7.11 L68.3,5.1 C68.53,4.08 68.67,3.39 68.73,3.05 L68.98,1.47 L69.06,0.86 C69.06,0.86 69.13,0.79 69.2,0.78 L69.71,1.15 L71.92,2.59 C72.1,2.72 72.21,2.86 72.22,3.01 C72.24,3.16 72.13,3.32 71.89,3.47 L71.48,3.75 L70.09,7.06 L77.47,7.06 L78.33,5.29 C78.43,5.08 78.51,4.97 78.57,4.95 C78.63,4.93 78.73,4.99 78.87,5.14 L80.87,7.4 C81.03,7.58 81.09,7.75 81.07,7.89 C81.05,8.03 80.98,8.11 80.87,8.11 L79.64,8.11 L79.64,8.13 L69.66,8.13 L68.34,11.01 L70.35,12.35 L76.44,12.35 L77.03,11.01 C77.14,10.76 77.22,10.63 77.27,10.61 C77.32,10.59 77.45,10.67 77.65,10.86 L79.43,12.55 C79.57,12.69 79.64,12.83 79.64,12.95 C79.64,13.07 79.56,13.23 79.4,13.41 L78.86,14 L78.68,19.97 L78.89,19.97 L79.51,18.83 C79.71,18.45 79.85,18.26 79.93,18.25 C80.01,18.25 80.14,18.35 80.32,18.56 L81.69,20.25 C81.85,20.46 81.92,20.64 81.9,20.79 C81.89,20.94 81.82,21.02 81.71,21.02 L79.85,21.02 L79.85,21.04 L78.64,21.04 C78.64,21.34 78.61,22 78.59,23.03 C78.57,24.05 78.54,24.99 78.5,25.85 L78.39,27.98 L78.39,28.41 C78.39,28.41 78.5,28.41 78.5,28.41 L79.2,26.99 C79.32,26.75 79.41,26.63 79.46,26.62 C79.51,26.61 79.64,26.71 79.85,26.93 L81.1,28.37 C81.46,28.79 81.62,29.07 81.57,29.22 C81.53,29.36 81.44,29.44 81.31,29.44 L79.01,29.44 L79.01,29.5 L78.28,29.5 C78.23,29.83 78.2,30.09 78.18,30.29 C78.16,30.49 78.14,30.72 78.1,31 C78.07,31.28 77.97,31.73 77.82,32.37 C77.66,33.01 77.48,33.54 77.28,33.96 C77.08,34.38 76.73,34.81 76.26,35.23 C75.79,35.65 75.22,35.91 74.57,36 C74.4,36.03 74.3,36.02 74.26,36 C74.22,35.97 74.16,35.76 74.09,35.38 C74.02,35 73.89,34.64 73.7,34.31 C73.52,33.98 73.35,33.75 73.2,33.62 C73.05,33.5 72.86,33.37 72.62,33.24 L71.83,32.83 C71.75,32.79 71.68,32.73 71.64,32.64 C71.6,32.55 71.59,32.46 71.62,32.36 C71.65,32.26 71.73,32.22 71.85,32.23 L72.66,32.39 C73.95,32.65 74.75,32.59 75.07,32.21 C75.39,31.83 75.61,31.28 75.73,30.58 L75.81,30.05 L75.89,29.52 L68.82,29.52 L68.28,30.41 C68.1,30.71 67.98,30.87 67.93,30.88 C67.88,30.89 67.77,30.81 67.61,30.62 L66.42,29.4 C66.1,29.07 65.94,28.88 65.93,28.81 C65.93,28.74 65.93,28.68 65.96,28.61 L66.33,28.22 L66.71,27.75 C66.87,26.37 66.99,25.24 67.08,24.35 C67.17,23.46 67.25,22.37 67.33,21.07 L65.8,21.07 C65.5,21.38 65.18,21.54 64.86,21.53 C64.54,21.53 64.3,21.4 64.15,21.16 C64,20.92 63.91,20.65 63.88,20.37 C63.85,20.09 63.84,19.69 63.83,19.18 C63.83,18.67 63.78,18.21 63.69,17.81 C63.6,17.41 63.46,17.13 63.28,16.97 L62.85,16.58 L62.85,30.58 L62.96,34.72 C62.92,34.9 62.88,35.05 62.82,35.17 C62.76,35.29 62.61,35.44 62.36,35.61 C62.11,35.78 61.79,35.89 61.4,35.91 C61.01,35.93 60.77,35.86 60.69,35.69 C60.61,35.53 60.55,35.33 60.52,35.09 L60.64,31.19 L60.64,20.85 C60.34,21.44 59.96,22.18 59.51,23.07 C59.06,23.96 58.65,24.73 58.28,25.39 C57.91,26.05 57.67,26.49 57.56,26.71 C57.45,26.93 57.37,27.07 57.33,27.15 L56.93,27.8 C56.81,28 56.7,28.05 56.61,27.95 C56.52,27.85 56.52,27.68 56.61,27.45 L57.01,26.33 C57.97,23.63 58.76,20.89 59.37,18.12 C59.98,15.35 60.41,12.99 60.68,11.03 L60.73,10.96 Z M68.95,28.37 L76.03,28.37 C76.03,28.24 76.07,28.01 76.11,27.69 C76.16,27.37 76.2,26.66 76.23,25.57 L76.31,23.29 L76.39,21.01 L69.59,21.01 L68.93,28.37 L68.95,28.37 Z M69.67,19.94 L76.45,19.94 C76.45,19.57 76.47,19.3 76.47,19.11 C76.47,18.93 76.48,18.5 76.5,17.82 C76.51,17.14 76.52,16.37 76.51,15.5 C76.51,14.63 76.51,14.08 76.51,13.86 L76.51,13.43 L70.14,13.43 L69.67,19.95 L69.67,19.94 Z M71.37,22.36 C71.37,22.1 71.51,22.05 71.78,22.22 C72.98,22.99 73.69,23.71 73.92,24.38 C74.15,25.04 74.25,25.63 74.2,26.14 C74.15,26.52 74.04,26.86 73.86,27.15 C73.68,27.45 73.4,27.6 73.02,27.62 C72.64,27.64 72.36,27.47 72.17,27.1 C72.07,26.93 72,26.71 71.98,26.45 C71.96,26.19 71.94,25.79 71.95,25.27 C71.95,24.75 71.95,24.34 71.9,24.07 C71.86,23.89 71.76,23.56 71.6,23.09 C71.43,22.62 71.36,22.37 71.37,22.36 L71.37,22.36 Z M71.51,14.05 C71.58,13.95 71.82,14.01 72.21,14.25 C72.6,14.49 72.95,14.71 73.24,14.93 C73.53,15.15 73.79,15.45 74,15.83 C74.21,16.21 74.34,16.64 74.4,17.13 C74.46,17.62 74.39,18.07 74.19,18.51 C73.99,18.94 73.68,19.17 73.28,19.19 C72.88,19.21 72.58,19.02 72.38,18.61 C72.27,18.4 72.21,18.07 72.19,17.61 L72.16,16.64 C72.12,15.91 72,15.36 71.8,15.02 C71.6,14.67 71.49,14.44 71.48,14.31 C71.48,14.19 71.48,14.1 71.51,14.06 L71.51,14.05 Z" id="形状"></path>
            <path d="M102.47,9.44 L102.97,8.65 C103.24,8.23 103.41,8.01 103.48,8 L103.98,8.57 L105.12,9.85 C105.19,9.94 105.27,10.07 105.36,10.24 C105.45,10.41 105.36,10.5 105.08,10.5 L101.36,10.5 L101.36,12.71 L102.78,12.71 L103.34,11.8 C103.51,11.54 103.62,11.41 103.68,11.42 C103.74,11.42 103.87,11.55 104.07,11.8 L105.01,12.98 C105.19,13.22 105.29,13.4 105.29,13.53 C105.29,13.69 105.2,13.77 105.06,13.77 L101.37,13.77 L101.37,16.13 L105.45,16.13 L106.25,14.77 C106.46,14.4 106.62,14.23 106.72,14.24 C106.82,14.25 107.03,14.43 107.35,14.77 L108.7,16.25 C108.97,16.55 109.1,16.76 109.1,16.88 C109.1,16.95 109.06,17.01 109.01,17.08 C108.96,17.15 108.89,17.18 108.81,17.18 L107.05,17.18 L107.05,17.22 L101.83,17.22 C101.93,17.35 102.16,17.65 102.51,18.12 C102.86,18.59 103.62,19.25 104.77,20.12 C105.92,20.99 107.37,21.51 109.1,21.68 L110.08,21.78 C110.17,21.79 110.23,21.84 110.26,21.91 C110.29,21.98 110.3,22.03 110.3,22.05 C110.3,22.07 110.28,22.11 110.25,22.18 C110.22,22.25 110.19,22.29 110.15,22.32 L109.76,22.58 C109.12,23.01 108.64,23.57 108.32,24.26 C108,24.95 107.78,25.28 107.66,25.25 C107.04,25.16 105.82,24.25 103.98,22.51 L103.7,22.81 L103.7,25.86 L103.81,29.13 C103.77,29.3 103.73,29.42 103.69,29.49 C103.64,29.56 103.52,29.66 103.32,29.78 C103.12,29.9 102.98,29.97 102.91,30.01 C102.84,30.05 102.63,30.08 102.28,30.11 C101.94,30.14 101.72,30.1 101.64,29.98 C101.56,29.86 101.52,29.67 101.52,29.41 L101.52,21.47 L92.97,21.47 L92.97,30.17 C92.97,30.39 92.83,30.62 92.56,30.86 C92.29,31.1 91.9,31.21 91.41,31.21 C91.16,31.22 91,31.18 90.93,31.08 C90.86,30.98 90.82,30.83 90.8,30.64 L90.88,27.23 L90.88,22.19 C89.02,23.66 87.57,24.68 86.51,25.26 L85.57,25.77 C85.16,25.99 84.9,26.12 84.79,26.14 C84.68,26.17 84.63,26.15 84.62,26.09 C84.61,26.03 84.61,25.98 84.61,25.92 C84.61,25.76 84.71,25.61 84.87,25.45 L85.56,24.9 L86.4,24.19 C87.32,23.42 88.33,22.35 89.44,20.98 C90.55,19.61 91.21,18.71 91.44,18.25 C91.66,17.8 91.85,17.45 92,17.22 L85.7,17.22 C85.48,17.22 85.36,17.04 85.34,16.68 C85.32,16.32 85.44,16.14 85.7,16.14 L92.48,16.14 L92.48,13.78 L89.41,13.78 L89.22,13.72 C89.13,13.68 89.06,13.62 89.01,13.55 C88.96,13.48 88.94,13.32 88.95,13.08 C88.96,12.84 89.06,12.72 89.25,12.72 L92.49,12.72 L92.49,10.51 L89.5,10.51 L89.32,10.45 C89.23,10.41 89.16,10.36 89.11,10.3 C89.06,10.24 89.04,10.08 89.05,9.83 C89.05,9.57 89.16,9.45 89.34,9.45 L92.5,9.45 L92.5,9.12 L92.42,6.52 L92.46,6.4 L89.04,6.4 C89.04,6.6 89.04,6.78 89.04,6.96 C89.04,7.14 89.04,7.44 89.05,7.86 C89.05,8.28 89.01,8.73 88.91,9.22 C88.8,9.72 88.59,10.22 88.29,10.73 C87.99,11.24 87.57,11.48 87.05,11.47 C86.55,11.47 86.18,11.26 85.93,10.83 C85.68,10.4 85.56,9.92 85.55,9.39 C85.55,8.86 85.71,8.35 86.05,7.86 C86.08,7.82 86.36,7.52 86.9,6.95 C87.44,6.39 87.79,5.71 87.93,4.92 L88.1,4.01 C88.14,3.81 88.2,3.71 88.28,3.7 C88.36,3.69 88.46,3.82 88.56,4.11 L88.78,4.88 L88.9,5.27 L97.07,5.27 C96.76,5.13 96.53,4.97 96.38,4.82 C96.23,4.66 96.13,4.48 96.06,4.26 C95.99,4.04 95.89,3.56 95.76,2.8 C95.63,2.04 95.38,1.44 95.01,1 L94.69,0.63 C94.56,0.49 94.5,0.34 94.51,0.21 C94.51,0.07 94.64,3.55271368e-15 94.88,3.55271368e-15 C95.59,0.03 96.4,0.26 97.31,0.7 C98.22,1.14 98.68,1.74 98.68,2.49 C98.68,3.24 98.64,3.75 98.55,4.02 C98.39,4.45 98.24,4.72 98.08,4.81 L97.41,5.28 L105.53,5.28 L106.14,4.3 C106.38,3.92 106.54,3.73 106.64,3.74 C106.73,3.74 106.96,3.96 107.33,4.38 L109.03,6.35 C109.42,6.82 109.6,7.19 109.55,7.44 C109.5,7.7 109.21,7.84 108.66,7.86 C108.11,7.88 107.62,7.96 107.19,8.1 C106.75,8.23 106.38,8.44 106.07,8.73 L105.4,9.36 C105.11,9.64 104.96,9.68 104.95,9.49 C104.94,9.3 104.95,9.18 104.97,9.13 L105.58,6.41 L92.79,6.41 L92.82,6.41 L94.57,6.92 C94.95,7.04 95.16,7.12 95.22,7.18 C95.28,7.23 95.31,7.29 95.31,7.36 C95.31,7.43 95.21,7.58 95,7.83 L94.56,8.36 L94.56,9.46 L99.31,9.46 L99.31,8.59 C99.31,7.71 99.29,7.18 99.26,6.99 C99.22,6.81 99.21,6.72 99.23,6.73 L99.69,6.63 L101.74,7.12 C102,7.19 102.14,7.25 102.16,7.32 C102.18,7.39 102.2,7.43 102.2,7.46 C102.2,7.49 102.18,7.55 102.12,7.66 C102.07,7.77 101.99,7.86 101.9,7.94 L101.39,8.39 L101.39,9.45 L102.51,9.45 L102.47,9.44 Z M98.32,24.48 C98.28,25.28 98.21,26.28 98.11,27.48 C98.02,28.68 97.78,29.81 97.39,30.86 C97,31.91 96.41,32.73 95.62,33.31 C94.83,33.89 93.92,34.43 92.9,34.91 C91.88,35.39 90.66,35.78 89.23,36.05 L87.94,36.31 C87.79,36.35 87.66,36.37 87.55,36.36 C87.44,36.36 87.36,36.32 87.32,36.26 C87.28,36.2 87.26,36.12 87.25,36.01 C87.25,35.9 87.31,35.81 87.45,35.73 L87.96,35.57 L88.83,35.27 C89.95,34.89 90.95,34.42 91.83,33.85 C92.71,33.29 93.42,32.74 93.96,32.22 C94.5,31.69 94.93,30.97 95.24,30.03 C95.55,29.1 95.73,28.19 95.8,27.3 C95.86,26.41 95.91,25.52 95.92,24.61 L95.95,22.44 C95.95,22.35 95.95,22.29 95.97,22.26 C95.98,22.23 96.05,22.23 96.17,22.26 L98.57,23.01 C98.75,23.08 98.88,23.15 98.97,23.23 C99.06,23.31 99.11,23.4 99.1,23.5 C99.1,23.6 99.01,23.74 98.83,23.92 L98.32,24.45 L98.32,24.48 Z M101.38,20.36 C101.48,20.1 101.59,19.91 101.7,19.8 C101.81,19.69 101.95,19.75 102.11,19.99 C101.68,18.94 101.38,18.01 101.21,17.21 L94.4,17.21 L94.81,17.51 C94.94,17.62 95.03,17.71 95.09,17.8 C95.15,17.89 95.18,17.98 95.17,18.08 C95.17,18.18 95.08,18.27 94.91,18.37 L94.43,18.67 L92.82,20.38 L101.37,20.38 L101.38,20.36 Z M99.27,12.7 L99.27,10.49 L94.52,10.49 L94.52,12.7 L99.27,12.7 Z M99.27,16.13 L99.27,13.77 L94.52,13.77 L94.52,16.13 L99.27,16.13 Z M98.13,30.28 C98.13,30.16 98.28,30.07 98.58,30.01 C98.67,30 98.81,30.02 99,30.08 C99.19,30.14 99.71,30.21 100.57,30.29 C101.43,30.37 102.51,30.66 103.82,31.18 C105.13,31.69 105.97,32.27 106.33,32.9 C106.69,33.54 106.88,34.11 106.88,34.62 C106.88,35.13 106.79,35.59 106.61,35.98 C106.43,36.37 106.13,36.59 105.71,36.64 C105.3,36.69 104.86,36.44 104.39,35.9 C104.3,35.81 103.87,35.22 103.09,34.15 C102.32,33.07 101.57,32.32 100.85,31.89 C100.13,31.46 99.57,31.15 99.19,30.96 L98.39,30.63 C98.21,30.52 98.12,30.41 98.12,30.29 L98.13,30.28 Z" id="形状"></path>
            <path d="M118.46,16.1 L118.94,16.51 C119.15,16.71 119.27,16.83 119.3,16.87 C119.33,16.91 119.34,16.96 119.35,17 C119.35,17.04 119.35,17.08 119.34,17.13 C119.33,17.18 119.25,17.28 119.13,17.44 L118.66,18.01 L118.66,31.56 L118.76,35.01 C118.59,35.72 118.24,36.08 117.7,36.09 C117.16,36.1 116.85,36.07 116.78,35.98 C116.71,35.89 116.65,35.77 116.6,35.62 L116.71,31.64 L116.71,19.02 C116.49,19.36 116.1,19.94 115.55,20.74 C114.99,21.55 114.67,22.02 114.56,22.15 L113.98,22.86 C113.51,23.44 113.2,23.71 113.06,23.67 C113,23.67 112.96,23.65 112.94,23.61 C112.92,23.57 112.92,23.53 112.92,23.49 L112.92,23.35 C112.92,23.3 112.96,23.21 113.04,23.07 L113.47,22.4 L114.21,20.9 C114.66,19.99 115.02,19.2 115.29,18.53 C115.56,17.85 115.95,16.83 116.45,15.47 C116.96,14.1 117.29,13.18 117.44,12.68 C117.6,12.19 117.75,11.65 117.91,11.08 L118.34,9.47 C118.36,9.4 118.38,9.36 118.4,9.34 C118.42,9.32 118.55,9.39 118.78,9.55 L120.88,11.09 C121.01,11.19 121.11,11.3 121.19,11.4 C121.27,11.5 121.31,11.61 121.3,11.72 C121.3,11.84 121.17,11.96 120.93,12.09 L120.37,12.42 L118.47,16.1 L118.46,16.1 Z M120.5,3.65 C119.45,5.32 118.52,6.72 117.71,7.85 C116.9,8.99 115.91,10.22 114.75,11.56 L114.1,12.31 C113.8,12.66 113.57,12.84 113.43,12.82 C113.38,12.82 113.35,12.81 113.33,12.78 C113.31,12.75 113.29,12.7 113.29,12.62 C113.29,12.54 113.31,12.44 113.37,12.3 L113.8,11.55 L114.48,10.33 C115.03,9.33 115.68,7.96 116.42,6.2 C117.16,4.45 117.71,2.99 118.07,1.82 L118.41,0.68 C118.44,0.56 118.47,0.51 118.52,0.52 C118.57,0.53 118.66,0.59 118.8,0.68 L120.92,2.35 C121.18,2.56 121.33,2.7 121.37,2.76 C121.41,2.83 121.43,2.9 121.43,3 C121.43,3.1 121.32,3.19 121.12,3.3 L120.53,3.63 L120.5,3.65 Z M122.09,25.63 C122.21,25.88 122.34,26.31 122.48,26.93 C122.62,27.55 122.71,28.06 122.76,28.48 C122.81,28.89 122.84,29.32 122.84,29.75 C122.84,30.83 122.65,31.78 122.3,32.61 C121.95,33.44 121.45,33.84 120.8,33.83 C120.33,33.83 120,33.64 119.8,33.27 C119.6,32.9 119.5,32.47 119.49,31.98 C119.49,31.49 119.67,30.94 120.07,30.33 L120.68,29.52 C120.93,29.17 121.13,28.79 121.29,28.4 C121.45,28.01 121.57,27.5 121.68,26.88 L121.79,26.03 C121.88,25.52 121.99,25.39 122.11,25.64 L122.09,25.63 Z M135.07,21.44 L135.8,20.1 C136.05,19.64 136.21,19.41 136.3,19.4 C136.38,19.4 136.61,19.6 136.99,20.02 L138.3,21.52 C138.58,21.85 138.72,22.1 138.71,22.27 C138.69,22.43 138.61,22.51 138.46,22.51 L120.4,22.51 C120.25,22.5 120.14,22.46 120.08,22.39 C120.01,22.32 119.96,22.15 119.93,21.87 C119.9,21.59 120.04,21.45 120.35,21.45 L135.07,21.45 L135.07,21.44 Z M121.12,6.75 C120.95,6.74 120.84,6.7 120.78,6.63 C120.72,6.56 120.67,6.39 120.64,6.11 C120.61,5.83 120.75,5.69 121.04,5.69 L127.16,5.69 L127.16,3.35 L127.11,0.61 C127.15,0.52 127.17,0.46 127.19,0.44 C127.21,0.42 127.35,0.44 127.6,0.51 L129.83,1.12 C130,1.17 130.13,1.24 130.24,1.34 C130.35,1.44 130.41,1.51 130.42,1.58 L130.42,1.62 C130.42,1.67 130.42,1.72 130.42,1.75 C130.42,1.78 130.38,1.83 130.32,1.9 L129.49,2.83 L129.41,5.71 L133.49,5.71 L134.29,4.25 C134.51,3.86 134.66,3.62 134.74,3.53 C134.82,3.44 134.91,3.43 135.02,3.49 C135.13,3.55 135.34,3.75 135.64,4.09 L137.09,5.78 C137.35,6.09 137.47,6.34 137.46,6.51 C137.44,6.69 137.34,6.79 137.17,6.79 L129.41,6.79 L129.27,10.81 L133.42,10.81 L133.96,9.86 C134.14,9.53 134.28,9.37 134.35,9.38 C134.43,9.38 134.64,9.55 134.98,9.86 L136.07,10.9 C136.35,11.18 136.5,11.34 136.53,11.4 C136.56,11.46 136.57,11.53 136.57,11.62 C136.57,11.71 136.46,11.88 136.26,12.14 L135.75,12.79 L135.75,15.68 L135.8,18.65 C135.62,19.04 135.32,19.3 134.9,19.41 C134.48,19.52 134.19,19.57 134.01,19.56 C133.72,19.55 133.58,19.41 133.58,19.15 L133.58,18.03 L124.11,18.03 L124.11,19.35 C124.11,19.53 123.99,19.73 123.75,19.95 C123.51,20.17 123.06,20.27 122.41,20.26 C122.27,20.26 122.17,20.23 122.1,20.17 C122.03,20.11 121.97,19.99 121.93,19.81 L122.03,16.62 L122.03,12.88 L121.93,9.57 C121.99,9.45 122.05,9.39 122.08,9.37 C122.11,9.35 122.25,9.42 122.47,9.57 L124.33,10.81 L127.07,10.81 L127.15,6.79 L121.19,6.79 L121.11,6.77 L121.12,6.75 Z M125.94,11.91 L124.11,11.91 L124.11,16.95 L125.94,16.95 L125.94,11.91 L125.94,11.91 Z M126.51,26.27 L126.51,32.18 C126.51,32.64 126.66,32.92 126.96,33.01 C127.26,33.1 127.74,33.15 128.41,33.15 C129.66,33.16 130.57,33.05 131.14,32.83 C131.71,32.6 132.1,32.3 132.33,31.93 C132.55,31.56 132.77,31 132.99,30.26 L133.66,27.94 C133.73,27.66 133.84,27.53 133.99,27.55 C134.06,27.56 134.11,27.61 134.13,27.7 C134.15,27.79 134.16,27.85 134.15,27.91 C134.15,27.96 134.15,28.03 134.15,28.11 L133.9,30.28 C133.88,30.44 133.87,30.59 133.87,30.74 C133.87,30.89 133.88,31.06 133.92,31.24 C133.98,31.62 134.09,31.99 134.27,32.34 C134.44,32.69 134.55,32.93 134.6,33.06 C134.65,33.18 134.67,33.35 134.67,33.56 C134.67,34.31 134.24,34.92 133.4,35.38 C132.56,35.85 131.25,36.07 129.48,36.06 C127.92,36.06 126.77,35.97 126.05,35.79 C125.33,35.61 124.89,35.26 124.74,34.74 C124.59,34.21 124.52,33.81 124.52,33.52 L124.52,27.38 L124.44,24.07 C124.48,24.02 124.52,23.98 124.56,23.95 L125,24.11 L127.11,24.86 C127.25,24.91 127.31,25.02 127.31,25.19 C127.31,25.35 127.2,25.55 126.99,25.79 L126.54,26.3 L126.51,26.27 Z M129.64,11.91 L127.9,11.91 L127.72,12.24 L127.72,16.95 L129.64,16.95 L129.64,11.91 Z M127.8,23.63 C127.8,23.54 127.86,23.47 127.98,23.43 C128.1,23.39 128.25,23.45 128.46,23.61 C128.46,23.62 128.72,23.79 129.21,24.1 C129.7,24.42 130.17,24.91 130.62,25.6 C131.08,26.28 131.3,26.92 131.31,27.51 C131.31,28.1 131.24,28.57 131.08,28.93 C130.81,29.53 130.44,29.83 129.96,29.82 C129.69,29.82 129.45,29.72 129.24,29.52 C129.03,29.32 128.88,29.09 128.8,28.83 C128.72,28.57 128.67,28.07 128.67,27.32 C128.67,26.58 128.62,26.02 128.54,25.65 C128.46,25.28 128.35,24.92 128.21,24.6 L127.87,23.89 C127.82,23.81 127.8,23.73 127.81,23.63 L127.8,23.63 Z M133.58,11.91 L131.66,11.91 L131.37,12.28 L131.37,16.95 L133.58,16.95 L133.58,11.91 L133.58,11.91 Z M133.95,25.2 C133.95,25.11 134.03,25.04 134.22,25 C134.26,25 134.58,25.18 135.19,25.53 C135.8,25.88 136.52,26.49 137.34,27.36 C138.16,28.23 138.57,29.25 138.57,30.43 C138.57,30.76 138.49,31.15 138.37,31.59 C138.25,32.04 137.98,32.39 137.56,32.64 C137.15,32.9 136.74,32.77 136.35,32.28 C136.14,32.03 135.99,31.74 135.92,31.39 C135.85,31.04 135.75,30.47 135.65,29.65 C135.55,28.83 135.4,28.15 135.22,27.62 C135.03,27.09 134.79,26.58 134.48,26.09 L134.04,25.44 C133.99,25.36 133.95,25.28 133.95,25.18 L133.95,25.2 Z" id="形状"></path>
            <path d="M144.29,23.84 L144.29,8.56 L141.49,8.56 C141.27,8.56 141.14,8.38 141.1,8.02 C141.06,7.66 141.19,7.48 141.49,7.48 L144.29,7.48 L144.29,3.58 L144.18,0.27 C144.23,0.18 144.26,0.13 144.29,0.11 C144.32,0.1 144.49,0.15 144.8,0.27 L146.7,1 C146.95,1.1 147.09,1.19 147.13,1.25 C147.17,1.31 147.19,1.38 147.2,1.46 C147.2,1.54 147.11,1.68 146.9,1.87 L146.42,2.34 L146.42,7.48 L150.11,7.48 L150.11,3.18 L150.04,0.44 C150.08,0.37 150.11,0.33 150.15,0.3 L150.7,0.52 L152.58,1.21 C152.79,1.29 152.91,1.35 152.95,1.41 C152.99,1.46 153.01,1.52 153.01,1.58 C153.01,1.64 152.95,1.73 152.82,1.87 L152.24,2.5 L152.24,7.48 L152.41,7.48 L153.31,5.89 C153.47,5.61 153.59,5.47 153.68,5.47 C153.77,5.47 153.93,5.66 154.18,6.05 L155.32,7.94 C155.38,8.07 155.43,8.17 155.44,8.24 C155.46,8.31 155.47,8.35 155.47,8.37 C155.47,8.39 155.47,8.41 155.47,8.44 C155.44,8.52 155.39,8.56 155.32,8.56 L153.31,8.56 L153.31,8.58 L152.25,8.58 L152.25,23.64 L153.05,22.32 C153.23,22.02 153.36,21.86 153.42,21.86 C153.48,21.86 153.59,21.97 153.75,22.2 L155.05,24.29 C155.19,24.53 155.25,24.69 155.25,24.79 C155.25,24.89 155.13,24.94 154.91,24.94 L141.47,24.94 L141.35,24.92 C141.2,24.91 141.1,24.87 141.03,24.8 C140.97,24.73 140.93,24.56 140.92,24.28 C140.92,24 141.04,23.86 141.3,23.86 L144.28,23.86 L144.29,23.84 Z M147.21,28.31 C146.09,29.82 145.03,31.11 144.05,32.18 C143.07,33.25 142.43,33.9 142.16,34.14 L141.53,34.69 C141.39,34.81 141.3,34.86 141.25,34.85 C141.22,34.85 141.2,34.85 141.17,34.83 C141.15,34.82 141.13,34.76 141.13,34.65 C141.13,34.54 141.17,34.41 141.27,34.26 L141.84,33.41 C142.32,32.69 142.87,31.71 143.5,30.47 C144.13,29.23 144.59,28.22 144.88,27.43 L145.28,26.35 L145.5,25.62 C145.54,25.57 145.58,25.55 145.64,25.58 L146.01,25.91 L147.76,27.35 C147.91,27.48 148,27.58 148.03,27.64 C148.06,27.7 148.08,27.77 148.08,27.86 C148.08,27.95 148,28.02 147.81,28.09 L147.2,28.33 L147.21,28.31 Z M150.12,12.5 L150.12,8.56 L146.43,8.56 L146.43,12.5 L150.12,12.5 Z M150.12,18.15 L150.12,13.58 L146.43,13.58 L146.43,18.15 L150.12,18.15 Z M150.12,23.84 L150.12,19.21 L146.43,19.21 L146.43,23.84 L150.12,23.84 Z M149.56,27.38 L149.17,26.81 L148.98,26.55 C148.98,26.55 148.96,26.47 148.97,26.41 C148.97,26.27 149.04,26.19 149.15,26.17 C149.34,26.17 149.9,26.51 150.81,27.18 C151.72,27.86 152.35,28.52 152.69,29.16 C153.03,29.8 153.2,30.43 153.2,31.05 C153.2,31.36 153.15,31.66 153.08,31.93 C153.01,32.2 152.87,32.47 152.68,32.75 C152.49,33.03 152.25,33.16 151.96,33.16 C151.61,33.17 151.34,32.99 151.16,32.6 C150.98,32.21 150.85,31.78 150.77,31.31 L150.58,30.03 C150.48,29.48 150.35,29 150.2,28.6 C150.05,28.2 149.83,27.79 149.56,27.37 L149.56,27.38 Z M157.94,13.83 L163.23,13.83 L164.25,12.02 C164.42,11.72 164.55,11.56 164.64,11.56 C164.72,11.56 164.87,11.71 165.08,12.02 L166.6,14.34 C166.71,14.51 166.76,14.63 166.75,14.69 C166.72,14.82 166.63,14.89 166.46,14.89 L163.8,14.89 C163.74,15 163.68,15.12 163.62,15.26 L163.51,15.4 L163.33,15.62 L163.33,32.24 L163.41,35.02 C163.3,35.6 163.06,35.98 162.7,36.16 C162.34,36.34 162.01,36.43 161.73,36.42 C161.43,36.42 161.22,36.35 161.12,36.22 C161.02,36.09 160.94,35.89 160.89,35.61 L161.01,31.63 L161.01,14.9 L157.94,14.9 C157.89,17.08 157.85,18.92 157.8,20.41 C157.75,21.91 157.65,23.26 157.48,24.47 C157.31,25.68 157.05,26.82 156.71,27.9 C156.37,28.98 156,29.91 155.6,30.71 C155.2,31.5 154.75,32.24 154.25,32.93 L152.96,34.54 C152.67,34.91 152.46,35.15 152.34,35.27 L151.64,35.96 C151.54,36.06 151.45,36.11 151.38,36.11 C151.31,36.11 151.26,36.08 151.24,36.05 C151.22,36.02 151.21,35.95 151.22,35.85 C151.22,35.75 151.29,35.62 151.41,35.47 L151.98,34.7 C152.64,33.81 153.23,32.83 153.74,31.76 C154.25,30.69 154.64,29.48 154.9,28.12 C155.16,26.76 155.35,25.58 155.47,24.59 C155.59,23.59 155.67,22.28 155.7,20.65 C155.73,19.02 155.75,17.55 155.76,16.23 C155.77,14.91 155.78,13.99 155.79,13.46 C155.79,12.74 155.79,12.09 155.78,11.53 L155.68,7.36 L155.68,6.51 L155.5,3.5 C155.53,3.45 155.56,3.41 155.6,3.38 L156.1,3.73 L158.44,5.33 C159.58,4.63 160.52,3.98 161.26,3.38 C162,2.78 162.49,2.34 162.73,2.06 L163.35,1.33 C163.55,1.09 163.68,0.98 163.74,0.99 C163.8,0.99 163.96,1.18 164.22,1.55 L165.68,3.74 C165.85,4 165.93,4.2 165.94,4.32 C165.94,4.44 165.83,4.51 165.6,4.53 L164.87,4.61 C164.65,4.64 164.13,4.75 163.31,4.94 L160.94,5.41 L157.96,6.02 L157.96,13.86 L157.94,13.83 Z" id="形状"></path>
            <polygon id="路径" points="178.79 19.66 178.79 21.34 170.35 21.34 170.35 19.66"></polygon>
            <path d="M200.47,31.34 L200.47,32.26 C198.66,32.09 197.82,32.01 196.48,32.01 C195.14,32.01 194.09,32.09 192.07,32.26 L192.07,31.34 C194.38,31.09 194.88,30.92 193.96,27.9 L192.66,23.62 L184.59,23.62 L183.37,27.9 C182.53,30.88 182.95,31.09 185.26,31.34 L185.26,32.26 C184.13,32.13 182.78,32.01 181.82,32.01 C180.86,32.01 180.06,32.14 178.96,32.26 L178.96,31.34 C180.93,31.09 181.35,30.67 182.15,27.9 L189,3.7 L189.5,3.7 L197.31,27.94 C198.28,30.96 198.57,31.09 200.46,31.34 L200.47,31.34 Z M192.28,22.43 L188.5,10.08 L184.93,22.43 L192.28,22.43 Z" id="形状"></path>
            <path d="M227.31,31.34 L227.31,32.26 C224.75,32.05 224.37,32.01 222.98,32.01 L222.9,32.01 C221.43,32.01 220.38,32.09 218.36,32.26 L218.36,31.34 C220.92,31.09 221.34,30.84 221.26,27.73 L220.67,7.52 L213.36,31.63 L212.86,31.63 L205.68,7.56 L205.05,27.72 C204.97,30.83 205.39,31.08 207.95,31.33 L207.95,32.25 C206.35,32.08 205.51,32 204.38,32 L204.34,32 C203.29,32 202.24,32.13 201.02,32.25 L201.02,31.33 C203.33,31.08 203.79,30.78 203.88,27.72 L204.47,8.56 C204.55,5.49 204.18,5.2 201.87,4.95 L201.87,4.03 C204.43,4.24 204.81,4.28 205.78,4.28 C206.83,4.28 207.42,4.24 208.05,4.15 L214.18,24.9 L220.44,4.15 C221.03,4.23 221.83,4.28 222.58,4.28 C223.55,4.28 223.92,4.24 226.49,4.07 L226.49,4.99 C224.18,5.2 223.8,5.49 223.89,8.56 L224.48,27.72 C224.56,30.79 225.03,31.08 227.34,31.33 L227.31,31.34 Z" id="路径"></path>
            <path d="M249.19,19.2 L249.19,20.12 C247.13,20.37 246.75,20.62 246.75,23.73 L246.75,29.99 C244.73,31.38 242.13,32.59 239.73,32.59 C234.02,32.59 229.65,27.55 229.65,18.14 C229.65,8.73 233.98,3.69 239.31,3.69 C241.83,3.69 243.68,4.91 244.77,6.38 L245.69,3.69 L246.28,3.69 L246.28,11.84 L245.52,11.84 C244.6,7.26 242.62,4.78 239.3,4.78 C235.06,4.78 233.04,9.78 233.04,18.14 C233.04,26.5 235.14,31.5 239.72,31.5 C241.15,31.5 242.45,31.12 243.54,30.49 L243.54,23.73 C243.54,20.62 243.04,20.37 240.6,20.12 L240.6,19.2 C242.78,19.41 243.54,19.45 244.93,19.45 C246.32,19.45 246.74,19.45 249.17,19.2 L249.19,19.2 Z" id="路径"></path>
            <path d="M24.57,75.69 L23.86,82.58 L7.69,82.58 L7.69,81.66 C10,81.53 10.42,81.16 10.42,78.3 L10.42,58.81 C10.42,55.95 10,55.58 7.69,55.45 L7.69,54.53 L22.98,54.53 L23.57,61.04 L22.73,61.04 C21.93,56.84 21.13,55.71 17.82,55.71 L13.62,55.71 L13.62,67.47 L18.49,67.47 C19.92,67.47 20.3,66.71 20.42,64.07 L21.26,64.07 L21.26,72.05 L20.42,72.05 C20.34,69.4 19.92,68.65 18.49,68.65 L13.62,68.65 L13.62,79.74 C13.62,80.92 13.87,81.42 15.68,81.42 L18.7,81.42 C22.15,81.42 22.73,80.2 23.74,75.71 L24.58,75.71 L24.57,75.69 Z" id="路径"></path>
            <path d="M45.62,87.87 C45.87,87.87 46.08,87.87 46.33,87.83 L46.33,88.75 C45.49,89 44.31,89.13 43.31,89.13 C41.38,89.13 39.74,88.71 38.65,86.74 L38.1,85.73 C37.26,84.22 36.63,83.25 35.03,82.71 C30.74,81.49 27.47,76.66 27.47,68.55 C27.47,59.1 31.88,54.1 37.22,54.1 C42.56,54.1 46.97,59.1 46.97,68.55 C46.97,78 42.73,82.79 37.52,83 C39.16,83.25 40.71,84.09 41.64,85.44 L42.23,86.28 C42.94,87.37 44.12,87.88 45.63,87.88 L45.62,87.87 Z M37.22,81.9 C41.5,81.9 43.56,76.82 43.56,68.54 C43.56,60.26 41.5,55.18 37.22,55.18 C32.94,55.18 30.88,60.26 30.88,68.54 C30.88,76.82 32.94,81.9 37.22,81.9 Z" id="形状"></path>
            <path d="M66.57,75.69 L65.86,82.58 L49.69,82.58 L49.69,81.66 C52,81.53 52.42,81.16 52.42,78.3 L52.42,58.81 C52.42,55.95 52,55.58 49.69,55.45 L49.69,54.53 L64.98,54.53 L65.57,61.04 L64.73,61.04 C63.93,56.84 63.13,55.71 59.81,55.71 L55.61,55.71 L55.61,67.47 L60.48,67.47 C61.91,67.47 62.29,66.71 62.41,64.07 L63.25,64.07 L63.25,72.05 L62.41,72.05 C62.33,69.4 61.91,68.65 60.48,68.65 L55.61,68.65 L55.61,79.74 C55.61,80.92 55.86,81.42 57.67,81.42 L60.69,81.42 C64.14,81.42 64.72,80.2 65.73,75.71 L66.57,75.71 L66.57,75.69 Z" id="路径"></path>
            <path d="M91.31,73.34 C91.31,79.31 87.74,83 83.29,83 C79.59,83 76.82,80.19 76.82,76.11 L77.87,76.11 C77.87,79.26 80.01,81.78 82.83,81.78 C86.78,81.78 88.08,78.13 88.08,73.29 C88.08,69.22 86.86,65.9 83.54,65.9 C81.15,65.9 79.72,67.5 78.71,69.68 L77.79,69.47 L79.76,54.52 L90.85,54.52 L90.56,57.38 L80.52,57.38 L79.22,67.34 C80.1,66.08 81.61,64.82 84.01,64.82 C87.83,64.82 91.32,68.01 91.32,73.35 L91.31,73.34 Z" id="路径"></path>
            <path d="M108.7,75.02 C108.7,80.19 104.96,83 100.84,83 C97.18,83 94.33,80.35 94.33,76.11 L95.38,76.11 C95.38,79.47 97.73,81.78 100.38,81.78 C103.83,81.78 105.46,78.84 105.46,74.85 C105.46,70.86 103.74,68 100.04,68 L99.07,68 L99.07,66.95 L100.04,66.95 C103.44,66.95 104.62,63.67 104.62,60.82 C104.62,58.26 103.65,55.19 100.38,55.19 C97.61,55.19 96.09,57.84 96.09,60.48 L95.04,60.48 C95.04,57.2 96.97,54.09 101,54.09 C105.03,54.09 107.8,56.86 107.8,60.56 C107.8,64.26 105.24,66.48 102.51,67.32 C105.74,68.03 108.69,70.47 108.69,75.01 L108.7,75.02 Z" id="路径"></path>
            <path d="M131.42,74.68 L131.42,78.12 C131.42,81.19 131.84,81.48 134.15,81.73 L134.15,82.65 C131.59,82.44 131.21,82.4 129.82,82.4 L129.57,82.4 C128.23,82.4 127.13,82.48 125.33,82.65 L125.33,81.73 C127.89,81.48 128.36,81.23 128.36,78.12 L128.36,74.68 L118.82,74.68 L118.82,73.76 L128.61,54.52 L131.42,54.52 L131.42,73.47 L135.24,73.47 L135.24,74.69 L131.42,74.69 L131.42,74.68 Z M128.35,73.46 L128.35,57.46 L120.2,73.46 L128.35,73.46 Z" id="形状"></path>
            <path d="M163.47,81.74 L163.47,82.66 C160.91,82.45 160.53,82.41 159.14,82.41 L159.06,82.41 C157.59,82.41 156.54,82.49 154.52,82.66 L154.52,81.74 C157.08,81.49 157.5,81.24 157.42,78.13 L156.83,57.92 L149.52,82.03 L149.02,82.03 L141.84,57.96 L141.21,78.12 C141.13,81.23 141.55,81.48 144.11,81.73 L144.11,82.65 C142.51,82.48 141.67,82.4 140.54,82.4 L140.5,82.4 C139.45,82.4 138.4,82.53 137.18,82.65 L137.18,81.73 C139.49,81.48 139.95,81.18 140.04,78.12 L140.63,58.96 C140.71,55.89 140.34,55.6 138.03,55.35 L138.03,54.43 C140.59,54.64 140.97,54.68 141.94,54.68 C142.99,54.68 143.58,54.64 144.21,54.55 L150.34,75.3 L156.6,54.55 C157.19,54.63 157.99,54.68 158.74,54.68 C159.71,54.68 160.08,54.64 162.65,54.47 L162.65,55.39 C160.34,55.6 159.96,55.89 160.05,58.96 L160.64,78.12 C160.72,81.19 161.19,81.48 163.5,81.73 L163.47,81.74 Z" id="路径"></path>
            <path d="M185.81,81.74 L185.81,82.66 C184,82.49 183.16,82.41 181.82,82.41 C180.48,82.41 179.43,82.49 177.41,82.66 L177.41,81.74 C179.72,81.49 180.22,81.32 179.3,78.3 L178,74.02 L169.93,74.02 L168.71,78.3 C167.87,81.28 168.29,81.49 170.6,81.74 L170.6,82.66 C169.47,82.53 168.12,82.41 167.16,82.41 C166.2,82.41 165.4,82.54 164.3,82.66 L164.3,81.74 C166.27,81.49 166.69,81.07 167.49,78.3 L174.34,54.1 L174.84,54.1 L182.65,78.34 C183.62,81.36 183.91,81.49 185.8,81.74 L185.81,81.74 Z M177.62,72.83 L173.84,60.48 L170.27,72.83 L177.62,72.83 Z" id="形状"></path>
            <path d="M202.02,61.41 L201.18,61.41 C200.34,56.87 199.67,55.7 196.31,55.7 L194.63,55.7 L194.63,78.13 C194.63,81.24 195.09,81.49 197.65,81.74 L197.65,82.66 C195.72,82.49 194.5,82.41 193.03,82.41 C191.56,82.41 190.34,82.49 188.41,82.66 L188.41,81.74 C190.97,81.49 191.43,81.24 191.43,78.13 L191.43,55.7 L189.75,55.7 C186.39,55.7 185.72,56.88 184.88,61.41 L184.04,61.41 L184.59,54.52 L201.48,54.52 L202.03,61.41 L202.02,61.41 Z" id="路径"></path>
            <path d="M204.12,55.36 L204.12,54.44 C206.68,54.65 207.06,54.69 208.45,54.69 C209.84,54.69 210.21,54.65 212.78,54.44 L212.78,55.36 C210.47,55.61 210.05,55.91 210.05,58.97 L210.05,78.13 C210.05,81.2 210.47,81.49 212.78,81.74 L212.78,82.66 C210.22,82.45 209.84,82.41 208.45,82.41 C207.06,82.41 206.69,82.45 204.12,82.66 L204.12,81.74 C206.43,81.49 206.85,81.19 206.85,78.13 L206.85,58.97 C206.85,55.9 206.43,55.61 204.12,55.36 L204.12,55.36 Z" id="路径"></path>
            <path d="M232.43,73.04 C232.09,80.06 228.94,83 224.95,83 C219.62,83 215.54,77.96 215.54,68.55 C215.54,59.14 219.82,54.1 225.08,54.1 C227.56,54.1 229.41,55.32 230.46,56.79 L231.38,54.1 L231.97,54.1 L231.97,62.92 L231.21,62.92 C230.24,57.54 228.35,55.19 225.08,55.19 C220.92,55.19 218.95,60.19 218.95,68.55 C218.95,76.91 221.05,81.53 225.59,81.53 C228.4,81.53 231.01,79.22 231.35,73.04 L232.44,73.04 L232.43,73.04 Z" id="路径"></path>
            <polygon id="路径" points="250.45 70.69 243.86 70.69 243.86 78.13 242.52 78.13 242.52 70.69 235.93 70.69 235.93 69.43 242.52 69.43 242.52 62.04 243.86 62.04 243.86 69.43 250.45 69.43"></polygon>
            <path d="M263.67,64.12 L267.8,64.51 C268.02,63.96 268.26,63.37 268.51,62.76 C268.76,62.14 268.94,61.68 269.05,61.38 L269.42,60.3 L269.54,59.91 C269.54,59.91 269.59,59.85 269.61,59.84 C269.63,59.84 269.71,59.9 269.86,60.03 L272,62.08 C272.08,62.17 272.14,62.25 272.17,62.31 C272.2,62.37 272.22,62.43 272.22,62.51 C272.22,62.59 272.14,62.64 271.98,62.7 L271.18,63 C269.07,66.65 267,70.12 264.98,73.42 L268.81,72.91 L270.26,72.65 C270.52,72.61 270.65,72.68 270.65,72.86 C270.65,73.04 270.55,73.17 270.34,73.26 L269.13,73.79 C268.72,73.97 267.97,74.34 266.9,74.9 C265.83,75.46 265.12,75.84 264.79,76.03 L263.83,76.6 C263.51,76.8 263.33,76.89 263.3,76.88 C263.27,76.87 263.23,76.78 263.18,76.6 L262.41,73.96 C262.32,73.67 262.27,73.51 262.28,73.49 C262.28,73.46 262.3,73.44 262.33,73.41 L262.56,73.33 L263,73.13 C263.18,73.05 263.36,72.93 263.54,72.78 C263.71,72.62 264.06,72.07 264.57,71.14 C265.08,70.21 266.05,68.24 267.47,65.24 C266.28,65.5 265.18,65.82 264.15,66.19 L262.77,66.68 L262.33,66.88 C262.33,66.88 262.22,66.66 262.12,66.27 L261.54,64.06 C261.5,63.89 261.48,63.79 261.48,63.76 C261.48,63.73 261.54,63.69 261.65,63.64 L262.19,63.38 C262.63,63.17 263.09,62.4 263.58,61.08 C264.07,59.76 264.53,58.41 264.97,57.05 C265.42,55.69 265.71,54.75 265.85,54.22 L266.25,52.66 L266.36,52.19 C266.41,52.14 266.52,52.16 266.69,52.27 L269.2,53.87 C269.26,53.92 269.33,53.99 269.39,54.06 C269.45,54.13 269.48,54.19 269.47,54.24 C269.47,54.29 269.43,54.35 269.37,54.44 C269.31,54.53 269.23,54.59 269.14,54.63 L268.44,54.98 L263.67,64.14 L263.67,64.12 Z M263.56,81.25 C266.47,80.28 268.78,79.47 270.49,78.83 L271.48,78.46 C271.55,78.43 271.63,78.44 271.7,78.47 C271.77,78.5 271.81,78.58 271.8,78.7 C271.8,78.82 271.74,78.92 271.63,79 L270.76,79.65 L267.63,82.03 C266.16,83.15 265.25,83.85 264.89,84.16 L263.76,85.12 C263.55,85.3 263.43,85.39 263.41,85.38 C263.39,85.37 263.36,85.28 263.32,85.12 L262.46,82.32 C262.33,81.93 262.27,81.72 262.27,81.69 C262.27,81.66 262.29,81.64 262.3,81.61 L262.53,81.55 L263.54,81.25 L263.56,81.25 Z M276.53,58.64 L276.53,54.78 C276.53,54.78 276.45,51.24 276.45,51.24 C276.47,51.21 276.49,51.19 276.5,51.18 C276.51,51.17 276.66,51.2 276.95,51.28 L279.47,52.01 C279.64,52.06 279.72,52.15 279.71,52.29 C279.71,52.42 279.65,52.53 279.55,52.62 L278.81,53.29 L278.81,58.65 L281.91,58.65 L283.01,56.64 C283.12,56.44 283.19,56.34 283.22,56.33 C283.25,56.33 283.33,56.4 283.47,56.56 L285.63,59.18 C285.69,59.27 285.73,59.35 285.74,59.41 C285.75,59.47 285.74,59.53 285.74,59.59 C285.74,59.65 285.63,59.68 285.44,59.68 L282.53,59.68 L282.53,59.72 L278.81,59.72 L278.81,73.23 L281.94,73.23 L281.94,67.09 C281.94,67.09 281.87,63.35 281.87,63.35 C281.9,63.31 281.92,63.28 281.95,63.25 L282.38,63.39 L284.79,64.16 C285.03,64.24 285.12,64.34 285.07,64.46 C285.02,64.58 284.96,64.66 284.9,64.72 L284.27,65.37 L284.27,72.5 C284.27,72.5 284.34,75.24 284.34,75.24 C284.29,75.5 284.21,75.7 284.11,75.83 C284.01,75.96 283.7,76.13 283.17,76.32 C282.64,76.52 282.3,76.5 282.15,76.27 C282,76.04 281.93,75.76 281.94,75.41 L281.94,74.29 C281.94,74.29 278.81,74.29 278.81,74.29 L278.81,81.65 C278.81,82.12 278.91,82.56 279.11,82.95 C279.31,83.34 279.91,83.52 280.92,83.48 C282.32,83.44 283.19,83.34 283.54,83.18 C283.89,83.02 284.16,82.83 284.34,82.59 C284.52,82.35 284.7,81.96 284.88,81.41 L285.45,79.42 L285.9,77.88 C285.96,77.68 286.02,77.58 286.09,77.57 C286.16,77.57 286.21,77.59 286.23,77.66 C286.26,77.73 286.27,77.78 286.26,77.83 C286.26,77.88 286.26,77.93 286.26,78 L286.04,79.79 C285.93,80.67 285.88,81.33 285.9,81.76 C285.92,82.19 285.99,82.56 286.12,82.86 L286.52,83.71 C286.58,83.91 286.62,84.08 286.62,84.24 C286.62,84.38 286.55,84.64 286.44,85.01 C286.33,85.38 285.93,85.71 285.25,86.01 C284.57,86.31 283.2,86.47 281.14,86.48 C279.94,86.51 278.87,86.34 277.93,85.97 C277,85.6 276.53,84.6 276.53,82.98 L276.53,74.28 L273.61,74.28 L272.81,75.99 C272.75,76.13 272.69,76.2 272.66,76.19 L272.52,76.03 L270.98,74.38 C270.85,74.26 270.8,74.16 270.83,74.07 L270.83,74.03 C270.83,74.03 270.86,73.97 270.86,73.97 L271.01,73.79 L271.52,73.14 L271.52,67.06 L271.44,63.67 L271.5,63.63 L271.89,63.81 L274.26,64.64 C274.39,64.69 274.46,64.77 274.46,64.89 C274.46,65 274.4,65.14 274.26,65.29 L273.68,65.98 L273.68,73.25 L276.55,73.25 L276.55,59.74 L270.75,59.74 C270.54,59.74 270.43,59.56 270.41,59.21 C270.39,58.86 270.51,58.68 270.75,58.68 L276.55,58.68 L276.53,58.64 Z" id="形状"></path>
            <path d="M307.67,73.19 L301.88,73.19 L301.88,80.16 C301.86,80.44 301.88,80.67 301.91,80.85 C301.95,81.03 302.14,81.3 302.5,81.65 C302.86,82 304.15,82.18 306.39,82.19 C308.8,82.22 310.26,81.97 310.78,81.44 C311.3,80.92 311.66,80.39 311.86,79.86 C312.06,79.34 312.27,78.64 312.49,77.77 L313.05,75.53 C313.09,75.36 313.15,75.27 313.24,75.27 C313.34,75.28 313.4,75.35 313.41,75.48 C313.41,75.6 313.42,75.67 313.42,75.69 L313.16,78.27 C313.1,78.91 313.07,79.42 313.08,79.78 C313.08,80.14 313.14,80.45 313.22,80.71 C313.31,80.97 313.42,81.2 313.56,81.42 C313.7,81.64 313.8,81.81 313.85,81.95 C313.9,82.09 313.93,82.27 313.93,82.49 C313.93,82.71 313.89,82.95 313.8,83.2 C313.19,84.79 310.99,85.59 307.2,85.6 C306.56,85.61 305.78,85.58 304.86,85.51 C303.94,85.44 302.98,85.31 301.98,85.12 C300.98,84.93 300.31,84.5 299.98,83.82 C299.65,83.14 299.48,82.36 299.48,81.47 L299.48,73.2 L294.01,73.2 L294.01,76.47 C294.01,76.77 293.83,77.04 293.48,77.27 C293.13,77.5 292.78,77.6 292.45,77.58 C292.16,77.57 291.95,77.49 291.84,77.34 C291.73,77.19 291.65,77 291.59,76.75 L291.73,72.67 L291.73,60.15 L291.59,56.61 C291.65,56.53 291.69,56.49 291.71,56.47 C291.73,56.45 291.9,56.56 292.19,56.77 L294.22,58.25 L299.47,58.23 L299.47,56.06 L299.33,51.35 C299.4,51.27 299.48,51.22 299.55,51.19 L300.09,51.35 L302.38,51.98 C302.54,52.03 302.65,52.1 302.72,52.18 C302.79,52.26 302.83,52.36 302.83,52.48 C302.83,52.6 302.74,52.77 302.55,52.99 L301.86,53.8 L301.86,58.23 L307.51,58.23 L308.24,56.91 C308.36,56.7 308.45,56.59 308.5,56.58 C308.55,56.58 308.76,56.73 309.11,57.04 L310.81,58.6 C310.95,58.73 311.02,58.81 311.04,58.85 C311.05,58.88 311.06,58.92 311.07,58.95 C311.08,58.98 310.97,59.14 310.76,59.43 L310.21,60.2 L310.21,71.6 L310.32,74.61 C310.09,75.53 309.59,75.99 308.82,76 C308.05,76 307.67,75.73 307.67,75.18 L307.67,73.21 L307.67,73.19 Z M299.5,65.21 L299.5,59.3 L294.03,59.3 L294.03,65.21 L299.5,65.21 Z M299.5,72.12 L299.5,66.27 L294.03,66.27 L294.03,72.12 L299.5,72.12 Z M307.69,65.21 L307.69,59.3 L301.89,59.3 L301.89,65.21 L307.69,65.21 Z M307.69,72.12 L307.69,66.27 L301.89,66.27 L301.89,72.12 L307.69,72.12 Z" id="形状"></path>
            <path d="M341.35,75.31 C341.35,79.43 338.07,83 333.62,83 C331.23,83 329.08,81.95 327.95,80.44 L326.86,83.21 L326.27,83.21 L326.27,73.59 L327.11,73.59 C327.82,78.8 329.67,81.91 333.49,81.91 C336.73,81.91 338.61,80.02 338.61,76.95 C338.61,73.88 336.97,72.03 334.28,70.44 L331.21,68.63 C328.35,66.95 326.5,64.85 326.5,61.15 C326.5,56.61 329.94,54.09 333.35,54.09 C335.74,54.09 337.59,55.43 338.56,56.9 L339.4,54.04 L339.99,54.04 L339.99,62.44 L339.23,62.44 C338.56,58.37 336.71,55.17 333.52,55.17 C330.71,55.17 329.07,57.1 329.07,60.04 C329.07,62.73 330.54,64.16 332.98,65.58 L336.64,67.72 C339.58,69.44 341.34,71.63 341.34,75.28 L341.35,75.31 Z" id="路径"></path>
            <path d="M358.44,55.36 L358.44,54.44 C359.66,54.57 360.71,54.69 361.76,54.69 C362.81,54.69 363.86,54.56 365.08,54.44 L365.08,55.36 C362.77,55.61 362.35,55.91 362.35,58.97 L362.35,74.81 C362.35,80.23 359.49,83 354.66,83 C349.83,83 346.51,80.02 346.51,75.1 L346.51,58.97 C346.51,55.9 346.09,55.61 343.78,55.36 L343.78,54.44 C346.34,54.65 346.72,54.69 348.11,54.69 C349.5,54.69 349.87,54.65 352.44,54.44 L352.44,55.36 C350.13,55.61 349.71,55.91 349.71,58.97 L349.71,74.68 C349.71,79.34 351.85,81.36 355.21,81.36 C359.07,81.36 361.17,79.34 361.17,74.68 L361.17,58.97 C361.17,55.9 360.75,55.61 358.44,55.36 L358.44,55.36 Z" id="路径"></path>
            <path d="M387.34,54.43 L387.34,55.35 C385.37,55.6 384.82,56.02 384.02,58.79 L377.09,82.99 L376.59,82.99 L369.03,58.75 C368.11,55.73 367.64,55.6 365.75,55.35 L365.75,54.43 C367.47,54.6 368.4,54.68 369.7,54.68 C371,54.68 372.14,54.6 374.28,54.43 L374.28,55.35 C371.8,55.6 371.59,55.81 372.47,58.79 L377.68,76.39 L382.8,58.79 C383.68,55.85 383.47,55.6 380.99,55.35 L380.99,54.43 C382.21,54.56 383.47,54.68 384.48,54.68 C385.32,54.68 386.29,54.6 387.34,54.43 L387.34,54.43 Z" id="路径"></path>
            <path d="M4.88,107.91 C5.28,106.87 5.59,106.07 5.8,105.51 C6.01,104.95 6.24,104.18 6.5,103.21 L6.73,102.32 L6.79,101.85 C6.81,101.77 6.83,101.73 6.85,101.72 C6.87,101.71 6.95,101.76 7.08,101.85 L9.86,103.92 C9.95,104 10,104.11 10.01,104.25 C10.01,104.39 9.94,104.5 9.8,104.57 L9.14,104.9 C8.17,106.73 7.22,108.42 6.31,109.98 C7,111.03 7.66,112.47 8.29,114.3 C8.92,116.13 9.3,118.41 9.42,121.13 C9.54,123.85 9.6,125.68 9.61,126.59 C9.61,127.51 9.59,128.39 9.55,129.25 C9.49,130.29 9.37,131.28 9.2,132.22 C9.03,133.16 8.73,133.96 8.3,134.6 C7.87,135.24 7.38,135.75 6.82,136.13 C6.26,136.51 5.89,136.71 5.71,136.75 C5.53,136.79 5.41,136.73 5.37,136.57 C5.34,136.49 5.29,136.17 5.22,135.61 C5.15,135.05 4.9,134.55 4.49,134.11 C4.08,133.67 3.72,133.37 3.43,133.21 L2.86,132.92 C2.76,132.88 2.69,132.82 2.65,132.74 C2.61,132.66 2.59,132.58 2.59,132.5 C2.59,132.42 2.61,132.35 2.68,132.28 C2.74,132.21 2.83,132.19 2.93,132.2 L3.83,132.42 C4.27,132.54 4.75,132.59 5.26,132.58 C5.64,132.58 5.93,132.5 6.13,132.33 C6.33,132.17 6.5,131.91 6.64,131.57 C6.78,131.23 6.89,130.68 6.99,129.94 C7.09,129.2 7.15,128.29 7.18,127.22 L7.18,124.76 C7.18,124.76 7.21,123.07 7.21,123.07 L7.09,119.74 C6.37,121.03 5.6,122.34 4.77,123.67 C3.94,125 2.82,126.5 1.41,128.15 L0.62,129.08 C0.49,129.24 0.4,129.27 0.34,129.19 C0.28,129.1 0.25,129.01 0.24,128.9 C0.24,128.8 0.27,128.68 0.36,128.55 L0.83,127.84 C1,127.59 1.32,127 1.81,126.07 C2.3,125.14 2.66,124.45 2.87,124 C3.08,123.55 3.46,122.69 3.98,121.4 C4.5,120.11 4.92,118.97 5.24,117.97 C5.56,116.97 5.89,115.73 6.25,114.25 C6,113.41 5.84,112.9 5.78,112.71 L5.32,111.49 C4.04,113.2 3.25,114.25 2.93,114.64 C2.61,115.03 1.96,115.77 0.97,116.85 L0.5,117.36 C0.44,117.44 0.36,117.46 0.27,117.44 C0.18,117.41 0.13,117.35 0.13,117.23 C0.13,117.12 0.16,116.99 0.25,116.85 L0.82,116.04 C1,115.78 1.33,115.24 1.8,114.43 C2.27,113.62 2.7,112.83 3.11,112.06 C3.51,111.29 3.93,110.37 4.36,109.3 C4.23,109.06 4.14,108.9 4.08,108.8 C4.02,108.7 3.82,108.39 3.48,107.86 L2.83,106.86 C2.48,106.35 2.16,105.93 1.87,105.6 C1.58,105.27 1.39,105.05 1.32,104.93 C1.25,104.81 1.2,104.72 1.19,104.64 C1.18,104.57 1.16,104.48 1.15,104.37 C1.15,104.27 1.21,104.24 1.37,104.29 C1.53,104.34 1.74,104.5 2.02,104.76 L2.87,105.57 C3.06,105.78 3.73,106.55 4.88,107.87 L4.88,107.91 Z M20.14,118.54 L21.15,116.75 C21.37,116.34 21.52,116.17 21.6,116.23 C21.68,116.29 21.75,116.35 21.81,116.42 L23.75,118.68 C23.95,118.93 24.05,119.14 24.03,119.31 C24.01,119.48 23.94,119.57 23.8,119.57 L17.54,119.57 L17.54,133.1 L21.14,133.1 L22.5,130.72 C22.62,130.51 22.71,130.39 22.78,130.37 C22.85,130.34 23.04,130.52 23.35,130.9 L25.05,132.97 C25.38,133.39 25.53,133.68 25.51,133.86 C25.49,134.04 25.41,134.12 25.28,134.12 L9.27,134.12 C9.16,134.08 9.08,134.03 9.02,133.95 C8.96,133.87 8.95,133.72 8.97,133.48 C8.99,133.24 9.09,133.12 9.27,133.12 L15,133.12 L15,119.59 L10,119.59 C9.8,119.59 9.69,119.42 9.68,119.08 C9.67,118.74 9.77,118.57 10,118.57 L15,118.57 L15,106.99 L9.13,106.99 C8.88,106.99 8.76,106.82 8.78,106.47 C8.79,106.12 8.94,105.95 9.21,105.95 L20.2,105.95 L21.26,103.76 C21.43,103.39 21.56,103.22 21.64,103.23 C21.72,103.24 21.83,103.33 21.96,103.49 L24.26,106.23 C24.43,106.45 24.52,106.6 24.51,106.68 C24.51,106.76 24.47,106.83 24.42,106.9 C24.37,106.97 24.32,107 24.26,107 L18.13,107 C17.96,107.28 17.77,107.5 17.54,107.67 L17.54,118.58 L20.13,118.58 L20.14,118.54 Z" id="形状"></path>
            <path d="M28.83,123.27 C28.73,123.14 28.67,122.94 28.65,122.69 C28.63,122.44 28.77,122.31 29.05,122.31 L33.68,122.31 L33.68,116.95 L31.74,116.95 L31.74,117.74 C31.74,117.96 31.67,118.17 31.52,118.36 C31.37,118.55 31.2,118.68 31,118.75 C30.8,118.82 30.54,118.87 30.21,118.9 C29.88,118.93 29.69,118.9 29.63,118.82 C29.58,118.74 29.55,118.57 29.55,118.31 L29.67,114.57 L29.67,105.32 L29.62,101.87 C29.68,101.8 29.79,101.82 29.92,101.91 L31.67,103.25 L37.82,103.25 L38.55,102.05 C38.55,102.05 38.6,101.97 38.62,101.93 C38.64,101.89 38.69,101.9 38.77,101.97 L40.88,103.84 C40.94,103.91 40.98,103.95 40.99,103.96 C40.99,103.97 41,104.01 40.99,104.08 C40.99,104.15 40.93,104.23 40.82,104.34 L40.16,105.03 L40.16,114.58 L40.24,117.14 C40.2,117.3 40.15,117.47 40.07,117.64 C39.99,117.82 39.77,117.98 39.4,118.12 C39.03,118.26 38.7,118.33 38.39,118.32 C38.18,118.32 38.05,118.27 37.99,118.18 C37.94,118.09 37.91,117.93 37.91,117.71 L37.91,116.96 L35.9,116.96 L35.9,122.32 L38.42,122.32 L39.5,120.67 C39.58,120.54 39.64,120.47 39.67,120.46 C39.7,120.46 39.75,120.5 39.82,120.59 L41.6,122.99 C41.65,123.07 41.67,123.13 41.68,123.17 L41.68,123.31 C41.68,123.38 41.63,123.41 41.56,123.41 L35.91,123.41 L35.91,129.32 C37.57,128.98 39.01,128.64 40.22,128.32 L41.82,127.89 C41.97,127.85 42.04,127.91 42.05,128.07 C42.05,128.23 42,128.34 41.88,128.4 L40.34,129.25 C39.39,129.77 37.92,130.54 35.92,131.54 C33.92,132.54 32.41,133.33 31.38,133.91 L30.1,134.64 C29.81,134.81 29.67,134.89 29.65,134.88 C29.64,134.87 29.6,134.71 29.53,134.43 L28.8,131.3 C28.73,130.98 28.69,130.81 28.69,130.79 C28.69,130.76 28.69,130.74 28.7,130.73 C28.7,130.72 28.8,130.7 28.96,130.67 L29.9,130.53 C30.23,130.49 31.49,130.25 33.69,129.82 L33.69,123.42 L29.03,123.42 L28.84,123.3 L28.83,123.27 Z M33.68,109.51 L33.68,104.33 L31.74,104.33 L31.74,109.51 L33.68,109.51 L33.68,109.51 Z M33.68,115.89 L33.68,110.57 L31.74,110.57 L31.74,115.89 L33.68,115.89 L33.68,115.89 Z M37.91,109.51 L37.91,104.33 L36.16,104.33 C36.09,104.42 36,104.5 35.9,104.57 L35.9,109.51 L37.91,109.51 Z M37.91,115.89 L37.91,110.57 L35.9,110.57 L35.9,115.89 L37.91,115.89 L37.91,115.89 Z M50.48,115.26 L47.87,115.26 C47.83,115.38 47.8,115.47 47.76,115.55 C47.72,115.62 47.6,115.72 47.39,115.86 L47.39,134.13 C47.39,135.21 46.64,135.88 45.13,136.14 L44.45,136.26 C44.19,136.31 44.05,136.32 44.02,136.29 C43.99,136.26 43.96,136.18 43.94,136.06 L43.75,135.21 C43.58,134.46 43.08,133.91 42.28,133.56 L41.27,133.13 C41.19,133.1 41.13,133.06 41.1,133 C41.07,132.94 41.05,132.86 41.04,132.74 C41.03,132.62 41.12,132.58 41.31,132.59 L42.56,132.71 C43.36,132.79 43.95,132.84 44.33,132.86 C44.71,132.88 44.93,132.83 44.99,132.7 C45.05,132.58 45.07,132.39 45.07,132.14 L45.07,115.26 L40.76,115.26 C40.47,115.26 40.34,115.12 40.39,114.83 L40.39,114.59 C40.43,114.42 40.46,114.33 40.49,114.31 L40.71,114.19 L50.41,114.19 L51.17,112.83 C51.24,112.7 51.3,112.63 51.34,112.62 C51.38,112.61 51.44,112.64 51.51,112.71 L54.24,115.45 C54.32,115.54 54.37,115.68 54.37,115.86 C54.37,116.04 54.31,116.2 54.18,116.33 C54.09,116.44 53.82,116.5 53.38,116.53 C52.94,116.56 52.42,116.82 51.82,117.31 C51.22,117.8 50.66,118.49 50.16,119.39 L49.68,120.24 C49.62,120.36 49.55,120.41 49.47,120.4 C49.39,120.4 49.34,120.36 49.32,120.28 C49.3,120.2 49.29,120.14 49.29,120.1 C49.29,120.06 49.29,120.02 49.31,119.96 L49.63,118.76 L50.48,115.26 L50.48,115.26 Z M48.12,104.88 L41.37,104.88 C41.15,104.88 41.02,104.7 40.98,104.35 C40.94,104 41.07,103.82 41.37,103.82 L48.28,103.82 L49.05,102.32 C49.11,102.21 49.15,102.16 49.19,102.15 C49.23,102.15 49.32,102.19 49.44,102.28 L52.2,104.47 C52.37,104.61 52.46,104.76 52.45,104.91 C52.45,105.06 52.35,105.18 52.17,105.25 L50.31,106.06 L46.92,109.56 C47.09,109.88 47.25,110.2 47.39,110.53 C47.53,110.86 47.6,111.33 47.6,111.92 C47.6,112.51 47.48,113 47.23,113.39 C46.98,113.78 46.64,113.97 46.21,113.98 C45.78,113.98 45.43,113.69 45.16,113.1 C45.04,112.88 44.94,112.5 44.85,111.98 C44.76,111.45 44.67,111.01 44.57,110.65 C44.47,110.29 44.26,109.82 43.96,109.23 C43.66,108.64 43.4,108.26 43.22,108.09 C43.04,107.92 42.91,107.79 42.86,107.73 C42.81,107.67 42.79,107.57 42.79,107.43 C42.79,107.3 42.87,107.24 43.02,107.25 C43.31,107.29 43.82,107.49 44.57,107.86 C45.32,108.23 45.73,108.44 45.79,108.49 L46.51,109.06 L48.14,104.87 L48.12,104.88 Z" id="形状"></path>
            <path d="M60.77,136.27 L61.29,135.6 C61.35,135.52 61.5,135.27 61.74,134.85 C61.97,134.43 62.13,134.12 62.22,133.92 C62.31,133.72 62.43,133.34 62.59,132.78 C62.75,132.22 62.79,131.8 62.72,131.54 C62.65,131.28 62.57,131.12 62.47,131.07 C62.42,131.06 62.31,131.09 62.13,131.17 C61.95,131.25 61.79,131.28 61.65,131.27 C61.14,131.24 60.74,131.01 60.45,130.56 C60.16,130.11 60.01,129.53 60.01,128.81 C60.01,128.09 60.19,127.46 60.56,126.94 C60.93,126.42 61.39,126.15 61.95,126.15 C62.65,126.18 63.18,126.51 63.54,127.16 C63.9,127.81 64.11,128.5 64.17,129.24 C64.23,129.98 64.21,130.68 64.12,131.37 C63.97,132.37 63.73,133.24 63.38,133.99 C63.03,134.74 62.72,135.29 62.43,135.63 C62.15,135.98 61.85,136.31 61.55,136.63 C61.25,136.95 61.01,137.09 60.85,137.03 C60.68,136.98 60.6,136.88 60.59,136.72 C60.59,136.57 60.64,136.42 60.76,136.26 L60.77,136.27 Z" id="路径"></path>
            <path d="M93.98,118.13 L94.71,118.13 L95.18,117.26 C95.35,116.96 95.45,116.8 95.48,116.8 C95.52,116.8 95.61,116.88 95.77,117.05 L97.49,119.06 C97.6,119.2 97.65,119.33 97.65,119.42 C97.65,119.52 97.57,119.65 97.41,119.82 L96.87,120.43 C96.81,121.57 96.75,122.63 96.69,123.61 C96.63,124.59 96.55,125.67 96.44,126.87 C96.33,128.07 96.17,129.23 95.98,130.37 C95.79,131.51 95.53,132.51 95.22,133.35 C94.9,134.2 94.54,134.77 94.14,135.07 C93.74,135.37 93.28,135.65 92.76,135.9 C92.24,136.15 91.84,136.27 91.55,136.25 C91.48,136.25 91.41,136.23 91.35,136.2 C91.29,136.17 91.24,135.88 91.2,135.34 C91.16,134.8 90.97,134.31 90.62,133.85 C90.27,133.4 89.92,133.06 89.57,132.85 L88.83,132.44 C88.74,132.4 88.7,132.32 88.71,132.18 C88.71,132.15 88.72,132.09 88.75,131.99 C88.77,131.89 88.84,131.85 88.96,131.86 L90.06,132.08 C91.52,132.37 92.56,132.17 93.18,131.5 C93.8,130.82 94.18,129.08 94.33,126.27 C94.48,123.46 94.56,121.69 94.59,120.97 C94.62,120.25 94.63,119.79 94.63,119.59 L94.63,119.16 L88,119.16 L87.67,120.01 C87.51,120.39 87.41,120.59 87.35,120.61 C87.29,120.63 87.14,120.52 86.89,120.27 L85.61,119.03 C85.49,118.92 85.43,118.85 85.43,118.79 L85.43,118.69 L85.61,118.43 L86.2,117.41 C86.26,116.87 86.31,116.46 86.35,116.19 L86.63,111.74 L86.89,108.1 L86.96,106.43 L87.01,105.07 C87.05,105 87.08,104.96 87.11,104.95 C87.14,104.94 87.29,105 87.54,105.15 L89.57,106.35 C89.85,106.52 89.97,106.66 89.94,106.78 C89.91,106.9 89.79,107.05 89.57,107.23 L89.07,107.64 C88.93,109.5 88.83,110.9 88.75,111.81 L88.49,114.94 L88.23,118.09 L91.73,118.09 L92.74,104.07 L86.01,104.07 C85.79,104.07 85.66,103.89 85.62,103.53 C85.58,103.17 85.71,102.99 86.01,102.99 L92.6,102.99 L93.25,101.73 C93.47,101.3 93.61,101.09 93.67,101.11 C93.73,101.13 93.83,101.21 93.97,101.36 L95.53,103.09 C95.69,103.29 95.78,103.47 95.78,103.62 C95.78,103.69 95.76,103.74 95.74,103.78 C95.72,103.82 95.65,103.92 95.53,104.08 L94.94,104.83 L93.98,118.1 L93.98,118.13 Z M85.61,126.34 C85.49,126.06 85.43,125.91 85.44,125.87 C85.44,125.83 85.47,125.78 85.5,125.73 L86.3,125.59 L87.22,125.35 C87.42,125.3 88.32,124.98 89.9,124.4 C91.48,123.82 92.39,123.48 92.61,123.36 L93.44,122.95 C93.66,122.85 93.77,122.89 93.78,123.09 C93.78,123.29 93.73,123.43 93.61,123.52 L92.95,124.05 L90.22,126.39 L88,128.2 L87.17,128.95 L86.92,129.21 C86.86,129.25 86.82,129.25 86.78,129.21 L86.6,128.72 L85.61,126.34 Z M96.6,105.92 C96.39,105.92 96.28,105.74 96.26,105.39 C96.24,105.04 96.36,104.86 96.6,104.86 L105.28,104.86 L105.98,103.56 C106.11,103.32 106.19,103.2 106.21,103.2 C106.24,103.2 106.32,103.26 106.44,103.39 L108.37,105.52 C108.54,105.72 108.62,105.88 108.61,106.02 C108.61,106.16 108.52,106.29 108.37,106.42 L107.6,107.13 C107.48,108.14 107.36,109.07 107.25,109.92 C107.14,110.77 106.95,111.9 106.71,113.33 C106.46,114.75 106.22,116 105.99,117.06 C105.76,118.12 105.46,119.36 105.09,120.76 C104.73,122.16 104.5,123 104.39,123.26 L103.82,124.7 C104.52,126.05 105.28,127.23 106.1,128.22 C106.92,129.22 107.56,129.94 108.02,130.39 C108.48,130.84 109.16,131.34 110.07,131.89 L110.95,132.44 C111.01,132.49 111.06,132.55 111.07,132.62 L111.07,132.74 C111.07,132.79 111.07,132.84 111.06,132.89 C111.06,132.94 111.01,132.97 110.95,132.98 L110.4,133.12 C109.66,133.32 109.11,133.75 108.75,134.43 C108.4,135.11 108.18,135.44 108.11,135.42 C108.07,135.42 108,135.37 107.92,135.28 L107.44,134.83 C106.77,134.19 105.98,133.2 105.07,131.86 C104.16,130.52 103.3,129.07 102.49,127.51 C101.87,128.56 101.3,129.45 100.77,130.17 C100.24,130.89 99.46,131.82 98.45,132.95 C97.44,134.08 96.4,134.98 95.34,135.67 L95.04,135.87 C94.82,136.01 94.71,135.99 94.7,135.8 C94.7,135.61 94.73,135.47 94.82,135.38 L95.4,134.75 L96.52,133.55 C96.88,133.13 97.32,132.54 97.86,131.78 C98.39,131.02 98.82,130.37 99.13,129.83 C99.44,129.29 99.83,128.57 100.28,127.65 C100.74,126.74 101.02,126.11 101.14,125.77 L101.4,125.02 C100.71,123.05 100.19,121.37 99.85,119.99 C99.51,118.61 99.22,116.9 99,114.87 C98.78,112.84 98.63,111.19 98.58,109.92 L98.47,106.39 L98.47,105.96 L96.61,105.96 L96.6,105.92 Z M98.98,105.92 C99.06,107.27 99.2,108.59 99.4,109.87 C99.6,111.15 99.9,112.75 100.3,114.67 C100.7,116.59 101.03,117.91 101.27,118.63 C101.51,119.35 101.92,120.41 102.48,121.83 C102.66,121.17 102.82,120.6 102.95,120.1 C103.08,119.6 103.26,118.81 103.5,117.72 C103.74,116.63 104.02,115.19 104.33,113.41 C104.65,111.62 104.96,109.13 105.26,105.93 L98.97,105.93 L98.98,105.92 Z" id="形状"></path>
            <path d="M131,123.59 L125.21,123.59 L125.21,130.56 C125.19,130.84 125.21,131.06 125.24,131.25 C125.28,131.43 125.47,131.7 125.83,132.05 C126.19,132.4 127.48,132.58 129.72,132.59 C132.13,132.62 133.59,132.37 134.11,131.84 C134.63,131.32 134.99,130.79 135.19,130.26 C135.39,129.74 135.6,129.04 135.82,128.17 L136.39,125.92 C136.43,125.75 136.49,125.66 136.58,125.66 C136.68,125.67 136.74,125.74 136.75,125.87 C136.75,125.99 136.76,126.06 136.76,126.08 L136.5,128.66 C136.44,129.3 136.41,129.81 136.42,130.17 C136.42,130.53 136.48,130.84 136.56,131.09 C136.65,131.35 136.76,131.58 136.9,131.8 C137.04,132.02 137.14,132.19 137.19,132.33 C137.24,132.47 137.27,132.65 137.27,132.87 C137.27,133.09 137.23,133.33 137.14,133.58 C136.53,135.17 134.33,135.97 130.54,135.98 C129.9,135.99 129.12,135.96 128.2,135.89 C127.28,135.82 126.32,135.69 125.32,135.5 C124.32,135.31 123.65,134.88 123.32,134.2 C122.99,133.52 122.82,132.74 122.82,131.85 L122.82,123.58 L117.35,123.58 L117.35,126.85 C117.35,127.15 117.17,127.42 116.82,127.65 C116.47,127.88 116.12,127.98 115.79,127.95 C115.5,127.94 115.29,127.86 115.18,127.71 C115.07,127.56 114.99,127.37 114.93,127.12 L115.07,123.04 L115.07,110.52 L114.93,106.98 C114.98,106.9 115.03,106.86 115.05,106.84 C115.08,106.83 115.24,106.92 115.53,107.13 L117.56,108.61 L122.81,108.59 L122.81,106.42 L122.67,101.71 C122.74,101.63 122.82,101.58 122.89,101.55 L123.43,101.71 L125.72,102.34 C125.88,102.39 125.99,102.46 126.06,102.54 C126.13,102.62 126.17,102.72 126.17,102.83 C126.17,102.94 126.08,103.12 125.89,103.34 L125.2,104.15 L125.2,108.58 L130.85,108.58 L131.58,107.26 C131.7,107.05 131.79,106.94 131.84,106.93 C131.89,106.93 132.1,107.08 132.45,107.39 L134.15,108.95 C134.29,109.08 134.36,109.16 134.38,109.2 C134.39,109.23 134.4,109.27 134.41,109.3 C134.41,109.33 134.31,109.49 134.1,109.78 L133.55,110.55 L133.55,121.95 L133.66,124.96 C133.43,125.88 132.93,126.34 132.16,126.35 C131.39,126.36 131.01,126.08 131.01,125.53 L131.01,123.56 L131,123.59 Z M122.83,115.61 L122.83,109.7 L117.36,109.7 L117.36,115.61 L122.83,115.61 Z M122.83,122.52 L122.83,116.67 L117.36,116.67 L117.36,122.52 L122.83,122.52 Z M131.02,115.61 L131.02,109.7 L125.22,109.7 L125.22,115.61 L131.02,115.61 Z M131.02,122.52 L131.02,116.67 L125.22,116.67 L125.22,122.52 L131.02,122.52 Z" id="形状"></path>
            <path d="M145.12,117.94 L141.56,117.94 C141.34,117.94 141.23,117.76 141.22,117.4 C141.22,117.04 141.33,116.86 141.56,116.86 L144.98,116.86 L145.52,116.07 L145.88,115.54 C145.97,115.47 146.17,115.58 146.47,115.86 L147.63,116.94 C147.83,117.14 147.97,117.29 148.04,117.39 C148.11,117.49 148.14,117.59 148.14,117.68 C148.14,117.77 148.02,117.94 147.8,118.2 L147.29,118.81 L147.29,130.88 C148.39,131.67 149.5,132.24 150.63,132.58 C151.75,132.93 153.7,133.1 156.49,133.1 C157.88,133.11 159.47,133.03 161.28,132.86 C163.09,132.69 164.48,132.47 165.46,132.19 L166.48,131.91 C166.57,131.9 166.65,131.89 166.71,131.89 C166.8,131.92 166.85,131.96 166.85,132.03 C166.85,132.1 166.85,132.16 166.82,132.24 C166.8,132.31 166.76,132.37 166.72,132.43 L166.29,132.9 C166.07,133.15 165.87,133.5 165.68,133.95 C165.49,134.4 165.38,134.86 165.34,135.33 C165.3,135.8 165.22,136.06 165.11,136.12 C165,136.18 164.34,136.23 163.12,136.27 C161.91,136.31 160.93,136.32 160.2,136.31 C157.84,136.28 155.79,136.22 154.06,136.12 C152.33,136.02 151.11,135.74 150.41,135.26 C149.71,134.78 149.08,134.29 148.54,133.75 C148,133.22 147.59,132.83 147.31,132.59 C147.03,132.35 146.72,132.22 146.36,132.21 C145.96,132.21 145.48,132.46 144.89,132.95 C144.31,133.44 143.84,133.91 143.49,134.36 L142.86,135.19 L142.61,135.52 C142.55,135.53 142.49,135.42 142.42,135.19 L141.56,132.67 C141.47,132.42 141.43,132.27 141.43,132.21 C141.43,132.15 141.51,132.09 141.64,132.02 L142.69,131.55 C143.37,131.25 144.17,130.97 145.1,130.72 L145.1,117.94 L145.12,117.94 Z M143.73,104.27 C143.61,104.11 143.56,103.98 143.57,103.87 C143.57,103.76 143.67,103.68 143.83,103.64 C143.83,103.64 144.03,103.71 144.41,103.85 C144.79,103.99 145.48,104.33 146.49,104.87 C147.5,105.41 147.99,106.49 147.96,108.09 C147.94,108.59 147.79,109.11 147.51,109.66 C147.23,110.2 146.83,110.46 146.3,110.42 C146.04,110.41 145.81,110.29 145.59,110.08 C145.37,109.86 145.22,109.59 145.13,109.27 C145.04,108.95 144.96,108.43 144.91,107.72 C144.86,107.01 144.75,106.41 144.6,105.93 C144.45,105.45 144.16,104.89 143.72,104.28 L143.73,104.27 Z M156.98,104.01 C157.15,104.4 157.44,105.03 157.86,105.88 C158.28,106.73 159.07,107.59 160.22,108.44 C161.37,109.29 162.39,109.9 163.27,110.27 C164.15,110.64 164.86,110.86 165.38,110.94 L166.3,111.1 C166.52,111.14 166.63,111.22 166.62,111.36 C166.62,111.49 166.53,111.62 166.35,111.75 L165.81,112.14 C165.29,112.52 164.95,112.99 164.78,113.56 C164.61,114.13 164.46,114.41 164.32,114.41 C164.17,114.42 163.74,114.22 163.02,113.81 C162.3,113.4 161.47,112.76 160.52,111.91 C159.57,111.06 158.8,110.06 158.23,108.91 C157.66,107.76 157.08,106.36 156.51,104.71 C155.06,107.01 153.86,108.72 152.92,109.84 C151.98,110.96 151.07,111.92 150.2,112.73 L148.72,114.01 L147.93,114.7 C147.72,114.88 147.52,114.98 147.34,115 C147.2,115.01 147.14,114.95 147.15,114.8 C147.15,114.69 147.22,114.56 147.37,114.39 L147.71,114.02 L148.39,113.17 C149.64,111.61 150.67,110.07 151.49,108.55 C152.31,107.03 152.92,105.83 153.32,104.93 C153.72,104.03 153.98,103.38 154.11,102.99 L154.62,101.36 C154.65,101.27 154.68,101.21 154.72,101.18 C154.76,101.15 154.91,101.21 155.15,101.36 L157.3,102.66 C157.54,102.82 157.68,102.94 157.73,103.02 C157.78,103.11 157.8,103.19 157.8,103.27 C157.8,103.35 157.69,103.47 157.49,103.62 L156.95,104.03 L156.98,104.01 Z M154.44,124.94 L151.37,124.94 L151.37,130.83 C151.37,130.97 151.28,131.15 151.1,131.35 C150.92,131.55 150.61,131.66 150.18,131.68 C149.95,131.69 149.79,131.65 149.7,131.55 C149.61,131.45 149.53,131.3 149.48,131.11 L149.56,127.41 L149.56,118 L149.48,114.57 C149.54,114.43 149.6,114.35 149.66,114.33 L149.95,114.53 L151.65,115.57 L154.27,115.57 L154.7,114.92 C154.92,114.58 155.08,114.41 155.16,114.42 C155.24,114.43 155.4,114.53 155.61,114.72 L156.59,115.68 C156.79,115.89 156.92,116.05 156.98,116.14 C157.03,116.24 157.06,116.33 157.07,116.41 C157.07,116.49 156.98,116.63 156.77,116.84 L156.34,117.29 L156.34,129.52 C156.34,129.85 156.3,130.12 156.23,130.33 C156.16,130.54 155.98,130.75 155.69,130.95 C155.41,131.15 155.08,131.31 154.73,131.43 C154.37,131.55 154.14,131.6 154.04,131.59 C153.95,131.59 153.88,131.54 153.83,131.45 C153.78,131.36 153.72,131.13 153.65,130.77 C153.58,130.41 153.45,130.09 153.27,129.81 C153.09,129.53 152.9,129.33 152.7,129.2 L152.08,128.85 C151.94,128.78 151.88,128.67 151.89,128.52 C151.89,128.44 151.92,128.38 151.98,128.32 C152.04,128.27 152.1,128.24 152.17,128.24 L152.85,128.36 C153.8,128.53 154.3,128.51 154.37,128.31 C154.43,128.11 154.47,127.94 154.47,127.81 L154.47,124.93 L154.44,124.94 Z M154.44,116.69 L151.37,116.69 L151.37,119.47 L154.44,119.47 L154.44,116.69 Z M154.44,120.55 L151.37,120.55 L151.37,123.82 L154.44,123.82 L154.44,120.55 Z M157,111.53 L157.54,110.6 C157.79,110.17 157.95,109.95 158.02,109.96 C158.09,109.97 158.26,110.11 158.52,110.4 L159.65,111.66 C159.9,111.95 160.02,112.17 160.02,112.31 C160.02,112.48 159.94,112.57 159.81,112.57 L158.49,112.57 L158.49,112.61 L151.8,112.61 C151.57,112.61 151.45,112.43 151.43,112.07 C151.42,111.71 151.54,111.53 151.8,111.53 L157,111.53 L157,111.53 Z M159.81,117.5 L159.81,122.9 L159.91,126.09 C159.88,126.23 159.82,126.41 159.71,126.62 C159.6,126.83 159.33,126.94 158.88,126.95 C158.43,126.95 158.17,126.91 158.09,126.8 C158.02,126.7 157.96,126.55 157.92,126.37 L158.02,123.36 L158.02,118.77 L157.92,115.58 C157.99,115.49 158.05,115.44 158.09,115.43 C158.13,115.43 158.21,115.45 158.35,115.5 L160.07,116.21 C160.21,116.28 160.3,116.33 160.36,116.38 C160.42,116.43 160.45,116.47 160.47,116.5 C160.49,116.53 160.49,116.59 160.47,116.67 C160.45,116.75 160.38,116.85 160.27,116.98 L159.81,117.51 L159.81,117.5 Z M163.34,116.69 L163.34,129.75 C163.34,130.05 163.3,130.3 163.22,130.51 C163.14,130.71 162.96,130.94 162.68,131.18 C162.4,131.42 162.06,131.63 161.69,131.8 C161.31,131.97 161.08,132.06 160.99,132.07 C160.9,132.08 160.83,131.98 160.78,131.78 C160.76,131.74 160.73,131.57 160.69,131.26 C160.65,130.95 160.53,130.65 160.33,130.34 C160.13,130.04 159.91,129.81 159.68,129.67 L158.89,129.22 C158.8,129.18 158.74,129.14 158.72,129.09 C158.7,129.04 158.68,128.96 158.68,128.83 C158.68,128.71 158.75,128.65 158.89,128.66 L159.81,128.78 C160.68,128.9 161.18,128.86 161.3,128.65 C161.42,128.44 161.48,128.22 161.48,127.97 L161.48,117.65 L161.4,114.79 C161.46,114.69 161.5,114.63 161.52,114.62 C161.54,114.61 161.62,114.62 161.74,114.67 L163.52,115.32 C163.75,115.41 163.9,115.49 163.96,115.55 C164.02,115.61 164.05,115.67 164.05,115.75 C164.05,115.82 163.96,115.96 163.79,116.15 L163.33,116.68 L163.34,116.69 Z" id="形状"></path>
            <path d="M175.78,110.83 C175.27,112.09 174.82,113.11 174.43,113.89 C174.04,114.67 173.55,115.58 172.93,116.62 C172.31,117.66 171.74,118.54 171.2,119.28 L170.9,119.69 C170.74,119.91 170.64,119.99 170.6,119.93 C170.55,119.86 170.53,119.8 170.52,119.73 C170.52,119.66 170.55,119.55 170.61,119.4 L170.82,118.91 C171.6,117.03 172.21,115.53 172.64,114.4 C173.07,113.27 173.43,112.11 173.73,110.92 C174.02,109.73 174.5,107.75 175.15,104.96 L170.68,104.98 L170.58,104.94 C170.5,104.9 170.43,104.85 170.38,104.8 C170.33,104.75 170.29,104.58 170.27,104.3 C170.25,104.02 170.38,103.88 170.66,103.88 L180.45,103.88 L181.35,102.21 C181.48,101.96 181.56,101.83 181.59,101.83 C181.62,101.83 181.74,101.92 181.94,102.12 L183.87,104.19 C184.06,104.41 184.16,104.59 184.16,104.72 C184.16,104.9 184.03,105 183.79,105 L178.3,105 C178.13,105.24 177.86,105.51 177.51,105.81 L176.26,109.79 L180.33,109.79 L180.88,108.59 C180.99,108.35 181.07,108.23 181.11,108.23 C181.15,108.23 181.3,108.33 181.55,108.56 L183.6,110.45 C183.74,110.58 183.81,110.69 183.81,110.77 C183.81,110.89 183.73,111 183.6,111.1 L182.84,111.73 C182.58,112.9 182.32,114.03 182.04,115.14 C181.76,116.24 181.39,117.39 180.93,118.59 C180.47,119.79 179.94,120.87 179.35,121.85 C178.76,122.83 177.8,123.84 176.46,124.87 C175.12,125.9 173.97,126.64 173.01,127.08 C172.05,127.51 171.41,127.78 171.09,127.87 L170.68,127.99 C170.68,127.99 170.58,128.01 170.53,127.99 C170.48,127.99 170.44,127.96 170.41,127.92 C170.39,127.88 170.38,127.82 170.38,127.74 C170.38,127.66 170.43,127.59 170.52,127.52 L170.98,127.24 C172.68,126.22 174.16,124.96 175.41,123.47 C176.66,121.98 177.55,120.62 178.08,119.39 C178.61,118.16 179.03,117.02 179.33,115.95 C179.63,114.89 180,113.19 180.45,110.85 L175.78,110.85 L175.78,110.83 Z M174.4,127.21 C174.4,127.21 174.46,127.28 174.5,127.33 C174.54,127.38 174.58,127.53 174.62,127.78 L174.79,128.7 C174.84,129.02 174.88,129.4 174.92,129.86 C174.96,130.32 174.98,130.82 174.99,131.35 C174.99,131.88 174.91,132.5 174.75,133.19 C174.57,133.94 174.27,134.6 173.86,135.19 C173.45,135.77 172.99,136.05 172.47,136.03 C171.95,136 171.56,135.79 171.28,135.39 C171,134.99 170.88,134.53 170.89,134 C170.89,133.45 170.97,133.05 171.14,132.82 C171.31,132.58 171.65,132.26 172.17,131.83 C172.69,131.41 173.1,130.88 173.42,130.25 C173.73,129.61 173.95,128.87 174.08,128.02 L174.16,127.37 C174.22,127.21 174.3,127.16 174.39,127.21 L174.4,127.21 Z M174.84,114.11 C174.9,114.1 175.15,114.22 175.58,114.46 C176.01,114.71 176.5,115.15 177.05,115.77 C177.61,116.39 177.88,117.15 177.88,118.02 C177.88,118.62 177.74,119.12 177.47,119.5 C177.21,119.88 176.91,120.08 176.57,120.08 C176.23,120.08 175.95,119.89 175.71,119.48 C175.57,119.26 175.49,118.99 175.45,118.67 L175.49,116.9 C175.49,116.65 175.43,116.34 175.35,115.96 C175.27,115.58 175.13,115.21 174.94,114.83 L174.69,114.4 C174.64,114.24 174.69,114.14 174.83,114.1 L174.84,114.11 Z M178.01,127.5 C178.13,127.5 178.37,127.69 178.73,128.08 C179.09,128.47 179.36,128.78 179.55,129.02 C179.74,129.26 179.99,129.64 180.3,130.16 C180.61,130.69 180.84,131.19 180.99,131.67 C181.14,132.15 181.21,132.64 181.21,133.14 C181.21,133.72 181.11,134.21 180.93,134.63 C180.75,135.04 180.44,135.38 180,135.64 C179.56,135.9 179.14,135.78 178.73,135.29 C178.55,135.09 178.43,134.84 178.35,134.54 C178.27,134.24 178.24,133.99 178.25,133.79 C178.25,133.68 178.26,133.54 178.29,133.36 L178.46,132.47 C178.57,131.85 178.63,131.3 178.63,130.82 C178.63,130.05 178.48,129.28 178.2,128.54 L177.87,127.75 C177.85,127.61 177.9,127.53 178.02,127.51 L178.01,127.5 Z M183.2,127.55 C183.23,127.49 183.28,127.46 183.33,127.46 C183.5,127.49 183.72,127.64 184.01,127.93 L184.74,128.66 C185.08,129.01 185.42,129.43 185.75,129.91 C186.08,130.39 186.35,130.86 186.55,131.32 C186.75,131.78 186.85,132.34 186.85,133 C186.85,133.66 186.72,134.23 186.44,134.71 C186.16,135.19 185.79,135.43 185.34,135.44 C184.89,135.44 184.56,135.25 184.36,134.84 C184.16,134.43 184.05,134.08 184.04,133.79 C184.03,133.49 184.04,133.12 184.06,132.66 C184.09,132.2 184.1,131.78 184.11,131.4 C184.11,131.02 184.08,130.61 184.01,130.16 C183.92,129.65 183.76,129.1 183.53,128.53 L183.18,127.74 C183.16,127.67 183.17,127.61 183.2,127.55 L183.2,127.55 Z M187.16,107.41 L187.16,118.02 L187.27,121.11 C187.22,121.32 187.16,121.5 187.07,121.65 C186.98,121.8 186.8,121.95 186.51,122.09 C186.22,122.23 185.96,122.3 185.72,122.29 C185.37,122.29 185.15,122.21 185.04,122.03 C184.93,121.85 184.87,121.64 184.83,121.38 L184.98,117.4 L184.98,108.11 L184.83,104.88 C184.92,104.76 185,104.7 185.08,104.69 C185.15,104.69 185.29,104.72 185.48,104.8 L187.45,105.71 C187.85,105.91 188.07,106.04 188.11,106.09 C188.16,106.15 188.18,106.22 188.19,106.31 C188.19,106.4 188.1,106.52 187.91,106.69 L187.15,107.4 L187.16,107.41 Z M192.78,105.26 L192.78,124.64 C192.79,124.86 192.78,125.1 192.77,125.35 C192.75,125.6 192.54,125.89 192.14,126.23 C191.74,126.56 191.28,126.86 190.77,127.11 C190.26,127.36 189.97,127.47 189.89,127.45 C189.81,127.43 189.75,127.37 189.72,127.28 C189.68,127.23 189.67,127.03 189.67,126.68 C189.67,126.33 189.54,125.95 189.28,125.53 C188.85,124.87 188.27,124.39 187.54,124.09 L187.06,123.89 C186.89,123.84 186.82,123.73 186.83,123.56 C186.83,123.48 186.87,123.41 186.95,123.34 C187.03,123.27 187.12,123.25 187.23,123.28 L187.63,123.38 C188.17,123.52 188.72,123.6 189.28,123.61 C189.84,123.61 190.16,123.56 190.24,123.45 C190.32,123.34 190.36,123.07 190.36,122.63 L190.36,106.62 L190.25,102.64 C190.31,102.57 190.38,102.53 190.44,102.5 L190.91,102.68 L193.46,103.63 C193.62,103.7 193.7,103.79 193.7,103.92 C193.7,104.05 193.65,104.18 193.54,104.31 L192.8,105.26 L192.78,105.26 Z M188.04,128.06 C188.03,127.99 188.02,127.93 188.01,127.85 C188.01,127.78 188.09,127.74 188.25,127.72 C188.29,127.72 188.66,127.87 189.38,128.18 C190.1,128.49 191.06,129.22 192.26,130.39 C193.46,131.55 194.05,132.62 194.03,133.6 C194.01,134.58 193.84,135.32 193.51,135.82 C193.18,136.32 192.8,136.56 192.37,136.53 C191.76,136.52 191.37,136.26 191.18,135.76 C190.99,135.26 190.85,134.67 190.75,133.99 C190.64,133.31 190.5,132.66 190.33,132.04 C190.16,131.42 189.91,130.81 189.58,130.2 C189.25,129.59 188.85,129.02 188.36,128.48 L188.14,128.24 C188.09,128.19 188.05,128.13 188.04,128.06 L188.04,128.06 Z" id="形状"></path>
        </g>
    </g>
</svg>