<?xml version="1.0" encoding="UTF-8"?>
<svg width="214px" height="44px" viewBox="0 0 214 44" version="1.1" xmlns="http://www.w3.org/2000/svg" xmlns:xlink="http://www.w3.org/1999/xlink">
    <title>text1-A35L</title>
    <defs>
        <rect id="path-1" x="0" y="0" width="214" height="44"></rect>
    </defs>
    <g id="Phone/Mini-Program" stroke="none" stroke-width="1" fill="none" fill-rule="evenodd">
        <g id="A-35-4MATIC" transform="translate(-81.000000, -112.000000)">
            <g id="编组" transform="translate(81.000000, 112.000000)">
                <mask id="mask-2" fill="white">
                    <use xlink:href="#path-1"></use>
                </mask>
                <g id="矩形"></g>
                <path d="M46.6484375,34.828125 C46.7486979,34.8138021 46.9026693,34.8388672 47.1103516,34.9033203 C47.3180339,34.9677734 47.8909505,35.0429688 48.8291016,35.1289062 C49.7672526,35.2148438 50.952474,35.5371094 52.3847656,36.0957031 C53.8170573,36.6542969 54.7301432,37.2809245 55.1240234,37.9755859 C55.5179036,38.6702474 55.7184245,39.296875 55.7255859,39.8554688 C55.7327474,40.4140625 55.6360677,40.9082031 55.4355469,41.3378906 C55.235026,41.7675781 54.9091797,42.007487 54.4580078,42.0576172 L54.4580078,42.0576172 L54.3341619,42.0633878 L54.208718,42.0533558 C53.8299893,41.9995561 53.4296875,41.7324219 53.0078125,41.2519531 C52.9075521,41.1516927 52.4348958,40.5143229 51.5898437,39.3398438 C50.7447917,38.1653646 49.9283854,37.3417969 49.140625,36.8691406 C48.3528646,36.3964844 47.7513021,36.0598958 47.3359375,35.859375 L47.3359375,35.859375 L46.4550781,35.4941406 L46.3634711,35.4359538 C46.2252152,35.3374837 46.1590712,35.2315538 46.1650391,35.1181641 C46.1722005,34.9820964 46.3333333,34.8854167 46.6484375,34.828125 Z M117.772461,3.12763936 C117.836914,3.13509115 118.01237,3.33919271 118.298828,3.74023438 L118.298828,3.74023438 L119.888672,6.125 L119.968045,6.26196289 C120.089392,6.47979058 120.156033,6.64539931 120.167969,6.75878906 C120.182292,6.89485677 120.060547,6.97005208 119.802734,6.984375 L119.802734,6.984375 L119.007812,7.0703125 L118.940077,7.07941352 C118.666549,7.11989565 118.116211,7.23860677 117.289062,7.43554688 L117.289062,7.43554688 L114.710937,7.95117188 L111.466797,8.6171875 L111.466797,17.1679688 L117.246094,17.1679688 L118.341797,15.1914063 L118.414307,15.0754242 C118.57723,14.8224233 118.696289,14.6927897 118.771484,14.6865234 C118.857422,14.679362 119.014974,14.8476562 119.244141,15.1914063 L119.244141,15.1914063 L120.898437,17.7265625 L120.956923,17.8148872 C121.044452,17.9541377 121.082248,18.0536024 121.070312,18.1132812 C121.041667,18.2565104 120.934245,18.328125 120.748047,18.328125 L120.748047,18.328125 L117.847656,18.328125 L117.778429,18.4498698 C117.733869,18.5358073 117.692491,18.6312934 117.654297,18.7363281 L117.654297,18.7363281 L117.546875,18.8867188 L117.353516,19.1230469 L117.353516,37.2558594 L117.439453,40.2851562 L117.396807,40.4677734 C117.256943,40.9962891 117.009766,41.3507813 116.655273,41.53125 C116.261393,41.7317708 115.906901,41.8248698 115.591797,41.8105469 C115.26237,41.8105469 115.040365,41.7389323 114.925781,41.5957031 C114.811198,41.452474 114.732422,41.2304688 114.689453,40.9296875 L114.689453,40.9296875 L114.818359,36.5898438 L114.818359,18.328125 L111.466797,18.328125 L111.452549,18.9147678 C111.400578,21.0373445 111.351617,22.8470052 111.305664,24.34375 C111.255534,25.9765625 111.13737,27.4518229 110.951172,28.7695312 C110.764974,30.0872396 110.485677,31.3333333 110.113281,32.5078125 C109.740885,33.6822917 109.339844,34.7027995 108.910156,35.5693359 C108.480469,36.4358724 107.986328,37.2415365 107.427734,37.9863281 L107.427734,37.9863281 L106.009766,39.7480469 L105.895966,39.8920593 C105.640615,40.213206 105.456543,40.4301758 105.34375,40.5429688 L105.34375,40.5429688 L104.570312,41.2949219 L104.511016,41.3563672 C104.433099,41.4285547 104.359766,41.4617839 104.291016,41.4560547 C104.205078,41.4488932 104.151367,41.4274089 104.129883,41.3916016 C104.108398,41.3557943 104.101237,41.2841797 104.108398,41.1767578 C104.11556,41.0693359 104.183594,40.9296875 104.3125,40.7578125 L104.3125,40.7578125 L104.935547,39.9199219 L105.237863,39.496592 C105.833287,38.6380939 106.373465,37.7085658 106.858398,36.7080078 C107.424154,35.5406901 107.84668,34.2158203 108.125977,32.7333984 C108.405273,31.2509766 108.612956,29.9654948 108.749023,28.8769531 C108.885091,27.7884115 108.971029,26.3561198 109.006836,24.5800781 C109.042643,22.8040365 109.064128,21.1962891 109.071289,19.7568359 C109.078451,18.3173828 109.089193,17.3111979 109.103516,16.7382812 C109.103516,15.9505208 109.096354,15.2486979 109.082031,14.6328125 L109.082031,14.6328125 L108.974609,10.078125 L108.974609,9.15429688 L108.78125,5.8671875 L108.812283,5.81467014 C108.834563,5.78284144 108.860026,5.75737847 108.888672,5.73828125 L108.888672,5.73828125 L109.425781,6.125 L111.982422,7.86523438 L112.389697,7.61405285 C113.45419,6.9491866 114.346101,6.3239294 115.06543,5.73828125 C115.874674,5.07942708 116.408203,4.59960938 116.666016,4.29882813 L116.666016,4.29882813 L117.353516,3.50390625 L117.430557,3.41343632 C117.602097,3.21682794 117.716064,3.12162712 117.772461,3.12763936 Z M43.8125,26.40625 C43.8268229,26.3776042 43.8984375,26.3776042 44.0273437,26.40625 L44.0273437,26.40625 L46.6484375,27.2226562 L46.7800293,27.27771 C46.9035645,27.3341064 47.0029297,27.3945312 47.078125,27.4589844 C47.1783854,27.5449219 47.2249349,27.6416016 47.2177734,27.7490234 C47.210612,27.8564453 47.1139323,28.0104167 46.9277344,28.2109375 L46.9277344,28.2109375 L46.3691406,28.7910156 L46.3537568,29.0903381 C46.3099039,29.910104 46.2434172,30.9024523 46.1542969,32.0673828 C46.0540365,33.3779297 45.7926432,34.6061198 45.3701172,35.7519531 C44.9475911,36.8977865 44.3030599,37.789388 43.4365234,38.4267578 C42.569987,39.0641276 41.5817057,39.6477865 40.4716797,40.1777344 C39.3616536,40.7076823 38.0260417,41.1230469 36.4648437,41.4238281 L36.4648437,41.4238281 L35.046875,41.703125 L34.8952908,41.7377387 C34.7982133,41.7552445 34.7090929,41.7616102 34.6279297,41.7568359 C34.5061849,41.7496745 34.4238281,41.7138672 34.3808594,41.6494141 C34.3378906,41.5849609 34.3128255,41.4954427 34.3056641,41.3808594 C34.2985026,41.266276 34.3736979,41.1660156 34.53125,41.0800781 L34.53125,41.0800781 L35.0683594,40.9082031 L36.0351562,40.5859375 L36.4856567,40.4254761 C37.5227254,40.0401001 38.4611003,39.5779622 39.3007812,39.0390625 C40.2604167,38.4231771 41.0338542,37.828776 41.6210937,37.2558594 C42.2083333,36.6829427 42.6702474,35.8880208 43.0068359,34.8710938 C43.3434245,33.8541667 43.547526,32.8623047 43.6191406,31.8955078 C43.6907552,30.9287109 43.733724,29.9511719 43.7480469,28.9628906 L43.7480469,28.9628906 L43.7910156,26.5996094 L43.7923584,26.5311279 C43.7950439,26.4693604 43.8017578,26.4277344 43.8125,26.40625 Z M68.2832031,12.2587891 C68.311849,12.2373047 68.4479167,12.3125 68.6914062,12.484375 L68.6914062,12.484375 L70.9902344,14.1601562 L71.0916138,14.2454224 C71.1869507,14.3300171 71.2641602,14.4125977 71.3232422,14.4931641 C71.4020182,14.6005859 71.4414062,14.71875 71.4414062,14.8476562 C71.4414062,14.9765625 71.3125,15.1126302 71.0546875,15.2558594 L71.0546875,15.2558594 L70.4316406,15.6210937 L68.3476562,19.6386719 L68.8847656,20.0898438 L68.9768415,20.1768774 C69.1487165,20.3408602 69.2469308,20.4443359 69.2714844,20.4873047 C69.3001302,20.5374349 69.3180339,20.5839844 69.3251953,20.6269531 C69.3323568,20.6699219 69.328776,20.7164714 69.3144531,20.7666016 C69.3001302,20.8167318 69.2213542,20.9277344 69.078125,21.0996094 L69.078125,21.0996094 L68.5625,21.7226562 L68.5625,36.5039062 L68.6699219,40.2636719 L68.6269531,40.4235989 C68.4274554,41.0914415 68.0550595,41.4320126 67.5097656,41.4453125 L67.5097656,41.4453125 L67.3412207,41.4481771 L67.1879297,41.4474609 C66.7994922,41.4417318 66.573763,41.4016276 66.5107422,41.3271484 C66.4319661,41.2340495 66.3639323,41.1015625 66.3066406,40.9296875 L66.3066406,40.9296875 L66.4355469,36.5898438 L66.4355469,22.8183594 L66.3646129,22.9262251 C66.1130741,23.3067886 65.710612,23.8974609 65.1572266,24.6982422 C64.5485026,25.5791016 64.186849,26.0911458 64.0722656,26.234375 L64.0722656,26.234375 L63.4492187,27.0078125 L63.3334065,27.1472702 C62.8828703,27.6812015 62.5848858,27.9283353 62.4394531,27.8886719 C62.3678385,27.8886719 62.3248698,27.8671875 62.3105469,27.8242188 C62.296224,27.78125 62.2890625,27.7382812 62.2890625,27.6953125 L62.2890625,27.6953125 L62.2890625,27.5449219 L62.2942187,27.5053906 C62.3079687,27.4458073 62.3492187,27.358724 62.4179687,27.2441406 L62.4179687,27.2441406 L62.890625,26.5136719 L63.7070312,24.8808594 L63.8852844,24.5161285 C64.2910258,23.6787974 64.6254883,22.9374186 64.8886719,22.2919922 C65.1894531,21.554362 65.6155599,20.4407552 66.1669922,18.9511719 C66.7184245,17.4615885 67.0764974,16.4482422 67.2412109,15.9111328 C67.4059245,15.3740234 67.5742187,14.7903646 67.7460937,14.1601562 L67.7460937,14.1601562 L68.21875,12.3984375 L68.2354601,12.335178 C68.2481916,12.2985749 68.2641059,12.273112 68.2832031,12.2587891 Z M74.9863281,28.1679688 L75.4589844,28.3398438 L77.7578125,29.15625 L77.8297255,29.1899685 C77.938142,29.2546206 77.9893663,29.3615451 77.9833984,29.5107422 C77.976237,29.6897786 77.8580729,29.9082031 77.6289062,30.1660156 L77.6289062,30.1660156 L77.1347656,30.7246094 L77.1347656,37.1699219 L77.139707,37.3142969 C77.1693555,37.729375 77.3324219,37.9820312 77.6289062,38.0722656 C77.9583333,38.172526 78.4882812,38.2226562 79.21875,38.2226562 C80.5794271,38.2369792 81.5712891,38.1188151 82.1943359,37.8681641 C82.8173828,37.617513 83.2470703,37.2916667 83.4833984,36.890625 C83.7197266,36.4895833 83.9596354,35.8808594 84.203125,35.0644531 L84.203125,35.0644531 L84.9335937,32.5292969 L84.9674988,32.4238892 C85.0505269,32.1951701 85.1609701,32.0870768 85.2988281,32.0996094 C85.3847656,32.1139323 85.4384766,32.1676432 85.4599609,32.2607422 C85.4814453,32.3538411 85.4886068,32.4290365 85.4814453,32.4863281 C85.4742839,32.5436198 85.4707031,32.6152344 85.4707031,32.7011719 L85.4707031,32.7011719 L85.1914062,35.0644531 L85.1726074,35.3195801 L85.1726074,35.3195801 L85.1591797,35.5693359 C85.1520182,35.7340495 85.1699219,35.9166667 85.2128906,36.1171875 C85.2701823,36.5325521 85.3955078,36.9335938 85.5888672,37.3203125 C85.7822266,37.7070312 85.9039714,37.9684245 85.9541016,38.1044922 C86.0042318,38.2405599 86.0292969,38.4231771 86.0292969,38.6523438 C86.014974,39.46875 85.5494792,40.1311849 84.6328125,40.6396484 C83.7161458,41.148112 82.2910156,41.3951823 80.3574219,41.3808594 C78.6529948,41.3808594 77.4033203,41.2841797 76.6083984,41.0908203 C75.8134766,40.8974609 75.3372396,40.5143229 75.1796875,39.9414062 C75.0221354,39.3684896 74.9433594,38.9244792 74.9433594,38.609375 L74.9433594,38.609375 L74.9433594,31.90625 L74.8574219,28.296875 L74.890842,28.2443576 C74.916305,28.2125289 74.9481337,28.187066 74.9863281,28.1679688 L74.9863281,28.1679688 Z M5.46289062,2.75195312 C5.49153646,2.73763021 5.65625,2.78776042 5.95703125,2.90234375 L5.95703125,2.90234375 L8.578125,3.91210937 L8.64914773,3.94602273 C8.86221591,4.06794508 8.83854167,4.27864583 8.578125,4.578125 L8.578125,4.578125 L7.76171875,5.54492187 L7.76171875,12.8496094 L8.47070312,12.8496094 L9.20117187,11.5605469 L9.2681427,11.4492645 C9.41775004,11.205663 9.52075195,11.0744629 9.57714844,11.0556641 C9.64160156,11.0341797 9.91731771,11.2955729 10.4042969,11.8398438 L10.4042969,11.8398438 L11.328125,12.9140625 L11.4352816,13.0523847 C11.7012281,13.4081589 11.8087384,13.659252 11.7578125,13.8056641 C11.7005208,13.9703776 11.593099,14.0527344 11.4355469,14.0527344 L11.4355469,14.0527344 L7.76171875,14.0527344 L7.76171875,19.2949219 L8.05143049,19.3934167 C9.750422,19.9918845 10.7423931,20.7253289 11.0273437,21.59375 C11.328125,22.5104167 11.4570312,23.1477865 11.4140625,23.5058594 L11.4140625,23.5058594 L11.3710937,23.828125 L12.7675781,23.828125 L12.7769775,23.6763916 C12.7850342,23.5340576 12.7890625,23.4199219 12.7890625,23.3339844 L12.7890625,23.3339844 L13.0039062,20.4765625 L13.0282254,20.107449 C13.1146602,18.7791974 13.1710069,17.7277561 13.1972656,16.953125 L13.1972656,16.953125 L13.2617187,14.8476562 L13.0142187,15.3194531 C12.6750521,15.9588281 12.2992187,16.6394531 11.8867187,17.3613281 L11.8867187,17.3613281 L11.2851562,18.4140625 L11.2291908,18.5115379 C11.083486,18.7513141 10.9660735,18.8298249 10.8769531,18.7470703 C10.7766927,18.6539714 10.7766927,18.4570312 10.8769531,18.15625 L10.8769531,18.15625 L11.3066406,16.8457031 L11.4412537,16.4141693 C11.756134,15.3904165 12.0764974,14.2487793 12.4023437,12.9892578 C12.7747396,11.5498047 13.0397135,10.4863281 13.1972656,9.79882812 L13.1972656,9.79882812 L13.6914062,7.60742187 L13.7459435,7.35621995 L13.7459435,7.35621995 L13.8451022,6.89347957 C13.999349,6.16631611 14.0985076,5.65950521 14.1425781,5.37304687 L14.1425781,5.37304687 L14.421875,3.65429687 L14.5078125,2.98828125 L14.5436198,2.95008681 C14.5722656,2.92780671 14.6104601,2.91189236 14.6582031,2.90234375 L14.6582031,2.90234375 L15.2167969,3.31054687 L17.6230469,4.87890625 L17.7158474,4.95141602 C17.858082,5.0737576 17.938151,5.20355903 17.9560547,5.34082031 C17.9775391,5.50553385 17.859375,5.67382812 17.6015625,5.84570312 L17.6015625,5.84570312 L17.1503906,6.14648437 L15.625,9.75585938 L23.6601562,9.75585938 L24.6054687,7.82226562 L24.6544054,7.71633572 C24.7339771,7.55420826 24.8036024,7.46419271 24.8632812,7.44628906 C24.9348958,7.42480469 25.0423177,7.49283854 25.1855469,7.65039062 L25.1855469,7.65039062 L27.3769531,10.1210938 L27.4482693,10.2195638 C27.5546965,10.3806966 27.5989583,10.5269097 27.5810547,10.6582031 C27.5595703,10.8157552 27.4915365,10.8945312 27.3769531,10.8945312 L27.3769531,10.8945312 L26.0234375,10.8945312 L26.0234375,10.9160156 L15.1308594,10.9160156 L13.6914062,14.0527344 L15.8828125,15.5136719 L22.5429687,15.5136719 L23.1875,14.0527344 L23.2348533,13.9437779 C23.3260523,13.7412109 23.3962054,13.6307199 23.4453125,13.6123047 C23.5026042,13.5908203 23.6386719,13.6803385 23.8535156,13.8808594 L23.8535156,13.8808594 L25.8085937,15.7285156 L25.8863672,15.8217578 C25.9791797,15.944362 26.0284505,16.0600911 26.0341797,16.1689453 C26.0413411,16.305013 25.9518229,16.4733073 25.765625,16.6738281 L25.765625,16.6738281 L25.1855469,17.3183594 L24.9921875,23.828125 L25.2070312,23.828125 L25.8945312,22.5820312 L25.9637587,22.4511357 C26.1419994,22.1222391 26.2693142,21.9546079 26.3457031,21.9482422 C26.4316406,21.9410807 26.5748698,22.0520833 26.7753906,22.28125 L26.7753906,22.28125 L28.2792969,24.1289062 L28.3509115,24.240804 C28.4583333,24.4228244 28.5060764,24.5824653 28.4941406,24.7197266 C28.4798177,24.8844401 28.4153646,24.9667969 28.3007812,24.9667969 L28.3007812,24.9667969 L26.2597656,24.9667969 L26.2597656,24.9882812 L24.9492187,24.9882812 L24.9458499,25.0712948 C24.9321202,25.431317 24.9153395,26.1269531 24.8955078,27.1582031 C24.8740234,28.2753906 24.8417969,29.2994792 24.7988281,30.2304688 L24.7988281,30.2304688 L24.6699219,32.5507812 L24.6699219,33.0234375 L24.7988281,33.0234375 L25.5722656,31.4765625 L25.6253189,31.3735252 C25.7270408,31.1823581 25.8024554,31.0806362 25.8515625,31.0683594 C25.9088542,31.0540365 26.0449219,31.1686198 26.2597656,31.4121094 L26.2597656,31.4121094 L27.6347656,32.9804688 L27.7442285,33.113457 C28.052959,33.4988867 28.1847656,33.7625 28.1396484,33.9042969 C28.0895182,34.061849 28,34.140625 27.8710937,34.140625 L27.8710937,34.140625 L25.3574219,34.140625 L25.3574219,34.2050781 L24.5625,34.2050781 L24.5302734,34.4113281 C24.4901693,34.6748698 24.4615234,34.8925781 24.4443359,35.0644531 C24.4228516,35.2792969 24.3942057,35.5371094 24.3583984,35.8378906 C24.3225911,36.1386719 24.2223307,36.6363932 24.0576172,37.3310547 C23.8929036,38.0257161 23.6959635,38.6057943 23.4667969,39.0712891 C23.2376302,39.5367839 22.8652344,39.9986979 22.3496094,40.4570312 C21.8339844,40.9153646 21.218099,41.1946615 20.5019531,41.2949219 C20.3300781,41.3235677 20.2190755,41.319987 20.1689453,41.2841797 C20.1188151,41.2483724 20.054362,41.0227865 19.9755859,40.6074219 C19.8968099,40.1920573 19.7571615,39.8017578 19.5566406,39.4365234 C19.3561198,39.0712891 19.1770833,38.820638 19.0195312,38.6845703 C18.8619792,38.5485026 18.6542969,38.4088542 18.3964844,38.265625 L18.3964844,38.265625 L17.5371094,37.8144531 L17.4672852,37.7775269 C17.402832,37.7359009 17.3544922,37.6801758 17.3222656,37.6103516 C17.2792969,37.5172526 17.2721354,37.4169922 17.3007812,37.3095703 C17.3294271,37.2021484 17.4153646,37.155599 17.5585937,37.1699219 L17.5585937,37.1699219 L18.4394531,37.3417969 L18.6816913,37.3887057 C19.9444869,37.6194583 20.7410195,37.5393689 21.0712891,37.1484375 C21.4222005,36.7330729 21.6692708,36.1386719 21.8125,35.3652344 L21.8125,35.3652344 L21.984375,34.2050781 L14.2714844,34.2050781 L13.6914062,35.171875 L13.6195679,35.2880249 C13.4597778,35.5418091 13.3548177,35.6749674 13.3046875,35.6875 C13.2473958,35.7018229 13.125651,35.608724 12.9394531,35.4082031 L12.9394531,35.4082031 L11.6503906,34.0761719 L11.5420404,33.962119 C11.2697282,33.6721242 11.1303892,33.495298 11.1240234,33.4316406 C11.116862,33.360026 11.1276042,33.2884115 11.15625,33.2167969 L11.15625,33.2167969 L11.5644531,32.7871094 L11.9726562,32.2714844 L12.0231445,31.8283691 C12.1713867,30.5231934 12.290625,29.4355469 12.3808594,28.5654297 C12.4811198,27.5986328 12.5742187,26.40625 12.6601562,24.9882812 L12.6601562,24.9882812 L10.984375,24.9882812 L10.8603363,25.108963 C10.5697378,25.3713633 10.2709147,25.4994303 9.96386719,25.4931641 C9.61295573,25.4860026 9.35514323,25.3499349 9.19042969,25.0849609 C9.02571615,24.819987 8.92903646,24.5335286 8.90039062,24.2255859 C8.87174479,23.9176432 8.85384115,23.484375 8.84667969,22.9257812 C8.83951823,22.3671875 8.78580729,21.8694661 8.68554687,21.4326172 C8.58528646,20.9957682 8.43489583,20.6914062 8.234375,20.5195312 L8.234375,20.5195312 L7.76171875,20.0898438 L7.76171875,35.3652344 L7.890625,39.8769531 L7.85705566,40.0206299 C7.82214355,40.1575928 7.78320312,40.2744141 7.74023437,40.3710938 C7.68294271,40.5 7.51822917,40.6611328 7.24609375,40.8544922 C6.97395833,41.0478516 6.6266276,41.1552734 6.20410156,41.1767578 C5.78157552,41.1982422 5.52376302,41.1194661 5.43066406,40.9404297 C5.3375651,40.7613932 5.27669271,40.5429688 5.24804687,40.2851562 L5.24804687,40.2851562 L5.37695312,36.03125 L5.37695312,24.7519531 L5.2495575,25.0012054 C4.94329325,25.6004181 4.57397461,26.322998 4.14160156,27.1689453 C3.64746094,28.1357422 3.19986979,28.9807943 2.79882812,29.7041016 C2.39778646,30.4274089 2.13639323,30.9072266 2.01464844,31.1435547 C1.89290365,31.3798828 1.80338542,31.5410156 1.74609375,31.6269531 L1.74609375,31.6269531 L1.31640625,32.3359375 L1.26873779,32.4089508 C1.15907796,32.5616913 1.06038411,32.5910645 0.97265625,32.4970703 C0.872395833,32.3896484 0.872395833,32.2070312 0.97265625,31.9492188 L0.97265625,31.9492188 L1.40234375,30.7246094 L1.74821566,29.7397762 C2.65073624,27.110018 3.3948206,24.4519676 3.98046875,21.765625 C4.63932292,18.7434896 5.11914062,16.1653646 5.41992187,14.03125 L5.41992187,14.03125 L1.05859375,14.03125 L0.981674383,14.0239559 C0.787872942,13.9850542 0.684606481,13.7905454 0.671875,13.4404297 C0.657552083,13.0465495 0.786458333,12.8496094 1.05859375,12.8496094 L1.05859375,12.8496094 L5.44140625,12.8496094 L5.44140625,6.33984375 L5.35546875,2.859375 L5.39605035,2.80924479 C5.42151331,2.78059896 5.4437934,2.76150174 5.46289062,2.75195312 Z M97.9974365,29.9592285 L98.0390625,29.9726562 L98.4472656,30.3378906 L100.359375,31.90625 L100.446602,31.9874609 C100.553164,32.0894401 100.620768,32.1662109 100.649414,32.2177734 C100.685221,32.2822266 100.706706,32.3610026 100.713867,32.4541016 C100.721029,32.5472005 100.624349,32.6295573 100.423828,32.7011719 L100.423828,32.7011719 L99.7578125,32.9589844 L99.3545163,33.499144 C98.2857792,34.915875 97.2707972,36.1430483 96.3095703,37.1806641 C95.2281901,38.3479818 94.5371094,39.0605469 94.2363281,39.3183594 L94.2363281,39.3183594 L93.5488281,39.9199219 L93.4680469,39.9886719 C93.3672135,40.0688802 93.2938802,40.1032552 93.2480469,40.0917969 C93.219401,40.0917969 93.1943359,40.0846354 93.1728516,40.0703125 C93.1513672,40.0559896 93.1370443,39.9915365 93.1298828,39.8769531 C93.1227214,39.7623698 93.1764323,39.6191406 93.2910156,39.4472656 L93.2910156,39.4472656 L93.8925781,38.5234375 L94.0390625,38.3015803 C94.5338542,37.5386778 95.09375,36.5419922 95.71875,35.3115234 C96.40625,33.9580078 96.9075521,32.8515625 97.2226562,31.9921875 L97.2226562,31.9921875 L97.6523437,30.8105469 L97.8886719,30.015625 L97.9222412,29.9807129 C97.9571533,29.9538574 97.9960937,29.9511719 98.0390625,29.9726562 Z M71.9804225,30.345264 C72.0750046,29.8886256 72.1817909,29.7859075 72.3007812,30.0371094 C72.4296875,30.3092448 72.5693359,30.781901 72.7197266,31.4550781 C72.8701172,32.1282552 72.9739583,32.6904297 73.03125,33.1416016 C73.0885417,33.5927734 73.1171875,34.0546875 73.1171875,34.5273438 C73.1028646,35.7018229 72.9059245,36.7402344 72.5263672,37.6425781 C72.1468099,38.5449219 71.6061198,38.9889323 70.9042969,38.9746094 C70.3886719,38.9746094 70.0234375,38.7705078 69.8085937,38.3623047 C69.59375,37.9541016 69.4791667,37.485026 69.4648437,36.9550781 C69.4505208,36.4251302 69.6582031,35.8235677 70.0878906,35.1503906 L70.0878906,35.1503906 L70.7539062,34.2695312 L70.9111719,34.0349219 C71.1128385,33.7186719 71.2824219,33.3886719 71.4199219,33.0449219 C71.5917969,32.6152344 71.735026,32.0638021 71.8496094,31.390625 L71.8496094,31.390625 L71.9570312,30.4667969 Z M210.644,5.408 L210.644,14.912 L209.588,14.912 C208.388,9.392 206.372,6.944 202.964,6.944 C198.26,6.944 195.812,12.176 195.812,22.256 C195.812,31.952 198.26,37.136 202.868,37.136 C204.452,37.136 205.844,36.656 207.62,35.504 L207.62,35.504 L207.62,27.2 C207.62,25.424 207.14,25.04 204.788,24.8 L204.788,24.8 L204.788,23.648 C206.804,23.888 207.908,23.936 209.252,23.936 L209.252,23.936 L209.50093,23.9354023 C210.73175,23.92925 211.778,23.873 213.668,23.648 L213.668,23.648 L213.668,24.8 C211.364,25.088 211.124,25.28 211.124,27.296 L211.124,35.216 C207.62,37.664 205.412,38.528 202.724,38.528 C196.148,38.528 192.02,32.144 192.02,21.92 C192.02,11.888 196.148,5.408 202.532,5.408 C204.932,5.408 206.804,6.272 208.484,8.144 L208.484,8.144 L209.876,5.408 L210.644,5.408 Z M101.863281,30.6386719 C102.078125,30.6386719 102.683268,31.007487 103.678711,31.7451172 C104.674154,32.4827474 105.358073,33.202474 105.730469,33.9042969 C106.102865,34.6061198 106.289063,35.2936198 106.289063,35.9667969 C106.27474,36.3105469 106.22819,36.6292318 106.149414,36.9228516 C106.070638,37.2164714 105.927409,37.5136719 105.719727,37.8144531 C105.512044,38.1152344 105.250651,38.265625 104.935547,38.265625 C104.548828,38.2799479 104.255208,38.0758464 104.054688,37.6533203 C103.854167,37.2307943 103.718099,36.7617188 103.646484,36.2460938 L103.646484,36.2460938 L103.431641,34.8496094 L103.359883,34.4985547 C103.260195,34.0436589 103.144466,33.6414714 103.012695,33.2919922 C102.847982,32.8551432 102.615234,32.4075521 102.314453,31.9492188 L102.314453,31.9492188 L101.90625,31.3261719 L101.691406,31.046875 L101.669922,31.0015191 C101.660373,30.9696904 101.660373,30.9346788 101.669922,30.8964844 C101.684245,30.7389323 101.748698,30.6529948 101.863281,30.6386719 Z M181.076,5.792 C183.14,5.984 184.052,6.032 185.06,6.032 L185.06,6.032 L185.230539,6.03134578 C186.017227,6.02517333 186.6952,5.9744 188.084,5.84 L188.084,5.84 L188.084,6.992 C185.3,7.28 184.964,7.616 184.916,10.208 L184.916,10.208 L185.3,33.776 C185.348,36.368 185.732,36.704 188.468,36.992 L188.468,36.992 L188.468,38.144 C186.212,37.856 185.06,37.76 183.524,37.76 C181.94,37.76 180.836,37.856 178.676,38.144 L178.676,38.144 L178.676,36.992 C181.412,36.752 181.844,36.32 181.844,33.776 L181.844,33.776 L181.46,9.488 L173.492,37.136 L172.724,37.136 L164.804,9.44 L163.988,33.776 C163.94,36.272 164.372,36.704 167.156,36.992 L167.156,36.992 L167.156,38.144 C165.332,37.952 164.42,37.904 163.316,37.904 C162.164,37.904 161.3,37.952 159.38,38.144 L159.38,38.144 L159.38,36.992 L159.812,36.944 C162.116,36.656 162.404,36.32 162.548,33.776 L162.548,33.776 L163.364,10.208 L163.364,9.776 C163.364,7.712 162.788,7.232 160.196,7.04 L160.196,7.04 L160.196,5.84 C161.636,5.984 162.26,6.032 163.316,6.032 L163.316,6.032 L163.609615,6.03110423 C164.764237,6.02376331 165.704923,5.96923077 167.3,5.792 L167.3,5.792 L174.212,29.696 Z M145.844,4.928 L153.86,34.16 C154.484,36.368 154.916,36.752 157.316,36.992 L157.316,36.992 L157.316,38.144 C155.348,37.856 154.196,37.76 152.66,37.76 C151.076,37.76 149.972,37.856 147.956,38.144 L147.956,38.144 L147.956,36.992 C149.588,36.8 150.26,36.416 150.26,35.6 C150.26,35.12 150.164,34.592 150.02,33.92 L150.02,33.92 L148.724,28.688 L140.036,28.688 L138.692,33.248 C138.356,34.304 138.212,35.12 138.212,35.6 C138.212,36.464 138.932,36.848 140.708,36.992 L140.708,36.992 L140.708,38.144 C139.124,37.952 138.212,37.904 137.06,37.904 C135.908,37.904 135.044,37.952 133.412,38.144 L133.412,38.144 L133.412,36.992 C135.764,36.8 136.1,36.464 137.012,33.632 L137.012,33.632 L145.844,4.928 Z M85.5351562,29.3496094 C85.578125,29.3496094 85.9326172,29.5429688 86.5986328,29.9296875 C87.2646484,30.3164062 88.0488281,30.9824219 88.9511719,31.9277344 C89.8535156,32.8730469 90.3046875,33.9902344 90.3046875,35.2792969 C90.2903646,35.6373698 90.2151693,36.0598958 90.0791016,36.546875 C89.9430339,37.0338542 89.6494141,37.4169922 89.1982422,37.6962891 C88.7470703,37.9755859 88.3066406,37.843099 87.8769531,37.2988281 C87.6477865,37.0266927 87.4902344,36.7044271 87.4042969,36.3320312 C87.3183594,35.9596354 87.218099,35.3258464 87.1035156,34.4306641 C86.9889323,33.5354818 86.8313802,32.7978516 86.6308594,32.2177734 C86.4303385,31.6376953 86.1653646,31.0826823 85.8359375,30.5527344 L85.8359375,30.5527344 L85.3417969,29.84375 L85.2928602,29.7554253 C85.2658058,29.6949508 85.2498915,29.6312934 85.2451172,29.5644531 C85.2379557,29.4641927 85.3346354,29.3925781 85.5351562,29.3496094 Z M42.609375,2.06445312 C43.3828125,2.09309896 44.2672526,2.34733073 45.2626953,2.82714844 C46.258138,3.30696615 46.7558594,3.95865885 46.7558594,4.78222656 C46.7558594,5.60579427 46.7057292,6.16080729 46.6054687,6.44726562 C46.4335937,6.91992188 46.2688802,7.20638021 46.1113281,7.30664062 L46.1113281,7.30664062 L45.359375,7.82226562 L54.2324219,7.82226562 L54.8769531,6.74804688 L54.9644821,6.61741657 C55.1894049,6.28993457 55.3464265,6.12937645 55.4355469,6.13574219 C55.5358073,6.14290365 55.7864583,6.37565104 56.1875,6.83398438 L56.1875,6.83398438 L58.0351562,8.98242188 L58.1568652,9.13356445 C58.5004004,9.57635742 58.6496094,9.9234375 58.6044922,10.1748047 C58.554362,10.4541016 58.2285156,10.6080729 57.6269531,10.6367188 C57.0253906,10.6653646 56.4882812,10.7513021 56.015625,10.8945312 C55.5429687,11.0377604 55.1347656,11.2669271 54.7910156,11.5820312 L54.7910156,11.5820312 L54.0605469,12.2695312 L53.9747869,12.3452592 C53.7025331,12.576675 53.5664062,12.5979818 53.5664062,12.4091797 C53.5664062,12.2014974 53.5735677,12.0690104 53.5878906,12.0117188 L53.5878906,12.0117188 L54.2539062,9.046875 L40.3320312,9.046875 L42.2441406,9.60546875 L42.3866425,9.65213013 C42.7007395,9.75709025 42.8859863,9.83463542 42.9423828,9.88476562 C43.0068359,9.94205729 43.0390625,10.0065104 43.0390625,10.078125 C43.0390625,10.1497396 42.9244792,10.3216146 42.6953125,10.59375 L42.6953125,10.59375 L42.2226562,11.1738281 L42.2226562,12.3769531 L47.4003906,12.3769531 L47.4000728,11.216924 C47.3975303,10.3850083 47.3797326,9.8765024 47.3466797,9.69140625 C47.3108724,9.49088542 47.3001302,9.39778646 47.3144531,9.41210938 L47.3144531,9.41210938 L47.8085937,9.3046875 L50.0644531,9.84179688 L50.1736288,9.87248884 C50.3770727,9.93387277 50.4910714,9.9952567 50.515625,10.0566406 C50.5442708,10.1282552 50.5585937,10.1783854 50.5585937,10.2070312 C50.5585937,10.2356771 50.5299479,10.3072917 50.4726562,10.421875 C50.4153646,10.5364583 50.3365885,10.6367188 50.2363281,10.7226562 L50.2363281,10.7226562 L49.6777344,11.2167969 L49.6777344,12.3769531 L50.9023437,12.3769531 L51.4394531,11.5175781 L51.5312259,11.3730228 C51.766051,11.0094682 51.921658,10.8213252 51.9980469,10.8085938 L51.9980469,10.8085938 L52.5351562,11.4316406 L53.78125,12.828125 L53.8463745,12.911377 C53.9121704,13.0026855 53.9799805,13.1181641 54.0498047,13.2578125 C54.1429036,13.4440104 54.0390625,13.5371094 53.7382812,13.5371094 L53.7382812,13.5371094 L49.6777344,13.5371094 L49.6777344,15.9433594 L51.2246094,15.9433594 L51.8476562,14.9550781 L51.9146271,14.854538 C52.0642344,14.6360016 52.1672363,14.5298665 52.2236328,14.5361328 C52.2880859,14.5432943 52.4277344,14.6829427 52.6425781,14.9550781 L52.6425781,14.9550781 L53.6738281,16.2441406 L53.7536272,16.351124 C53.9009487,16.5580756 53.9746094,16.7229353 53.9746094,16.8457031 C53.9602865,17.0175781 53.874349,17.1035156 53.7167969,17.1035156 L53.7167969,17.1035156 L49.6777344,17.1035156 L49.6777344,19.6816406 L54.125,19.6816406 L55.0058594,18.1992188 L55.0799937,18.0732301 C55.2716733,17.7577723 55.4152561,17.6064091 55.5107422,17.6191406 C55.6181641,17.6334635 55.8509115,17.8268229 56.2089844,18.1992188 L56.2089844,18.1992188 L57.6914062,19.8105469 L57.7921143,19.9293823 C58.0114339,20.1956991 58.1210937,20.3852539 58.1210937,20.4980469 C58.1067708,20.5696615 58.0709635,20.641276 58.0136719,20.7128906 C57.9563802,20.7845052 57.8847656,20.8203125 57.7988281,20.8203125 L57.7988281,20.8203125 L55.8867187,20.8203125 L55.8867187,20.8632812 L50.171875,20.8632812 L50.215109,20.9177879 C50.3438384,21.0811753 50.5800781,21.3888527 50.9238281,21.8408203 C51.3105469,22.3492839 52.1341146,23.0761719 53.3945312,24.0214844 C54.6549479,24.9667969 56.2304687,25.5325521 58.1210937,25.71875 L58.1210937,25.71875 L59.1953125,25.8261719 L59.2637939,25.8429565 C59.3255615,25.8657837 59.3671875,25.9067383 59.3886719,25.9658203 C59.4173177,26.0445964 59.4280599,26.0947266 59.4208984,26.1162109 C59.413737,26.1376953 59.3958333,26.1842448 59.3671875,26.2558594 C59.3385417,26.327474 59.3027344,26.3776042 59.2597656,26.40625 L59.2597656,26.40625 L58.8300781,26.6855469 L58.6027681,26.8482711 C58.0142908,27.2959949 57.5672743,27.8540582 57.2617187,28.5224609 C56.9179687,29.2744141 56.6816406,29.6360677 56.5527344,29.6074219 C55.8795573,29.5071615 54.5403646,28.5117188 52.5351562,26.6210938 L52.5351562,26.6210938 L52.234375,26.9433594 L52.234375,30.2734375 L52.3632812,33.8398438 L52.3370703,33.9451172 C52.3015495,34.076888 52.263737,34.1742839 52.2236328,34.2373047 C52.1735026,34.3160807 52.0374349,34.4199219 51.8154297,34.5488281 C51.7710286,34.5746094 51.7294922,34.5985286 51.6908203,34.6205859 L51.4931641,34.7305859 C51.438737,34.7598047 51.3957682,34.7815755 51.3642578,34.7958984 C51.2854818,34.8317057 51.0563151,34.867513 50.6767578,34.9033203 C50.2972005,34.9391276 50.0644531,34.8925781 49.9785156,34.7636719 C49.8925781,34.6347656 49.8496094,34.4270833 49.8496094,34.140625 L49.8496094,34.140625 L49.8496094,25.4824219 L40.5253906,25.4824219 L40.5253906,34.9785156 L40.5164023,35.0833068 C40.4804488,35.2937659 40.336635,35.5094866 40.0849609,35.7304688 C39.7913411,35.9882812 39.3723958,36.1171875 38.828125,36.1171875 L38.828125,36.1171875 L38.7001139,36.1192763 L38.5882161,36.1112196 C38.4497613,36.0937138 38.3542752,36.0491536 38.3017578,35.9775391 C38.2229818,35.8701172 38.1764323,35.7089844 38.1621094,35.4941406 L38.1621094,35.4941406 L38.2480469,31.7773438 L38.2480469,26.2773438 L37.8961194,26.5553768 C36.042962,28.0112592 34.5704274,29.035769 33.4785156,29.6289062 L33.4785156,29.6289062 L32.46875,30.1875 L32.322338,30.2646846 C31.9488812,30.4599007 31.7112269,30.5702402 31.609375,30.5957031 C31.4947917,30.624349 31.4339193,30.6064453 31.4267578,30.5419922 C31.4195964,30.4775391 31.4160156,30.4166667 31.4160156,30.359375 C31.4160156,30.1875 31.5091146,30.015625 31.6953125,29.84375 L31.6953125,29.84375 L32.4472656,29.2421875 L33.3710937,28.46875 L33.6238336,28.2507731 C34.5582049,27.426907 35.5768229,26.3322483 36.6796875,24.9667969 C37.8828125,23.4772135 38.6097005,22.4853516 38.8603516,21.9912109 C39.1110026,21.4970703 39.3151042,21.1210938 39.4726562,20.8632812 L39.4726562,20.8632812 L32.5976562,20.8632812 L32.5206043,20.8559872 C32.3260955,20.8170854 32.2192925,20.6225767 32.2001953,20.2724609 C32.1787109,19.8785807 32.3111979,19.6816406 32.5976562,19.6816406 L32.5976562,19.6816406 L39.9882812,19.6816406 L39.9882812,17.1035156 L36.6367187,17.1035156 L36.421875,17.0390625 L36.3299696,16.9901259 C36.2742694,16.9535229 36.2297092,16.9089627 36.1962891,16.8564453 C36.1461589,16.7776693 36.1282552,16.6057943 36.1425781,16.3408203 C36.156901,16.0758464 36.2643229,15.9433594 36.4648437,15.9433594 L36.4648437,15.9433594 L39.9882812,15.9433594 L39.9882812,13.5371094 L36.7226562,13.5371094 L36.5292969,13.4726562 L36.4373915,13.4261068 C36.3816913,13.3926866 36.3371311,13.3544922 36.3037109,13.3115234 C36.2535807,13.2470703 36.2320964,13.0751953 36.2392578,12.7958984 C36.2464193,12.5166016 36.3502604,12.3769531 36.5507812,12.3769531 L36.5507812,12.3769531 L39.9882812,12.3769531 L39.9882812,12.0117188 L39.9023437,9.17578125 L39.9453125,9.046875 L36.2285156,9.046875 L36.2287349,9.75015944 C36.2296118,9.94834184 36.2331194,10.2438616 36.2392578,10.6367188 C36.2464193,11.0950521 36.1927083,11.5891927 36.078125,12.1191406 C35.9635417,12.6634115 35.7415365,13.211263 35.4121094,13.7626953 C35.0826823,14.3141276 34.6315104,14.5826823 34.0585937,14.5683594 C33.5143229,14.5683594 33.1061198,14.335612 32.8339844,13.8701172 C32.561849,13.4046224 32.4257812,12.8818359 32.4257812,12.3017578 C32.4257812,11.7216797 32.6048177,11.1666667 32.9628906,10.6367188 L32.9628906,10.6367188 L33.0020456,10.5965468 C33.1092556,10.4856077 33.4113081,10.1695713 33.9082031,9.6484375 C34.4954427,9.03255208 34.8678385,8.29492188 35.0253906,7.43554688 L35.0253906,7.43554688 L35.21875,6.44726562 L35.2420247,6.34819878 C35.2837999,6.19701244 35.3404948,6.11545139 35.4121094,6.10351562 C35.4980469,6.08919271 35.5983073,6.23958333 35.7128906,6.5546875 L35.7128906,6.5546875 L35.9492187,7.39257812 L36.078125,7.82226562 L44.9941406,7.82226562 L44.8063672,7.726875 C44.5691797,7.59854167 44.3847005,7.465625 44.2529297,7.328125 C44.0882161,7.15625 43.9700521,6.95214844 43.8984375,6.71582031 C43.8268229,6.47949219 43.7158203,5.94954427 43.5654297,5.12597656 C43.4150391,4.30240885 43.1393229,3.64713542 42.7382812,3.16015625 L42.7382812,3.16015625 L42.3945312,2.75195312 L42.3253516,2.65785156 C42.2439974,2.53295573 42.2061849,2.41035156 42.2119141,2.29003906 C42.2190755,2.13964844 42.3515625,2.06445312 42.609375,2.06445312 Z M78.7353516,27.6308594 C78.8570964,27.5878906 79.0325521,27.6523437 79.2617187,27.8242187 C79.2617187,27.8359375 79.441495,27.957919 79.8010476,28.1901634 L79.8010476,28.1901634 L80.0673828,28.3613281 L80.2456236,28.4833382 C80.7188103,28.8285028 81.1750217,29.3321036 81.6142578,29.9941406 C82.1083984,30.7389323 82.3590495,31.4335937 82.3662109,32.078125 C82.3733724,32.7226562 82.2910156,33.2382812 82.1191406,33.625 C81.8183594,34.2838542 81.4101562,34.6061198 80.8945312,34.5917969 C80.6080729,34.5917969 80.3502604,34.484375 80.1210937,34.2695312 C79.8919271,34.0546875 79.7307943,33.8040365 79.6376953,33.5175781 C79.5445964,33.2311198 79.4944661,32.6832682 79.4873047,31.8740234 C79.4801432,31.0647786 79.4335937,30.4560547 79.3476562,30.0478516 C79.2617187,29.6396484 79.139974,29.2565104 78.9824219,28.8984375 L78.9824219,28.8984375 L78.6171875,28.125 L78.5802612,28.0592041 C78.5493774,27.9920654 78.5366211,27.9208984 78.5419922,27.8457031 C78.5491536,27.7454427 78.6136068,27.6738281 78.7353516,27.6308594 Z M22.5,24.9882812 L15.0878906,24.9882812 L14.3789062,33.0234375 L22.1132812,33.0234375 C22.1132812,32.8802083 22.1383464,32.633138 22.1884766,32.2822266 C22.2386068,31.9313151 22.2851562,31.1614583 22.328125,29.9726562 L22.328125,29.9726562 L22.5,24.9882812 Z M17,26.4707031 C17,26.1842448 17.1503906,26.1341146 17.4511719,26.3203125 C18.7545573,27.1653646 19.5351562,27.9495443 19.7929687,28.6728516 C20.0507812,29.3961589 20.1510417,30.0371094 20.09375,30.5957031 C20.0507812,31.0110677 19.9326172,31.3798828 19.7392578,31.7021484 C19.5458984,32.0244141 19.2415365,32.1962891 18.8261719,32.2177734 C18.4108073,32.2392578 18.1028646,32.0494792 17.9023437,31.6484375 C17.7877604,31.4622396 17.7161458,31.2259115 17.6875,30.9394531 C17.6588542,30.6529948 17.648112,30.2233073 17.6552734,29.6503906 L17.656808,29.4131856 C17.656808,28.9554369 17.6383929,28.5976562 17.6015625,28.3398437 C17.5585937,28.1393229 17.4475911,27.78125 17.2685547,27.265625 C17.1969401,27.059375 17.1396484,26.8932292 17.0966797,26.7671875 L17.0107422,26.509375 C17.0035807,26.4864583 17,26.4735677 17,26.4707031 Z M96.578125,2.19335937 C96.6067708,2.17903646 96.7929687,2.23632812 97.1367187,2.36523437 L97.1367187,2.36523437 L99.1992187,3.16015625 L99.3260362,3.21535916 C99.5219817,3.30388274 99.640842,3.375 99.6826172,3.42871094 C99.7327474,3.49316406 99.7578125,3.56835937 99.7578125,3.65429687 C99.7578125,3.74023437 99.6503906,3.890625 99.4355469,4.10546875 L99.4355469,4.10546875 L98.8984375,4.62109375 L98.8984375,10.2285156 L102.9375,10.2285156 L102.9375,5.54492187 L102.851562,2.55859375 L102.894531,2.49414062 C102.923177,2.45594618 102.951823,2.42730035 102.980469,2.40820312 L102.980469,2.40820312 L103.582031,2.64453125 L105.623047,3.39648437 L105.729872,3.43825955 C105.894983,3.50589554 105.995443,3.56358507 106.03125,3.61132812 C106.074219,3.66861979 106.099284,3.72949219 106.106445,3.79394531 C106.113607,3.85839844 106.045573,3.96223958 105.902344,4.10546875 L105.902344,4.10546875 L105.257812,4.79296875 L105.257812,10.2285156 L105.451172,10.2285156 L106.417969,8.48828125 L106.480743,8.38237 C106.623301,8.15130107 106.738444,8.03263346 106.826172,8.02636719 C106.926432,8.01920573 107.105469,8.23046875 107.363281,8.66015625 L107.363281,8.66015625 L108.630859,10.7226562 L108.670471,10.8233643 C108.706726,10.9173584 108.73291,10.9912109 108.749023,11.0449219 C108.770508,11.1165365 108.784831,11.1630859 108.791992,11.1845703 C108.799154,11.2060547 108.795573,11.2311198 108.78125,11.2597656 C108.752604,11.3457031 108.702474,11.3886719 108.630859,11.3886719 L108.630859,11.3886719 L106.417969,11.3886719 L106.417969,11.4101562 L105.257812,11.4101562 L105.257812,27.8457031 L106.138672,26.40625 L106.210846,26.2902679 C106.372203,26.037267 106.484212,25.9076335 106.546875,25.9013672 C106.61849,25.8942057 106.740234,26.0195312 106.912109,26.2773438 L106.912109,26.2773438 L108.330078,28.5546875 L108.395426,28.6773275 C108.493896,28.8712836 108.540148,29.0130208 108.53418,29.1025391 C108.527018,29.2099609 108.408854,29.2636719 108.179687,29.2636719 L108.179687,29.2636719 L93.5058594,29.2636719 L93.3769531,29.2421875 L93.2668457,29.2260742 C93.1647949,29.2045898 93.0869141,29.1669922 93.0332031,29.1132812 C92.9615885,29.0416667 92.9186198,28.851888 92.9042969,28.5439453 C92.889974,28.2360026 93.0332031,28.0820312 93.3339844,28.0820312 L93.3339844,28.0820312 L96.578125,28.0820312 L96.578125,11.4101562 L93.5273437,11.4101562 L93.4498939,11.4028622 C93.2532632,11.3639604 93.1358507,11.1694517 93.0976562,10.8193359 C93.0546875,10.4254557 93.1979167,10.2285156 93.5273437,10.2285156 L93.5273437,10.2285156 L96.578125,10.2285156 L96.578125,5.97460938 L96.4492187,2.36523437 L96.489502,2.2980957 C96.5270996,2.23901367 96.5566406,2.20410156 96.578125,2.19335937 Z M102.9375,23.0332031 L98.8984375,23.0332031 L98.8984375,28.0820312 L102.9375,28.0820312 L102.9375,23.0332031 Z M144.74,13.04 L140.516,27.2 L148.34,27.2 L144.74,13.04 Z M87.8125,23.2373047 C87.8984375,23.2301432 88.1490885,23.4557292 88.5644531,23.9140625 L88.5644531,23.9140625 L90.0039062,25.546875 L90.1096497,25.677124 C90.3399353,25.971639 90.4550781,26.2003581 90.4550781,26.3632812 C90.4264323,26.5351562 90.3333333,26.6210937 90.1757812,26.6210937 L90.1757812,26.6210937 L70.4746094,26.6210937 L70.3638306,26.6049805 C70.260437,26.5834961 70.1791992,26.5458984 70.1201172,26.4921875 C70.0413411,26.4205729 69.9840495,26.2307943 69.9482422,25.9228516 C69.9124349,25.6149089 70.0664062,25.4609375 70.4101562,25.4609375 L70.4101562,25.4609375 L86.4804687,25.4609375 L87.2753906,24 L87.3542383,23.8570215 C87.5824023,23.4503223 87.7351562,23.24375 87.8125,23.2373047 Z M132.692,24.128 L132.692,26.192 L122.852,26.192 L122.852,24.128 L132.692,24.128 Z M49.5273437,20.8632812 L42.09375,20.8632812 L42.5449219,21.1855469 L42.6449585,21.2694702 C42.7376099,21.3513794 42.8081055,21.4272461 42.8564453,21.4970703 C42.9208984,21.5901693 42.953125,21.6904297 42.953125,21.7978516 C42.953125,21.9052734 42.860026,22.0091146 42.6738281,22.109375 L42.6738281,22.109375 L42.1367187,22.4316406 L40.3964844,24.3007812 L49.7207031,24.3007812 C49.8209635,24.0143229 49.9319661,23.8102214 50.0537109,23.6884766 C50.1754557,23.5667318 50.3294271,23.6347656 50.515625,23.8925781 C50.0429687,22.7467448 49.7135417,21.7369792 49.5273437,20.8632812 L49.5273437,20.8632812 Z M77.8759766,2.54785156 C77.8974609,2.52636719 78.0442708,2.55143229 78.3164062,2.62304688 L78.3164062,2.62304688 L80.765625,3.2890625 L80.8898315,3.33605957 C81.0093384,3.38708496 81.1147461,3.45019531 81.2060547,3.52539062 C81.3277995,3.62565104 81.3958333,3.71158854 81.4101562,3.78320312 L81.4101562,3.78320312 L81.4101562,3.82617188 L81.4089627,3.87988281 C81.4073712,3.91330295 81.4041884,3.94194878 81.3994141,3.96582031 C81.3922526,4.0016276 81.3528646,4.05533854 81.28125,4.12695312 L81.28125,4.12695312 L80.3789062,5.13671875 L80.2929687,8.2734375 L84.7402344,8.2734375 L85.6210937,6.68359375 L85.7087097,6.53034973 C85.9045308,6.19118754 86.0400391,5.98087565 86.1152344,5.89941406 C86.2011719,5.8063151 86.3014323,5.79199219 86.4160156,5.85644531 C86.530599,5.92089844 86.7526042,6.13932292 87.0820312,6.51171875 L87.0820312,6.51171875 L88.671875,8.359375 L88.7722473,8.48458862 C88.9900004,8.76813761 89.0926107,8.9913737 89.0800781,9.15429688 C89.0514323,9.35481771 88.9440104,9.45507812 88.7578125,9.45507812 L88.7578125,9.45507812 L80.2929687,9.45507812 L80.1425781,13.8378906 L84.6757812,13.8378906 L85.2558594,12.8066406 L85.3283691,12.6809235 C85.4912923,12.4075572 85.6103516,12.2740072 85.6855469,12.2802734 C85.7714844,12.2874349 86.000651,12.4628906 86.3730469,12.8066406 L86.3730469,12.8066406 L87.5546875,13.9453125 L87.6612701,14.0525665 C87.8954722,14.2899017 88.0282389,14.4367676 88.0595703,14.4931641 C88.0953776,14.5576172 88.1097005,14.6363932 88.1025391,14.7294922 C88.0953776,14.8225911 87.984375,15.0123698 87.7695312,15.2988281 L87.7695312,15.2988281 L87.2109375,16.0078125 L87.2109375,19.1660156 L87.2753906,22.4101562 L87.203776,22.5476828 C87.0000723,22.8992131 86.6945168,23.1290871 86.2871094,23.2373047 C85.828776,23.3590495 85.5065104,23.4127604 85.3203125,23.3984375 C85.0052083,23.3841146 84.8476562,23.233724 84.8476562,22.9472656 L84.8476562,22.9472656 L84.8476562,21.7226562 L74.5136719,21.7226562 L74.5136719,23.1621094 L74.5057797,23.249143 C74.4742108,23.4254026 74.3479353,23.6148158 74.1269531,23.8173828 C73.8691406,24.0537109 73.3821615,24.1647135 72.6660156,24.1503906 C72.5227865,24.1503906 72.4117839,24.1181641 72.3330078,24.0537109 C72.2542318,23.9892578 72.1933594,23.8567708 72.1503906,23.65625 L72.1503906,23.65625 L72.2578125,20.1757812 L72.2578125,16.09375 L72.1503906,12.484375 L72.1912109,12.4139062 C72.2427734,12.3291146 72.2828776,12.2809896 72.3115234,12.2695312 C72.3473307,12.2552083 72.4869792,12.3268229 72.7304687,12.484375 L72.7304687,12.484375 L74.75,13.8378906 L77.7578125,13.8378906 L77.84375,9.45507812 L71.3554687,9.45507812 L71.2480469,9.43359375 L71.1509375,9.4215625 C71.0294792,9.4009375 70.9401042,9.36197917 70.8828125,9.3046875 C70.8111979,9.23307292 70.7610677,9.04329427 70.7324219,8.73535156 C70.703776,8.42740885 70.8470052,8.2734375 71.1621094,8.2734375 L71.1621094,8.2734375 L77.84375,8.2734375 L77.84375,5.71679688 L77.7792969,2.73046875 L77.8095093,2.66265869 C77.8377075,2.60223389 77.8598633,2.56396484 77.8759766,2.54785156 Z M22.6074219,16.7167969 L15.6679687,16.7167969 L15.1523437,23.828125 L22.5644531,23.828125 C22.5644531,23.4270833 22.5680339,23.1263021 22.5751953,22.9257812 C22.5823568,22.7252604 22.593099,22.2561849 22.6074219,21.5185547 C22.6145833,21.1497396 22.6190592,20.754069 22.6208496,20.331543 L22.6208496,19.4506836 L22.6208496,19.4506836 L22.6181641,18.9833984 C22.6121962,18.1896701 22.6087149,17.642117 22.6077203,17.3407389 L22.6077203,17.3407389 L22.6074219,16.7167969 Z M17.1503906,17.4042969 C17.2363281,17.2897135 17.4905599,17.3613281 17.9130859,17.6191406 C18.335612,17.8769531 18.7115885,18.1240234 19.0410156,18.3603516 C19.3704427,18.5966797 19.6461589,18.922526 19.8681641,19.3378906 C20.0901693,19.7532552 20.2333984,20.2259115 20.2978516,20.7558594 C20.3623047,21.2858073 20.2871094,21.7871094 20.0722656,22.2597656 C19.8574219,22.7324219 19.5279948,22.9794922 19.0839844,23.0009766 C18.639974,23.0224609 18.3105469,22.8111979 18.0957031,22.3671875 C17.9811198,22.1380208 17.9166667,21.7727865 17.9023437,21.2714844 L17.9023437,21.2714844 L17.859375,20.21875 L17.8418692,19.9592134 C17.7866995,19.2879814 17.6636285,18.7836733 17.4726562,18.4462891 C17.2578125,18.0667318 17.1432292,17.8089193 17.1289062,17.6728516 C17.1145833,17.5367839 17.1217448,17.4472656 17.1503906,17.4042969 Z M102.9375,16.8886719 L98.8984375,16.8886719 L98.8984375,21.8730469 L102.9375,21.8730469 L102.9375,16.8886719 Z M84.8476562,15.0625 L82.7636719,15.0625 L82.4414062,15.4707031 L82.4414062,20.5625 L84.8476562,20.5625 L84.8476562,15.0625 Z M80.5507812,15.0625 L78.6601562,15.0625 L78.4667969,15.4277344 L78.4667969,20.5625 L80.5507812,20.5625 L80.5507812,15.0625 Z M76.5117187,15.0625 L74.5136719,15.0625 L74.5136719,20.5625 L76.5117187,20.5625 L76.5117187,15.0625 Z M47.4003906,17.1035156 L42.2226562,17.1035156 L42.2226562,19.6816406 L47.4003906,19.6816406 L47.4003906,17.1035156 Z M68.4013672,2.66601562 C68.4514974,2.68033854 68.5481771,2.73763021 68.6914062,2.83789062 L68.6914062,2.83789062 L71.0117187,4.6640625 L71.1270328,4.75745376 C71.3427535,4.93459024 71.469029,5.05385045 71.5058594,5.11523438 C71.5488281,5.18684896 71.5667318,5.27278646 71.5595703,5.37304687 C71.5524089,5.47330729 71.4414062,5.58072917 71.2265625,5.6953125 L71.2265625,5.6953125 L70.5820312,6.06054688 L70.2727273,6.54944957 C69.2523674,8.15515507 68.3385417,9.52115885 67.53125,10.6474609 C66.6432292,11.8863932 65.5690104,13.2363281 64.3085937,14.6972656 L64.3085937,14.6972656 L63.5996094,15.5136719 L63.4929832,15.6351514 C63.2171345,15.9392924 63.0091869,16.0849971 62.8691406,16.0722656 C62.811849,16.0722656 62.7724609,16.0579427 62.7509766,16.0292969 C62.7294922,16.000651 62.7151693,15.9433594 62.7080078,15.8574219 C62.7008464,15.7714844 62.7259115,15.656901 62.7832031,15.5136719 L62.7832031,15.5136719 L63.2558594,14.6972656 L63.9863281,13.3652344 L64.1269936,13.1067227 C64.6970287,12.0434368 65.3555439,10.6292819 66.1025391,8.86425781 C66.9117839,6.95214844 67.5097656,5.35872396 67.8964844,4.08398438 L67.8964844,4.08398438 L68.2832031,2.83789062 L68.3016797,2.76914063 C68.3280339,2.68893229 68.361263,2.65455729 68.4013672,2.66601562 Z M47.4003906,13.5371094 L42.2226562,13.5371094 L42.2226562,15.9433594 L47.4003906,15.9433594 L47.4003906,13.5371094 Z M102.9375,11.4101562 L98.8984375,11.4101562 L98.8984375,15.7070312 L102.9375,15.7070312 L102.9375,11.4101562 Z" id="形状结合" fill="#FFFFFF" fill-rule="nonzero" mask="url(#mask-2)"></path>
            </g>
        </g>
    </g>
</svg>