<?xml version="1.0" encoding="UTF-8"?>
<svg width="307px" height="187px" viewBox="0 0 307 187" version="1.1" xmlns="http://www.w3.org/2000/svg" xmlns:xlink="http://www.w3.org/1999/xlink">
    <title>vito-pc-new-01</title>
    <g id="页面-1" stroke="none" stroke-width="1" fill="none" fill-rule="evenodd">
        <g id="vito-pc-new-01" transform="translate(0.5648, 0.86)" fill="#FFFFFF" fill-rule="nonzero">
            <path d="M15.3252174,8.93 L16.3252174,6.93 C16.6952174,6.18 16.9252174,5.82 16.9952174,5.82 C17.3141915,6.09543912 17.5995028,6.40760321 17.8452174,6.75 L19.6952174,9.04 C19.9438903,9.31577097 20.1343582,9.6388862 20.2552174,9.99 C20.2391038,10.1108885 20.1784879,10.2214233 20.0852174,10.3 C19.9812445,10.4012985 19.8402736,10.4555181 19.6952174,10.45 L16.0452174,10.45 L16.0452174,10.45 L14.1052174,10.45 L17.3652174,12.92 C17.5634285,13.0467286 17.7391632,13.2055658 17.8852174,13.39 C17.9307196,13.4971831 17.947936,13.614255 17.9352174,13.73 C17.9352174,13.87 17.7852174,14.01 17.4852174,14.15 L16.3552174,14.72 C15.1285507,17.5333333 14.1552174,19.6966667 13.4352174,21.21 L15.8652174,21.21 L16.9152174,19.29 C17.0857022,18.9459152 17.2760225,18.61202 17.4852174,18.29 C17.5452174,18.24 17.6052174,18.29 17.6852174,18.29 C17.7652174,18.29 17.9652174,18.59 18.2752174,18.95 L20.0352174,21.19 C20.3240185,21.4898476 20.5456061,21.8477968 20.6852174,22.24 C20.6658359,22.3677261 20.6021118,22.4845537 20.5052174,22.57 C20.3764631,22.6844042 20.2070312,22.7420832 20.0352174,22.73 L13.4352174,22.73 C13.3452174,22.85 13.2652174,22.95 13.2052174,23.05 C13.0520569,23.2305588 12.8774326,23.3917504 12.6852174,23.53 L12.6852174,29.53 L14.5552174,29.53 L15.8452174,27.3 C16.0752174,26.9 16.2452174,26.7 16.3452174,26.69 C16.4452174,26.68 16.7152174,26.94 17.1652174,27.47 L19.3052174,30.16 C19.4563017,30.318551 19.5511582,30.5223167 19.5752174,30.74 C19.577855,30.88578 19.5281889,31.0276832 19.4352174,31.14 C19.3637372,31.2200005 19.2624584,31.2670227 19.1552174,31.27 L12.6852174,31.27 L12.6852174,46.37 C12.7179357,47.0562908 12.5912947,47.7408364 12.3152174,48.37 C12.126698,48.8013179 11.8220311,49.1717652 11.4352174,49.44 C10.9232084,49.7316819 10.3957683,49.9954019 9.85521739,50.23 C9.42507672,50.4681486 8.94624553,50.6049575 8.45521739,50.63 C8.38952306,50.6355728 8.32442915,50.6138749 8.27521739,50.57 C8.22288523,50.5030741 8.18846923,50.4239173 8.17521739,50.34 C8.13453864,50.1257419 8.11444715,49.9080841 8.11521739,49.69 C8.07898438,49.2122851 8.00880719,48.7377537 7.90521739,48.27 C7.70598494,47.5597634 7.23546565,46.9563493 6.59521739,46.59 L5.43521739,45.88 C5.20293015,45.7720606 5.05737234,45.5360209 5.06521739,45.28 C5.06521739,45.01 5.21521739,44.89 5.51521739,44.91 L6.80521739,45.08 L7.56521739,45.21 C7.72506405,45.2199064 7.88537073,45.2199064 8.04521739,45.21 L8.67521739,45.21 C9.17521739,45.27 9.42521739,45.08 9.42521739,44.64 L9.42521739,31.23 L1.92521739,31.23 L1.63521739,31.14 C1.37821279,30.9047059 1.22381149,30.5779496 1.20521739,30.23 C1.15521739,29.82 1.35521739,29.62 1.79521739,29.62 L9.43521739,29.62 L9.43521739,22.81 L1.37521739,22.81 L1.15521739,22.75 C1.0395837,22.7001426 0.934406999,22.6288939 0.845217391,22.54 C0.731161276,22.3145609 0.682655839,22.0616397 0.705217391,21.81 C0.705217391,21.41 0.895217391,21.21 1.27521739,21.21 L11.9352174,21.21 C12.2452174,19.91 12.5952174,18.21 12.9352174,16.21 C13.2752174,14.21 13.5252174,12.77 13.6152174,12.04 L13.7752174,10.52 L2.08521739,10.52 C1.75521739,10.52 1.56521739,10.26 1.50521739,9.74 C1.44521739,9.22 1.63521739,8.95 2.08521739,8.95 L15.3252174,8.93 Z M7.18521739,36.21 C6.51855072,37.83 6.03855072,38.94 5.74521739,39.54 C5.46521739,40.14 4.86521739,41.31 3.95521739,43.06 C3.04521739,44.81 2.43521739,45.89 2.16521739,46.31 L1.29521739,47.6 C1.11521739,47.84 0.985217391,47.97 0.885217391,47.97 C0.785217391,47.97 0.815217391,47.97 0.775217391,47.97 C0.733679891,47.8864298 0.716360024,47.7929026 0.725217391,47.7 C0.7370185,47.4888605 0.777386014,47.280295 0.845217391,47.08 L1.29521739,45.85 C1.36521739,45.66 1.55521739,45.04 1.87521739,43.99 C2.19521739,42.94 2.38521739,42.26 2.46521739,41.99 C2.54521739,41.72 2.77521739,40.78 3.13521739,39.28 C3.49521739,37.78 3.73521739,36.67 3.84521739,35.92 L4.08521739,34.14 L4.20521739,32.79 C4.23069624,32.7243635 4.27190273,32.6659877 4.32521739,32.62 L4.85521739,32.99 L7.70521739,34.8 C8.01521739,35.01 8.17521739,35.18 8.17521739,35.31 C8.14960402,35.3994418 8.11614066,35.4864466 8.07521739,35.57 C8.03344138,35.6593283 7.97188771,35.7379802 7.89521739,35.8 L7.18521739,36.21 Z M5.18521739,13.71 L4.80521739,12.71 C4.7860269,12.6277715 4.7860269,12.5422285 4.80521739,12.46 C4.792836,12.3804791 4.792836,12.2995209 4.80521739,12.22 C4.80521739,12.03 4.91521739,11.93 5.06521739,11.93 C5.84344364,12.4521357 6.56118836,13.0592002 7.20521739,13.74 C8.49164958,14.828937 9.1946506,16.4569393 9.10521739,18.14 C9.07852563,18.8454552 8.87569639,19.533012 8.51521739,20.14 C8.24352503,20.7057317 7.67279915,21.0668032 7.04521739,21.07 C6.23521739,21.07 5.77521739,20.75 5.68521739,20.07 C5.59558383,19.4306242 5.552138,18.7856207 5.55521739,18.14 C5.55521739,17.54 5.55521739,17.06 5.55521739,16.7 C5.58804285,15.6880764 5.45287698,14.6777115 5.15521739,13.71 L5.18521739,13.71 Z M7.34521739,1.83 L6.89521739,1.14 C6.84001648,1.05505369 6.80259719,0.959804598 6.78521739,0.86 C6.77271702,0.783842875 6.77271702,0.706157125 6.78521739,0.63 C6.83426338,0.485849709 6.9731682,0.391884683 7.12521739,0.4 C7.56975821,0.480477546 8.00764902,0.594128597 8.43521739,0.74 C9.30037358,1.03050968 10.1291731,1.41974345 10.9052174,1.9 C11.7353265,2.36863442 12.3006445,3.19628948 12.4352174,4.14 C12.5752174,5.08 12.6552174,5.64 12.6552174,5.82 C12.658877,6.05972819 12.6285763,6.29876711 12.5652174,6.53 C12.4243152,7.07226228 12.1981635,7.58869812 11.8952174,8.06 C11.5909942,8.56858256 11.0263178,8.86252373 10.4352174,8.82 C9.87699295,8.87924048 9.33376555,8.61538717 9.03521739,8.14 C8.76502072,7.65187457 8.59502965,7.11470278 8.53521739,6.56 L8.37521739,4.69 C8.32562711,4.25743019 8.24203517,3.82943944 8.12521739,3.41 C7.93051522,2.85354071 7.6685758,2.32294546 7.34521739,1.83 Z M32.4352174,20.14 L33.4352174,18.14 C33.6238034,17.7074892 33.8444165,17.2896614 34.0952174,16.89 C34.1552174,16.89 34.2352174,16.89 34.3252174,16.94 C34.6426574,17.2542484 34.9399167,17.5882476 35.2152174,17.94 L37.2152174,20.51 C37.3375452,20.6786858 37.447819,20.8557922 37.5452174,21.04 C37.574271,21.1169109 37.5911407,21.1978856 37.5952174,21.28 C37.5952174,21.59 37.4552174,21.74 37.2152174,21.74 L32.6852174,21.74 C32.5860144,21.9530564 32.4581652,22.1515589 32.3052174,22.33 C32.1818805,22.4308596 32.0435466,22.5118355 31.8952174,22.57 L31.8952174,47.14 L32.0152174,50.72 C31.9142983,51.3255128 31.5473394,51.8539336 31.0152174,52.16 C30.583028,52.4179568 30.0885279,52.5528205 29.5852174,52.5500433 C29.0652174,52.5500433 28.7252174,52.43 28.5852174,52.21 C28.4375294,51.9555425 28.3455037,51.6726485 28.3152174,51.38 L28.4352174,45.48 L28.4352174,21.75 L24.4352174,21.75 C24.3752174,24.25 24.3085507,26.45 24.2352174,28.35 C24.1652174,30.25 24.0352174,31.97 23.8352174,33.52 C23.5624017,35.4233221 23.1411167,37.3023871 22.5752174,39.14 C21.9644664,41.2286365 20.9820805,43.1900207 19.6752174,44.93 C18.3885507,46.6166667 17.3552174,47.8966667 16.5752174,48.77 C16.0206668,49.4106929 15.4189897,50.0090273 14.7752174,50.56 L13.8852174,51.27 C13.7694137,51.3770345 13.6220643,51.4436926 13.4652174,51.46 C13.3892566,51.4600869 13.3181517,51.4226633 13.2752174,51.36 C13.2507486,51.3059259 13.2339207,51.248711 13.2252174,51.19 C13.2157989,51.1169691 13.2157989,51.0430309 13.2252174,50.97 C13.2711208,50.8160385 13.3534438,50.6754034 13.4652174,50.56 L14.2152174,49.67 C15.9817633,47.6003992 17.4401501,45.2865152 18.5452174,42.8 C19.6038269,40.3863578 20.278639,37.8220715 20.5452174,35.2 C20.8152174,32.56 20.9952174,30.12 21.0652174,27.87 C21.1352174,25.62 21.1852174,22.93 21.2052174,19.76 C21.2052174,17.72 21.1685507,15.6966667 21.0952174,13.69 C21.0352174,11.69 20.9952174,10.58 20.9952174,10.37 L20.9952174,9.14 L20.7552174,5.14 L20.8752174,5.06 C21.2074482,5.22323703 21.5195485,5.42459204 21.8052174,5.66 L24.7052174,7.72 C26.7470973,6.64084064 28.6679748,5.34684635 30.4352174,3.86 L31.4352174,3.01 L32.0752174,2.23 C32.1747702,2.19046987 32.2856646,2.19046987 32.3852174,2.23 L33.0952174,3.23 L35.4352174,5.81 C35.8452174,6.29 36.0452174,6.6 36.0452174,6.75 C36.0402137,6.97049178 35.8655184,7.14955446 35.6452174,7.16 L34.4352174,7.36 L28.9252174,8.44 L24.5652174,9.14 C24.5652174,11.26 24.5652174,12.83 24.5652174,13.86 L24.5652174,17.01 L24.4352174,20.14 L32.4352174,20.14 Z M14.3052174,35.52 L13.9652174,34.86 C13.8059081,34.6478926 13.7310679,34.38417 13.7552174,34.12 C13.7701709,34.0288351 13.80061,33.9409001 13.8452174,33.86 C13.8452174,33.86 13.8952174,33.86 13.9652174,33.8 C14.2352174,33.8 14.8352174,34.22 15.7752174,35.05 C16.6052957,35.7549816 17.320531,36.5849245 17.8952174,37.51 C18.3545645,38.2729166 18.590194,39.1495972 18.5752174,40.04 C18.5648171,40.7052109 18.3822156,41.3563748 18.0452174,41.93 C17.7928184,42.4611881 17.263137,42.8052876 16.6752174,42.82 C16.1207544,42.9121421 15.586014,42.5714607 15.4352174,42.03 C15.2669194,41.4885267 15.17273,40.9267546 15.1552174,40.36 L15.1552174,38.61 C15.0923315,37.5316868 14.802693,36.4787659 14.3052174,35.52 Z" id="形状"></path>
            <path d="M71.1852174,26.27 L73.6752174,22.14 C73.9452174,21.68 74.1152174,21.44 74.1952174,21.42 C74.2752174,21.4 74.4652174,21.55 74.7452174,21.88 L78.7452174,26.74 C78.9441769,26.9462734 79.0765671,27.2075699 79.1252174,27.49 C79.1252174,27.74 78.9152174,27.86 78.5452174,27.86 L42.5052174,27.86 C42.334598,27.8224195 42.1804412,27.7313269 42.0652174,27.6 C41.9524856,27.3742642 41.9073437,27.1207751 41.9352174,26.87 C41.9352174,26.5 42.1052174,26.31 42.4452174,26.31 L71.1852174,26.27 Z" id="路径"></path>
            <path d="M92.6352174,14.22 L94.2352174,15.22 C94.6252174,15.46 94.8252174,15.67 94.8152174,15.85 C94.7649479,16.1008013 94.6352039,16.3287299 94.4452174,16.5 L93.4452174,17.62 L93.4452174,44.25 L93.5452174,49.91 C93.4929148,50.2891363 93.3708571,50.6553094 93.1852174,50.99 C92.8477088,51.3408638 92.3987792,51.5635611 91.9152174,51.62 C91.4788164,51.7445221 91.0287899,51.8150486 90.5752174,51.83 C90.3356917,51.8492634 90.1014394,51.7525878 89.9452174,51.57 C89.8296013,51.319663 89.7747783,51.045548 89.7852174,50.77 L90.0052174,43.7 L90.0052174,20.55 C89.0052174,22.55 88.2152174,24.06 87.5952174,25.17 C86.9752174,26.28 86.1252174,27.7 85.0252174,29.39 L83.6952174,31.45 C83.5452174,31.68 83.4352174,31.74 83.3752174,31.63 C83.3150535,31.5124294 83.284178,31.3820661 83.285192,31.25 C83.2886622,31.1130559 83.3157264,30.9777348 83.3652174,30.85 L84.3652174,28.65 C84.8552174,27.52 85.3652174,26.18 85.9452174,24.65 C86.5252174,23.12 87.2752174,20.52 88.2452174,16.96 C89.2152174,13.4 89.9552174,10.4 90.4552174,7.96 L91.3252174,3.41 L91.7652174,1 C91.7856444,0.790514969 91.836164,0.585068688 91.9152174,0.39 L91.9752174,0.39 L92.1752174,0.53 L97.2752174,3.53 C97.4398825,3.64854261 97.5397479,3.83717735 97.5452174,4.04 C97.5452174,4.27 97.4052174,4.45 97.0552174,4.59 L95.5352174,5.22 L92.6352174,14.22 Z M107.635217,19.46 L114.275217,18.52 L115.795217,15.46 C115.956745,15.1347879 116.100294,14.8009521 116.225217,14.46 C116.345217,14.14 116.425217,13.99 116.485217,14 C116.624698,14.0866509 116.746788,14.1985659 116.845217,14.33 L120.245217,18.33 C120.31358,18.435228 120.373757,18.5455527 120.425217,18.66 C120.479282,18.7466573 120.519752,18.841086 120.545217,18.94 C120.538673,19.0385055 120.495932,19.1311113 120.425217,19.2 C120.359579,19.3015849 120.246145,19.3620829 120.125217,19.36 L107.595217,21.14 C107.595217,21.81 107.775217,23.48 108.025217,26.14 C108.279052,28.8806148 108.839214,31.5841522 109.695217,34.2 C110.392289,36.5061459 111.309859,38.739792 112.435217,40.87 C113.079018,42.1996764 113.987581,43.3838705 115.105217,44.35 C115.582175,44.7896163 116.182515,45.0723345 116.825217,45.16 C117.285217,45.16 117.625217,44.75 117.825217,43.99 C118.025217,43.23 118.415217,41.99 118.945217,40.36 L119.945217,37.18 C120.055217,36.82 120.165217,36.63 120.285217,36.62 C120.40962,36.6125424 120.520516,36.6978469 120.545217,36.82 C120.584785,36.9599156 120.604973,37.1045975 120.605217,37.25 C120.605217,37.39 120.605217,37.49 120.605217,37.55 L120.165217,41.14 C119.988822,42.3895872 119.885314,43.6483829 119.855217,44.91 C119.839616,45.5289343 119.90347,46.1473136 120.045217,46.75 L120.595217,48.35 C120.68584,48.655833 120.739555,48.9714079 120.755217,49.29 C120.750846,49.8535827 120.536977,50.3953864 120.155217,50.81 C119.736903,51.2459365 119.148303,51.4762584 118.545217,51.44 C117.450908,51.3870008 116.3908,51.0416888 115.475217,50.44 C114.285217,49.77 112.625217,48.08 110.475217,45.44 C108.229359,42.4587791 106.733924,38.9808641 106.115217,35.3 C105.335217,31.22 104.615217,26.7 103.955217,21.74 L95.3352174,22.95 C94.8552174,23.03 94.6352174,22.8 94.6552174,22.25 C94.6147712,21.7781043 94.9634868,21.3623281 95.4352174,21.32 L103.855217,20.14 C103.855217,19.85 103.755217,19.33 103.695217,18.57 C103.635217,17.81 103.555217,16.8 103.485217,15.57 L103.025217,7.33 L102.695217,3.26 L102.435217,1.06 C102.505217,0.95 102.655217,0.91 102.885217,0.95 L107.885217,2.06 C108.156022,2.09025593 108.361856,2.31753077 108.365217,2.59 C108.386545,2.83231331 108.311039,3.07321116 108.155217,3.26 L106.815217,4.87 C106.815217,5.87 106.815217,6.98 106.815217,8.23 C106.815217,9.48 106.815217,10.75 106.925217,12.05 L107.295217,17.83 C107.275857,18.0696096 107.275857,18.3103904 107.295217,18.55 L107.375217,19.46 L107.635217,19.46 Z M108.875217,5.32 C109.900119,5.32182989 110.916322,5.50813382 111.875217,5.87 C112.859989,6.26437454 113.767284,6.82974149 114.555217,7.54 C115.455217,8.31 115.815217,9.65 115.665217,11.54 C115.515217,13.43 114.775217,14.38 113.465217,14.36 C112.789297,14.3960689 112.167239,13.9921351 111.925217,13.36 C111.549871,12.3593789 111.258857,11.3291225 111.055217,10.28 C110.830062,9.01473833 110.189655,7.86059856 109.235217,7 L108.665217,6.54 C108.390199,6.36951026 108.22938,6.06318882 108.245217,5.74 C108.295217,5.47 108.505217,5.32 108.915217,5.32 L108.875217,5.32 Z" id="形状"></path>
            <path d="M145.365217,10.65 C145.365217,10.38 145.365217,10.17 145.365217,10.02 L145.265217,8.14 C145.185217,6.35 145.125217,5.23 145.105217,4.79 L144.855217,1.79 L144.735217,0.37 C144.760977,0.226328144 144.835073,0.0957777931 144.945217,0 L145.625217,0.23 L149.335217,1.46 C149.575217,1.56 149.705217,1.7 149.705217,1.89 C149.697763,2.12269943 149.609348,2.34550527 149.455217,2.52 L148.545217,3.75 C148.545217,5.51 148.495217,6.87 148.495217,7.83 C148.495217,8.79 148.495217,9.52 148.495217,10.02 L148.495217,10.65 L155.555217,10.65 L157.095217,7.81 C157.245217,7.53 157.355217,7.39 157.415217,7.4 C157.566948,7.46802608 157.700547,7.57079451 157.805217,7.7 L160.675217,11.08 C160.908825,11.2991231 161.048582,11.6001397 161.065217,11.92 C161.060335,12.0166722 161.015635,12.1070057 160.941743,12.16953 C160.86785,12.2320542 160.771364,12.2611856 160.675217,12.25 L148.545217,12.25 C148.545217,13.07 148.615217,14.37 148.705217,16.14 C148.795217,17.91 148.935217,19.8 149.105217,21.79 C149.275217,23.78 149.535217,25.9 149.895217,28.12 C150.16724,29.9147932 150.56149,31.688919 151.075217,33.43 L151.595217,35.18 C151.925217,33.92 152.175217,32.87 152.365217,32.04 C152.555217,31.21 152.825217,29.86 153.155217,28.04 C153.485217,26.22 153.725217,24.77 153.855217,23.85 C153.985217,22.93 154.085217,22 154.175217,21.09 L154.335217,19.09 L154.435217,17.66 C154.474768,17.6276255 154.518493,17.6007176 154.565217,17.58 C154.779816,17.6111573 154.98478,17.6897267 155.165217,17.81 L158.605217,19.67 C158.925217,19.86 159.085217,20.05 159.075217,20.25 C159.05307,20.4892471 158.924564,20.7058711 158.725217,20.84 L157.725217,21.67 C157.495217,22.93 157.275217,24.08 157.065217,25.13 C156.855217,26.18 156.435217,28.13 155.795217,30.83 C155.372885,32.8660164 154.811571,34.8707093 154.115217,36.83 L153.205217,39.23 C153.92459,40.6626657 154.810734,42.005308 155.845217,43.23 C156.915217,44.53 157.665217,45.17 158.085217,45.13 C158.376566,45.0911722 158.632411,44.9169006 158.775217,44.66 C159.097409,44.1760443 159.375206,43.6639617 159.605217,43.13 L160.715217,40.58 L161.715217,38.03 C161.785217,37.86 161.885217,37.77 162.005217,37.77 C162.125217,37.77 162.205217,37.88 162.215217,38.05 C162.227718,38.1563004 162.227718,38.2636996 162.215217,38.37 L161.545217,41.06 C161.373548,41.7824755 161.24003,42.5134869 161.145217,43.25 C161.043738,43.9389399 160.986953,44.6337253 160.975217,45.33 C160.96451,45.9127761 161.008031,46.4952849 161.105217,47.07 C161.176287,47.6665978 161.286525,48.2578744 161.435217,48.84 C161.587963,49.336206 161.672077,49.8509828 161.685217,50.37 C161.595217,51.37 161.135217,51.94 160.315217,51.97 C159.648551,52.01 158.468551,51.43 156.775217,50.23 C155.081884,49.03 153.185217,46.5966667 151.085217,42.93 C149.501858,45.0874506 147.702545,47.0777531 145.715217,48.87 C144.39249,50.1164233 142.960019,51.2409807 141.435217,52.23 L140.505217,52.78 C140.392724,52.8570729 140.261347,52.9020178 140.125217,52.91 C140.015217,52.91 139.945217,52.86 139.925217,52.81 C139.888402,52.7175889 139.868094,52.6194328 139.865217,52.52 C139.884799,52.3455307 139.979814,52.1883912 140.125217,52.09 L141.295217,51.09 C142.175217,50.33 143.055217,49.49 143.945217,48.59 C145.122123,47.3124369 146.179852,45.9300251 147.105217,44.46 C148.102014,43.0051045 148.994257,41.4812735 149.775217,39.9 C149.235217,38.51 148.775217,37.09 148.265217,35.65 C147.720179,33.8365454 147.312362,31.9846514 147.045217,30.11 C146.698551,27.8633333 146.418551,25.6466667 146.205217,23.46 C145.995217,21.27 145.845217,19.41 145.745217,17.86 C145.645217,16.31 145.595217,15.18 145.575217,14.46 C145.555217,13.74 145.575217,13.35 145.575217,13.31 L145.515217,12.31 L131.705217,12.31 L131.605217,18.66 L141.095217,18.66 L141.905217,17.2 C142.265217,16.54 142.505217,16.2 142.605217,16.25 C142.763661,16.3163196 142.899233,16.4275579 142.995217,16.57 L144.945217,19.06 C145.275217,19.5 145.425217,19.81 145.385217,19.98 C145.345217,20.15 145.255217,20.24 145.105217,20.24 L137.205217,20.24 L140.085217,21.64 C140.335217,21.77 140.465217,21.92 140.445217,22.08 C140.404875,22.2916223 140.273117,22.4746188 140.085217,22.58 L139.355217,23.13 L138.285217,27.94 L141.435217,27.94 L142.355217,26.42 C142.605217,25.98 142.785217,25.79 142.875217,25.83 C143.050416,25.9477675 143.208568,26.0890943 143.345217,26.25 L145.345217,28.51 C145.437319,28.621161 145.511542,28.7459909 145.565217,28.88 C145.619022,28.99335 145.652853,29.1151388 145.665217,29.24 C145.665217,29.34 145.585217,29.47 145.425217,29.63 L144.675217,30.28 C144.315217,31.94 143.995217,33.36 143.675217,34.52 C143.355217,35.68 143.135217,36.65 142.885217,37.41 C142.635217,38.17 142.245217,39.22 141.705217,40.56 C142.613861,41.2870436 143.400451,42.1546551 144.035217,43.13 C144.350028,43.7224916 144.524515,44.379386 144.545217,45.05 C144.571393,45.5441791 144.507001,46.03898 144.355217,46.51 C144.12036,46.9716868 143.777261,47.3696806 143.355217,47.67 C142.855217,48.08 142.285217,47.67 141.635217,46.54 L141.085217,45.34 C140.759675,44.7243369 140.395618,44.129823 139.995217,43.56 C139.495217,44.19 139.065217,44.71 138.715217,45.11 C138.365217,45.51 137.485217,46.34 136.085217,47.61 C134.494014,49.0064113 132.725396,50.1866106 130.825217,51.12 L129.365217,51.86 C129.085217,52.02 128.915217,52.02 128.855217,51.86 C128.79224,51.7362908 128.761295,51.5987616 128.765217,51.46 C128.786365,51.3071694 128.874288,51.1716213 129.005217,51.09 L130.155217,50.29 C131.897386,49.0767257 133.48276,47.6525759 134.875217,46.05 C136.118735,44.654844 137.192863,43.1174973 138.075217,41.47 C137.224423,40.8899021 136.34316,40.3558033 135.435217,39.87 C134.785121,39.5019922 134.097977,39.203671 133.385217,38.98 C133.105217,38.98 132.955217,38.83 132.925217,38.65 C132.947401,38.2266572 133.031633,37.8088668 133.175217,37.41 L133.455217,36.41 C133.645217,35.68 133.915217,34.41 134.285217,32.63 C134.655217,30.85 134.865217,29.78 134.935217,29.45 L131.555217,29.45 C131.425217,31.21 131.335217,32.53 131.265217,33.45 C131.195217,34.37 131.015217,35.68 130.715217,37.45 C130.438441,39.0442716 130.030386,40.6129434 129.495217,42.14 C129.015217,43.53 128.495217,44.86 127.925217,46.14 C127.355217,47.42 126.835217,48.55 126.315217,49.5 L125.485217,51.05 C125.255217,51.47 125.105217,51.6 125.015217,51.44 C124.927645,51.2772142 124.88291,51.0948317 124.885217,50.91 C124.87926,50.7331967 124.906393,50.5568369 124.965217,50.39 L125.735217,48.44 C125.975217,47.83 126.335217,46.68 126.815217,44.98 C127.354616,42.9501901 127.729167,40.8801249 127.935217,38.79 C128.205217,36.35 128.355217,34.27 128.395217,32.53 C128.435217,30.79 128.395217,29.36 128.395217,28.21 C128.395217,27.87 128.395217,26.21 128.395217,23.3 C128.395217,20.39 128.395217,18.53 128.395217,17.78 C128.395217,17.03 128.395217,15.59 128.325217,13.47 L128.265217,10.47 L128.185217,8.26 C128.185217,8.05 128.285217,7.99 128.425217,8.09 L131.375217,10.64 L145.365217,10.65 Z M135.185217,27.88 C135.585217,25.1333333 135.825217,23.4666667 135.905217,22.88 C135.975217,22.3 136.085217,21.4 136.215217,20.16 L131.605217,20.16 L131.605217,27.86 L135.185217,27.88 Z M141.535217,29.42 L137.915217,29.42 C137.845217,29.69 137.605217,30.73 137.175217,32.56 C136.745217,34.39 136.525217,35.34 136.495217,35.43 L135.755217,38.35 C136.755217,38.6 137.935217,38.9 139.195217,39.24 C139.563832,38.322742 139.877716,37.3844277 140.135217,36.43 C140.341884,35.63 140.561884,34.7 140.795217,33.64 C141.025217,32.58 141.185217,31.73 141.295217,31.08 C141.405217,30.43 141.485217,29.88 141.535217,29.42 L141.535217,29.42 Z M150.685217,3.21 C150.611807,3.13342876 150.551048,3.045665 150.505217,2.95 C150.481988,2.8210377 150.481988,2.6889623 150.505217,2.56 C150.505217,2.38 150.635217,2.3 150.855217,2.32 L151.495217,2.4 C154.568551,2.82 156.101884,4.18666667 156.095217,6.5 C156.100561,7.15974827 155.920377,7.80771774 155.575217,8.37 C155.31731,8.83744692 154.82902,9.13118413 154.295217,9.14 C153.787145,9.16328261 153.311516,8.8903808 153.075217,8.44 C152.886078,8.11405108 152.763701,7.75371871 152.715217,7.38 L152.515217,6.14 C152.424112,5.6306457 152.273062,5.13385932 152.065217,4.66 C151.744688,4.06085051 151.267787,3.55975887 150.685217,3.21 L150.685217,3.21 Z" id="形状"></path>
            <path d="M175.965217,34.26 L178.575217,34.26 L179.285217,33.11 C179.385217,32.96 179.445217,32.89 179.475217,32.9 L179.755217,33.11 L182.685217,35.89 C182.823644,36.0085355 182.947811,36.1427709 183.055217,36.29 C183.058224,36.3432909 183.058224,36.3967091 183.055217,36.45 C183.047624,36.5326003 183.027388,36.6135441 182.995217,36.69 C182.949911,36.8000282 182.868897,36.8916094 182.765217,36.95 L181.955217,37.46 C181.18297,39.5506463 180.274351,41.5883584 179.235217,43.56 L178.235217,45.16 C179.13623,45.7362866 180.067574,46.2637145 181.025217,46.74 C182.185217,47.3266667 185.851884,47.62 192.025217,47.62 C194.932874,47.731803 197.840381,47.3945052 200.645217,46.62 L202.435217,46.14 C202.531217,46.1 202.639217,46.1 202.735217,46.14 C202.835217,46.14 202.885217,46.21 202.905217,46.25 C202.923857,46.3255337 202.923857,46.4044663 202.905217,46.48 C202.889963,46.627249 202.813819,46.7614072 202.695217,46.85 L201.545217,48.06 C201.206784,48.4379644 200.923941,48.8622293 200.705217,49.32 C200.428281,49.7915297 200.219541,50.299914 200.085217,50.83 L199.845217,52.03 L199.845217,52.46 C199.787535,52.6110622 199.636209,52.70513 199.475217,52.69 L198.065217,52.69 C194.051836,52.7020883 190.042376,52.4381321 186.065217,51.9 C182.211884,51.3933333 179.335217,50.2266667 177.435217,48.4 L176.435217,47.45 C175.305217,48.31 174.205217,49.08 173.145217,49.77 C171.610245,50.6721079 169.976044,51.3935725 168.275217,51.92 L167.275217,52.26 C167.075217,52.34 166.965217,52.31 166.965217,52.19 C166.965217,52.07 166.965217,51.98 166.965217,51.95 C166.948372,51.8206971 167.011668,51.6941051 167.125217,51.63 L168.195217,51.03 C168.875217,50.65 169.645217,50.16 170.535217,49.57 C172.009832,48.3845503 173.3212,47.0092949 174.435217,45.48 C173.435217,43.89 172.635217,42.66 172.155217,41.79 C171.705932,40.9906347 171.318146,40.1582302 170.995217,39.3 L170.635217,38.35 C170.552994,38.1608127 170.512083,37.9562589 170.515217,37.75 C170.515217,37.58 170.595217,37.49 170.705217,37.48 C170.825233,37.4703039 170.939418,37.5333025 170.995217,37.64 L171.545217,38.52 C172.688984,40.3774875 174.093286,42.0613023 175.715217,43.52 C176.105217,42.72 176.555217,41.76 177.055217,40.63 C177.660438,39.0753658 178.122358,37.4686881 178.435217,35.83 L175.435217,35.83 L175.295217,35.83 L174.355217,37.32 C174.185217,37.59 174.065217,37.73 173.995217,37.75 C173.925217,37.77 173.775217,37.63 173.525217,37.32 L171.435217,34.89 C171.379551,34.847997 171.334936,34.7930857 171.305217,34.73 C171.290129,34.6540757 171.290129,34.5759243 171.305217,34.5 C171.308975,34.3780931 171.372569,34.265869 171.475217,34.2 L172.755217,33.14 L175.285217,27.45 L168.645217,27.45 C168.305217,27.45 168.125217,27.19 168.105217,26.66 C168.085217,26.13 168.265217,25.87 168.645217,25.87 L175.525217,25.87 L176.615217,24.14 L176.735217,23.94 C176.795217,23.85 176.885217,23.86 177.025217,23.94 L179.835217,26.83 C179.962682,26.9490396 180.035097,27.1155931 180.035217,27.29 C180.031032,27.430064 179.955605,27.5582904 179.835217,27.63 L178.685217,28.47 L175.965217,34.26 Z M183.095217,9.39 L183.095217,5.04 L172.095217,5.04 L171.845217,4.92 C171.637049,4.65539085 171.527448,4.32658865 171.535217,3.99 C171.535217,3.66 171.685217,3.49 171.975217,3.49 L193.975217,3.49 L195.435217,0.72 C195.565217,0.49 195.645217,0.38 195.695217,0.39 C195.745217,0.4 195.825217,0.47 195.945217,0.6 L199.005217,4.47 C199.074699,4.55006766 199.122852,4.64637415 199.145217,4.75 C199.119347,4.93442236 198.949929,5.06371486 198.765217,5.04 L187.185217,5.04 C187.119604,5.15556759 187.062777,5.2759071 187.015217,5.4 L186.925217,5.57 C186.791383,5.69185349 186.647544,5.80224207 186.495217,5.9 L186.495217,9.39 L197.495217,9.39 L198.495217,7.61 C198.595217,7.44 198.675217,7.37 198.765217,7.38 C198.893236,7.43233058 199.009008,7.51064697 199.105217,7.61 L202.945217,11.88 C203.04536,11.9913668 203.108281,12.1311906 203.125217,12.28 C203.139825,12.3727618 203.139825,12.4672382 203.125217,12.56 C203.061617,12.7764401 202.878287,12.9363664 202.655217,12.97 L201.385217,13.28 C199.866813,13.7634134 198.57415,14.7790769 197.745217,16.14 L196.875217,17.37 C196.675217,17.66 196.525217,17.75 196.445217,17.64 C196.352781,17.535233 196.302846,17.3996961 196.305217,17.26 C196.282202,17.1377404 196.282202,17.0122596 196.305217,16.89 L197.495217,10.96 L186.495217,10.96 L186.495217,18.4 L186.575217,21.4 C186.526385,21.6393786 186.438548,21.8691058 186.315217,22.08 C186.026738,22.393798 185.650366,22.6133485 185.235217,22.71 C184.692027,22.9134437 184.115135,23.0118546 183.535217,23 C183.392154,23.0188324 183.248369,22.9709039 183.145217,22.87 C183.039536,22.7129813 182.980585,22.5291947 182.975217,22.34 L183.095217,17.82 L183.095217,10.92 L172.435217,10.92 C172.435217,11.44 172.435217,11.92 172.515217,12.25 C172.595217,12.58 172.515217,12.97 172.515217,13.25 C172.498644,14.4772208 172.222599,15.6870481 171.705217,16.8 C171.385791,17.8205119 170.412719,18.4925915 169.345217,18.43 C168.79425,18.4165991 168.285371,18.1322258 167.985217,17.67 C167.613062,17.1077498 167.4244,16.4439373 167.445217,15.77 C167.437197,14.9992135 167.675426,14.24599 168.125217,13.62 C168.431119,13.2603199 168.765537,12.925902 169.125217,12.62 C169.630776,12.2190605 170.072484,11.7436353 170.435217,11.21 C170.671199,10.7820756 170.849417,10.3247597 170.965217,9.85 C171.061464,9.44019342 171.111774,9.02094301 171.115217,8.6 C171.095126,8.27753489 171.153456,7.95500242 171.285217,7.66 C171.405217,7.42 171.575217,7.58 171.785217,8.16 L172.175217,9.39 L183.095217,9.39 Z M181.145217,20.89 L172.565217,20.89 C172.325217,20.89 172.205217,20.73 172.195217,20.39 C172.176057,20.1423181 172.210155,19.8934048 172.295217,19.66 C172.365217,19.51 172.465217,19.43 172.565217,19.43 L181.065217,19.43 C181.195217,19.43 181.295217,19.51 181.395217,19.66 C181.486683,19.8222118 181.538108,20.0039135 181.545217,20.19 C181.560159,20.3639689 181.521792,20.5383649 181.435217,20.69 C181.385195,20.8070026 181.272359,20.8848206 181.145217,20.89 Z M180.925217,16.2 L173.725217,16.2 C173.625217,16.2 173.545217,16.1 173.465217,15.9 C173.398679,15.7165692 173.358283,15.5246881 173.345217,15.33 C173.340488,15.1611552 173.374705,14.9934892 173.445217,14.84 C173.525217,14.7 173.615217,14.63 173.725217,14.63 L180.965217,14.63 C181.105217,14.63 181.215217,14.72 181.305217,14.9 C181.384718,15.065782 181.428983,15.2462468 181.435217,15.43 C181.433561,15.6322484 181.374617,15.8298856 181.265217,16 C181.18979,16.1165798 181.063759,16.1907156 180.925217,16.2 L180.925217,16.2 Z M197.525217,33.34 L198.845217,31.08 C199.025217,30.76 199.255217,30.76 199.505217,31.08 L202.015217,34.32 C202.067801,34.399879 202.114588,34.4834267 202.155217,34.57 L202.155217,34.77 C202.155217,34.85 202.045217,34.89 201.895217,34.89 L192.665217,34.89 L192.665217,41.79 L196.315217,41.79 L197.435217,39.93 C197.585217,39.68 197.685217,39.55 197.755217,39.54 C197.825217,39.53 197.945217,39.62 198.125217,39.81 L200.535217,42.73 C200.614789,42.8290228 200.669635,42.9455709 200.695217,43.07 C200.695217,43.25 200.565217,43.33 200.345217,43.33 L182.835217,43.33 L182.565217,43.16 C182.416005,42.9105856 182.326983,42.6298243 182.305217,42.34 C182.245217,41.97 182.455217,41.79 182.915217,41.79 L189.305217,41.79 L189.305217,34.89 L182.435217,34.89 C182.220042,34.8948575 182.027938,34.7558891 181.965217,34.55 C181.887901,34.317394 181.844128,34.0749569 181.835217,33.83 C181.835217,33.51 181.985217,33.34 182.355217,33.34 L189.355217,33.34 L189.355217,27.99 C186.155217,28.1966667 184.251884,28.3033333 183.645217,28.31 L182.435217,28.31 C182.318497,28.3229579 182.202792,28.2781692 182.125217,28.19 C182.05677,28.1014811 182.021399,27.9918304 182.025217,27.88 C182.025217,27.74 182.135217,27.65 182.395217,27.59 L183.775217,27.28 C185.942534,26.8716717 188.056198,26.2174425 190.075217,25.33 C191.295217,24.7 192.495217,24.06 193.665217,23.41 L195.365217,22.47 L195.755217,22.18 C195.840022,22.2725879 195.920123,22.3693765 195.995217,22.47 L198.545217,26.19 C198.679581,26.3522335 198.763069,26.5505179 198.785217,26.76 C198.785217,26.86 198.695217,26.9 198.545217,26.9 L197.855217,26.9 L195.125217,27.22 L193.425217,27.42 C193.374183,27.6257205 193.296881,27.8240164 193.195217,28.01 C193.033671,28.1978577 192.859964,28.3749052 192.675217,28.54 L192.675217,33.34 L197.525217,33.34 Z M195.175217,16.2 L188.435217,16.2 C188.30746,16.1980676 188.191573,16.124672 188.135217,16.01 C188.045002,15.8665371 187.999731,15.6993819 188.005217,15.53 C187.997986,15.3243929 188.035519,15.1196699 188.115217,14.93 C188.195217,14.73 188.285217,14.63 188.375217,14.63 L195.135217,14.63 C195.245217,14.63 195.345217,14.71 195.435217,14.88 C195.516764,15.056174 195.564264,15.2461777 195.575217,15.44 C195.58286,15.6267201 195.534074,15.8114119 195.435217,15.97 C195.435217,16.14 195.285217,16.2 195.175217,16.2 L195.175217,16.2 Z M196.315217,21.14 L188.575217,21.14 C188.432531,21.1356843 188.302959,21.0556545 188.235217,20.93 C188.13799,20.7813119 188.085893,20.6076536 188.085217,20.43 C188.075544,20.2360502 188.116921,20.0429562 188.205217,19.87 C188.262094,19.7130757 188.408423,19.606295 188.575217,19.6 L196.245217,19.6 C196.585217,19.6 196.755217,19.85 196.755217,20.34 C196.74041,20.5235813 196.693002,20.7030541 196.615217,20.87 C196.535217,21.05 196.435217,21.14 196.315217,21.14 Z" id="形状"></path>
            <path d="M214.255217,12.49 L213.255217,45.22 L213.255217,45.84 C213.221193,46.5191685 213.319692,47.1984663 213.545217,47.84 C213.945217,48.68 215.235217,49.2 217.415217,49.41 L217.415217,50.95 C215.295217,50.74 213.635217,50.64 212.415217,50.64 C211.195217,50.64 209.545217,50.74 207.345217,50.95 L207.345217,49.41 C208.378098,49.3915651 209.397335,49.1707304 210.345217,48.76 C210.945404,48.3535678 211.333817,47.701327 211.405217,46.98 C211.498786,46.397864 211.548924,45.8095743 211.555217,45.22 L212.605217,14.31 L212.605217,14.14 C212.655995,13.329001 212.557704,12.5155629 212.315217,11.74 C211.905217,10.86 210.615217,10.34 208.445217,10.17 L208.445217,8.59 C210.045217,8.75 211.445217,8.83 212.605217,8.83 C214.204598,8.83017067 215.801964,8.7165505 217.385217,8.49 L226.735217,40.36 L236.235217,8.49 C237.850775,8.69574553 239.476744,8.80926287 241.105217,8.83 C242.105217,8.83 243.455217,8.75 245.045217,8.59 L245.045217,10.14 C244.039271,10.1692688 243.046796,10.3792806 242.115217,10.76 C241.295217,11.19 240.885217,12.21 240.885217,13.81 L240.885217,14.33 L241.405217,45.24 C241.372563,46.1261411 241.487463,47.0115455 241.745217,47.86 C242.195217,48.74 243.465217,49.26 245.585217,49.43 L245.585217,50.97 C243.488967,50.6955686 241.379002,50.5386567 239.265217,50.5 C237.164732,50.5388926 235.068093,50.6958067 232.985217,50.97 L232.985217,49.41 C233.992205,49.3896183 234.986287,49.1792664 235.915217,48.79 C236.589054,48.4280601 237.027829,47.7434206 237.075217,46.98 C237.12554,46.4983478 237.14891,46.0142599 237.145217,45.53 L237.145217,45.22 L236.725217,12.59 L228.335217,40.67 C228.135217,41.35 227.715217,42.82 227.055217,45.1 L226.395217,47.5 L225.795217,49.5 L225.065217,49.5 L224.495217,47.5 L223.805217,45.07 L223.095217,42.61 L222.435217,40.43 L214.255217,12.49 Z" id="路径"></path>
            <path d="M257.175217,31.81 L257.175217,45.22 C257.116003,46.1042881 257.217648,46.9919848 257.475217,47.84 C257.887193,48.6251408 258.680121,49.1373194 259.565217,49.19 C259.975217,49.25 260.565217,49.33 261.335217,49.41 L261.335217,50.95 C257.158591,50.3233571 252.911844,50.3233571 248.735217,50.95 L248.735217,49.41 C249.738631,49.3603929 250.727716,49.1510985 251.665217,48.79 C252.32861,48.4185218 252.760753,47.7383665 252.815217,46.98 C252.880464,46.3957235 252.907189,45.8077864 252.895217,45.22 L252.895217,14.49 C252.950617,13.6090978 252.849038,12.7253596 252.595217,11.88 C252.155217,10.98 250.865217,10.45 248.735217,10.31 L248.735217,8.77 L262.025217,8.77 C263.499016,8.73849461 264.969966,8.91352753 266.395217,9.29 C267.537802,9.63736915 268.591849,10.2274987 269.485217,11.02 C270.68555,12.1239196 271.610303,13.4939231 272.185217,15.02 C272.853488,16.7241601 273.192806,18.5395111 273.185342,20.37 C273.185342,24.29 271.955217,27.3233333 269.495217,29.47 C267.551738,31.0800258 265.07591,31.9041127 262.555217,31.78 L257.175217,31.81 Z M257.175217,29.87 L261.175217,29.87 C263.114196,30.0192452 265.025586,29.3397203 266.435217,28 C268.055217,26.25 268.875217,23.65 268.875217,20.18 C268.875217,17.05 268.235217,14.63 266.975217,12.92 C265.855217,11.45 264.035217,10.71 261.485217,10.71 L257.155217,10.71 L257.175217,29.87 Z" id="形状"></path>
            <path d="M291.235217,51.53 L289.975217,51.53 L279.695217,14.14 C279.155217,12.24 278.515217,11.14 277.775217,10.73 C276.928711,10.3569733 276.019544,10.1466438 275.095217,10.11 L275.095217,8.59 C277.082065,8.88287143 279.086946,9.03657895 281.095217,9.05 C283.130159,9.03933214 285.161834,8.8856199 287.175217,8.59 L287.175217,10.14 C286.498749,10.1852423 285.828635,10.2991617 285.175217,10.48 C284.225217,10.75 283.755217,11.28 283.755217,12.08 C283.820035,12.7380786 283.950688,13.3879975 284.145217,14.02 L291.875217,42.69 L299.695217,14.69 C299.976515,13.8401344 300.161016,12.9612409 300.245217,12.07 C300.277433,11.2925708 299.745688,10.6046783 298.985217,10.44 C298.290322,10.2679277 297.580288,10.164102 296.865217,10.13 L296.865217,8.59 C298.376311,8.80140436 299.899482,8.91497416 301.425217,8.93 C303.100393,8.91379147 304.773212,8.80026684 306.435217,8.59 L306.435217,10.14 C305.549354,10.1985386 304.681704,10.4188402 303.875217,10.79 C302.920441,11.3342986 302.246351,12.2634504 302.025217,13.34 L291.235217,51.53 Z" id="路径"></path>
            <path d="M9.12521739,86.49 L10.7052174,86.49 L11.7052174,84.6 C11.9718841,84.0933333 12.1518841,83.8433333 12.2452174,83.85 C12.3352174,83.85 12.5052174,84.01 12.7552174,84.32 L14.9352174,87.14 C15.1142065,87.335884 15.2232237,87.5855687 15.2452174,87.85 C15.2452174,88.01 15.0952174,88.08 14.8352174,88.08 L9.12521739,88.08 L9.12521739,100.51 C10.4252174,100.05 12.0052174,99.41 13.8852174,98.59 L14.9352174,98.14 C15.1752174,98.04 15.3052174,98.14 15.3252174,98.37 C15.3545061,98.5743429 15.2748657,98.7791326 15.1152174,98.91 L14.2052174,99.66 C13.7452174,100.04 12.8052174,100.78 11.3652174,101.89 C9.92521739,103 8.86521739,103.8 8.17521739,104.29 L4.57521739,106.93 L3.19521739,107.99 C2.83154215,108.329786 2.4164135,108.609914 1.96521739,108.82 C1.89521739,108.82 1.82521739,108.64 1.75521739,108.41 L0.435217391,104.21 L0.165217391,103.44 C0.178495651,103.373002 0.20958599,103.310821 0.255217391,103.26 C0.543972004,103.150708 0.841788549,103.067052 1.14521739,103.01 L2.37521739,102.72 C3.54658758,102.439804 4.69623401,102.075527 5.81521739,101.63 L5.81521739,88.14 L0.965217391,88.14 C0.698550725,88.14 0.548550725,87.87 0.515217391,87.33 C0.515217391,86.78 0.635217391,86.51 0.965217391,86.51 L5.76521739,86.51 L5.76521739,74.3 L0.435217391,74.3 C0.185217391,74.3 0.0452173913,74.03 0.0052173913,73.5 C-0.0347826087,72.97 0.155217391,72.7 0.575217391,72.7 L10.5752174,72.7 L11.5752174,70.61 C11.7403197,70.2368178 11.9377382,69.8787875 12.1652174,69.54 C12.2152174,69.49 12.3852174,69.64 12.6652174,69.98 L15.3852174,73.44 C15.4875233,73.6048959 15.5396415,73.795996 15.5352174,73.99 C15.5352174,74.2 15.4052174,74.3 15.1552174,74.3 L9.99521739,74.3 L9.12521739,75.47 L9.12521739,86.49 Z M26.4352174,78.42 C26.4352174,79.7 26.3852174,81.19 26.3652174,82.9 C26.3452174,84.61 26.3652174,85.81 26.3052174,86.49 C26.2452174,87.17 26.2252174,88.28 26.1452174,89.8 C26.0652174,91.32 26.0052174,92.35 25.9452174,92.9 L25.8652174,94.14 L28.6752174,95.69 C28.9665901,95.8198319 29.2311316,96.002976 29.4552174,96.23 C29.5052174,96.33 29.5252174,96.38 29.5152174,96.4 C29.5022515,96.4685778 29.4821419,96.5356098 29.4552174,96.6 C29.4397295,96.6815815 29.4092111,96.759573 29.3652174,96.83 L28.6752174,97.72 L28.6752174,111.57 C28.6748405,111.801702 28.7260814,112.030577 28.8252174,112.24 C28.9152174,112.46 29.3752174,112.59 30.1952174,112.63 C32.0452174,112.75 33.1952174,112.63 33.6852174,112.22 C34.2013694,111.785611 34.6291416,111.255989 34.9452174,110.66 C35.5314434,109.308518 35.9673928,107.896713 36.2452174,106.45 L36.8552174,103.87 C36.9552174,103.47 37.0752174,103.3 37.2252174,103.34 C37.3689801,103.396966 37.4638842,103.535368 37.4652174,103.69 C37.4652174,103.87 37.4652174,103.97 37.4652174,103.99 L37.3452174,105.39 C37.2652174,106.29 37.1852174,107.08 37.1152174,107.75 C37.0595214,108.298208 37.0328176,108.848975 37.0352174,109.4 C37.0218873,109.840445 37.0655832,110.280765 37.1652174,110.71 C37.2552174,111 37.4152174,111.44 37.6552174,112.04 C37.8656175,112.517397 37.9875955,113.029027 38.0152174,113.55 C38.0131855,114.014205 37.9072622,114.472067 37.7052174,114.89 C37.5184736,115.331968 37.2466513,115.732906 36.9052174,116.07 C36.3113456,116.49696 35.6268957,116.781007 34.9052174,116.9 C33.7438635,117.159575 32.554747,117.273784 31.3652174,117.24 C28.9752174,117.24 27.3652174,116.87 26.5452174,116.14 C25.6457766,115.203118 25.1938823,113.923965 25.3052174,112.63 L25.3052174,97.85 C24.9952174,99.04 24.6852174,100.17 24.3652174,101.25 C23.8844283,102.728665 23.2789188,104.163823 22.5552174,105.54 C21.2225035,107.827644 19.4358746,109.818459 17.3052174,111.39 C14.7793047,113.44268 11.9746246,115.126162 8.97521739,116.39 L7.82521739,116.88 C7.77332412,116.897527 7.71711066,116.897527 7.66521739,116.88 C7.59773727,116.852551 7.53650879,116.811732 7.48521739,116.76 C7.39831656,116.664496 7.35173204,116.539076 7.35503502,116.41 C7.35503502,116.23 7.47521739,116.06 7.74521739,115.89 L9.25521739,115 C10.0143017,114.529325 10.7455231,114.015133 11.4452174,113.46 C12.5252174,112.64 13.5152174,111.83 14.4452174,111.04 C15.8410266,109.702949 17.1067083,108.236365 18.2252174,106.66 C19.8578163,104.477152 21.006648,101.971539 21.5952174,99.31 C22.218433,96.6593436 22.6066042,93.9588768 22.7552174,91.24 C22.8952174,88.63 22.9652174,86.08 22.9852174,83.58 L22.9852174,76.9 L22.8652174,74.96 C22.9075015,74.9151536 22.9544316,74.8749278 23.0052174,74.84 L24.0052174,75.27 L27.0052174,76.33 C27.3752174,76.47 27.5552174,76.64 27.5452174,76.85 C27.5025624,77.1228549 27.3685937,77.3731649 27.1652174,77.56 L26.4352174,78.42 Z M19.5552174,71.52 L19.5552174,96.8 L19.5552174,98.68 C19.5206913,99.1990669 19.2737436,99.6809526 18.8725574,100.01212 C18.4713712,100.343288 17.951423,100.494453 17.4352174,100.43 C16.8652174,100.43 16.5152174,100.32 16.3652174,100.1 C16.2086909,99.8607691 16.1031614,99.5918392 16.0552174,99.31 L16.2252174,94.53 L16.2252174,72.98 L15.9952174,67.66 L16.1152174,67.55 C16.4489795,67.7040639 16.7643049,67.8952719 17.0552174,68.12 L19.7252174,69.98 L30.0752174,69.98 L31.0752174,68.23 C31.3252174,67.79 31.4652174,67.58 31.5052174,67.6 C31.6453007,67.7087195 31.7788648,67.8255882 31.9052174,67.95 L34.8452174,70.81 C35.0109411,70.9496353 35.1091733,71.1533763 35.1152174,71.37 C35.0857617,71.5950701 34.9920151,71.8068681 34.8452174,71.98 L33.7652174,73.33 L33.7652174,93.65 L33.9752174,98.46 C33.8726954,99.0572206 33.5049387,99.5757576 32.9752174,99.87 C32.4856485,100.16703 31.9275761,100.332385 31.3552174,100.35 C31.0552779,100.394816 30.7497773,100.319339 30.5052174,100.14 C30.3495278,100.004345 30.2351668,99.8276048 30.1752174,99.63 L30.1752174,97.51 L30.1752174,71.51 L19.5552174,71.52 Z" id="形状"></path>
            <path d="M67.3352174,88.35 L49.1652174,88.35 L49.1652174,107.53 C49.1637258,108.105103 49.3459062,108.665658 49.6852174,109.13 C50.0352174,109.63 51.2952174,110.02 53.4552174,110.31 C56.1907908,110.613387 58.9462831,110.696988 61.6952174,110.56 C64.7696788,110.559843 67.8404117,110.345994 70.8852174,109.92 C71.9812476,109.667659 72.97498,109.088853 73.7352174,108.26 C74.4885507,107.426667 75.2385507,105.646667 75.9852174,102.92 L76.9852174,99.09 C77.0220916,98.9227819 77.1012872,98.7678339 77.2152174,98.64 C77.3452174,98.48 77.4552174,98.48 77.5352174,98.64 C77.6251976,98.8051356 77.6667891,98.9922973 77.6552174,99.18 L77.1052174,103.62 C76.9354071,104.610368 76.8783765,105.616789 76.9352174,106.62 C76.9799904,107.089956 77.0910935,107.551202 77.2652174,107.99 L77.9752174,109.4 C78.1483104,109.802176 78.2465857,110.232554 78.2652174,110.67 C78.2867798,111.087221 78.2150391,111.504001 78.0552174,111.89 C77.5727994,112.800194 76.7823525,113.509115 75.8252174,113.89 C74.6452174,114.48 72.3752174,114.89 69.0352174,115.05 C65.6952174,115.21 63.3252174,115.32 61.9252174,115.32 C60.0452174,115.32 57.5218841,115.22 54.3552174,115.02 C51.1885507,114.82 49.0585507,114.363333 47.9652174,113.65 C47.0713963,113.19384 46.3642607,112.44074 45.9652174,111.52 C45.7303262,110.643276 45.6225595,109.737362 45.6452174,108.83 L45.6452174,82.14 L45.4752174,76.56 C45.5094663,76.4941559 45.5571625,76.4362391 45.6152174,76.39 C45.7891857,76.3897925 45.9618282,76.4202589 46.1252174,76.48 L49.6852174,77.48 C49.9682244,77.5420847 50.234363,77.6649179 50.4652174,77.84 C50.5514527,77.9414723 50.6038879,78.067317 50.6152174,78.2 C50.6152174,78.33 50.4152174,78.64 49.9952174,79.12 L49.0852174,80.12 L49.0852174,86.76 L67.3352174,86.76 L67.3352174,72.47 L44.6852174,72.47 C44.3752174,72.47 44.2152174,72.24 44.1952174,71.8 C44.1341966,71.4207989 44.3350473,71.0477906 44.6852174,70.89 L66.9952174,70.89 L67.9952174,69.49 C68.1880151,69.157854 68.4270759,68.8548192 68.7052174,68.59 C68.7852174,68.59 69.1152174,68.79 69.7052174,69.26 L71.7952174,71.01 C72.0548404,71.2257001 72.3019107,71.4560765 72.5352174,71.7 C72.6139476,71.7763314 72.6694257,71.8734181 72.6952174,71.98 C72.6952174,72.08 72.5152174,72.39 72.1152174,72.98 L71.3252174,73.98 L71.3252174,84.98 L71.4352174,90.21 C71.3784542,90.5004366 71.2772664,90.7803896 71.1352174,91.04 C70.8544236,91.3582031 70.4796908,91.5788402 70.0652174,91.67 C69.6032029,91.8409065 69.1173705,91.9387477 68.6252174,91.96 C68.3156971,91.9882799 68.0064609,91.9029734 67.7552174,91.72 C67.5165847,91.5547074 67.3774427,91.280184 67.3852174,90.99 L67.3352174,88.35 Z" id="路径"></path>
            <path d="M98.7152174,114.37 L98.7152174,75.67 L98.4352174,67.95 L98.6252174,67.8 L99.2052174,68 L104.205217,69.52 C104.456333,69.5955495 104.627447,69.8277755 104.625217,70.09 C104.614843,70.4151622 104.461066,70.7190538 104.205217,70.92 L102.665217,72.38 L102.665217,89.24 L110.805217,89.24 L112.955217,85.35 C113.205217,84.87 113.365217,84.64 113.425217,84.65 C113.485217,84.66 113.635217,84.8 113.865217,85.09 L117.435217,89.96 C117.489039,90.0599508 117.535819,90.1635357 117.575217,90.27 C117.612837,90.3529101 117.639721,90.4402827 117.655217,90.53 C117.647635,90.612372 117.607446,90.6882972 117.543592,90.7408831 C117.479737,90.7934689 117.397515,90.8183534 117.315217,90.81 L102.715217,90.81 L102.715217,114.37 L113.645217,114.37 L116.235217,110.31 C116.448551,109.996667 116.588551,109.836667 116.655217,109.83 C116.725217,109.83 116.875217,109.94 117.085217,110.19 L120.835217,114.85 L121.135217,115.44 C121.295217,115.76 121.135217,115.91 120.595217,115.91 L83.5952174,115.91 C83.4339689,115.87604 83.2892486,115.787796 83.1852174,115.66 C83.0836399,115.430875 83.0423317,115.179584 83.0652174,114.93 C83.0652174,114.56 83.2452174,114.37 83.5952174,114.37 L98.7152174,114.37 Z" id="路径"></path>
            <path d="M153.055217,88.04 L144.695217,88.04 L144.695217,111.54 L144.895217,117.72 C144.806023,118.017472 144.656213,118.293259 144.455217,118.53 C144.004343,118.868482 143.474051,119.085419 142.915217,119.16 C142.075217,119.36 141.565217,119.34 141.375217,119.16 C141.193338,118.926981 141.063737,118.657547 140.995217,118.37 L141.215217,111.76 L141.215217,88.04 L133.505217,88.04 L133.505217,111.71 C133.508215,112.254779 133.173737,112.74455 132.665217,112.94 C132.172183,113.188023 131.6271,113.314867 131.075217,113.31 C130.788031,113.350553 130.496525,113.274978 130.265217,113.1 C130.1355,112.936512 130.046396,112.744596 130.005217,112.54 L130.205217,105.87 L130.205217,90.3 L130.045217,84.6 C130.089112,84.511991 130.150337,84.4337589 130.225217,84.37 C130.446153,84.4528835 130.652167,84.5710879 130.835217,84.72 L133.505217,86.58 L141.215217,86.58 L141.215217,77.79 L125.005217,77.79 C124.665217,77.79 124.495217,77.53 124.495217,77.02 C124.495217,76.51 124.665217,76.25 125.005217,76.25 L155.565217,76.25 L156.905217,73.93 C157.385217,73.07 157.695217,72.65 157.825217,72.65 C157.955217,72.65 158.365217,73.05 159.065217,73.81 L161.255217,76.25 C161.725217,76.8 161.965405,77.18 161.965405,77.39 C161.968702,77.5024795 161.92343,77.6109818 161.841035,77.6876289 C161.758639,77.7642759 161.647152,77.8015959 161.535217,77.79 L145.815217,77.79 C145.685217,78 145.595217,78.19 145.515217,78.35 C145.294822,78.6632657 145.016476,78.9314282 144.695217,79.14 L144.695217,86.58 L152.815217,86.58 L153.685217,85.09 C154.035217,84.48 154.295217,84.19 154.455217,84.22 C154.747183,84.3247037 155.010795,84.49588 155.225217,84.72 L157.225217,86.58 C157.519891,86.8554644 157.800259,87.145845 158.065217,87.45 C158.158551,87.5766667 158.198551,87.6666667 158.185217,87.72 C158.158012,87.8561852 158.110836,87.9876039 158.045217,88.11 C157.957012,88.308681 157.846287,88.496578 157.715217,88.67 L156.715217,89.96 L156.715217,109.73 C156.721858,110.252411 156.630268,110.771417 156.445217,111.26 C156.072897,111.917285 155.481977,112.423283 154.775217,112.69 C153.992966,113.135567 153.114823,113.385975 152.215217,113.42 C152.105364,113.459716 151.985071,113.459716 151.875217,113.42 C151.787693,113.349085 151.716131,113.260485 151.665217,113.16 C151.564289,112.886902 151.503653,112.600567 151.485217,112.31 C151.406576,111.752677 151.265696,111.205929 151.065217,110.68 C150.753381,109.954056 150.183242,109.369663 149.465217,109.04 L148.225217,108.38 C147.961575,108.271524 147.799387,108.003914 147.825217,107.72 C147.826639,107.607354 147.865319,107.498348 147.935217,107.41 C148.001213,107.315213 148.109722,107.259088 148.225217,107.26 L150.225217,107.58 C151.805217,107.85 152.675217,107.78 152.835217,107.39 C152.987668,107.032438 153.069179,106.648658 153.075217,106.26 L153.055217,88.04 Z M139.735217,66.95 C139.65279,66.81283 139.601577,66.6591926 139.585217,66.5 C139.585217,66.36 139.755217,66.25 140.105217,66.17 C140.879621,66.3261403 141.604034,66.669464 142.215217,67.17 C143.268711,67.774172 144.139392,68.651763 144.735217,69.71 C145.264662,70.6202987 145.537661,71.6570041 145.525217,72.71 C145.496844,73.4835897 145.280622,74.2386512 144.895217,74.91 C144.595142,75.5840526 143.91222,76.0049231 143.175217,75.97 C142.640987,75.9797638 142.137573,75.7205433 141.835217,75.28 C141.521504,74.893663 141.305415,74.4374757 141.205217,73.95 C141.118631,73.2668415 141.078539,72.5785914 141.085217,71.89 C141.093334,71.1314408 141.022959,70.3740768 140.875217,69.63 C140.772753,69.173246 140.625369,68.7277447 140.435217,68.3 C140.285217,67.94 140.045217,67.5 139.735217,66.95 Z" id="形状"></path>
            <path d="M8.21521739,179.31 L17.3052174,179.31 L17.3052174,155.47 L10.4352174,155.47 L9.57521739,157.14 C9.42626302,157.489187 9.24550135,157.823931 9.03521739,158.14 C8.9919765,158.175698 8.94035246,158.199789 8.88521739,158.21 C8.47521739,158.27 7.81521739,157.81 6.88521739,156.85 C6.39518611,156.370889 5.93751249,155.859764 5.51521739,155.32 L5.79521739,154.86 L6.24521739,154.12 C6.49666503,153.523553 6.59961095,152.874993 6.54521739,152.23 L6.54521739,142.78 L6.43521739,137.61 C6.5039734,137.569844 6.57803066,137.539548 6.65521739,137.52 L7.32521739,137.7 L10.6252174,138.5 C10.9752174,138.59 11.1552174,138.75 11.1752174,138.97 C11.1756739,139.203652 11.0942985,139.430088 10.9452174,139.61 L10.1352174,140.67 L10.1352174,153.89 L17.3252174,153.89 L17.3252174,139.44 L17.1452174,132.74 C17.1979157,132.685225 17.2631125,132.644048 17.3352174,132.62 C17.5664088,132.646665 17.7942631,132.696927 18.0152174,132.77 L21.6352174,133.89 C22.0652174,134.04 22.2852174,134.25 22.2952174,134.5 C22.2841552,134.783371 22.1532982,135.04872 21.9352174,135.23 L20.9352174,136.23 L20.9352174,153.91 L28.5052174,153.91 L28.5052174,144.73 L28.3152174,138.14 C28.4452174,138.04 28.6952174,138.04 29.0452174,138.14 L32.6852174,139.14 C33.1052174,139.27 33.3252174,139.45 33.3352174,139.66 C33.3454634,139.882321 33.2577456,140.09796 33.0952174,140.25 L32.1852174,141.17 L32.1852174,151.56 L32.3452174,156.65 C32.1106482,157.874957 30.999676,158.73285 29.7552174,158.65 C29.4164308,158.689089 29.0773004,158.579692 28.8252174,158.35 C28.6074497,158.133468 28.4881459,157.837016 28.4952174,157.53 L28.4952174,155.47 L20.9252174,155.47 L20.9252174,179.31 L30.2752174,179.31 L30.2752174,166.6 L30.1152174,160.45 C30.1968368,160.344155 30.2988466,160.255747 30.4152174,160.19 L31.2252174,160.48 L34.3652174,161.39 C34.5423945,161.442321 34.7016151,161.542699 34.8252174,161.68 C34.9318742,161.793407 34.9893851,161.944374 34.9854291,162.1 C34.9328928,162.336434 34.8229698,162.55628 34.6652174,162.74 L33.9652174,163.74 L33.9652174,177.74 L34.1252174,182.58 C33.9847297,183.230604 33.5481869,183.778132 32.9452174,184.06 C32.4872146,184.284176 31.9851019,184.403727 31.4752174,184.41 C30.6752174,184.41 30.2752174,183.96 30.2752174,183.07 L30.2752174,180.83 L8.37521739,180.83 L7.87521739,182.14 C7.58521739,182.85 7.40521739,183.27 7.32521739,183.42 C7.27958334,183.524841 7.19802241,183.609948 7.09521739,183.66 C7.01521739,183.66 6.79521739,183.53 6.43521739,183.2 L4.02521739,181.14 C3.87795679,181.040165 3.74649574,180.918816 3.63521739,180.78 C3.57733792,180.712591 3.54232643,180.628563 3.53521739,180.54 C3.58598938,180.355887 3.67078351,180.182907 3.78521739,180.03 L4.34521739,179.17 C4.47648759,178.982341 4.56209635,178.766607 4.59521739,178.54 C4.65041235,177.91161 4.67044359,177.280626 4.65521739,176.65 L4.65521739,166.97 L4.49521739,160.65 C4.58855072,160.59 4.78855072,160.59 5.09521739,160.65 L8.78521739,161.59 C9.13521739,161.69 9.31521739,161.86 9.31521739,162.12 C9.30424862,162.427273 9.17951225,162.719513 8.96521739,162.94 L8.21521739,163.82 L8.21521739,179.31 Z" id="路径"></path>
            <path d="M53.9952174,158.42 C53.8752174,159.94 53.7452174,161.52 53.6152174,163.14 C55.6639237,164.092171 57.413575,165.585944 58.6752174,167.46 C59.4816573,168.812987 59.9163242,170.35502 59.9352174,171.93 C59.9200769,172.725139 59.7395816,173.508421 59.4052174,174.23 C59.0652174,174.96 58.6052174,175.34 58.0252174,175.35 C57.4831922,175.375065 56.9634893,175.132038 56.6352174,174.7 C56.1473285,174.044988 55.8716438,173.25632 55.8452174,172.44 L55.6752174,169.78 C55.5052174,167.49 55.0852174,165.98 54.4252174,165.26 L53.4952174,164.14 C53.3152174,165.42 53.1152174,166.71 52.8752174,168.02 C52.57307,169.584098 52.0898155,171.107692 51.4352174,172.56 C50.5252235,174.519337 49.2912461,176.31114 47.7852174,177.86 C46.3233671,179.485708 44.6830233,180.941555 42.8952174,182.2 L41.8952174,182.86 C41.7352174,182.97 41.6152174,182.99 41.5552174,182.86 C41.4823118,182.762265 41.446835,182.641643 41.4552174,182.52 C41.455718,182.374122 41.5131229,182.234198 41.6152174,182.13 L42.4652174,181.27 L43.3952174,180.36 C45.6697863,178.283438 47.3886458,175.670771 48.3952174,172.76 C49.0321244,170.679237 49.5101644,168.553129 49.8252174,166.4 C50.0552174,164.68 50.1852174,163.17 50.2352174,161.88 C50.2852174,160.59 50.3052174,159.5 50.3052174,158.61 L50.3052174,157.15 L50.2252174,154.86 C50.2573039,154.787119 50.3051123,154.722236 50.3652174,154.67 C50.732378,154.71161 51.0922723,154.802425 51.4352174,154.94 L54.9052174,156.03 C55.4852174,156.22 55.7752174,156.36 55.7952174,156.44 C55.8152174,156.52 55.7952174,156.6 55.7952174,156.66 L55.7952174,156.83 C55.7791372,156.982006 55.6944098,157.118307 55.5652174,157.2 L53.9952174,158.42 Z M61.5452174,136.21 C62.6973825,138.585572 64.0629956,140.851552 65.6252174,142.98 C67.038584,144.951448 68.8817095,146.575723 71.0152174,147.73 C72.4318737,148.566329 73.9654402,149.186497 75.5652174,149.57 C76.5652174,149.73 77.5652174,149.84 78.5652174,149.92 L79.2652174,149.97 C79.6252174,149.97 79.7952174,150.09 79.8052174,150.22 C79.8156188,150.340347 79.7837975,150.46056 79.7152174,150.56 C79.6564482,150.658735 79.5739525,150.741231 79.4752174,150.8 L78.7652174,151.26 C78.283701,151.539267 77.8372138,151.874972 77.4352174,152.26 C77.1717647,152.571203 76.9374474,152.905942 76.7352174,153.26 C76.5100267,153.651344 76.3225179,154.063194 76.1752174,154.49 C76.1031685,154.728505 76.0163338,154.962291 75.9152174,155.19 C75.9038724,155.233704 75.8745891,155.270581 75.8345912,155.291532 C75.7945934,155.312483 75.747605,155.315559 75.7052174,155.3 C74.3487671,154.791704 73.0592732,154.120093 71.8652174,153.3 C69.7142136,152.089591 67.8594137,150.41583 66.4352174,148.4 C65.2048977,146.601216 64.1054007,144.716364 63.1452174,142.76 C62.5558628,141.621414 62.0414365,140.445583 61.6052174,139.24 L60.8152174,136.92 C60.3216889,139.048971 59.7209232,141.151651 59.0152174,143.22 C58.176758,145.056419 57.1971548,146.825054 56.0852174,148.51 C54.4690233,151.089443 52.04203,153.059176 49.1852174,154.11 C47.1665116,155.018983 45.0489593,155.690156 42.8752174,156.11 L42.2952174,156.17 C42.2047543,156.186414 42.112582,156.151849 42.0552174,156.08 C41.9843132,156.005141 41.9512093,155.902152 41.9652174,155.8 C41.9519724,155.666098 42.023907,155.538214 42.1452174,155.48 L42.8352174,155.17 L44.1952174,154.59 C49.3485507,152.423333 52.5718841,149.756667 53.8652174,146.59 C54.8812918,144.296048 55.6814166,141.912412 56.2552174,139.47 C56.5552174,137.87 56.7452174,136.61 56.8252174,135.68 L56.9052174,134.68 C56.9300486,134.074099 56.986794,133.469928 57.0752174,132.87 C57.102009,132.812793 57.1480108,132.766792 57.2052174,132.74 L57.4552174,132.82 L62.1752174,134.14 C62.3859223,134.191974 62.5834649,134.287339 62.7552174,134.42 C62.8257946,134.52317 62.8640852,134.645004 62.8652174,134.77 C62.852827,134.96521 62.7490426,135.143126 62.5852174,135.25 L61.5452174,136.21 Z M67.7452174,157.64 C67.8352174,158.22 67.9752174,159.01 68.1452174,160.03 C68.3152174,161.05 68.4952174,162.03 68.6652174,162.81 C69.0790222,164.438953 69.5797387,166.044584 70.1652174,167.62 C70.9882102,169.985337 72.2239965,172.186052 73.8152174,174.12 C75.1308255,175.848331 76.875063,177.203045 78.8752174,178.05 L79.6252174,178.34 C79.8324555,178.388424 79.9830647,178.567527 79.9954398,178.78 C80.0017296,178.985817 79.8646254,179.168623 79.6652174,179.22 L79.1352174,179.45 L77.9852174,179.94 C77.5474638,180.169943 77.1436341,180.459354 76.7852174,180.8 C76.3776199,181.155298 76.0386745,181.582369 75.7852174,182.06 C75.6580168,182.346056 75.5004456,182.617615 75.3152174,182.87 C75.2596738,182.927715 75.185034,182.963258 75.1052174,182.97 C74.9185507,182.97 74.3985507,182.4 73.5452174,181.26 C72.527014,179.801472 71.6465615,178.251474 70.9152174,176.63 C69.9377346,174.512111 69.1998283,172.291683 68.7152174,170.01 C68.166393,167.597494 67.7987016,165.147332 67.6152174,162.68 L67.3452174,159.45 C67.1852174,161.223333 67.0118841,163.053333 66.8252174,164.94 C66.611461,167.032335 66.2370224,169.105119 65.7052174,171.14 C65.218932,173.186774 64.3650862,175.128257 63.1852174,176.87 C61.9134689,178.609291 60.3175333,180.08638 58.4852174,181.22 C56.7973026,182.378386 54.9332716,183.256372 52.9652174,183.82 L51.9652174,184.08 C51.8492183,184.121179 51.7201151,184.098396 51.6252174,184.02 C51.5191361,183.954675 51.4606104,183.833722 51.4752174,183.71 C51.4752174,183.52 51.6052174,183.36 51.8452174,183.22 L52.7952174,182.76 C53.0952174,182.63 53.7952174,182.25 54.7952174,181.63 C55.9190746,180.938685 56.9768752,180.145335 57.9552174,179.26 C59.1993891,178.060969 60.1979976,176.630988 60.8952174,175.05 C61.8236584,173.016388 62.4599538,170.861737 62.7852174,168.65 C63.1652174,166.23 63.4152174,164.07 63.5352174,162.17 C63.6452174,160.27 63.7052174,158.8 63.7052174,157.75 L63.7052174,154.97 L63.6252174,153.57 C63.6561967,153.499033 63.7086604,153.439575 63.7752174,153.4 C64.0257448,153.438643 64.2686829,153.516249 64.4952174,153.63 L68.7452174,155.37 C68.9232701,155.441257 69.0836573,155.550457 69.2152174,155.69 C69.2827251,155.79832 69.3206527,155.922447 69.3252174,156.05 C69.3252174,156.19 69.1952174,156.38 68.9252174,156.61 L67.7452174,157.64 Z" id="形状"></path>
            <path d="M89.5052174,183.46 L90.2752174,182.46 C90.3652174,182.34 90.5852174,181.98 90.9252174,181.37 C91.2652174,180.76 91.5052174,180.31 91.6352174,180.02 C91.851213,179.47903 92.0315979,178.924514 92.1752174,178.36 C92.3833867,177.784241 92.4485892,177.166533 92.3652174,176.56 C92.3280509,176.293257 92.196836,176.048559 91.9952174,175.87 C91.8164288,175.882855 91.642496,175.934011 91.4852174,176.02 C91.2630308,176.1224 91.0196447,176.170392 90.7752174,176.16 C90.0590032,176.139213 89.3997113,175.764615 89.0152174,175.16 C88.5521116,174.392578 88.3259857,173.505469 88.3652174,172.61 C88.3417867,171.640623 88.6252838,170.688633 89.1752174,169.89 C89.6177652,169.183515 90.3915755,168.753201 91.2252174,168.75 C92.2142302,168.770537 93.1108346,169.336206 93.5552174,170.22 C94.0842041,171.13921 94.4050805,172.163284 94.4952174,173.22 C94.5796509,174.249883 94.5528293,175.285866 94.4152174,176.31 C94.2456663,177.63286 93.8817427,178.923441 93.3352174,180.14 C92.9706985,180.98811 92.5075043,181.790308 91.9552174,182.53 C91.5352174,183.03 91.1052174,183.53 90.6552174,183.99 C90.2052174,184.45 89.8652174,184.65 89.6552174,184.58 C89.4405929,184.534474 89.2841545,184.349218 89.2752174,184.13 C89.2735887,183.88703 89.3547028,183.650741 89.5052174,183.46 Z" id="路径"></path>
            <path d="M134.495217,154.87 C132.895217,158.28 131.495217,161.06 130.265217,163.18 C129.135125,165.180887 127.879271,167.108089 126.505217,168.95 L125.225217,170.64 C125.105217,170.79 124.995217,170.86 124.905217,170.84 C124.828802,170.832614 124.758772,170.794177 124.711508,170.733679 C124.664244,170.673182 124.643894,170.595931 124.655217,170.52 C124.652274,170.345805 124.682828,170.172666 124.745217,170.01 L125.635217,167.89 L126.765217,165.2 C127.085217,164.36 127.515217,163.15 128.045217,161.56 C128.575217,159.97 128.975217,158.72 129.235217,157.79 C129.495217,156.86 129.725217,155.88 129.945217,154.87 L130.485217,152.26 L130.735217,150.92 C130.795217,150.86 130.965217,150.92 131.235217,151.03 L134.905217,153.03 C135.163164,153.159197 135.399345,153.327898 135.605217,153.53 C135.688099,153.62085 135.737488,153.737268 135.745217,153.86 C135.745217,153.97 135.605217,154.12 135.325217,154.32 L134.495217,154.87 Z M156.495217,145.42 L151.235217,145.42 C150.994305,145.984394 150.681736,146.515425 150.305217,147 L150.305217,179.08 C150.319123,180.287222 149.795038,181.43801 148.875217,182.22 C148.098434,182.963906 147.155816,183.512338 146.125217,183.82 C145.245217,184.04 144.775217,184.09 144.715217,183.97 C144.674982,183.916998 144.647597,183.855382 144.635217,183.79 C144.635217,183.68 144.555217,183.39 144.485217,182.9 C144.387126,182.308787 144.239951,181.726774 144.045217,181.16 C143.72107,180.359219 143.085999,179.724147 142.285217,179.4 L140.625217,178.57 C140.507243,178.523169 140.410971,178.434029 140.355217,178.32 C140.300352,178.172928 140.273227,178.01696 140.275217,177.86 C140.275217,177.66 140.415217,177.57 140.715217,177.59 L142.955217,177.76 C143.40913,177.768924 143.863185,177.752231 144.315217,177.71 L145.705217,177.65 C146.155217,177.65 146.405217,177.43 146.455217,177.12 C146.517137,176.736574 146.543915,176.348296 146.535217,175.96 L146.535217,145.42 L141.705217,145.42 L140.835217,146.68 C140.835217,148.8 140.811884,150.993333 140.765217,153.26 C140.718551,155.526667 140.681884,158.07 140.655217,160.89 C140.597906,163.831053 140.174651,166.75353 139.395217,169.59 C138.610352,172.559819 137.026266,175.257607 134.815217,177.39 C133.214956,179.022332 131.504247,180.54259 129.695217,181.94 L128.285217,182.94 L127.285217,183.72 C126.915217,184 126.705217,184.06 126.655217,183.89 C126.602282,183.752441 126.571891,183.607241 126.565217,183.46 C126.565217,183.35 126.655217,183.17 126.875217,182.94 L128.025217,181.74 L129.365217,180.4 C130.307946,179.366568 131.179923,178.27075 131.975217,177.12 C133.032821,175.622561 133.953216,174.032788 134.725217,172.37 C135.566991,170.577627 136.165616,168.68086 136.505217,166.73 C136.873321,164.703445 137.07068,162.649569 137.095217,160.59 C137.095217,158.51 137.121884,156.076667 137.175217,153.29 C137.175217,149.8 137.175217,147.39 137.175217,146.05 L137.175217,145.42 L125.145217,145.42 C125.00338,145.363547 124.879127,145.270357 124.785217,145.15 C124.680693,144.92887 124.639171,144.683199 124.665217,144.44 C124.665217,144.06 124.835217,143.88 125.145217,143.88 L155.625217,143.88 L157.695217,140.36 C157.780209,140.157079 157.91421,139.97841 158.085217,139.84 C158.175217,139.84 158.395217,139.98 158.765217,140.36 L162.025217,143.96 C162.293458,144.22742 162.456705,144.582305 162.485217,144.96 C162.485217,145.3 162.315217,145.47 162.025217,145.47 L156.495217,145.42 Z M140.495217,134.83 L139.665217,133.52 C139.566164,133.361848 139.520588,133.176037 139.535217,132.99 C139.535217,132.77 139.695217,132.67 139.995217,132.69 C141.336806,133.044015 142.596824,133.655344 143.705217,134.49 C145.441815,135.536405 146.44593,137.467394 146.305217,139.49 C146.297781,140.442301 145.993675,141.3686 145.435217,142.14 C145.053209,142.793406 144.370666,143.213433 143.615217,143.26 C142.882005,143.345674 142.192172,142.8956 141.975217,142.19 C141.719403,141.453856 141.561385,140.6873 141.505217,139.91 L141.345217,137.71 C141.291292,137.14123 141.184156,136.578768 141.025217,136.03 C140.893447,135.613244 140.719199,135.211131 140.505217,134.83 L140.495217,134.83 Z M152.785217,155.96 L151.635217,154.38 C151.480118,154.219618 151.397066,154.002961 151.405217,153.78 C151.405217,153.63 151.505217,153.53 151.695217,153.49 C151.885217,153.45 153.225217,154.21 155.365217,155.77 C157.323982,157.132429 158.990073,158.873325 160.265217,160.89 C161.244729,162.330959 161.830749,164.00284 161.965217,165.74 C162.026802,166.819306 161.835025,167.898052 161.405217,168.89 C160.935217,169.79 160.405217,170.24 159.685217,170.24 C159.193183,170.236096 158.731055,170.003184 158.435217,169.61 C157.940927,168.983066 157.58019,168.261593 157.375217,167.49 L156.525217,164.2 C156.158645,162.867311 155.711148,161.558215 155.185217,160.28 C154.574113,158.744881 153.771057,157.293333 152.795217,155.96 L152.785217,155.96 Z" id="形状"></path>
            <path d="M177.185217,137.38 C177.071884,141.326667 177.005217,143.693333 176.985217,144.48 L176.675217,151.63 C178.479944,153.39012 180.120094,155.311438 181.575217,157.37 C182.528904,158.811145 183.257274,160.389281 183.735217,162.05 C184.157791,163.374104 184.3934,164.75073 184.435217,166.14 C184.45145,167.153558 184.210624,168.154706 183.735217,169.05 C183.446714,169.734314 182.767559,170.171198 182.025217,170.15 C181.223758,170.160347 180.507806,169.650687 180.255217,168.89 C179.86285,167.656501 179.693534,166.362929 179.755217,165.07 C179.762614,163.669986 179.685809,162.270793 179.525217,160.88 C179.319191,159.622237 178.984088,158.389056 178.525217,157.2 C178.016581,155.783659 177.377154,154.417762 176.615217,153.12 C176.615217,154.12 176.455217,155.96 176.305217,158.56 C176.02293,161.787017 175.372023,164.971093 174.365217,168.05 C172.968597,172.224501 170.651484,176.031676 167.585217,179.19 L166.315217,180.6 C166.085217,180.86 165.925217,180.93 165.835217,180.78 C165.682187,180.542518 165.682187,180.237482 165.835217,180 L167.055217,178.19 C167.675217,177.276667 168.448551,175.99 169.375217,174.33 C170.509487,172.121218 171.330704,169.765268 171.815217,167.33 C172.541912,164.096873 172.960451,160.802132 173.065217,157.49 C173.195217,153.94 173.295217,150.74 173.345217,147.91 C173.395217,145.08 173.435217,143.23 173.435217,142.38 C173.435217,141.53 173.435217,140.89 173.435217,140.45 L173.255217,135.21 L173.095217,133.27 C173.135677,133.207831 173.19057,133.156369 173.255217,133.12 L173.925217,133.38 L178.275217,135.01 C178.725217,135.18 178.885217,135.41 178.785217,135.7 C178.729909,135.903609 178.623155,136.089567 178.475217,136.24 L177.185217,137.38 Z M191.725217,155.54 C191.576795,157.939321 191.303089,160.329247 190.905217,162.7 C190.448564,165.370687 189.679971,167.978534 188.615217,170.47 C187.41654,173.234462 185.600003,175.6873 183.305217,177.64 C180.532576,179.993016 177.416603,181.908463 174.065217,183.32 L172.835217,183.86 C172.751554,183.920085 172.63888,183.920085 172.555217,183.86 C172.490481,183.814325 172.444338,183.746885 172.425217,183.67 C172.425217,183.61 172.425217,183.52 172.425217,183.4 C172.425217,183.29 172.505217,183.16 172.695217,183.03 L173.975217,182.2 L176.325217,180.68 C178.649344,179.076767 180.803833,177.240593 182.755217,175.2 C185.261013,172.545549 186.845832,169.155017 187.275217,165.53 C187.882517,161.716717 188.29638,157.875133 188.515217,154.02 C188.715217,150.41 188.805217,147.26 188.805217,144.56 C188.805217,141.86 188.805217,140.25 188.805217,139.7 C188.805217,139.15 188.805217,138.7 188.805217,138.44 L188.715217,135.61 L188.535217,133.52 C188.560938,133.465323 188.594639,133.414771 188.635217,133.37 C188.635217,133.37 188.825217,133.37 189.125217,133.52 L193.845217,135.46 C194.038237,135.550809 194.159711,135.746734 194.155217,135.96 C194.175464,136.173155 194.089439,136.382609 193.925217,136.52 L192.505217,137.72 L192.565217,143.19 C192.711884,145.39 192.881884,147.67 193.075217,150.03 C193.268551,152.39 193.561884,154.826667 193.955217,157.34 C194.344869,159.835945 194.919791,162.299419 195.675217,164.71 C196.397448,167.058951 197.387277,169.317103 198.625217,171.44 C199.62937,173.25092 200.934712,174.877525 202.485217,176.25 L203.775217,177.36 C203.924851,177.480016 204.015868,177.65841 204.025217,177.85 C204.025217,178.14 203.875217,178.28 203.615217,178.28 L202.035217,178.39 C201.07406,178.554238 200.215815,179.089294 199.645217,179.88 L198.795217,180.88 L198.595217,181.17 C198.595217,181.17 198.595217,181.22 198.595217,181.17 C198.335217,181.17 197.635217,179.89 196.495217,177.33 C195.473735,175.144236 194.66986,172.863241 194.095217,170.52 C193.59707,168.252997 193.229796,165.959205 192.995217,163.65 C192.705217,161.06 192.565217,159.49 192.565217,158.96 L192.135217,147.65 C191.995217,150.69 191.858551,153.32 191.725217,155.54 Z" id="形状"></path>
            <path d="M231.875217,181.83 L218.995217,181.83 L218.995217,183.55 C218.951983,183.96066 218.759893,184.341282 218.455217,184.62 C217.873092,185.045136 217.150264,185.231211 216.435217,185.14 C216.19465,185.183778 215.946881,185.121836 215.755217,184.97 C215.604883,184.768422 215.511616,184.530074 215.485217,184.28 L215.645217,178.64 L215.645217,170.14 L215.565217,166.14 C213.86117,167.513455 212.063482,168.76649 210.185217,169.89 L208.525217,170.89 C208.075217,171.18 207.805217,171.26 207.695217,171.14 C207.600792,171.04283 207.544069,170.915202 207.535217,170.78 C207.564742,170.555961 207.679322,170.351866 207.855217,170.21 L208.605217,169.61 L209.925217,168.46 C211.632194,166.946834 213.25149,165.337555 214.775217,163.64 C216.641838,161.609764 218.372274,159.458411 219.955217,157.2 C221.295429,155.333873 222.508184,153.379433 223.585217,151.35 L224.585217,149.43 C224.725217,149.16 224.825217,149.05 224.895217,149.09 C225.136333,149.227534 225.369994,149.377745 225.595217,149.54 L228.595217,151.6 C228.830525,151.756088 229.042618,151.944615 229.225217,152.16 C229.306202,152.266691 229.35167,152.396102 229.355217,152.53 C229.355217,152.66 229.355217,152.72 229.285217,152.72 L228.225217,153.46 C229.933125,156.25801 232.233824,158.647461 234.965217,160.46 C237.602943,162.359384 240.721672,163.478661 243.965217,163.69 L245.115217,163.75 C245.388551,163.75 245.528551,163.84 245.535217,164.02 C245.546676,164.157135 245.522565,164.294906 245.465217,164.42 C245.426628,164.505833 245.364139,164.578738 245.285217,164.63 L244.205217,165.32 C243.720145,165.683492 243.286244,166.110666 242.915217,166.59 C242.422534,167.182439 242.042898,167.86036 241.795217,168.59 C241.565217,169.3 241.345217,169.66 241.115217,169.68 C240.670082,169.62345 240.239391,169.484408 239.845217,169.27 C238.516863,168.559321 237.23736,167.760884 236.015217,166.88 C233.944516,165.405218 232.215384,163.50215 230.945217,161.3 C229.540569,159.029647 228.374371,156.620175 227.465217,154.11 C224.405963,158.055138 220.955021,161.680302 217.165217,164.93 L219.475217,166.65 L231.735217,166.65 L232.525217,165.42 C232.825217,164.94 233.025217,164.7 233.135217,164.69 C233.245217,164.68 233.525217,164.86 233.985217,165.24 L235.985217,166.96 C236.221234,167.163378 236.44184,167.383983 236.645217,167.62 C236.727364,167.725448 236.769838,167.856411 236.765217,167.99 C236.674755,168.274939 236.524776,168.537402 236.325217,168.76 L235.575217,169.76 L235.575217,177.34 L235.735217,183.29 C235.626167,183.560315 235.462797,183.805371 235.255217,184.01 C234.90151,184.238148 234.507977,184.397597 234.095217,184.48 C233.745328,184.59006 233.387651,184.673629 233.025217,184.73 C232.737322,184.755764 232.451539,184.661709 232.235217,184.47 C232.04144,184.293274 231.932298,184.042247 231.935217,183.78 L231.875217,181.83 Z M237.475217,142.53 L214.025217,142.53 C214.025217,142.84 214.025217,143.09 214.025217,143.29 C214.025217,143.49 214.025217,143.73 214.025217,144.02 C213.99869,145.053031 213.854424,146.079666 213.595217,147.08 C213.391507,147.902037 213.005286,148.667644 212.465217,149.32 C212.056078,149.856383 211.419829,150.170808 210.745217,150.17 C209.974295,150.231787 209.244191,149.815152 208.905217,149.12 C208.558053,148.441668 208.373195,147.691968 208.365217,146.93 C208.389606,146.077197 208.691549,145.255632 209.225217,144.59 L210.475217,143.25 C210.921016,142.772401 211.285818,142.225198 211.555217,141.63 C211.82498,141.052084 212.013436,140.439603 212.115217,139.81 L212.285217,138.67 C212.285217,138.35 212.415217,138.18 212.565217,138.17 C212.715217,138.16 212.855217,138.27 212.985217,138.5 C212.985217,138.5 213.295217,139.38 213.875217,140.99 L237.435217,140.99 L238.105217,139.84 C238.395217,139.35 238.605217,139.1 238.755217,139.11 C238.905217,139.12 239.265217,139.43 239.845217,140.04 L242.645217,143.04 C243.162269,143.508118 243.492582,144.147434 243.575523,144.84 C243.581512,145.06909 243.490467,145.290124 243.324648,145.448319 C243.158829,145.606514 242.933757,145.687062 242.705217,145.67 L241.625217,145.67 C240.242825,145.756697 238.943546,146.359934 237.985217,147.36 L236.735217,148.59 C236.455217,148.86 236.275217,148.98 236.165217,148.96 C236.055217,148.94 235.935217,148.86 235.935217,148.66 C235.921843,148.501579 235.938813,148.342061 235.985217,148.19 L236.525217,146.19 L237.175217,143.56 C237.205217,143.46 237.315217,143.14 237.435217,142.53 L237.475217,142.53 Z M221.935217,148.4 C221.245217,149.34 220.415217,150.4 219.445217,151.68 C217.777101,153.627666 215.947247,155.430758 213.975217,157.07 L212.195217,158.65 C211.765217,159.03 211.475217,159.21 211.305217,159.19 L211.135217,159.19 C211.08074,159.173194 211.036688,159.132813 211.015217,159.08 C211.007798,159.006854 211.007798,158.933146 211.015217,158.86 C211.058057,158.663024 211.151063,158.480457 211.285217,158.33 L212.035217,157.39 L213.235217,155.76 C213.775217,155.03 214.615217,153.67 215.775217,151.68 C216.800742,149.950442 217.670819,148.13332 218.375217,146.25 L218.995217,144.51 C219.055217,144.34 219.115217,144.25 219.185217,144.24 C219.341654,144.270666 219.486823,144.34325 219.605217,144.45 L222.605217,146.77 C222.79831,146.915829 222.96707,147.091339 223.105217,147.29 C223.186925,147.415111 223.23196,147.560606 223.235217,147.71 C223.235217,147.87 223.075217,148.01 222.725217,148.14 L221.935217,148.4 Z M231.875217,180.28 L231.875217,168.28 L218.975217,168.28 L218.975217,180.28 L231.875217,180.28 Z M222.155217,132.28 C222.022509,132.135115 221.94776,131.94646 221.945217,131.75 C221.945217,131.59 222.115217,131.48 222.445217,131.45 C222.913988,131.528857 223.375526,131.645914 223.825217,131.8 C224.845865,132.172171 225.798523,132.709308 226.645217,133.39 C227.800058,134.328743 228.417436,135.776774 228.295217,137.26 C228.279112,138.106584 228.041192,138.934129 227.605217,139.66 C227.279569,140.334703 226.604152,140.77083 225.855217,140.79 C225.192789,140.833783 224.55955,140.511406 224.205217,139.95 C223.960329,139.614204 223.792976,139.228268 223.715217,138.82 C223.624481,138.156669 223.567741,137.489129 223.545217,136.82 C223.516303,136.0017 223.392132,135.189556 223.175217,134.4 C222.943566,133.649254 222.599676,132.937872 222.155217,132.29 L222.155217,132.28 Z M228.705164,146.28 C228.705164,146.09 228.895217,145.98 229.265217,145.92 C230.469156,146.166621 231.617977,146.630894 232.655217,147.29 C234.207352,148.057774 235.625549,149.070772 236.855217,150.29 C237.727614,151.101648 238.251019,152.220156 238.315217,153.41 C238.365607,154.168883 238.280962,154.930688 238.065217,155.66 C237.909038,156.092859 237.635505,156.473728 237.275217,156.76 C236.995067,156.998489 236.64286,157.135849 236.275217,157.15 C235.906303,157.162315 235.54727,157.029472 235.275217,156.78 C234.931238,156.463913 234.652639,156.083388 234.455217,155.66 L233.115217,152.25 C232.756203,151.379535 232.314161,150.545683 231.795217,149.76 C231.257112,148.991487 230.636776,148.283969 229.945217,147.65 L228.945217,146.85 C228.790079,146.709543 228.702683,146.509259 228.705164,146.3 L228.705164,146.28 Z" id="形状"></path>
        </g>
    </g>
</svg>