<svg id="e18a95d6-3e96-4896-a472-e8ccb50a8310" data-name="图层 1" xmlns="http://www.w3.org/2000/svg" viewBox="0 0 273.16 128.24"><defs><style>.f50c6004-f34f-49c8-90cf-ca6678653f5c{fill:#fff;}</style></defs><g id="acbb7c6d-5efd-43bf-8a14-fde5727a932c" data-name="形状 1"><path class="f50c6004-f34f-49c8-90cf-ca6678653f5c" d="M2242.45,217.44a9.6,9.6,0,0,0,1.11-.93c.2-.21.49-.29.65-.52a3.64,3.64,0,0,1,.77-.7c.46-.37.94-.72,1.38-1.12,1.11-1,2.38-1.85,3.43-2.93a7.16,7.16,0,0,0,1.32-1.14c.21-.19.44-.36.66-.53a1.34,1.34,0,0,1,1.36-.23,8.25,8.25,0,0,0,1,.3c.65.17,1.31.3,2,.49,1,.28,2,.6,3,.89a1.51,1.51,0,0,0,.39,0,10.36,10.36,0,0,1,0-1.5l-.15-.06c-.9-.28-1.8-.54-2.69-.83l-2.66-.88a1.45,1.45,0,0,1-.35-.18l-.59-.41a2.32,2.32,0,0,1-1.15-2.06c0-.33,0-.66,0-1V178a3.19,3.19,0,0,1,.18-1.15,1.68,1.68,0,0,1,1.41-1,4.31,4.31,0,0,1,1.65.37c.13.06.28.11.42.16l1.74.54,3.05,1,4.11,1.3c3.17,1,6.33,2.12,9.52,3.09a23.12,23.12,0,0,1,2.78,1.13.61.61,0,0,1,.24.21,2,2,0,0,1,.4,1.14l.09,25.17a1.56,1.56,0,0,1-.07.73c-.23-.07-.44-.12-.64-.19l-6.49-2.09-7.41-2.41a1.18,1.18,0,0,0-.69-.14c.15.86,0,2.35.08,3.05l2.59.83,5.09,1.65c.47.16.94.33,1.42.48l2.43.76.06,0a1.6,1.6,0,0,1,1,1,9.57,9.57,0,0,1,.63,1.64.92.92,0,0,1,.09.81,1.12,1.12,0,0,0-.08.67c.88-1,1.62-2,2.4-3s1.55-1.94,2.31-2.92,1.57-2,2.37-3,1.57-1.94,2.34-2.92,1.65-1.93,2.39-3.06V170c0-1.4,0-2.8,0-4.19-.05-3.24-.07-6.47.08-9.7a45.74,45.74,0,0,1,.48-5c0-.19,0-.38.05-.56a1,1,0,0,0-.67-.07l-5.11.26-1.83.1-.39,0a3.85,3.85,0,0,1-.58.08,4.33,4.33,0,0,0-1.47.25,1.17,1.17,0,0,1-.88,0c-1-.36-2.11-.7-3.16-1a35.31,35.31,0,0,0-3.49-1.1c-.23-.06-.46-.14-.68-.22l-1.92-.67-4.29-1.44-.37-.1c-.73-.22-1.47-.42-2.2-.65-.45-.14-.9-.33-1.36-.47-1.09-.32-2.13-.78-3.24-1a17.5,17.5,0,0,1-1.73-.57c-.25-.09-.49-.2-.74-.28a11.14,11.14,0,0,1-2-1.1c-.47-.25-.73-.74-1.2-1-.24-.13-.38-.42-.59-.62a6.73,6.73,0,0,1-.65-.52,13.9,13.9,0,0,1-1-1.06c-.15-.24-.39-.45-.57-.69s-.56-.55-.77-.87-.47-.46-.62-.74-.52-.56-.72-.91-.54-.55-.76-.87-.48-.5-.65-.79a2.74,2.74,0,0,0-.38-.44c-.14-.16-.25-.35-.39-.51l-.88-1c-.06-.07-.1-.14-.25-.07,0,.26,0,.54,0,.81v83.26c0,.19,0,.39,0,.58S2242.25,217.39,2242.45,217.44Zm9.34-48.85c0-.83.06-1.66.06-2.49q0-9,0-18.09a9.47,9.47,0,0,1,.11-1.5,1.4,1.4,0,0,1,1.5-1.24,5.1,5.1,0,0,1,1.29.2c.51.13,1,.33,1.49.5a5.08,5.08,0,0,0,.75.25,12.43,12.43,0,0,1,1.44.42c1.85.61,3.7,1.25,5.57,1.83,2.38.73,4.73,1.53,7.1,2.28,1.5.48,3,1,4.47,1.48a4.52,4.52,0,0,1,1,.4,1.5,1.5,0,0,1,.71,1,8.53,8.53,0,0,1,.2,1.82v22.94c0,.54,0,1.09,0,1.63,0,.2,0,.4,0,.59a.81.81,0,0,1-1.1.84h-.06a19.65,19.65,0,0,0-2.37-.73c-1.73-.6-3.49-1.14-5.23-1.71l-.68-.22c-1.36-.42-2.71-.82-4.06-1.25s-2.78-.9-4.16-1.36c-.69-.23-1.36-.49-2.05-.71s-1.54-.44-2.31-.69c-.55-.19-1.11-.36-1.66-.58a8.51,8.51,0,0,1-1.29-.86c-.14-.08-.21-.28-.28-.43a4.84,4.84,0,0,1-.33-1.4A21.32,21.32,0,0,1,2251.79,168.59Zm140.87-6.24c-1.09.07-2.18.15-3.27.21l-5,.31a2.57,2.57,0,0,0-.8.13c.07.61.14,1.19.19,1.77s.22,1.33.22,2q0,10.46,0,20.91c0,.2,0,.39,0,.59a.78.78,0,0,1-.07.31,1,1,0,0,1-1.2.57,7,7,0,0,1-.74-.23,1.26,1.26,0,0,0-.37-.13,8.14,8.14,0,0,1-1.44-.41c-1.16-.36-2.28-.85-3.48-1.1-.15,0-.3-.1-.44-.14-1.45-.48-2.87-1-4.35-1.44-1-.25-1.87-.58-2.81-.88-1.61-.52-3.22-1-4.83-1.58a6.86,6.86,0,0,1-1.58-.6,2.64,2.64,0,0,1-1.44-1.75c0-.15-.07-.3-.1-.45a11.51,11.51,0,0,1-.14-2.35l0-12.84a24.59,24.59,0,0,1,.09-3.21c.1-.77,0-1.56.16-2.34a3,3,0,0,1,.35-1,1.21,1.21,0,0,1,1.15-.59,4.42,4.42,0,0,1,1.38.33c1,.36,2,.66,3,1l3.79,1.21,2.43.77,2.28.77c.89.29,1.78.57,2.68.84a12.72,12.72,0,0,1,1.24.38,5.55,5.55,0,0,0,.87.29c.29.07.57.18.93.28a11.5,11.5,0,0,0,0-1.57l-1.68-.62a1,1,0,0,0-.25-.08,7.37,7.37,0,0,1-1.44-.41c-1-.33-2.1-.69-3.16-1-.71-.22-1.4-.47-2.12-.66-1.1-.31-2.18-.74-3.28-1.07a3.81,3.81,0,0,1-1.51-.87,3.4,3.4,0,0,0-.07-.46,1.28,1.28,0,0,1,.53-1.37c.73-.6,1.49-1.17,2.24-1.75.58-.44,1.2-.84,1.75-1.32a10.15,10.15,0,0,1,.92-.7,9.29,9.29,0,0,0,.91-.72,5.44,5.44,0,0,0,1-.93,1.48,1.48,0,0,0-.27-2,14.24,14.24,0,0,0-1.34-1c-1-.68-2-1.37-3-2a20.83,20.83,0,0,1-3.13-2.3c-.11-.1-.26-.15-.37-.25a11.61,11.61,0,0,0-.91-.82c-.82-.56-1.54-1.24-2.3-1.87a1.3,1.3,0,0,0-.31-.08,5.91,5.91,0,0,0,.05,1.28,4.08,4.08,0,0,1,.11,1.09,1.92,1.92,0,0,0,0,.59,3.19,3.19,0,0,1,.08,1,2.78,2.78,0,0,0,0,.65,5.17,5.17,0,0,1,.12,1.24c.06,1.15.1,2.3.16,3.46a1.12,1.12,0,0,0,0,.32c.17.69,0,1.39.15,2.08,0,0,0,0,0,.06,0,.52-.08,1.05-.07,1.57a5.78,5.78,0,0,1-.2,1.55,1.41,1.41,0,0,1-1.67,1.08,4.83,4.83,0,0,1-2-1.09c-.15-.3-.5-.34-.7-.58a1.81,1.81,0,0,0-.77-.68c-.41-.53-1.11-.78-1.4-1.42-.51-.44-.85-1-1.31-1.51-.25-.27-.47-.56-.71-.84s-.5-.64-.76-.95-.55-.56-.77-.87c-.36-.52-.83-.94-1.19-1.46-.07-.09-.17-.12-.35,0,0,1,0,2.09,0,3.16s0,2.09,0,3.14v25.51a1.14,1.14,0,0,1-1.58.41l-.49-.19-.37-.12c-.48-.14-1-.26-1.44-.41l-3.8-1.22c-.18,0-.37-.07-.59-.12a7.11,7.11,0,0,0,0,1.6,2.49,2.49,0,0,0,.26.11l2.76.8.19.06,2.47.85a6.39,6.39,0,0,1,1.75.83,1.55,1.55,0,0,1,.76,1.28c0,1.2.05,2.4.07,3.6a.57.57,0,0,1,0,.26,3.16,3.16,0,0,0-.09,1.1c0,.2,0,.4,0,.59,0,.53-.09,1.05-.11,1.57s0,1.31,0,2a19.57,19.57,0,0,1-.12,2c-.13.86-.24,1.72-.29,2.59a2.34,2.34,0,0,1,0,.26c0,.28-.1.56-.12.84-.11,1.17-.2,2.35-.31,3.52a4.2,4.2,0,0,1-.11.71c-.38,1.46-.77,2.92-1.15,4.37a7,7,0,0,0-.15.77,6.71,6.71,0,0,1-.61,2.06,3.05,3.05,0,0,0-.28.87,9.72,9.72,0,0,1-.68,2.1c-.31.81-.64,1.61-1,2.42a5,5,0,0,1-.23.53l-1.69,2.93c0,.09-.08.19-.13.29a1.41,1.41,0,0,0,1,0,8,8,0,0,0,1.73-.87,23.75,23.75,0,0,0,2.3-1.68,7.61,7.61,0,0,0,1.23-1,.8.8,0,0,1,.21-.15c.11-.1.24-.18.35-.29l.65-.64c.11-.11.27-.19.32-.32.19-.43.66-.64.83-1.07a14.53,14.53,0,0,0,1.83-2.58,16.24,16.24,0,0,0,1.14-2.19,18.67,18.67,0,0,0,1.3-3.48.67.67,0,0,1,.07-.18,15.16,15.16,0,0,0,.59-2,19.25,19.25,0,0,0,.47-2.1c.21-1.05.42-2.09.59-3.14.12-.66.18-1.34.26-2s.14-1.52.22-2.28c0-.35.12-.69.15-1,.05-.64.08-1.3.12-2a.57.57,0,0,1,0-.13,3.39,3.39,0,0,0,.13-1.1c0-.37,0-.74,0-1.11a2.12,2.12,0,0,1,.28-1.06,1.61,1.61,0,0,1,.67-.7,1.35,1.35,0,0,1,1,0c.71.15,1.35.51,2.06.66.5.1,1,.32,1.48.47s1.21.35,1.81.55,1.41.47,2.11.7c1.37.46,2.74.89,4.1,1.37,1.92.67,3.87,1.21,5.8,1.83l1.18.4a6.75,6.75,0,0,1,1.74.82,2.13,2.13,0,0,1,.92,1.28,4,4,0,0,1,.1,1v17.63c0,1.09,0,2.19,0,3.28,0,.74,0,1.48-.06,2.22a6.77,6.77,0,0,1-.28,1.41,3,3,0,0,1-.45.87,2.14,2.14,0,0,1-1.42.69,6.12,6.12,0,0,1-2.41-.53c-.27-.12-.56-.22-.85-.33-.85-.33-1.72-.63-2.55-1-1.12-.52-2.21-1.11-3.32-1.67-.36-.19-.74-.36-1.12-.53,0,0-.07,0-.15,0a1.23,1.23,0,0,0,.08.23,5,5,0,0,0,.84,1,.89.89,0,0,1,.32.32,1.7,1.7,0,0,0,.59.68c.08.08.2.14.23.23a1.94,1.94,0,0,0,.63.73.46.46,0,0,1,.16.21,1,1,0,0,0,.37.45c.4.33.6.85,1.05,1.13a.21.21,0,0,1,.07.11c.05.21.22.32.36.45s.28.19.33.32a2,2,0,0,0,.58.69,1.08,1.08,0,0,1,.3.34,1.32,1.32,0,0,0,.37.44c.15.16.29.33.43.49l.42.49a3.36,3.36,0,0,1,.46.55,11.76,11.76,0,0,1,1.36,2.92,1.16,1.16,0,0,1,.08,1.07c0,.13-.16.27,0,.45a4.89,4.89,0,0,1,.65-.78c.28-.35.53-.73.82-1.07a13.27,13.27,0,0,0,1-1.26c.14-.22.32-.41.47-.62s.47-.61.72-.91.64-.81,1-1.21.72-.85,1.07-1.29c.61-.77,1.21-1.56,1.82-2.34.47-.59,1-1.14,1.42-1.75.55-.77,1.18-1.48,1.74-2.23.42-.57.88-1.12,1.34-1.66.18-.22.34-.44.55-.71v-45.3a2.88,2.88,0,0,1,0-.72,4.76,4.76,0,0,0,.1-1.3c0-.15,0-.3,0-.46a4.64,4.64,0,0,0,.07-.64,2.73,2.73,0,0,1,.13-.9,6.8,6.8,0,0,0,.22-.89,2.38,2.38,0,0,0,0-.39A3.77,3.77,0,0,0,2392.66,162.35Zm-161.23,55.47a7.33,7.33,0,0,1,.63-.73,1.22,1.22,0,0,0,.4-1c0-.2,0-.4,0-.59V168.38c0-1.35,0-2.71,0-4.06a45.85,45.85,0,0,1,.39-5.36c0-.19.05-.38.08-.6a2.08,2.08,0,0,0-.41,0c-1.55.07-3.1.13-4.65.22-.68,0-1.35.12-2,.16s-1.26.06-1.9,0a2.16,2.16,0,0,1-.7-.13l-8.89-3a1.17,1.17,0,0,1-.41-.18,13.76,13.76,0,0,1-1.85-1.56l-4.17-4.62-3-3.31c-.1-.1-.16-.27-.41-.2v.76l-.19,39.84c0,.89-.08,1.78-.12,2.67a.53.53,0,0,1,0,.13,15.65,15.65,0,0,0-.2,1.81c-.1.58-.07,1.17-.13,1.75-.09.85-.19,1.69-.3,2.53-.05.43-.09.86-.17,1.28-.21,1.05-.39,2.1-.53,3.16,0,.26-.1.51-.15.77-.22.93-.49,1.86-.63,2.81-.1.71-.21,1.42-.37,2.12-.19.92-.42,1.83-.58,2.75-.07.37-.2.71-.29,1.07s-.22,1-.37,1.44c-.31,1-.58,2-1,3-.28.73-.45,1.49-.78,2.21s-.54,1.28-.83,1.91a19.59,19.59,0,0,1-1.89,3.41c-.55.77-1.06,1.58-1.63,2.35a4,4,0,0,1-.33.39,2.06,2.06,0,0,0-.45.77c.07,0,.11,0,.15,0a4.08,4.08,0,0,0,1.3-.4,27.62,27.62,0,0,0,2.72-1.5,20.26,20.26,0,0,0,2-1.41,12.66,12.66,0,0,0,2-1.68.39.39,0,0,1,.2-.16,1.16,1.16,0,0,0,.46-.36l1.29-1.3c.11-.1.27-.19.32-.32.2-.45.63-.7.89-1.1.49-.73,1.08-1.4,1.58-2.13a15,15,0,0,0,1-1.72,33.65,33.65,0,0,0,2.28-5.13c.31-1,.64-2,.92-3,.18-.67.35-1.35.5-2s.31-1.57.44-2.37a2.35,2.35,0,0,1,.62-1.2,1.56,1.56,0,0,1,1.28-.54,4.69,4.69,0,0,1,1.64.39,3.13,3.13,0,0,0,.7.19,2.5,2.5,0,0,1,.38.06l5.21,1.71.75.22a4,4,0,0,1,1.16.76c0,.21.06.38.1.55a6.16,6.16,0,0,1,.22,1.48c0,5.17,0,10.35,0,15.53,0,.63,0,1.27-.07,1.9a2.09,2.09,0,0,1-.23.88,2,2,0,0,1-2.2,1.14c-.43-.1-.86-.19-1.27-.33-.9-.31-1.8-.65-2.7-1l-2.61-1-2.33-.87c-.07,0-.15,0-.28,0a1.87,1.87,0,0,0,.15.27c.47.52,1.06.92,1.49,1.48,0,0,.12,0,.17.09a2.43,2.43,0,0,1,.25.2c.22.21.43.44.66.64a11.25,11.25,0,0,1,1.41,1.35.49.49,0,0,0,.25.2c.21.06.31.23.44.37s.31.31.47.46a5.56,5.56,0,0,1,.65.53,10.31,10.31,0,0,0,1.31,1.25,3.58,3.58,0,0,1,1,1.26,9.35,9.35,0,0,1,.56,1.53,1.15,1.15,0,0,1,0,.71,3.43,3.43,0,0,0-.07.62,1.94,1.94,0,0,0,.2-.14c.29-.38.57-.77.86-1.14a6.57,6.57,0,0,0,.61-.67,14.78,14.78,0,0,1,1-1.24c.35-.42.71-.81,1-1.26.53-.78,1.16-1.48,1.74-2.23.44-.58.93-1.13,1.37-1.71s.8-1,1.21-1.51.73-1,1.1-1.42Zm-18-56a5.21,5.21,0,0,0,0-1c0-.48,0-1,0-1.44a2,2,0,0,1,.37-1,1.46,1.46,0,0,1,1.28-.64,7.85,7.85,0,0,1,2.8.51c1.29.39,2.57.83,3.85,1.26a2.92,2.92,0,0,1,.52.28l1.09.63a1.63,1.63,0,0,0,.14.34,2.22,2.22,0,0,1,.28,1.38c0,5.19,0,10.39,0,15.58a5.72,5.72,0,0,1,0,.72.76.76,0,0,1-1,.65l-.25-.08-2.84-.94c-1-.34-2-.69-3-1a2.88,2.88,0,0,1-1.06-.46,1.58,1.58,0,0,0-.46-.25,2.83,2.83,0,0,1-1.09-.79,1.75,1.75,0,0,1-.47-.82,7.46,7.46,0,0,1-.29-1.94c0-1.15,0-2.31,0-3.47,0-2,0-3.92,0-5.89A8.15,8.15,0,0,1,2213.4,161.78Zm10.42,28.79v7.8a1.85,1.85,0,0,1-.17.95c-.25.44-.5.57-1,.42l-3.23-1.07c-.72-.23-1.46-.45-2.18-.69-.33-.11-.64-.25-1-.37-.53-.2-1.05-.41-1.59-.58a5.46,5.46,0,0,1-1-.55,2,2,0,0,1-1-1.74c0-.52,0-1,0-1.57.06-1,.14-2.09.21-3.13l.35-7.82c0-.54.06-1.09.09-1.63,0-.24,0-.48,0-.72a2.13,2.13,0,0,1,.44-1.21,1.11,1.11,0,0,1,.89-.47,5.38,5.38,0,0,1,2,.23c.81.31,1.65.56,2.47.85a22.35,22.35,0,0,0,2.89.87,2.67,2.67,0,0,1,1.21.72.45.45,0,0,1,.15.21,4.8,4.8,0,0,1,.39,1.64c0,2.62,0,5.24,0,7.86Zm-25,13.39V151.3a5.25,5.25,0,0,1,.07-1,1.73,1.73,0,0,0,0-1,2,2,0,0,0-.33,0l-1.88.24a3.65,3.65,0,0,1-.46.07c-1,0-2,.2-3,.33-.33,0-.65.08-1,.09a2.85,2.85,0,0,0-.52.06,2.57,2.57,0,0,1-1.66-.16,15.32,15.32,0,0,0-2.26-.87,1.55,1.55,0,0,0-.06.64c0,.24,0,.48,0,.73.56.25,1.08.52,1.63.72a1.9,1.9,0,0,1,1.09,1.57c0,.13,0,.26,0,.4l0,19.13a3.78,3.78,0,0,1-.4,1.64,2.88,2.88,0,0,1-1.17-.08c-1-.35-2.07-.65-3-.95-.3-.34-.53-.63-.8-.88a1.88,1.88,0,0,1-.38-.52,4.77,4.77,0,0,1-.37-2.1c0-6.19,0-12.37,0-18.55a2,2,0,0,1,.22-.94c.22-.43.41-.87.61-1.32l-.61-.71-5.29-6-2.9-3.3c-.07-.08-.13-.24-.35-.16,0,.24,0,.5,0,.76v54.07c0,.1,0,.2-.05.3a1.1,1.1,0,0,1-.16,0l-2.54-.81c-.54-.17-1.07-.38-1.62-.52-1-.27-2-.62-3-1l-.12,0-3.05-1c-1-.35-2.09-.65-3.11-1s-2-.61-3-1c-1.19-.42-2.4-.77-3.6-1.15-1-.32-1.94-.65-2.91-1a11,11,0,0,1-1.78-.62.3.3,0,0,0-.13,0,6.06,6.06,0,0,1-1.26-.36,1,1,0,0,0-.75-.14c0,.05-.06.08-.06.12,0,.77,0,1.53,0,2.29a2.57,2.57,0,0,0,.13.53l3.58,1.2c.46.15.9.33,1.36.45,1.14.29,2.24.72,3.37,1,1.29.37,2.56.84,3.84,1.26.63.22,1.27.44,1.91.64l2,.62c.69.2,1.38.39,2.07.62s1.65.57,2.47.84l8.65,2.87a7.18,7.18,0,0,0,.7.16c.21.06.42.1.63.17,1.57.51,3.11,1.14,4.73,1.53a1,1,0,0,1,.18.07,3.38,3.38,0,0,0,1.11.37l.76.22,2,.69c1,.33,2,.68,3,1a4.13,4.13,0,0,0,.5.15,6.83,6.83,0,0,1,1.5.46,2.63,2.63,0,0,0,.3.09c1.12.37,2.22.75,3.34,1.11A18.58,18.58,0,0,0,2198.86,204Zm-8.83-6.18a2.7,2.7,0,0,1-1.58-.17,14.27,14.27,0,0,0-2-.69,4.88,4.88,0,0,1-1.43-.75,1.29,1.29,0,0,1-.5-.95l-.1-18.83c0-.2,0-.4,0-.59s.14-.59.22-.88a.38.38,0,0,1,.12-.16,1.85,1.85,0,0,1,1.57-.44c.62.13,1.2.38,1.81.55a3.89,3.89,0,0,0,1,.36c.36.29.83.45,1,1a6.16,6.16,0,0,1,.34,1.78v18.27A2.21,2.21,0,0,1,2190,197.78ZM2291,175.13c.73.21,1.44.41,2.14.63s1.4.5,2.11.7a15.67,15.67,0,0,0,2.11.67,1.42,1.42,0,0,1,.18.08c1.16.43,2.36.73,3.52,1.18.26.11.56.1.82.19,1.23.41,2.45.83,3.66,1.25.33.11.66.24,1,.38,0,.63.13,1.19.14,1.76l-.65,13.49c0,.22,0,.44,0,.65-.1.75-.23,1.5-.32,2.25s-.18,1.51-.28,2.27c-.17,1.32-.49,2.62-.56,4a3,3,0,0,1-.07.32c-.23,1-.45,2.09-.69,3.14a26,26,0,0,1-.77,3.1c-.17.46-.22,1-.37,1.45-.44,1.39-.9,2.77-1.36,4.15-.12.37-.27.73-.41,1.1-.31.81-.67,1.61-.93,2.44-.46,1.45-1.17,2.79-1.72,4.2-.24.63-.59,1.21-.89,1.81-.17.33-.35.65-.5,1a11.91,11.91,0,0,1-.7,1.38c-.21.37-.41.76-.64,1.12-.35.53-.71,1.07-1.05,1.61s-.6.79-.87,1.21a3,3,0,0,1-.54.64c-.17.14-.38.27-.46.46a2.09,2.09,0,0,1-.54.64c-.16.15-.38.27-.47.45a2.75,2.75,0,0,1-.73.82c-.07.07-.17.14-.09.32a1.14,1.14,0,0,0,.73,0,5.69,5.69,0,0,0,1.91-.65l.87-.45c.52-.27,1-.53,1.57-.81a11.4,11.4,0,0,1,1.08-.6,8.55,8.55,0,0,0,1.18-.67,23.87,23.87,0,0,0,2.31-1.55,18.08,18.08,0,0,0,2.53-2.1s.09-.11.14-.12c.32-.1.48-.37.69-.59l.6-.6c.08-.07.2-.13.23-.22a1.38,1.38,0,0,1,.55-.64c.25-.17.32-.46.52-.65a10.76,10.76,0,0,0,1.17-1.45,39,39,0,0,0,2.37-3.72c.34-.66.71-1.3,1-2a31.37,31.37,0,0,0,1.69-4.17c0-.1.1-.19.14-.29s.12-.28.17-.42l.54-1.75c.05-.19.12-.37.17-.56q.28-1,.54-2c.22-.9.48-1.8.65-2.72s.4-2,.6-2.95c0-.11.05-.21.06-.32a14.15,14.15,0,0,1,.42-2.51,3,3,0,0,1,.32-.86,1.36,1.36,0,0,1,1.73-.63c.84.35,1.72.6,2.58.89,2.7.88,5.41,1.73,8.12,2.58a1.44,1.44,0,0,0,.33,0c0-.75,0-1.29,0-1.73-1.43-.46-2.88-.86-4.29-1.31-.91-.3-1.81-.65-2.73-.89s-1.87-.6-2.8-.9a4.12,4.12,0,0,1-1.41-.65c-.2-.17-.38-.36-.59-.51a1.15,1.15,0,0,1-.47-.76c-.07-.41-.14-.81-.19-1.22a1.21,1.21,0,0,1,0-.46c0-.58.16-1.2.22-1.8.08-.89.07-1.79.1-2.68a1.23,1.23,0,0,1,0-.39c0-.43.14-.72.14-1.09s0-.7.06-1c0-.16,0-.31,0-.46l.06-3a1.82,1.82,0,0,1,0-.33,2.22,2.22,0,0,1,.38-1.16,1.5,1.5,0,0,1,1.61-.56c1.13.35,2.25.7,3.37,1.07.81.27,1.6.57,2.41.83,1.16.36,2.33.69,3.5,1l4.78,1.53,1.56.5,2.3.73c.95.32,1.9.66,2.86,1s1.79.52,2.68.81c1.22.4,2.42.84,3.66,1.18.15,0,.29.11.43.16a1.21,1.21,0,0,0,.31.09,7.55,7.55,0,0,0,1.9,0,2.8,2.8,0,0,0,.33-.12c-.15-.27-.14-.54-.36-.72-.44-.37-.93-.7-1.35-1.11-.23-.22-.52-.37-.77-.57-.43-.36-.83-.76-1.29-1.08-.69-.48-1.28-1.06-2-1.55s-1.18-1-1.8-1.47c-.26-.19-.48-.51-.86-.54-.33.49-.62,1-1,1.45a10.13,10.13,0,0,1-1.09,1.49l-1.12-.38a8.14,8.14,0,0,0-1.05-.36c-.73-.14-1.4-.44-2.11-.65-.87-.26-1.71-.64-2.62-.82l-.18-.05c-1.93-.7-3.88-1.31-5.84-1.89-.69-.2-1.35-.5-2-.67s-1.57-.51-2.37-.74a1.56,1.56,0,0,1-.94-.6c0-.12,0-.27-.06-.42a.8.8,0,0,1,.26-.77,2.37,2.37,0,0,1,.83-.71c.37-.42.84-.74,1.18-1.19a5.42,5.42,0,0,0,.57-.87,9.82,9.82,0,0,0,.83-3,8.08,8.08,0,0,0-.4-3.35,8.76,8.76,0,0,0-.78-1.71,17.23,17.23,0,0,0-2.26-2.9c-.16-.17-.31-.36-.49-.52s-.4-.27-.56-.43a4.19,4.19,0,0,0-.83-.74c-.32-.19-.59-.48-.9-.71s-.81-.58-1.2-.88a21.74,21.74,0,0,0-2.23-1.44,8.64,8.64,0,0,1-1.21-.73c-.67-.57-1.46-.93-2.14-1.47a1.27,1.27,0,0,0-.35-.12,2.78,2.78,0,0,0,.08.43c0,.19.13.37.18.56.23.83.45,1.67.68,2.51.2.69.45,1.36.62,2.05s.4,1.47.59,2.21c.44,1.64.92,3.27,1.33,4.92a25.89,25.89,0,0,0,.71,2.72,1.77,1.77,0,0,1,.08.31c.07.63.24,1.24.37,1.86a9.3,9.3,0,0,1,.16,1.49.9.9,0,0,1-.63.82,4.54,4.54,0,0,1-2.07-.18c-.67-.25-1.34-.51-2-.72l-10.82-3.37-8.07-2.5c-.22-.07-.44-.22-.73-.11a25.42,25.42,0,0,0,0,2.62A2.15,2.15,0,0,0,2291,175.13Zm49.91,31.46c.09-.67.2-1.33.3-2s.23-1.37.34-2.06c0-.19,0-.38.06-.59a2.32,2.32,0,0,0-.3,0l-10.07.51c0,.3,0,.52,0,.74,0,1.26,0,2.53-.08,3.8s0,2.56-.12,3.85c-.11,1.12-.06,2.26-.21,3.39-.12.95-.08,1.91-.11,2.87,0,.69-.07,1.39-.12,2.08,0,.26-.08.52-.1.77-.05.61,0,1.23-.14,1.82-.08.44-.05.87-.09,1.3-.07.72-.13,1.43-.19,2.14a10.84,10.84,0,0,1-.14,1.62c-.17.75-.09,1.52-.26,2.27-.1.42-.07.86-.14,1.29-.14.88-.3,1.76-.5,2.62a4.36,4.36,0,0,1-.77,1.78,2.57,2.57,0,0,1-3,1,21.13,21.13,0,0,1-3.08-1.25c-.3-.12-.61-.23-.91-.37l-2-1c-1-.53-2.08-1-3.08-1.58a3.32,3.32,0,0,0-.55-.22c-.17-.06-.32-.21-.55-.22a1.18,1.18,0,0,0,.36.7c.44.49.89,1,1.33,1.44a5.27,5.27,0,0,0,1,1c.05,0,.07.11.11.16l.32.4c.11.11.28.19.33.31a2.24,2.24,0,0,0,.68.78c.08.08.19.15.22.24.08.28.31.42.5.59s.27.2.31.32a2,2,0,0,0,.59.69c.1.09.23.17.27.28a1.76,1.76,0,0,0,.54.64,4,4,0,0,1,.38.44c.13.15.26.29.38.45s.33.4.47.61.28.54.43.79a11.1,11.1,0,0,1,1.19,2.51,1.83,1.83,0,0,1,0,1.2c0,.11-.09.24.07.36.56-.78,1.21-1.47,1.81-2.2.36-.42.67-.89,1-1.32s.62-.77.93-1.15.75-.9,1.11-1.36l1.49-1.92c1-1.29,2-2.56,3-3.87.42-.55.9-1.05,1.33-1.59s.68-.88,1-1.32l1.32-1.66,1.1-1.35a11.77,11.77,0,0,1,.91-1.17,1.57,1.57,0,0,0,.48-1.09,9.12,9.12,0,0,1,.22-2.33,1.2,1.2,0,0,0,0-.33l.54-14.9A8.08,8.08,0,0,1,2340.88,206.59Zm32.33,3.23a1,1,0,0,0,.39,0,5.23,5.23,0,0,0,1.88-.67,1.84,1.84,0,0,0,.9-.62,3.51,3.51,0,0,0,.46-.56,6.64,6.64,0,0,0,1.16-2.53,10.66,10.66,0,0,0,.27-2.38c0-.28-.07-.56-.1-.84a9.34,9.34,0,0,0-.78-2.74,9,9,0,0,0-1.37-2.26c-.08-.33-.43-.44-.56-.7a1.51,1.51,0,0,0-.41-.49c-.2-.18-.38-.37-.57-.55s-.55-.73-1-.91c0,0-.09-.09-.13-.14a2.42,2.42,0,0,0-.64-.55,10.14,10.14,0,0,1-.91-.71c-.35-.26-.69-.53-1.05-.76-.79-.5-1.63-.92-2.41-1.44s-1.81-1-2.72-1.5l-.61-.34c0,.07-.06.12-.05.15.21.62.41,1.23.65,1.84a6.83,6.83,0,0,1,.27.8c.08.38.21.75.32,1.12l.21.69c.1.33.19.67.29,1s.24.66.34,1c.6,2,1.19,3.93,1.79,5.89a.41.41,0,0,1,0,.19,4.28,4.28,0,0,0,.3,1.27l.81,2.62c0,.13.06.26.09.38.09.36.17.72.28,1.07a9.58,9.58,0,0,0,.42,1.17,2.28,2.28,0,0,0,.74,1A3.64,3.64,0,0,0,2373.21,209.82Zm3.86-37.28a8.25,8.25,0,0,0-.74-1.37,16.23,16.23,0,0,0-2-2.52,3.26,3.26,0,0,0-1-.91c-.1-.05-.17-.19-.26-.29s-.13-.19-.22-.23a8.19,8.19,0,0,1-1.24-.93,26.93,26.93,0,0,0-3.82-2.45c-.27-.15-.51-.33-.78-.46-.43-.19-.83-.45-1.24-.68s-.56-.3-.85-.44l-.09.1.78,2.07c.14.36.28.72.4,1.09s.26.88.39,1.32c.31,1,.64,2,.92,3.06.41,1.51.92,3,1.35,4.51a29.68,29.68,0,0,1,1,3.46,1.63,1.63,0,0,0,.13.37,1.73,1.73,0,0,1,.11.37,10.63,10.63,0,0,0,.63,2.27,4.73,4.73,0,0,0,.31.64,1.78,1.78,0,0,0,.81.75,3.25,3.25,0,0,0,2.54,0,6.2,6.2,0,0,0,1.27-.67,5,5,0,0,0,2.13-2.9,9.55,9.55,0,0,0,.33-2.12,2.36,2.36,0,0,0,0-.46c0-.41-.08-.82-.13-1.23a3.09,3.09,0,0,0-.07-.52C2377.5,173.78,2377.32,173.14,2377.07,172.54Zm44.71,17.11c-.78-.27-1.56-.54-2.35-.79-.28-.09-.59-.12-.88-.21l-2.17-.74c-.74-.25-1.49-.5-2.24-.73l-2.17-.68c-1.41-.43-2.81-.9-4.21-1.38l-1.85-.62-1.93-.6-3.66-1.18-1.55-.5c-.37-.12-.75-.21-1.12-.34s-1-.36-1.46-.53a5.54,5.54,0,0,0-.56-.11l.07,3,1,.35c1.63.54,3.29,1,4.89,1.61l.25.07,1.26.36c.43.14.86.31,1.3.45,2.2.69,4.38,1.46,6.59,2.13.52.16,1,.34,1.54.51s.84.23,1.25.38c.81.31,1.65.54,2.47.83s1.65.54,2.48.79l.5.15,2.31.71a2,2,0,0,0,.39.06v-2.91A1.12,1.12,0,0,0,2421.78,189.65ZM2267.29,254l-1,2.49h2.08Zm-38.17,6.76h122.64v-9.84H2229.12Zm97.46-4.29,1,0,1.22,0,0,.07a3.16,3.16,0,0,0-.2.59c-.38,0-.73,0-1,0s-.75,0-1.17,0l-.05-.06Q2326.49,256.72,2326.58,256.43Zm-14.73-3.11a2.29,2.29,0,0,1,1.61-.52,3.91,3.91,0,0,1,.83.09,4.46,4.46,0,0,1,.83.27,4.91,4.91,0,0,0-.12,1.14h-.29V254a.83.83,0,0,0-.08-.43,1.06,1.06,0,0,0-.46-.25,2.19,2.19,0,0,0-.77-.13,1.53,1.53,0,0,0-1,.33,1.12,1.12,0,0,0-.38.86,1,1,0,0,0,.16.57.83.83,0,0,0,.42.34,4.54,4.54,0,0,0,1.11.19,4,4,0,0,1,1.15.22,1.07,1.07,0,0,1,.48.44,1.36,1.36,0,0,1,.18.71,1.83,1.83,0,0,1-.69,1.43,2.75,2.75,0,0,1-1.86.6,3.68,3.68,0,0,1-.8-.08,4.92,4.92,0,0,1-.81-.23,9.08,9.08,0,0,0,.07-1.28h.28v.21a2,2,0,0,0,0,.49.55.55,0,0,0,.2.21,1.48,1.48,0,0,0,.54.24,2.48,2.48,0,0,0,.68.09,1.79,1.79,0,0,0,1.21-.37,1.2,1.2,0,0,0,.42-.93,1.06,1.06,0,0,0-.14-.56.88.88,0,0,0-.41-.35,3.69,3.69,0,0,0-1-.17,4.5,4.5,0,0,1-1.27-.22,1.1,1.1,0,0,1-.53-.47,1.59,1.59,0,0,1-.19-.79A1.67,1.67,0,0,1,2311.85,253.32Zm-3.12-.4,2.28,0c-.05.46-.08.91-.09,1.34h-.26l0-.54a.84.84,0,0,0-.07-.33.29.29,0,0,0-.2-.06c-.3,0-.65,0-1,0H2309c0,.42,0,.85,0,1.31v2.36a8.17,8.17,0,0,0,.06,1.45c0,.09.2.13.47.13h.31v.26l-1.24,0-1.23,0v-.26h.35a.55.55,0,0,0,.35-.07.43.43,0,0,0,.11-.28c0-.33,0-.74,0-1.25v-2.37c0-.46,0-.89,0-1.28h-.42a6,6,0,0,0-1.12.05c-.07,0-.12.16-.14.37l-.06.55h-.26v-.49c0-.2,0-.48-.05-.85Zm-9.63,5.59h.25c.29,0,.46-.05.52-.15a5.85,5.85,0,0,0,.07-1.34v-2.5a4.38,4.38,0,0,0-.08-1.23c-.05-.09-.2-.14-.46-.14h-.3v-.26l1.27,0c.39,0,.78,0,1.15,0v.26h-.18a1.09,1.09,0,0,0-.47.06.31.31,0,0,0-.12.2q0,.22,0,1.11v.94c.49,0,1.12,0,1.88,0s1.16,0,1.56,0v-.8a10,10,0,0,0,0-1.19.31.31,0,0,0-.11-.25.68.68,0,0,0-.39-.07h-.29v-.26l1.2,0,1.27,0v.26h-.31a.72.72,0,0,0-.41.07.33.33,0,0,0-.11.26c0,.12,0,.52,0,1.18V257a7.28,7.28,0,0,0,.07,1.41c0,.1.2.15.46.15h.32v.26c-.38,0-.77,0-1.18,0s-.89,0-1.29,0v-.26h.28a.74.74,0,0,0,.41-.07.42.42,0,0,0,.11-.27c0-.29,0-.7,0-1.25v-1.07c-.39,0-.88,0-1.49,0q-1.29,0-2,0V257c0,.2,0,.44,0,.7s0,.59,0,.63,0,.08.12.12a.71.71,0,0,0,.34.06h.28v.26l-1,0-1.38,0Zm-6.13-4.24a3,3,0,0,1,1.19-1.08,4.22,4.22,0,0,1,1.93-.39,4.83,4.83,0,0,1,.88.07,9.41,9.41,0,0,1,1,.24l.35.1a8.09,8.09,0,0,0-.17,1.22h-.26v-.27c0-.27,0-.43-.07-.48a2.19,2.19,0,0,0-.65-.32,3.38,3.38,0,0,0-1.23-.2,2.52,2.52,0,0,0-1.86.65,2.56,2.56,0,0,0-.7,1.88,2.9,2.9,0,0,0,.63,1.9,2.49,2.49,0,0,0,2,.91,4.14,4.14,0,0,0,1.46-.3c0-.23,0-.48,0-.74a3.23,3.23,0,0,0,0-.58c0-.06,0-.09-.06-.1a1.58,1.58,0,0,0-.43-.06l-.49,0v-.26c.64,0,1.1,0,1.41,0a4.44,4.44,0,0,0,.68,0v.2l-.29.2a4,4,0,0,0-.06.7,6.92,6.92,0,0,0,.06.86,6.54,6.54,0,0,1-1.24.34,6.88,6.88,0,0,1-1.33.13,3.59,3.59,0,0,1-1.71-.38,2.78,2.78,0,0,1-1.14-1.06,3.25,3.25,0,0,1,0-3.14Zm-3.13,4.24h.26c.26,0,.41-.06.46-.19a9.64,9.64,0,0,0,.08-1.78v-1.4a10.51,10.51,0,0,0-.07-1.82c0-.12-.17-.17-.39-.17h-.34v-.26l1.36,0q.56,0,1,0v.26h-.32c-.2,0-.32,0-.37.07s-.08.16-.09.35,0,.82,0,1.58v1.43a10,10,0,0,0,.07,1.77c.05.11.2.16.45.16h.28v.26q-.51,0-1.11,0c-.47,0-.89,0-1.27,0Zm-7.11,0h.3a.55.55,0,0,0,.35-.07.47.47,0,0,0,.11-.3c0-.3,0-.71,0-1.23v-2.06c0-.39,0-.77,0-1.14a1,1,0,0,0-.06-.33.52.52,0,0,0-.17-.16.51.51,0,0,0-.3-.07h-.26v-.26l.81,0,.65,0c.27.33.53.65.77,1s.49.63.75.95l1.42,1.74c.51.62.88,1.06,1.1,1.3v-2.66a12.61,12.61,0,0,0-.06-1.82c0-.1-.2-.17-.48-.19l-.31,0v-.26l1,0,1,0v.26h-.32c-.25,0-.4.08-.44.25a17.84,17.84,0,0,0,0,1.81v1.87c0,.5,0,1.1.07,1.8a3.83,3.83,0,0,1-.65-.13.44.44,0,0,1-.18-.13c-.3-.34-.63-.71-1-1.13l-3-3.67v2.86c0,.65,0,1.1,0,1.36a.67.67,0,0,0,.1.36.87.87,0,0,0,.4.09l.26,0v.26l-.81,0-1.17,0Zm-6.1,0h.34q.33,0,.39-.12a3.7,3.7,0,0,0,.07-1.05v-2.77a5.39,5.39,0,0,0-.07-1.28c0-.1-.17-.14-.39-.14h-.34v-.26l1.1,0,1.28,0v.26h-.33a.62.62,0,0,0-.36.08.35.35,0,0,0-.09.25c0,.13,0,.49,0,1.1v1.11h.06c.22-.18.42-.35.58-.5l.8-.81,1.18-1.21v-.29l.75,0,.69,0v.26H2282a1,1,0,0,0-.5.11,7.66,7.66,0,0,0-1,.8l-1.58,1.45,2.82,2.63.26.24a.51.51,0,0,0,.16.11l.27,0v.26l-.6,0-.59,0-2.85-2.7c-.09-.09-.15-.14-.18-.14s-.08,0-.08.16v1.26a5.42,5.42,0,0,0,0,1c0,.1.19.15.44.15h.32v.26l-1.2,0-1.18,0Zm-5.65,0h.31q.36,0,.42-.15a8.64,8.64,0,0,0,.07-1.64v-2a6.33,6.33,0,0,0-.08-1.43c0-.1-.21-.15-.5-.15H2271v-.26l1.18,0,.78,0,.86,0a3,3,0,0,1,1.08.15,1.29,1.29,0,0,1,.57.44,1.26,1.26,0,0,1,.19.68,1.44,1.44,0,0,1-.42,1,2.25,2.25,0,0,1-1.22.62c.27.38.61.84,1,1.35l.79,1a1.17,1.17,0,0,0,.28.3.28.28,0,0,0,.15,0h.1v.26l-.6,0-.49,0-1.47-2c-.27-.36-.56-.72-.87-1.06l0-.14.35,0a1.58,1.58,0,0,0,1.09-.36,1.22,1.22,0,0,0,.39-.95,1.07,1.07,0,0,0-.33-.83,1.4,1.4,0,0,0-1-.3,2.43,2.43,0,0,0-.87.16c0,.44-.05.91-.05,1.4v2a8.35,8.35,0,0,0,.07,1.62c0,.11.2.16.45.16h.33v.26l-1.14,0-1.29,0Zm-6.67,0h.12a1.17,1.17,0,0,0,.38-.06.79.79,0,0,0,.18-.26c.19-.39.39-.82.6-1.28l1.13-2.58c.31-.68.51-1.18.62-1.49h.29l2.09,4.87a4.66,4.66,0,0,0,.28.6.52.52,0,0,0,.16.14,1.29,1.29,0,0,0,.41.06v.26l-1,0-1.22,0v-.26l.41,0a.83.83,0,0,0,.26-.05.15.15,0,0,0,.07-.12,2.29,2.29,0,0,0-.13-.38l-.45-1.15h-2.4l-.28.66a3.43,3.43,0,0,0-.27.81c0,.07,0,.11.05.14a.59.59,0,0,0,.26.07l.4,0v.26c-.27,0-.56,0-.9,0s-.74,0-1,0Zm-13.19-2.08,1,0,1.21,0,0,.07a3.16,3.16,0,0,0-.2.59c-.38,0-.73,0-1,0s-.74,0-1.16,0l-.06-.06A4.32,4.32,0,0,0,2251.12,256.43Z" transform="translate(-2148.8 -132.48)"/></g></svg>